<svg width="16" height="16" viewBox="0 0 16 16" fill="none" xmlns="http://www.w3.org/2000/svg">
    <path fill-rule="evenodd" clip-rule="evenodd" d="M8.00001 2C8.41422 2 8.75001 2.33579 8.75001 2.75V7.25009H13.25C13.6642 7.25009 14 7.58588 14 8.00009C14 8.41431 13.6642 8.75009 13.25 8.75009H8.75001V13.25C8.75001 13.6642 8.41422 14 8.00001 14C7.5858 14 7.25001 13.6642 7.25001 13.25V8.75009H2.7543C2.34009 8.75009 2.0043 8.41431 2.0043 8.00009C2.0043 7.58588 2.34009 7.25009 2.7543 7.25009H7.25001V2.75C7.25001 2.33579 7.5858 2 8.00001 2Z" fill="#072D57"/>
</svg>
