<svg width="24" height="24" viewBox="0 0 24 24" fill="none" xmlns="http://www.w3.org/2000/svg">
    <path fill-rule="evenodd" clip-rule="evenodd" d="M2 4C2 2.89543 2.89543 2 4 2H20C21.1046 2 22 2.89543 22 4V6C22 7.10457 21.1046 8 20 8V14.083C19.6748 14.0284 19.3407 14 19 14C18.6593 14 18.3252 14.0284 18 14.083V8H6V20H13C13 20.7013 13.1203 21.3744 13.3414 22H6C4.89543 22 4 21.1046 4 20L4 8C2.89543 8 2 7.10457 2 6V4ZM20 4H4V6H20V4Z" fill="#072D57"/>
    <path d="M16 14.6C16 14.6987 15.9642 14.7891 15.905 14.8588C15.8364 14.9002 15.7688 14.9429 15.702 14.9869C15.6695 14.9954 15.6353 15 15.6 15H8.4C8.17909 15 8 14.8209 8 14.6V13.4C8 13.1791 8.17909 13 8.4 13H15.6C15.8209 13 16 13.1791 16 13.4V14.6Z" fill="#072D57"/>
    <path d="M8.4 16H14.5278C14.0113 16.5771 13.6048 17.2548 13.3414 18H8.4C8.17909 18 8 17.8209 8 17.6V16.4C8 16.1791 8.17909 16 8.4 16Z" fill="#072D57"/>
    <path d="M8 10.4C8 10.1791 8.17909 10 8.4 10H15.6C15.8209 10 16 10.1791 16 10.4V11.6C16 11.8209 15.8209 12 15.6 12H8.4C8.17909 12 8 11.8209 8 11.6V10.4Z" fill="#072D57"/>
    <path d="M20 18C20 17.4477 19.5523 17 19 17C18.4477 17 18 17.4477 18 18V19H17C16.4477 19 16 19.4477 16 20C16 20.5523 16.4477 21 17 21H18V22C18 22.5523 18.4477 23 19 23C19.5523 23 20 22.5523 20 22V21H21C21.5523 21 22 20.5523 22 20C22 19.4477 21.5523 19 21 19H20V18Z" fill="#072D57"/>
</svg>
