<svg width="16" height="16" viewBox="0 0 16 16" fill="none" xmlns="http://www.w3.org/2000/svg">
    <path fill-rule="evenodd" clip-rule="evenodd" d="M8.00001 4C8.41422 4 8.75001 4.33579 8.75001 4.75V7.25009H11.25C11.6642 7.25009 12 7.58588 12 8.00009C12 8.41431 11.6642 8.75009 11.25 8.75009H8.75001V11.25C8.75001 11.6642 8.41422 12 8.00001 12C7.5858 12 7.25001 11.6642 7.25001 11.25V8.75009H4.7543C4.34009 8.75009 4.0043 8.41431 4.0043 8.00009C4.0043 7.58588 4.34009 7.25009 4.7543 7.25009H7.25001V4.75C7.25001 4.33579 7.5858 4 8.00001 4Z" fill="#072D57"/>
</svg>
