<svg width="24" height="24" viewBox="0 0 24 24" fill="none" xmlns="http://www.w3.org/2000/svg">
<path fill-rule="evenodd" clip-rule="evenodd" d="M21 3H7V17H21V3ZM7 1C5.89543 1 5 1.89543 5 3V17C5 18.1046 5.89543 19 7 19H21C22.1046 19 23 18.1046 23 17V3C23 1.89543 22.1046 1 21 1H7ZM17.6332 6.72604C18.0607 7.07577 18.1237 7.70579 17.774 8.13324L13.6238 13.2056C13.0619 13.8925 12.0297 13.9439 11.4022 13.3164L9.79289 11.7071C9.40237 11.3166 9.40237 10.6834 9.79289 10.2929C10.1834 9.90237 10.8166 9.90237 11.2071 10.2929L12.4258 11.5115L16.226 6.86676C16.5758 6.43932 17.2058 6.37632 17.6332 6.72604ZM3 6C3 5.44772 2.55228 5 2 5C1.44772 5 1 5.44772 1 6V21C1 22.1046 1.89543 23 3 23H18C18.5523 23 19 22.5523 19 22C19 21.4477 18.5523 21 18 21H3V6Z" fill="#1D3F66"/>
</svg>
