<svg width="16" height="16" viewBox="0 0 16 16" fill="none" xmlns="http://www.w3.org/2000/svg">
    <path fill-rule="evenodd" clip-rule="evenodd" d="M11.5087 9.4489C11.8131 9.72985 11.8321 10.2043 11.5511 10.5087L8.5511 13.7587C8.40912 13.9125 8.20932 14 8 14C7.79067 14 7.59087 13.9125 7.44889 13.7587L4.44889 10.5087C4.16794 10.2043 4.18692 9.72985 4.49129 9.4489C4.79565 9.16794 5.27015 9.18692 5.5511 9.49129L7.25 11.3318L7.25 2.75C7.25 2.33579 7.58578 2 8 2C8.41421 2 8.75 2.33579 8.75 2.75L8.75 11.3318L10.4489 9.49129C10.7298 9.18692 11.2043 9.16794 11.5087 9.4489Z" fill="#072D57"/>
</svg>
