<svg width="16" height="16" viewBox="0 0 16 16" fill="none" xmlns="http://www.w3.org/2000/svg">
    <path fill-rule="evenodd" clip-rule="evenodd" d="M6.5511 11.5087C6.27015 11.8131 5.79566 11.8321 5.49129 11.5511L2.24129 8.5511C2.08748 8.40912 2 8.20932 2 8C2 7.79067 2.08748 7.59087 2.24129 7.44889L5.49129 4.44889C5.79566 4.16794 6.27015 4.18692 6.5511 4.49129C6.83206 4.79565 6.81308 5.27015 6.50871 5.5511L4.66824 7.25L13.25 7.25C13.6642 7.25 14 7.58578 14 8C14 8.41421 13.6642 8.75 13.25 8.75L4.66824 8.75L6.50871 10.4489C6.81308 10.7298 6.83206 11.2043 6.5511 11.5087Z" fill="#072D57"/>
</svg>
