<svg width="24" height="24" viewBox="0 0 24 24" fill="none" xmlns="http://www.w3.org/2000/svg">
<path d="M11.2929 19.7071C11.6834 20.0976 12.3166 20.0976 12.7071 19.7071L19.0711 13.3431C19.4616 12.9526 19.4616 12.3195 19.0711 11.9289C18.6805 11.5384 18.0474 11.5384 17.6569 11.9289L12 17.5858L6.34315 11.9289C5.95262 11.5384 5.31946 11.5384 4.92893 11.9289C4.53841 12.3195 4.53841 12.9526 4.92893 13.3431L11.2929 19.7071ZM13 5C13 4.44772 12.5523 4 12 4C11.4477 4 11 4.44772 11 5L13 5ZM13 19L13 5L11 5L11 19L13 19Z" fill="#072D57"/>
</svg>
