<svg width="24" height="24" viewBox="0 0 24 24" fill="none" xmlns="http://www.w3.org/2000/svg">
<path d="M4.29289 11.2929C3.90237 11.6834 3.90237 12.3166 4.29289 12.7071L10.6569 19.0711C11.0474 19.4616 11.6805 19.4616 12.0711 19.0711C12.4616 18.6805 12.4616 18.0474 12.0711 17.6569L6.41421 12L12.0711 6.34315C12.4616 5.95262 12.4616 5.31946 12.0711 4.92893C11.6805 4.53841 11.0474 4.53841 10.6569 4.92893L4.29289 11.2929ZM19 13C19.5523 13 20 12.5523 20 12C20 11.4477 19.5523 11 19 11V13ZM5 13H19V11H5V13Z" fill="#072D57"/>
</svg>
