<svg width="16" height="16" viewBox="0 0 16 16" fill="none" xmlns="http://www.w3.org/2000/svg">
    <path fill-rule="evenodd" clip-rule="evenodd" d="M4.49129 6.5511C4.18693 6.27015 4.16795 5.79566 4.4489 5.49129L7.4489 2.24129C7.59088 2.08748 7.79068 2 8 2C8.20933 2 8.40913 2.08748 8.55111 2.24129L11.5511 5.49129C11.8321 5.79565 11.8131 6.27015 11.5087 6.5511C11.2043 6.83206 10.7299 6.81308 10.4489 6.50871L8.75 4.66824L8.75 13.25C8.75 13.6642 8.41422 14 8 14C7.58579 14 7.25 13.6642 7.25 13.25L7.25 4.66824L5.55111 6.50871C5.27015 6.81308 4.79566 6.83206 4.49129 6.5511Z" fill="#072D57"/>
</svg>
