<svg width="16" height="16" viewBox="0 0 16 16" fill="none" xmlns="http://www.w3.org/2000/svg">
    <path fill-rule="evenodd" clip-rule="evenodd" d="M9.4489 4.49129C9.72985 4.18693 10.2043 4.16795 10.5087 4.4489L13.7587 7.4489C13.9125 7.59088 14 7.79068 14 8C14 8.20933 13.9125 8.40913 13.7587 8.55111L10.5087 11.5511C10.2043 11.8321 9.72985 11.8131 9.4489 11.5087C9.16794 11.2043 9.18692 10.7299 9.49129 10.4489L11.3318 8.75H2.75C2.33579 8.75 2 8.41422 2 8C2 7.58579 2.33579 7.25 2.75 7.25H11.3318L9.49129 5.55111C9.18692 5.27015 9.16794 4.79566 9.4489 4.49129Z" fill="#072D57"/>
</svg>
