<svg width="24" height="24" viewBox="0 0 24 24" fill="none" xmlns="http://www.w3.org/2000/svg">
<path fill-rule="evenodd" clip-rule="evenodd" d="M9 16.5983L9 10.4013C9 10.4009 9 10.4004 9 10.4C9 10.1791 9.17909 10 9.4 10H10.6C10.8209 10 11 10.1791 11 10.4L11 16.6C11 16.8209 10.8209 17 10.6 17H9.4C9.17909 17 9 16.8209 9 16.6C9 16.5996 9 16.5987 9 16.5983C9 16.5984 9 16.5981 9 16.5983ZM3.4 19C3.17909 19 3 19.1791 3 19.4V20.6C3 20.8209 3.17909 21 3.4 21H20.6C20.8209 21 21 20.8209 21 20.6V19.4C21 19.1791 20.8209 19 20.6 19H3.4ZM13.4 17H14.6C14.8209 17 15 16.8209 15 16.6L15 10.4018C15 10.4012 15 10.4006 15 10.4C15 10.1791 14.8209 10 14.6 10H13.4C13.1791 10 13 10.1791 13 10.4L13 16.5983C13 16.5989 13 16.5994 13 16.6C13 16.8209 13.1791 17 13.4 17ZM20.6 8.00003C20.8209 8.00003 21 7.82095 21 7.60003V6.23539C21 6.09013 20.9212 5.95628 20.7943 5.88573L12.1943 1.10795C12.0734 1.04084 11.9266 1.04084 11.8057 1.10795L3.20574 5.88573C3.07876 5.95628 3 6.09013 3 6.23539V7.60003C3 7.82095 3.17909 8.00003 3.4 8.00003H20.6ZM6.6 10H5.4C5.17909 10 5 10.1791 5 10.4L5 16.5985C5 16.599 5 16.5995 5 16.6C5 16.8209 5.17909 17 5.4 17H6.6C6.82091 17 7 16.8209 7 16.6L7 10.4013C7 10.4009 7 10.4004 7 10.4C7 10.1791 6.82091 10 6.6 10ZM18.6 17C18.8209 17 19 16.8209 19 16.6V10.4C19 10.1791 18.8209 10 18.6 10H17.4C17.1791 10 17 10.1791 17 10.4L17 16.5983C17 16.5989 17 16.5994 17 16.6C17 16.8209 17.1791 17 17.4 17H18.6ZM16.8817 6.00003L12 3.28795L7.11825 6.00003H16.8817Z" fill="#072D57"/>
</svg>
