<svg width="24" height="24" viewBox="0 0 24 24" fill="none" xmlns="http://www.w3.org/2000/svg">
<path clip-rule="evenodd" d="M7 8H5V21H13V23H5C3.89543 23 3 22.1046 3 21V8C3 6.89543 3.89543 6 5 6H7.10002C7.56329 3.71776 9.58104 2 12 2C14.419 2 16.4367 3.71776 16.9 6H19C20.1046 6 21 6.89543 21 8V15H19V8H17V10C17 10.5523 16.5523 11 16 11C15.4477 11 15 10.5523 15 10V8H9V10C9 10.5523 8.55228 11 8 11C7.44772 11 7 10.5523 7 10V8ZM9.17071 6H14.8293C14.4175 4.83481 13.3062 4 12 4C10.6938 4 9.58254 4.83481 9.17071 6ZM18 17C17.4477 17 17 17.4477 17 18V19H16C15.4477 19 15 19.4477 15 20C15 20.5523 15.4477 21 16 21H17V22C17 22.5523 17.4477 23 18 23C18.5523 23 19 22.5523 19 22V21H20C20.5523 21 21 20.5523 21 20C21 19.4477 20.5523 19 20 19H19V18C19 17.4477 18.5523 17 18 17Z" fill="#1D3F66"/>
</svg>
