<svg width="24" height="24" viewBox="0 0 24 24" fill="none" xmlns="http://www.w3.org/2000/svg">
<path clip-rule="evenodd" d="M12.114 21C12.3769 21.0001 12.6372 20.9488 12.8801 20.8491C13.1231 20.7494 13.3437 20.6034 13.5297 20.4191C13.7155 20.235 13.863 20.0162 13.9636 19.7755C14.0642 19.5349 14.1159 19.2769 14.1159 19.0164L10.1113 19.0157C10.1112 19.2763 10.1629 19.5344 10.2635 19.7753C10.3641 20.016 10.5116 20.2349 10.6975 20.4191C10.8836 20.6035 11.1043 20.7496 11.3474 20.8493C11.5904 20.9489 11.8509 21.0002 12.114 21ZM6.95244 9.01823V10.0349C6.95244 11.1316 6.67151 12.8558 6.3191 13.9034L5.25198 17.0769C5.0772 17.5979 5.38643 18.0291 5.9483 18.0291H18.0574C18.6193 18.0277 18.9313 17.6021 18.753 17.0762L17.6873 13.9027C17.3377 12.8635 17.0547 11.1358 17.054 10.0342L17.0533 9.01683C17.0533 7.86241 16.6507 6.74345 15.9136 5.84948C15.1764 4.9555 14.1501 4.34146 13.0084 4.11137C13.0236 3.97555 13.0105 3.83809 12.9699 3.70747C12.9295 3.57684 12.8625 3.45581 12.773 3.35182C12.6835 3.24783 12.5735 3.16308 12.4498 3.10278C12.326 3.04248 12.1912 3.00791 12.0534 3.00121C11.9157 2.9945 11.7779 3.01579 11.6489 3.06377C11.5198 3.11174 11.4019 3.1854 11.3026 3.2802C11.2032 3.37499 11.1246 3.48893 11.0713 3.61498C11.0181 3.74105 10.9915 3.87656 10.9931 4.0132C10.9945 4.04685 10.9952 4.07981 10.9995 4.11206C10.0267 4.30733 9.13373 4.78245 8.43211 5.47797C7.96234 5.94233 7.58975 6.49406 7.33571 7.10147C7.08166 7.70888 6.95188 8.36073 6.95244 9.01823Z" fill="#1D3F66"/>
</svg>
