<svg width="24" height="24" viewBox="0 0 24 24" fill="none" xmlns="http://www.w3.org/2000/svg">
<path clip-rule="evenodd" d="M7.5 3C7.22386 3 7 3.22386 7 3.5V5H6H3.5C3.22386 5 3 5.22386 3 5.5V6.5C3 6.77614 3.22386 7 3.5 7H5V20C5 20.5523 5.44772 21 6 21H18C18.5523 21 19 20.5523 19 20V7H20.5C20.7761 7 21 6.77614 21 6.5V5.5C21 5.22386 20.7761 5 20.5 5H18H17V3.5C17 3.22386 16.7761 3 16.5 3H7.5ZM7 7H17V19H7V7ZM9 9.5C9 9.22386 9.22386 9 9.5 9H10.5C10.7761 9 11 9.22386 11 9.5V16.5C11 16.7761 10.7761 17 10.5 17H9.5C9.22386 17 9 16.7761 9 16.5V9.5ZM13.5 9C13.2239 9 13 9.22386 13 9.5V16.5C13 16.7761 13.2239 17 13.5 17H14.5C14.7761 17 15 16.7761 15 16.5V9.5C15 9.22386 14.7761 9 14.5 9H13.5Z" fill="#1D3F66"/>
</svg>
