<svg width="24" height="24" viewBox="0 0 24 24" fill="none" xmlns="http://www.w3.org/2000/svg">
    <path fill-rule="evenodd" clip-rule="evenodd" d="M5 16C5 16.5523 5.44772 17 6 17H11C11.5523 17 12 17.4477 12 18C12 18.5523 11.5523 19 11 19H5C3.9 19 3 18.1 3 17V7C3 5.9 3.9 5 5 5H19C20.1 5 21 5.9 21 7V11C21 11.5523 20.5523 12 20 12C19.4477 12 19 11.5523 19 11V8.75282L14.166 13.586C13.8765 13.8757 13.5328 14.1056 13.1544 14.2624C12.7761 14.4192 12.3706 14.4999 11.961 14.4999C11.5514 14.4999 11.1459 14.4192 10.7676 14.2624C10.3892 14.1056 10.0455 13.8757 9.756 13.586L5 8.83081V16ZM5.99791 7L11.169 12.172C11.2729 12.276 11.3963 12.3585 11.5321 12.4147C11.6679 12.471 11.8135 12.5 11.9605 12.5C12.1075 12.5 12.2531 12.471 12.3889 12.4147C12.5247 12.3585 12.6481 12.276 12.752 12.172L17.924 7H5.99791ZM20.8717 16.3067L16.3067 20.8717C16.9433 21.2475 17.6868 21.401 18.4203 21.308C19.1537 21.2151 19.8354 20.8809 20.3582 20.3582C20.8809 19.8354 21.2151 19.1537 21.308 18.4203C21.401 17.6868 21.2475 16.9433 20.8717 16.3067ZM14.692 17.5797C14.599 18.3132 14.7525 19.0567 15.1283 19.6933L19.6933 15.1283C19.0567 14.7525 18.3132 14.599 17.5797 14.692C16.8463 14.7849 16.1646 15.1191 15.6418 15.6418C15.1191 16.1646 14.7849 16.8463 14.692 17.5797ZM19.9134 22.6194C19.3068 22.8707 18.6566 23 18 23C16.6739 23 15.4021 22.4732 14.4645 21.5355C13.5268 20.5979 13 19.3261 13 18C13 16.6739 13.5268 15.4021 14.4645 14.4645C15.4021 13.5268 16.6739 13 18 13C18.6566 13 19.3068 13.1293 19.9134 13.3806C20.52 13.6319 21.0712 14.0002 21.5355 14.4645C21.9998 14.9288 22.3681 15.48 22.6194 16.0866C22.8707 16.6932 23 17.3434 23 18C23 18.6566 22.8707 19.3068 22.6194 19.9134C22.3681 20.52 21.9998 21.0712 21.5355 21.5355C21.0712 21.9998 20.52 22.3681 19.9134 22.6194Z" fill="#072D57"/>
</svg>
