<svg width="24" height="24" viewBox="0 0 24 24" fill="none" xmlns="http://www.w3.org/2000/svg">
<path d="M19 2.00977H6C4.794 2.00977 3 2.80877 3 5.00977V19.0098C3 21.2108 4.794 22.0098 6 22.0098H21V20.0098H6.012C5.55 19.9978 5 19.8148 5 19.0098C5 18.9088 5.009 18.8188 5.024 18.7368C5.136 18.1618 5.607 18.0198 6.011 18.0098H20C20.018 18.0098 20.031 18.0008 20.049 17.9998H21V4.00977C21 2.90677 20.103 2.00977 19 2.00977ZM19 16.0098H5V5.00977C5 4.20377 5.55 4.02177 6 4.00977H13V11.0098L15 10.0098L17 11.0098V4.00977H19V16.0098Z" fill="#072D57"/>
</svg>
