<svg width="24" height="24" viewBox="0 0 24 24" fill="none" xmlns="http://www.w3.org/2000/svg">
<path d="M5.9375 2H19.0625C19.3111 2 19.5496 2.10207 19.7254 2.28376C19.9012 2.46545 20 2.71187 20 2.96882V21.515C20.0001 21.6016 19.9777 21.6867 19.9352 21.7613C19.8927 21.836 19.8316 21.8975 19.7583 21.9394C19.6849 21.9814 19.6021 22.0022 19.5183 21.9998C19.4345 21.9974 19.3528 21.9718 19.2819 21.9258L12.5 17.5302L5.71812 21.9248C5.64722 21.9708 5.56568 21.9964 5.48197 21.9988C5.39827 22.0013 5.31546 21.9805 5.24215 21.9387C5.16885 21.8968 5.10773 21.8355 5.06514 21.761C5.02256 21.6865 5.00006 21.6015 5 21.515V2.96882C5 2.71187 5.09877 2.46545 5.27459 2.28376C5.4504 2.10207 5.68886 2 5.9375 2Z" fill="#1D3F66"/>
</svg>
