<svg width="24" height="24" viewBox="0 0 24 24" fill="none" xmlns="http://www.w3.org/2000/svg">
<path d="M17.5044 2H6.49568C5.43478 2 4.57166 2.86313 4.57166 3.92402V20.076C4.57166 21.1369 5.43478 22 6.49568 22H17.5044C18.5653 22 19.4284 21.1369 19.4284 20.076V3.92402C19.4284 2.86313 18.5653 2 17.5044 2ZM7.20873 5.32406C7.20873 5.00047 7.47107 4.73813 7.79466 4.73813H16.2053C16.5289 4.73813 16.7913 5.00047 16.7913 5.32406V6.48102C16.7913 6.80461 16.5289 7.06695 16.2053 7.06695H7.79466C7.47107 7.06695 7.20873 6.80461 7.20873 6.48102V5.32406ZM9.18142 18.4811C9.18142 18.8047 8.91908 19.067 8.59548 19.067H7.7947C7.47111 19.067 7.20876 18.8047 7.20876 18.4811V17.9259C7.20876 17.6023 7.47111 17.34 7.7947 17.34H8.59548C8.91908 17.34 9.18142 17.6023 9.18142 17.9259V18.4811ZM9.18142 15.0135C9.18142 15.3371 8.91908 15.5995 8.59548 15.5995H7.7947C7.47111 15.5995 7.20876 15.3371 7.20876 15.0135V14.4584C7.20876 14.1348 7.47111 13.8724 7.7947 13.8724H8.59548C8.91908 13.8724 9.18142 14.1348 9.18142 14.4584V15.0135ZM13.0344 18.4811C13.0344 18.8047 12.772 19.067 12.4484 19.067H11.6476C11.324 19.067 11.0617 18.8047 11.0617 18.4811V17.9259C11.0617 17.6023 11.324 17.34 11.6476 17.34H12.4484C12.772 17.34 13.0344 17.6023 13.0344 17.9259V18.4811ZM13.0344 15.0135C13.0344 15.3371 12.772 15.5995 12.4484 15.5995H11.6476C11.324 15.5995 11.0617 15.3371 11.0617 15.0135V14.4584C11.0617 14.1348 11.324 13.8724 11.6476 13.8724H12.4484C12.772 13.8724 13.0344 14.1348 13.0344 14.4584V15.0135ZM13.0344 11.5459C13.0344 11.8695 12.772 12.1318 12.4484 12.1318H7.79466C7.47107 12.1318 7.20873 11.8695 7.20873 11.5459V10.9907C7.20873 10.6671 7.47107 10.4048 7.79466 10.4048H12.4484C12.772 10.4048 13.0344 10.6671 13.0344 10.9907V11.5459ZM16.8873 18.4811C16.8873 18.8047 16.6249 19.067 16.3013 19.067H15.5006C15.177 19.067 14.9146 18.8047 14.9146 18.4811V17.9259C14.9146 17.6023 15.177 17.34 15.5006 17.34H16.3013C16.6249 17.34 16.8873 17.6023 16.8873 17.9259V18.4811ZM16.8873 15.0135C16.8873 15.3371 16.6249 15.5995 16.3013 15.5995H15.5006C15.177 15.5995 14.9146 15.3371 14.9146 15.0135V14.4584C14.9146 14.1348 15.177 13.8724 15.5006 13.8724H16.3013C16.6249 13.8724 16.8873 14.1348 16.8873 14.4584V15.0135ZM16.8873 11.5459C16.8873 11.8695 16.6249 12.1318 16.3013 12.1318H15.5006C15.177 12.1318 14.9146 11.8695 14.9146 11.5459V10.9907C14.9146 10.6671 15.177 10.4048 15.5006 10.4048H16.3013C16.6249 10.4048 16.8873 10.6671 16.8873 10.9907V11.5459Z" fill="#1D3F66"/>
</svg>
