<svg width="24" height="24" viewBox="0 0 24 24" fill="none" xmlns="http://www.w3.org/2000/svg">
<path d="M1.01053 2C0.453948 2 0 2.44922 0 3C0 3.55078 0.453948 4 1.01053 4H3.25263L5.90526 14.5C6.13026 15.3906 6.93553 16 7.86316 16H19.4526C20.3645 16 21.1382 15.4023 21.3789 14.5312L23.6521 6.26515C23.8272 5.62854 23.3481 5 22.6879 5H8.35773C7.70614 5 7.2286 5.61319 7.38819 6.24494C7.50036 6.68893 7.89979 7 8.35773 7H21.3789L19.4526 14H7.86316L5.21053 3.5C4.98553 2.60938 4.18026 2 3.25263 2H1.01053ZM18.1895 16C16.5276 16 15.1579 17.3555 15.1579 19C15.1579 20.6445 16.5276 22 18.1895 22C19.8513 22 21.2211 20.6445 21.2211 19C21.2211 17.3555 19.8513 16 18.1895 16ZM9.09474 16C7.4329 16 6.06316 17.3555 6.06316 19C6.06316 20.6445 7.4329 22 9.09474 22C10.7566 22 12.1263 20.6445 12.1263 19C12.1263 17.3555 10.7566 16 9.09474 16ZM9.09474 18C9.66316 18 10.1053 18.4375 10.1053 19C10.1053 19.5625 9.66316 20 9.09474 20C8.52632 20 8.08421 19.5625 8.08421 19C8.08421 18.4375 8.52632 18 9.09474 18ZM18.1895 18C18.7579 18 19.2 18.4375 19.2 19C19.2 19.5625 18.7579 20 18.1895 20C17.6211 20 17.1789 19.5625 17.1789 19C17.1789 18.4375 17.6211 18 18.1895 18Z" fill="#1D3F66"/>
</svg>
