<svg width="24" height="24" viewBox="0 0 24 24" fill="none" xmlns="http://www.w3.org/2000/svg">
<path fill-rule="evenodd" clip-rule="evenodd" d="M12.8321 3.35275C12.3282 3.01686 11.6718 3.01685 11.1679 3.35275L9 4.79805L7.33205 3.68609C6.33522 3.02153 5 3.73612 5 4.93416V15.9999H4.5C3.67157 15.9999 3 16.6715 3 17.4999V21.9999H5V18.9999H6H18H19V21.9999H21V17.4999C21 16.6715 20.3284 15.9999 19.5 15.9999H19V4.93416C19 3.73612 17.6648 3.02153 16.6679 3.68609L15 4.79805L12.8321 3.35275ZM9.83205 6.64706L12 5.20176L14.1679 6.64706C14.6718 6.98295 15.3282 6.98295 15.8321 6.64706L17 5.86842V16.9999H7V5.86842L8.16795 6.64706C8.6718 6.98295 9.3282 6.98295 9.83205 6.64706ZM15 9.99991V11.9999H9V9.99991H15ZM15 14.9999V12.9999H9V14.9999H15Z" fill="#072D57"/>
</svg>
