<svg width="24" height="24" viewBox="0 0 24 24" fill="none" xmlns="http://www.w3.org/2000/svg">
<path clip-rule="evenodd" d="M12.5197 2.13806C12.1897 1.98718 11.8103 1.98718 11.4803 2.13806L9.5 3.04334L7.7697 2.25235C6.94183 1.87389 6 2.47891 6 3.38919V7.00002H4.90421C4.1969 7.00002 3.58571 7.49412 3.4375 8.18573L2.0333 14.7387C2.01116 14.842 2 14.9473 2 15.053V20.5C2 21.3284 2.67157 22 3.5 22H20.5C21.3284 22 22 21.3284 22 20.5V15.053C22 14.9473 21.9888 14.842 21.9667 14.7387L20.5625 8.18573C20.4143 7.49412 19.8031 7.00002 19.0958 7.00002H18V3.38919C18 2.47892 17.0582 1.87389 16.2303 2.25234L14.5 3.04334L12.5197 2.13806ZM8 9.00002V7.00002V4.5567L8.9803 5.00483C9.31034 5.15571 9.68966 5.15571 10.0197 5.00483L12 4.09955L13.9803 5.00483C14.3103 5.15571 14.6897 5.15571 15.0197 5.00483L16 4.5567V7.00002V9.00002V10H8V9.00002ZM18 12V11V9.00002H18.6916L20 15.106V16H4V15.106L5.30842 9.00002H6V11V12H7H17H18ZM4 20V18H20V20H4ZM8.5 13C8.22386 13 8 13.2239 8 13.5V14.5C8 14.7762 8.22386 15 8.5 15H9.5C9.77614 15 10 14.7762 10 14.5V13.5C10 13.2239 9.77614 13 9.5 13H8.5ZM11 13.5C11 13.2239 11.2239 13 11.5 13H12.5C12.7761 13 13 13.2239 13 13.5V14.5C13 14.7762 12.7761 15 12.5 15H11.5C11.2239 15 11 14.7762 11 14.5V13.5ZM14.5 13C14.2239 13 14 13.2239 14 13.5V14.5C14 14.7762 14.2239 15 14.5 15H15.5C15.7761 15 16 14.7762 16 14.5V13.5C16 13.2239 15.7761 13 15.5 13H14.5Z" fill="#1D3F66"/>
</svg>
