<svg width="24" height="24" viewBox="0 0 24 24" fill="none" xmlns="http://www.w3.org/2000/svg">
    <path fill-rule="evenodd" clip-rule="evenodd" d="M9.88371 5.05577C10.9465 3.64808 13.0535 3.64808 14.1163 5.05577C14.2552 5.23979 14.4822 5.33422 14.71 5.30276C16.4526 5.06212 17.9425 6.55852 17.7029 8.30867C17.6716 8.53746 17.7656 8.76542 17.9488 8.90495C19.3504 9.97234 19.3504 12.0886 17.9488 13.156C17.7656 13.2955 17.6716 13.5234 17.7029 13.7522C17.9425 15.5024 16.4526 16.9988 14.71 16.7581C14.4822 16.7267 14.2552 16.8211 14.1163 17.0051C13.0535 18.4128 10.9465 18.4128 9.88371 17.0051C9.74478 16.8211 9.5178 16.7267 9.29001 16.7581C7.54744 16.9988 6.05752 15.5024 6.29712 13.7522C6.32844 13.5234 6.23442 13.2955 6.0512 13.156C4.6496 12.0886 4.6496 9.97234 6.0512 8.90495C6.23442 8.76542 6.32844 8.53746 6.29712 8.30867C6.05752 6.55852 7.54744 5.06212 9.29001 5.30276C9.5178 5.33422 9.74478 5.23979 9.88371 5.05577ZM12.507 6.28131C12.2524 5.94405 11.7476 5.94405 11.493 6.28131C10.9131 7.0494 9.96572 7.44352 9.01492 7.31222C8.59743 7.25457 8.24047 7.61308 8.29787 8.03238C8.4286 8.98732 8.03619 9.93882 7.27143 10.5212C6.93563 10.7769 6.93563 11.284 7.27143 11.5397C8.03619 12.1221 8.4286 13.0736 8.29787 14.0285C8.24047 14.4478 8.59743 14.8063 9.01492 14.7487C9.96572 14.6174 10.9131 15.0115 11.493 15.7796C11.7476 16.1168 12.2524 16.1168 12.507 15.7796C13.0869 15.0115 14.0343 14.6174 14.9851 14.7487C15.4026 14.8063 15.7595 14.4478 15.7021 14.0285C15.5714 13.0736 15.9638 12.1221 16.7286 11.5397C17.0644 11.284 17.0644 10.7769 16.7286 10.5212C15.9638 9.93882 15.5714 8.98732 15.7021 8.03238C15.7595 7.61308 15.4026 7.25457 14.9851 7.31222C14.0343 7.44352 13.0869 7.0494 12.507 6.28131Z" fill="#072D57"/>
    <path d="M8.55991 15.0872L11.1834 16.6085L8.65894 21L7.85208 19.3611L6.03543 19.4787L8.55991 15.0872Z" fill="#072D57"/>
    <path d="M15.7275 15.0872L13.104 16.6085L15.6285 21L16.4354 19.3611L18.252 19.4787L15.7275 15.0872Z" fill="#072D57"/>
</svg>

