<svg width="24" height="24" viewBox="0 0 24 24" fill="none" xmlns="http://www.w3.org/2000/svg">
    <path fill-rule="evenodd" clip-rule="evenodd" d="M19.005 15C19.005 15 5 14.998 5 14.991C5 14.991 5.00101 5 4.99501 5C4.99501 5 19 5.002 19 5.009C19 5.009 18.999 15 19.005 15ZM4.99501 3C3.89301 3 3.00001 3.899 3.00001 5.01V14.991C2.99868 15.5218 3.20799 16.0315 3.58201 16.4081C3.95603 16.7847 4.46421 16.9976 4.99501 17H19.005C20.107 17 21 16.101 21 14.991V5.009C21 3.902 20.107 3 19.005 3H4.99501ZM15.994 21C17.1 21 17.995 20.105 18 19H6C6.00238 19.5307 6.21468 20.039 6.59054 20.4137C6.96639 20.7884 7.47526 20.9992 8.006 21H15.994ZM11.974 12.3312C11.615 12.6912 11.034 12.6912 10.674 12.3312L9.26798 10.9262C9.10701 10.7516 9.0198 10.5214 9.02463 10.2839C9.02947 10.0465 9.12596 9.82007 9.2939 9.65212C9.46186 9.48417 9.68827 9.38768 9.92573 9.38285C10.1632 9.37802 10.3934 9.46522 10.568 9.6262L11.323 10.3802L13.431 8.2702C13.6058 8.11142 13.835 8.02596 14.0711 8.0315C14.3072 8.03703 14.5321 8.13315 14.6993 8.29995C14.8665 8.46675 14.9631 8.69146 14.9692 8.92754C14.9753 9.16363 14.8904 9.39301 14.732 9.5682L11.974 12.3312Z" fill="#072D57"/>
</svg>
