<svg width="24" height="24" viewBox="0 0 24 24" fill="none" xmlns="http://www.w3.org/2000/svg">
<path clip-rule="evenodd" d="M8.29201 13.7061C8.1052 13.5172 8.00043 13.2622 8.00043 12.9966C8.00043 12.7309 8.1052 12.476 8.29201 12.2871L11.231 9.32208C11.449 9.10708 11.731 9.00008 12.01 9.00008C12.289 9.00008 12.566 9.10708 12.779 9.32208L15.709 12.2771C15.8956 12.4661 16.0002 12.721 16.0002 12.9866C16.0002 13.2522 15.8956 13.5071 15.709 13.6961C15.6172 13.7893 15.5077 13.8633 15.387 13.9138C15.2664 13.9643 15.1368 13.9903 15.006 13.9903C14.8752 13.9903 14.7457 13.9643 14.625 13.9138C14.5043 13.8633 14.3948 13.7893 14.303 13.6961L12.005 11.3791L9.69801 13.7061C9.60597 13.7989 9.49646 13.8726 9.3758 13.9229C9.25514 13.9731 9.12572 13.999 8.99501 13.999C8.86429 13.999 8.73487 13.9731 8.61421 13.9229C8.49355 13.8726 8.38404 13.7989 8.29201 13.7061Z" fill="#1D3F66"/>
</svg>
