<svg width="24" height="24" viewBox="0 0 24 24" fill="none" xmlns="http://www.w3.org/2000/svg">
<path clip-rule="evenodd" d="M9.7938 16.2079C9.98269 16.3947 10.2376 16.4995 10.5033 16.4995C10.769 16.4995 11.0239 16.3947 11.2128 16.2079L14.1778 13.2689C14.3928 13.0509 14.4998 12.7689 14.4998 12.4899C14.4998 12.2109 14.3928 11.9339 14.1778 11.7209L11.2228 8.79093C11.0338 8.60437 10.7789 8.49976 10.5133 8.49976C10.2477 8.49976 9.99281 8.60437 9.8038 8.79093C9.71061 8.88276 9.63661 8.9922 9.58611 9.11289C9.5356 9.23358 9.50959 9.3631 9.50959 9.49393C9.50959 9.62476 9.5356 9.75429 9.58611 9.87497C9.63661 9.99566 9.71061 10.1051 9.8038 10.1969L12.1208 12.4949L9.7938 14.8019C9.70097 14.894 9.6273 15.0035 9.57702 15.1241C9.52674 15.2448 9.50085 15.3742 9.50085 15.5049C9.50085 15.6356 9.52674 15.7651 9.57702 15.8857C9.6273 16.0064 9.70097 16.1159 9.7938 16.2079Z" fill="#1D3F66"/>
</svg>
