<svg width="24" height="24" viewBox="0 0 24 24" fill="none" xmlns="http://www.w3.org/2000/svg">
<path clip-rule="evenodd" d="M14.2069 16.2079C14.018 16.3947 13.763 16.4995 13.4974 16.4995C13.2317 16.4995 12.9768 16.3947 12.7879 16.2079L9.82288 13.2689C9.60788 13.0509 9.50088 12.7689 9.50088 12.4899C9.50088 12.2109 9.60788 11.9339 9.82288 11.7209L12.7779 8.79093C12.9669 8.60437 13.2218 8.49976 13.4874 8.49976C13.753 8.49976 14.0079 8.60437 14.1969 8.79093C14.2901 8.88276 14.3641 8.9922 14.4146 9.11289C14.4651 9.23358 14.4911 9.3631 14.4911 9.49393C14.4911 9.62476 14.4651 9.75429 14.4146 9.87497C14.3641 9.99566 14.2901 10.1051 14.1969 10.1969L11.8799 12.4949L14.2069 14.8019C14.2997 14.894 14.3734 15.0035 14.4237 15.1241C14.4739 15.2448 14.4998 15.3742 14.4998 15.5049C14.4998 15.6356 14.4739 15.7651 14.4237 15.8857C14.3734 16.0064 14.2997 16.1159 14.2069 16.2079Z" fill="#1D3F66"/>
<path clip-rule="evenodd" d="M14.2069 16.2079C14.018 16.3947 13.763 16.4995 13.4974 16.4995C13.2317 16.4995 12.9768 16.3947 12.7879 16.2079L9.82288 13.2689C9.60788 13.0509 9.50088 12.7689 9.50088 12.4899C9.50088 12.2109 9.60788 11.9339 9.82288 11.7209L12.7779 8.79093C12.9669 8.60437 13.2218 8.49976 13.4874 8.49976C13.753 8.49976 14.0079 8.60437 14.1969 8.79093C14.2901 8.88276 14.3641 8.9922 14.4146 9.11289C14.4651 9.23358 14.4911 9.3631 14.4911 9.49393C14.4911 9.62476 14.4651 9.75429 14.4146 9.87497C14.3641 9.99566 14.2901 10.1051 14.1969 10.1969L11.8799 12.4949L14.2069 14.8019C14.2997 14.894 14.3734 15.0035 14.4237 15.1241C14.4739 15.2448 14.4998 15.3742 14.4998 15.5049C14.4998 15.6356 14.4739 15.7651 14.4237 15.8857C14.3734 16.0064 14.2997 16.1159 14.2069 16.2079Z" fill="#1D3F66"/>
</svg>
