<svg width="24" height="24" viewBox="0 0 24 24" fill="none" xmlns="http://www.w3.org/2000/svg">
<path fill-rule="evenodd" clip-rule="evenodd" d="M12 22C17.5228 22 22 17.5228 22 12C22 6.47715 17.5228 2 12 2C6.47715 2 2 6.47715 2 12C2 17.5228 6.47715 22 12 22ZM15 14.2151C14.9999 14.0072 14.9173 13.8079 14.7703 13.661L13.1083 11.999L14.7703 10.337C14.843 10.2642 14.9008 10.1779 14.9401 10.0828C14.9795 9.98775 14.9998 9.88587 14.9998 9.78299C14.9998 9.6801 14.9795 9.57822 14.9401 9.48316C14.9008 9.38811 14.843 9.30174 14.7703 9.22899C14.6975 9.15623 14.6112 9.09852 14.5161 9.05915C14.4211 9.01978 14.3192 8.99951 14.2163 8.99951C14.1134 8.99951 14.0115 9.01978 13.9165 9.05915C13.8214 9.09852 13.735 9.15623 13.6623 9.22899L12.0003 10.891L10.3376 9.22899C10.1889 9.09082 9.99249 9.0157 9.78956 9.01942C9.58664 9.02313 9.39306 9.1054 9.24955 9.24891C9.10603 9.39243 9.02377 9.586 9.02005 9.78893C9.01633 9.99185 9.09146 10.1883 9.22962 10.337L10.8916 11.999L9.22962 13.661C9.08262 13.808 9.00003 14.0074 9.00003 14.2153C9.00003 14.4232 9.08262 14.6226 9.22962 14.7697C9.30223 14.8427 9.38855 14.9006 9.48363 14.9401C9.5787 14.9797 9.68065 15 9.78362 15C9.88659 15 9.98854 14.9797 10.0836 14.9401C10.1787 14.9006 10.265 14.8427 10.3376 14.7697L12.0003 13.107L13.6623 14.7697C13.8093 14.9166 14.0087 14.9991 14.2165 14.999C14.4244 14.999 14.6237 14.9163 14.7706 14.7693C14.9176 14.6223 15.0001 14.4229 15 14.2151Z" fill="#F24646"/>
</svg>
