<svg width="24" height="24" viewBox="0 0 24 24" fill="none" xmlns="http://www.w3.org/2000/svg">
<path fill-rule="evenodd" clip-rule="evenodd" d="M18.6706 21C19.9571 21 21 19.9518 21 18.6586V5.34137C21 4.04826 19.9571 3 18.6706 3H5.32943C4.04291 3 3 4.04826 3 5.34137V18.6586C3 19.9518 4.04291 21 5.32943 21H18.6706ZM11.9911 6.39126C10.4054 6.39126 9.11992 7.68335 9.11992 9.27716C9.11992 10.871 10.4054 12.1632 11.9911 12.1632C13.5768 12.1632 14.8623 10.871 14.8623 9.27716C14.8623 7.68335 13.5768 6.39126 11.9911 6.39126ZM11.9911 10.4702C11.3356 10.4702 10.8042 9.93605 10.8042 9.2772C10.8042 8.61836 11.3356 8.08424 11.9911 8.08424C12.6466 8.08424 13.178 8.61836 13.178 9.2772C13.178 9.93605 12.6466 10.4702 11.9911 10.4702ZM13.0048 14.4595C14.1542 14.2241 14.843 13.677 14.8795 13.6476C15.2158 13.3765 15.2699 12.8827 15.0001 12.5445C14.7304 12.2065 14.2391 12.1522 13.9027 12.4233C13.8956 12.429 13.1609 12.9955 11.9521 12.9963C10.7434 12.9955 9.9932 12.429 9.98609 12.4233C9.64966 12.1522 9.15837 12.2065 8.88866 12.5445C8.61892 12.8827 8.67295 13.3765 9.0093 13.6476C9.04624 13.6774 9.76348 14.2388 10.9451 14.4686L9.29827 16.1986C8.99899 16.5105 9.00798 17.0073 9.31837 17.3081C9.46986 17.4549 9.66511 17.5279 9.8602 17.5279C10.0647 17.5279 10.2691 17.4476 10.4222 17.2879L11.9522 15.6497L13.6366 17.2985C13.9418 17.6048 14.4361 17.6043 14.7407 17.2976C15.0453 16.9909 15.0449 16.4941 14.7398 16.1879L13.0048 14.4595Z" fill="#072D57"/>
</svg>
