<svg width="24" height="24" viewBox="0 0 24 24" fill="none" xmlns="http://www.w3.org/2000/svg">
<path d="M10.586 4.00008L9.46449 2.87919C9.07379 2.48869 9.07396 1.85512 9.46455 1.46452C9.85511 1.07397 10.4886 1.07375 10.8791 1.46435L13.7071 4.29306C14.0976 4.68356 14.0976 5.3166 13.7071 5.7071L10.8791 8.53581C10.4886 8.92641 9.85511 8.92619 9.46455 8.53563C9.07396 8.14504 9.07379 7.51147 9.46449 7.12097L10.586 6.00008H8C7.20435 6.00008 6.44129 6.31615 5.87868 6.87876C5.31607 7.44137 5 8.20443 5 9.00008V12.0001C5 12.5524 4.55228 13.0001 4 13.0001C3.44772 13.0001 3 12.5524 3 12.0001V9.00008C3 7.674 3.52678 6.40223 4.46447 5.46455C5.40215 4.52686 6.67392 4.00008 8 4.00008H10.586ZM9 11.0001C9 10.7349 9.10536 10.4805 9.29289 10.293C9.48043 10.1054 9.73478 10.0001 10 10.0001H20C20.2652 10.0001 20.5196 10.1054 20.7071 10.293C20.8946 10.4805 21 10.7349 21 11.0001V21.0001C21 21.2653 20.8946 21.5197 20.7071 21.7072C20.5196 21.8947 20.2652 22.0001 20 22.0001H10C9.73478 22.0001 9.48043 21.8947 9.29289 21.7072C9.10536 21.5197 9 21.2653 9 21.0001V11.0001ZM11 12.0001V20.0001H19V12.0001H11Z" fill="#1D3F66"/>
</svg>
