<svg width="16" height="16" viewBox="0 0 16 16" fill="none" xmlns="http://www.w3.org/2000/svg">
    <path fill-rule="evenodd" clip-rule="evenodd" d="M12.75 8C12.75 10.6234 10.6234 12.75 8 12.75C5.37665 12.75 3.25 10.6234 3.25 8C3.25 5.37665 5.37665 3.25 8 3.25C10.6234 3.25 12.75 5.37665 12.75 8ZM14 8C14 11.3137 11.3137 14 8 14C4.68629 14 2 11.3137 2 8C2 4.68629 4.68629 2 8 2C11.3137 2 14 4.68629 14 8ZM8.625 5.5C8.625 5.15482 8.34518 4.875 8 4.875C7.65482 4.875 7.375 5.15482 7.375 5.5V8.5C7.375 8.70897 7.47944 8.90412 7.65331 9.02003L9.15331 10.02C9.44052 10.2115 9.82856 10.1339 10.02 9.84669C10.2115 9.55948 10.1339 9.17144 9.84669 8.97997L8.625 8.16551V5.5Z" fill="#072D57"/>
</svg>
