<svg width="24" height="24" viewBox="0 0 24 24" fill="none" xmlns="http://www.w3.org/2000/svg">
    <path fill-rule="evenodd" clip-rule="evenodd" d="M12 20C16.4183 20 20 16.4183 20 12C20 7.58172 16.4183 4 12 4C7.58172 4 4 7.58172 4 12C4 16.4183 7.58172 20 12 20ZM12 7C12.5523 7 13 7.44772 13 8V12.021L14.3222 13.9308C14.6366 14.3849 14.5233 15.0078 14.0692 15.3222C13.6151 15.6366 12.9922 15.5233 12.6778 15.0692L11.1778 12.9025L11 12.6457V12.3333V8C11 7.44772 11.4477 7 12 7Z" fill="#F98700"/>
</svg>
