<svg width="24" height="24" viewBox="0 0 24 24" fill="none" xmlns="http://www.w3.org/2000/svg">
<path fill-rule="evenodd" clip-rule="evenodd" d="M12 7C12.5523 7 13 7.44772 13 8V12.021L14.3222 13.9308C14.6366 14.3849 14.5233 15.0078 14.0692 15.3222C13.6151 15.6366 12.9922 15.5233 12.6778 15.0692L11 12.6457V8C11 7.44772 11.4477 7 12 7ZM12 19C15.866 19 19 15.866 19 12C19 8.13401 15.866 5 12 5C8.13401 5 5 8.13401 5 12C5 15.866 8.13401 19 12 19ZM12 21C16.9706 21 21 16.9706 21 12C21 7.02944 16.9706 3 12 3C7.02944 3 3 7.02944 3 12C3 16.9706 7.02944 21 12 21Z" fill="#072D57"/>
</svg>
