<svg width="16" height="16" viewBox="0 0 16 16" fill="none" xmlns="http://www.w3.org/2000/svg">
<path fill-rule="evenodd" clip-rule="evenodd" d="M14 8C14 11.3137 11.3137 14 8 14C4.68629 14 2 11.3137 2 8C2 4.68629 4.68629 2 8 2C11.3137 2 14 4.68629 14 8ZM10.9997 10.2161C10.9997 10.0082 10.917 9.80889 10.77 9.66196L9.10801 7.99996L10.77 6.33796C10.8428 6.26521 10.9005 6.17884 10.9398 6.08379C10.9792 5.98873 10.9995 5.88685 10.9995 5.78396C10.9995 5.68107 10.9792 5.5792 10.9398 5.48414C10.9005 5.38908 10.8428 5.30271 10.77 5.22996C10.6973 5.15721 10.6109 5.0995 10.5158 5.06013C10.4208 5.02075 10.3189 5.00049 10.216 5.00049C10.1131 5.00049 10.0112 5.02075 9.91619 5.06013C9.82113 5.0995 9.73477 5.15721 9.66201 5.22996L8.00001 6.89196L6.33735 5.22996C6.18867 5.0918 5.99221 5.01668 5.78929 5.02039C5.58636 5.02411 5.39279 5.10637 5.24927 5.24989C5.10576 5.3934 5.02349 5.58698 5.01978 5.78991C5.01606 5.99283 5.09118 6.18929 5.22935 6.33796L6.89135 7.99996L5.22935 9.66196C5.08234 9.80899 4.99976 10.0084 4.99976 10.2163C4.99976 10.4242 5.08234 10.6236 5.22935 10.7706C5.30195 10.8436 5.38828 10.9016 5.48335 10.9411C5.57843 10.9806 5.68038 11.001 5.78335 11.001C5.88631 11.001 5.98826 10.9806 6.08334 10.9411C6.17841 10.9016 6.26474 10.8436 6.33735 10.7706L8.00001 9.10796L9.66201 10.7706C9.80903 10.9176 10.0084 11.0001 10.2162 11C10.4241 10.9999 10.6234 10.9173 10.7703 10.7703C10.9173 10.6233 10.9998 10.4239 10.9997 10.2161Z" fill="#99A9BA"/>
</svg>
