<svg width="24" height="24" viewBox="0 0 24 24" fill="none" xmlns="http://www.w3.org/2000/svg">
    <rect width="24" height="24" rx="12" fill="#2165CC"/>
    <path d="M8.39292 7.6C9.60092 7.6 10.5249 7.82 11.1649 8.26C11.8129 8.7 12.1369 9.388 12.1369 10.324C12.1369 10.812 12.0489 11.232 11.8729 11.584C11.7049 11.928 11.4569 12.212 11.1289 12.436C10.8009 12.652 10.4009 12.812 9.92892 12.916C9.45692 13.02 8.91692 13.072 8.30892 13.072H7.55292V16H6.04092V7.804C6.39292 7.724 6.78092 7.672 7.20492 7.648C7.63692 7.616 8.03292 7.6 8.39292 7.6ZM8.50092 8.908C8.11692 8.908 7.80092 8.92 7.55292 8.944V11.776H8.28492C9.01292 11.776 9.57292 11.676 9.96492 11.476C10.3569 11.268 10.5529 10.88 10.5529 10.312C10.5529 10.04 10.5009 9.812 10.3969 9.628C10.2929 9.444 10.1489 9.3 9.96492 9.196C9.78092 9.092 9.56092 9.02 9.30492 8.98C9.05692 8.932 8.78892 8.908 8.50092 8.908ZM15.0295 16H13.5175V7.684H18.7975V8.98H15.0295V16Z" fill="white"/>
</svg>
