<svg width="16" height="16" viewBox="0 0 16 16" fill="none" xmlns="http://www.w3.org/2000/svg">
<path fill-rule="evenodd" clip-rule="evenodd" d="M8.30769 2.5H4C3.72386 2.5 3.5 2.72386 3.5 3V9.26667C3.5 9.54281 3.72386 9.76667 4 9.76667H4.76923H5V11.2667H4.76923H4C2.89543 11.2667 2 10.3712 2 9.26667V3C2 1.89543 2.89543 1 4 1H8.30769C9.41226 1 10.3077 1.89543 10.3077 3V3.05333V4H8.80769V3.05333V3C8.80769 2.72386 8.58383 2.5 8.30769 2.5ZM8 6.5H12C12.2761 6.5 12.5 6.72386 12.5 7V13C12.5 13.2761 12.2761 13.5 12 13.5H8C7.72386 13.5 7.5 13.2761 7.5 13V7C7.5 6.72386 7.72386 6.5 8 6.5ZM6 7C6 5.89543 6.89543 5 8 5H12C13.1046 5 14 5.89543 14 7V13C14 14.1046 13.1046 15 12 15H8C6.89543 15 6 14.1046 6 13V7Z" fill="#1D3F66"/>
</svg>
