<svg width="16" height="16" viewBox="0 0 16 16" fill="none" xmlns="http://www.w3.org/2000/svg">
<path fill-rule="evenodd" clip-rule="evenodd" d="M10.7703 9.66099C10.9173 9.80792 10.9999 10.0072 11 10.2151C11.0001 10.4229 10.9176 10.6223 10.7706 10.7693C10.6237 10.9163 10.4244 10.999 10.2165 10.999C10.0087 10.9991 9.80931 10.9166 9.66229 10.7697L8.00029 9.10699L6.33762 10.7697C6.26501 10.8427 6.17869 10.9006 6.08361 10.9401C5.98854 10.9797 5.88659 11 5.78362 11C5.68065 11 5.5787 10.9797 5.48363 10.9401C5.38855 10.9006 5.30223 10.8427 5.22962 10.7697C5.08262 10.6226 5.00003 10.4232 5.00003 10.2153C5.00003 10.0074 5.08262 9.80801 5.22962 9.66099L6.89162 7.99899L5.22962 6.33699C5.09146 6.18831 5.01633 5.99185 5.02005 5.78893C5.02377 5.586 5.10603 5.39243 5.24955 5.24891C5.39306 5.1054 5.58664 5.02313 5.78956 5.01942C5.99249 5.0157 6.18895 5.09082 6.33762 5.22899L8.00029 6.89099L9.66229 5.22899C9.73504 5.15623 9.82141 5.09852 9.91646 5.05915C10.0115 5.01978 10.1134 4.99951 10.2163 4.99951C10.3192 4.99951 10.4211 5.01978 10.5161 5.05915C10.6112 5.09852 10.6975 5.15623 10.7703 5.22899C10.843 5.30174 10.9007 5.38811 10.9401 5.48316C10.9795 5.57822 10.9998 5.6801 10.9998 5.78299C10.9998 5.88587 10.9795 5.98775 10.9401 6.08281C10.9007 6.17786 10.843 6.26423 10.7703 6.33699L9.10829 7.99899L10.7703 9.66099Z" fill="#1D3F66"/>
</svg>
