<svg viewBox="0 0 50 50" xmlns="http://www.w3.org/2000/svg">
    <path d="M 36.586 31.004 C 37.129 31.548 37.433 32.284 37.435 33.053 C 37.435 33.821 37.13 34.558 36.586 35.101 C 36.043 35.644 35.306 35.95 34.538 35.95 C 33.77 35.951 33.033 35.646 32.489 35.103 L 26.346 28.956 L 20.201 35.103 C 19.932 35.373 19.613 35.586 19.261 35.733 C 18.91 35.879 18.533 35.954 18.153 35.954 C 17.772 35.954 17.396 35.879 17.044 35.733 C 16.693 35.586 16.373 35.373 16.105 35.103 C 15.562 34.558 15.256 33.822 15.256 33.053 C 15.256 32.285 15.562 31.549 16.105 31.004 L 22.248 24.861 L 16.105 18.719 C 15.594 18.168 15.317 17.442 15.329 16.692 C 15.345 15.942 15.649 15.227 16.179 14.696 C 16.709 14.165 17.425 13.861 18.175 13.847 C 18.925 13.834 19.651 14.111 20.201 14.622 L 26.346 20.766 L 32.489 14.622 C 32.759 14.353 33.078 14.14 33.43 13.994 C 33.78 13.849 34.157 13.774 34.537 13.774 C 34.918 13.774 35.295 13.849 35.645 13.994 C 35.998 14.14 36.317 14.353 36.586 14.622 C 36.854 14.891 37.067 15.211 37.212 15.562 C 37.359 15.914 37.433 16.29 37.433 16.67 C 37.433 17.05 37.359 17.427 37.212 17.779 C 37.067 18.129 36.854 18.449 36.586 18.719 L 30.442 24.861 L 36.586 31.004 Z" fill="#1D3F66" />
</svg>
