<svg width="24" height="24" viewBox="0 0 24 24" fill="none" xmlns="http://www.w3.org/2000/svg">
<path d="M12 10.5861L6.70701 5.29308C6.51841 5.11092 6.26581 5.01013 6.00361 5.01241C5.74141 5.01469 5.4906 5.11985 5.30519 5.30526C5.11978 5.49067 5.01461 5.74148 5.01234 6.00368C5.01006 6.26588 5.11085 6.51848 5.29301 6.70708L10.586 12.0001L5.29301 17.2931C5.11085 17.4817 5.01006 17.7343 5.01234 17.9965C5.01461 18.2587 5.11978 18.5095 5.30519 18.6949C5.4906 18.8803 5.74141 18.9855 6.00361 18.9878C6.26581 18.99 6.51841 18.8892 6.70701 18.7071L12 13.4141L17.293 18.7071C17.4816 18.8892 17.7342 18.99 17.9964 18.9878C18.2586 18.9855 18.5094 18.8803 18.6948 18.6949C18.8802 18.5095 18.9854 18.2587 18.9877 17.9965C18.99 17.7343 18.8892 17.4817 18.707 17.2931L13.414 12.0001L18.707 6.70708C18.8025 6.61483 18.8787 6.50449 18.9311 6.38249C18.9835 6.26048 19.0111 6.12926 19.0123 5.99648C19.0134 5.8637 18.9881 5.73202 18.9378 5.60913C18.8876 5.48623 18.8133 5.37458 18.7194 5.28069C18.6255 5.18679 18.5139 5.11254 18.391 5.06226C18.2681 5.01198 18.1364 4.98668 18.0036 4.98783C17.8708 4.98898 17.7396 5.01657 17.6176 5.06898C17.4956 5.12139 17.3853 5.19757 17.293 5.29308L12 10.5861Z" fill="#1D3F66"/>
</svg>
