<svg width="150" height="150" viewBox="0 0 50 50" fill="none" xmlns="http://www.w3.org/2000/svg">
    <path d="M35.33 31.23C35.873 31.774 36.177 32.51 36.179 33.279C36.179 34.047 35.874 34.784 35.33 35.327C34.787 35.87 34.05 36.176 33.282 36.176C32.514 36.177 31.777 35.872 31.233 35.329L25.09 29.182L18.945 35.329C18.676 35.599 18.357 35.812 18.005 35.959C17.654 36.105 17.277 36.18 16.897 36.18C16.516 36.18 16.14 36.105 15.788 35.959C15.437 35.812 15.117 35.599 14.849 35.329C14.306 34.784 14 34.048 14 33.279C14 32.511 14.306 31.775 14.849 31.23L20.992 25.087L14.849 18.945C14.338 18.394 14.061 17.668 14.073 16.918C14.089 16.168 14.393 15.453 14.923 14.922C15.453 14.391 16.169 14.087 16.919 14.073C17.669 14.06 18.395 14.337 18.945 14.848L25.09 20.992L31.233 14.848C31.503 14.579 31.822 14.366 32.174 14.22C32.524 14.075 32.901 14 33.281 14C33.662 14 34.039 14.075 34.389 14.22C34.742 14.366 35.061 14.579 35.33 14.848C35.598 15.117 35.811 15.437 35.956 15.788C36.103 16.14 36.177 16.516 36.177 16.896C36.177 17.276 36.103 17.653 35.956 18.005C35.811 18.355 35.598 18.675 35.33 18.945L29.186 25.087L35.33 31.23Z" fill="#1D3F66"/>
</svg>
