<svg width="24" height="24" viewBox="0 0 24 24" fill="none" xmlns="http://www.w3.org/2000/svg">
    <path fill-rule="evenodd" clip-rule="evenodd" d="M7 3C5.89543 3 5 3.89543 5 5V19C5 20.1046 5.89543 21 7 21H17C18.1046 21 19 20.1046 19 19V18C19 17.4477 18.5523 17 18 17C17.4477 17 17 17.4477 17 18V19H7V5H12H12.143H13V5.70115V7.5C13 8.32843 13.6716 9 14.5 9H17H19V8.73694V8.46837C19 8.1716 18.8682 7.89015 18.6402 7.70015L13.75 3.625L13.5563 3.46356C13.2843 3.23692 12.9587 3.08786 12.6137 3.02873C12.5181 3.00973 12.4202 3 12.3215 3H12.2759H12H7ZM17 10C17 10.5523 17.4477 11 18 11C18.5523 11 19 10.5523 19 10H17ZM14.7071 11.7071C15.0976 11.3166 15.0976 10.6834 14.7071 10.2929C14.3166 9.90237 13.6834 9.90237 13.2929 10.2929L10.2929 13.2929C9.90238 13.6834 9.90238 14.3166 10.2929 14.7071L13.2929 17.7071C13.6834 18.0976 14.3166 18.0976 14.7071 17.7071C15.0976 17.3166 15.0976 16.6834 14.7071 16.2929L13.4142 15H20C20.5523 15 21 14.5523 21 14C21 13.4477 20.5523 13 20 13H13.4142L14.7071 11.7071Z" fill="#072D57"/>
</svg>
