<svg width="24" height="24" viewBox="0 0 24 24" fill="none" xmlns="http://www.w3.org/2000/svg">
    <path fill-rule="evenodd" clip-rule="evenodd" d="M7.00002 3C5.89544 3 5 3.89544 5 5.00001V19.0001C5 20.1047 5.89544 21.0001 7.00002 21.0001H9.00003C9.55232 21.0001 10 20.5524 10 20.0001C10 19.4478 9.55232 19.0001 9.00003 19.0001H7.00002V5.00001H12.0001H12.1431H13.0001V5.70117V7.50003C13.0001 8.32846 13.6716 9.00004 14.5001 9.00004H17.0001H19.0001V8.73697V8.46841C19.0001 8.17163 18.8683 7.89018 18.6403 7.70018L13.7501 3.625L13.5563 3.46356C13.2844 3.23692 12.9588 3.08786 12.6138 3.02873C12.5181 3.00973 12.4203 3 12.3216 3H12.276H12.0001H7.00002ZM19.0001 10H17.0001V11C17.0001 11.5523 17.4478 12.0001 18.0001 12.0001C18.5524 12.0001 19.0001 11.5523 19.0001 11V10ZM15.5001 16.0859L13.7072 14.293C13.3166 13.9024 12.6835 13.9024 12.2929 14.293C11.9024 14.6835 11.9024 15.3167 12.2929 15.7072L14.0859 17.5001L12.2929 19.293C11.9024 19.6835 11.9024 20.3167 12.2929 20.7072C12.6835 21.0977 13.3166 21.0977 13.7072 20.7072L15.5001 18.9143L17.293 20.7072C17.6835 21.0977 18.3167 21.0977 18.7072 20.7072C19.0977 20.3167 19.0977 19.6835 18.7072 19.293L16.9143 17.5001L18.7072 15.7072C19.0977 15.3167 19.0977 14.6835 18.7072 14.293C18.3167 13.9024 17.6835 13.9024 17.293 14.293L15.5001 16.0859Z" fill="#072D57"/>
</svg>
