<svg width="24" height="24" viewBox="0 0 24 24" fill="none" xmlns="http://www.w3.org/2000/svg">
    <path fill-rule="evenodd" clip-rule="evenodd" d="M7 3C5.89543 3 5 3.89543 5 5V10C5 10.5523 5.44772 11 6 11C6.55228 11 7 10.5523 7 10V5H12H12.143H13V5.70115V7.5C13 8.32843 13.6716 9 14.5 9H17H19V8.73694V8.46837C19 8.1716 18.8682 7.89015 18.6402 7.70015L13.75 3.625L13.5563 3.46356C13.2843 3.23692 12.9587 3.08786 12.6137 3.02873C12.5181 3.00973 12.4202 3 12.3215 3H12.2759H12H7ZM19 10H17V19H7V18C7 17.4477 6.55228 17 6 17C5.44772 17 5 17.4477 5 18V19C5 20.1046 5.89543 21 7 21H17C18.1046 21 19 20.1046 19 19V10ZM10.5858 13L9.29289 11.7071C8.90237 11.3166 8.90237 10.6834 9.29289 10.2929C9.68342 9.90237 10.3166 9.90237 10.7071 10.2929L13.7071 13.2929C14.0976 13.6834 14.0976 14.3166 13.7071 14.7071L10.7071 17.7071C10.3166 18.0976 9.68342 18.0976 9.29289 17.7071C8.90237 17.3166 8.90237 16.6834 9.29289 16.2929L10.5858 15H4C3.44771 15 3 14.5523 3 14C3 13.4477 3.44771 13 4 13H10.5858Z" fill="#072D57"/>
</svg>
