<svg width="24" height="24" viewBox="0 0 24 24" fill="none" xmlns="http://www.w3.org/2000/svg">
<path fill-rule="evenodd" clip-rule="evenodd" d="M2 4C2 2.89543 2.89543 2 4 2H20C21.1046 2 22 2.89543 22 4V6C22 7.10457 21.1046 8 20 8V20C20 21.1046 19.1046 22 18 22H6C4.89543 22 4 21.1046 4 20L4 8C2.89543 8 2 7.10457 2 6V4ZM6 8V20H18V8H6ZM20 4H4V6H20V4ZM8 10.4C8 10.1791 8.17909 10 8.4 10H15.6C15.8209 10 16 10.1791 16 10.4V11.6C16 11.8209 15.8209 12 15.6 12H8.4C8.17909 12 8 11.8209 8 11.6V10.4ZM8 13.4C8 13.1791 8.17909 13 8.4 13H15.6C15.8209 13 16 13.1791 16 13.4V14.6C16 14.8209 15.8209 15 15.6 15H8.4C8.17909 15 8 14.8209 8 14.6V13.4ZM8.4 16C8.17909 16 8 16.1791 8 16.4V17.6C8 17.8209 8.17909 18 8.4 18H15.6C15.8209 18 16 17.8209 16 17.6V16.4C16 16.1791 15.8209 16 15.6 16H8.4Z" fill="#072D57"/>
</svg>
