<svg width="24" height="24" viewBox="0 0 24 24" fill="none" xmlns="http://www.w3.org/2000/svg">
    <path fill-rule="evenodd" clip-rule="evenodd" d="M18.99 8.99V8.468C18.99 8.171 18.858 7.89 18.631 7.7L13.557 3.464C13.389 3.32398 13.2007 3.21359 13 3.13567V7.4C13 8.28366 13.7163 9 14.6 9H18.9901L18.99 8.99ZM19 10V10.005V19C19 19.5304 18.7893 20.0391 18.4142 20.4142C18.0391 20.7893 17.5304 21 17 21H7C6.46957 21 5.96086 20.7893 5.58579 20.4142C5.21071 20.0391 5 19.5304 5 19V5C5 4.46957 5.21071 3.96086 5.58579 3.58579C5.96086 3.21071 6.46957 3 7 3H12V7.4C12 8.83594 13.1641 10 14.6 10H19ZM11.0594 15.3933L10.0827 14.4166C9.74339 14.0773 9.19333 14.0773 8.85406 14.4166C8.51479 14.7558 8.51479 15.3059 8.85406 15.6452L10.4166 17.2077C10.7445 17.5356 11.2721 17.5481 11.6152 17.2362L15.0527 14.1112C15.4078 13.7884 15.4339 13.239 15.1112 12.884C14.7884 12.529 14.239 12.5028 13.884 12.8255L11.0594 15.3933Z" fill="#00875A"/>
</svg>
