<svg width="24" height="24" viewBox="0 0 24 24" fill="none" xmlns="http://www.w3.org/2000/svg">
    <path fill-rule="evenodd" clip-rule="evenodd" d="M7 3C5.89543 3 5 3.89543 5 5V19C5 20.1046 5.89543 21 7 21H9C9.55228 21 10 20.5523 10 20C10 19.4477 9.55228 19 9 19H7V5H12H12.143H13V5.70115V7.5C13 8.32843 13.6716 9 14.5 9H17H19V8.73694V8.46837C19 8.1716 18.8682 7.89015 18.6402 7.70015L13.75 3.625L13.5563 3.46356C13.2843 3.23692 12.9587 3.08786 12.6137 3.02873C12.5181 3.00973 12.4202 3 12.3215 3H12.2759H12H7ZM19 10H17V12C17 12.5523 17.4477 13 18 13C18.5523 13 19 12.5523 19 12V10ZM19.7474 16.6644C20.1143 16.2516 20.0771 15.6195 19.6644 15.2526C19.2516 14.8857 18.6195 14.9229 18.2526 15.3356L15.0402 18.9495L13.7809 17.3753C13.4359 16.944 12.8066 16.8741 12.3753 17.2191C11.944 17.5641 11.8741 18.1934 12.2191 18.6247L13.9969 20.847C14.5002 21.476 15.4485 21.5006 15.9837 20.8985L19.7474 16.6644Z" fill="#072D57"/>
</svg>
