<svg width="16" height="16" viewBox="0 0 16 16" fill="none" xmlns="http://www.w3.org/2000/svg">
    <path fill-rule="evenodd" clip-rule="evenodd" d="M6.75 3.25V12.75H13.25V7H14.75V13C14.75 13.6904 14.1904 14.25 13.5 14.25H6.5C5.80964 14.25 5.25 13.6904 5.25 13V3C5.25 2.30964 5.80964 1.75 6.5 1.75H11.2658C11.6368 1.75 11.9886 1.91478 12.2261 2.19977L14.4603 4.88079C14.6475 5.10544 14.75 5.3886 14.75 5.68103V6H12C11.4477 6 11 5.55228 11 5V3.25H6.75ZM2.5 3.25C1.80964 3.25 1.25 3.80964 1.25 4.5V11.5C1.25 12.1904 1.80964 12.75 2.5 12.75H4V11.25H2.75V4.75H4V3.25H2.5Z" fill="#072D57"/>
</svg>
