<svg width="16" height="16" viewBox="0 0 16 16" fill="none" xmlns="http://www.w3.org/2000/svg">
<path fill-rule="evenodd" clip-rule="evenodd" d="M15.0045 4.94505C15.311 5.22368 15.3336 5.69802 15.055 6.00451L10.055 11.5045C9.91699 11.6563 9.72289 11.7449 9.51784 11.7498C9.3128 11.7547 9.1147 11.6754 8.96967 11.5303L7.78995 10.3506L8.88418 9.32352L9.47415 9.91349L13.945 4.9955C14.2237 4.68901 14.698 4.66642 15.0045 4.94505ZM11.055 6.00453C11.3336 5.69804 11.311 5.2237 11.0045 4.94507C10.698 4.66644 10.2237 4.68903 9.94504 4.99552L5.47415 9.91351L3.53033 7.9697C3.23744 7.6768 2.76256 7.6768 2.46967 7.9697C2.17678 8.26259 2.17678 8.73746 2.46967 9.03036L4.96967 11.5304C5.1147 11.6754 5.3128 11.7547 5.51784 11.7498C5.72289 11.7449 5.91699 11.6563 6.05496 11.5045L11.055 6.00453Z" fill="#1D3F66"/>
</svg>
