<svg width="16" height="16" viewBox="0 0 16 16" fill="none" xmlns="http://www.w3.org/2000/svg">
    <path fill-rule="evenodd" clip-rule="evenodd" d="M11.5303 8.19683C11.8232 7.90394 11.8232 7.42907 11.5303 7.13617C11.2374 6.84328 10.7626 6.84328 10.4697 7.13617L8.75 8.85584V2.6665C8.75 2.25229 8.41421 1.9165 8 1.9165C7.58579 1.9165 7.25 2.25229 7.25 2.6665V8.85584L5.53033 7.13617C5.23744 6.84328 4.76256 6.84328 4.46967 7.13617C4.17678 7.42907 4.17678 7.90394 4.46967 8.19683L7.46967 11.1968C7.61032 11.3375 7.80109 11.4165 8 11.4165C8.19891 11.4165 8.38968 11.3375 8.53033 11.1968L11.5303 8.19683ZM2.75 12.4998C2.33579 12.4998 2 12.8356 2 13.2498C2 13.6641 2.33579 13.9998 2.75 13.9998H13.25C13.6642 13.9998 14 13.6641 14 13.2498C14 12.8356 13.6642 12.4998 13.25 12.4998H2.75Z" fill="#072D57"/>
</svg>
