<svg width="24" height="24" viewBox="0 0 24 24" fill="none" xmlns="http://www.w3.org/2000/svg">
<path clip-rule="evenodd" d="M12.7241 15.0259C12.5365 15.2134 12.2822 15.3187 12.0171 15.3187C11.7519 15.3187 11.4976 15.2134 11.3101 15.0259L6.71707 10.4329C6.5345 10.2466 6.43284 9.99583 6.43415 9.735C6.43547 9.47417 6.53967 9.2244 6.7241 9.03996C6.90854 8.85553 7.15831 8.75133 7.41914 8.75001C7.67997 8.74869 7.93078 8.85036 8.11707 9.03293L12.0171 12.9329L15.9171 9.03293C16.1034 8.85036 16.3542 8.7487 16.615 8.75001C16.8758 8.75133 17.1256 8.85553 17.31 9.03996C17.4945 9.2244 17.5987 9.47417 17.6 9.735C17.6013 9.99583 17.4996 10.2466 17.3171 10.4329L12.7241 15.0259Z" fill="#1D3F66"/>
</svg>
