<svg width="24" height="24" viewBox="0 0 24 24" fill="none" xmlns="http://www.w3.org/2000/svg">
    <path fill-rule="evenodd" clip-rule="evenodd" d="M3 5C3 3.89543 3.89543 3 5 3H13C13.5523 3 14 3.44772 14 4C14 4.55228 13.5523 5 13 5H5V19H19V12C19 11.4477 19.4477 11 20 11C20.5523 11 21 11.4477 21 12V19C21 20.1046 20.1046 21 19 21H5C3.89543 21 3 20.1046 3 19V5Z" fill="#072D57"/>
    <path fill-rule="evenodd" clip-rule="evenodd" d="M19.1728 2.70711C19.5633 2.31658 20.1965 2.31658 20.587 2.70711L21.2941 3.41421C21.6846 3.80474 21.6846 4.4379 21.2941 4.82843L20.587 5.53553L18.4657 3.41421L19.1728 2.70711ZM17.7586 4.12132L19.8799 6.24264L14.223 11.8995L12.1017 9.77817L17.7586 4.12132ZM13.5159 12.6066L11.3946 10.4853L10.9342 12.5927C10.8962 12.7284 10.9469 12.866 11.041 12.9602C11.1352 13.0543 11.2728 13.105 11.4085 13.067L13.5159 12.6066Z" fill="#072D57"/>
</svg>
