<svg width="16" height="16" viewBox="0 0 16 16" fill="none" xmlns="http://www.w3.org/2000/svg">
<path fill-rule="evenodd" clip-rule="evenodd" d="M8.5109 2.65513C8.67288 2.72225 8.82004 2.82062 8.94399 2.94463L13.056 7.05596C13.1801 7.17992 13.2786 7.32713 13.3457 7.48916C13.4129 7.6512 13.4475 7.82489 13.4475 8.0003C13.4475 8.17571 13.4129 8.34939 13.3457 8.51143C13.2786 8.67347 13.1801 8.82067 13.056 8.94463L8.94399 13.056C8.82004 13.18 8.67288 13.2783 8.5109 13.3455C8.34893 13.4126 8.17532 13.4471 7.99999 13.4471C7.82466 13.4471 7.65104 13.4126 7.48907 13.3455C7.3271 13.2783 7.17993 13.18 7.05599 13.056L2.94399 8.94463C2.81988 8.82067 2.72142 8.67347 2.65424 8.51143C2.58707 8.34939 2.55249 8.17571 2.55249 8.0003C2.55249 7.82489 2.58707 7.6512 2.65424 7.48916C2.72142 7.32713 2.81988 7.17992 2.94399 7.05596L7.05599 2.94463C7.17993 2.82062 7.3271 2.72225 7.48907 2.65513C7.65104 2.58801 7.82466 2.55347 7.99999 2.55347C8.17532 2.55347 8.34893 2.58801 8.5109 2.65513ZM7.52858 9.13803C7.6536 9.26305 7.82317 9.33329 7.99998 9.33329C8.1768 9.33329 8.34636 9.26305 8.47139 9.13803C8.59641 9.01301 8.66665 8.84344 8.66665 8.66663V5.33329C8.66665 5.15648 8.59641 4.98691 8.47139 4.86189C8.34636 4.73686 8.1768 4.66663 7.99998 4.66663C7.82317 4.66663 7.6536 4.73686 7.52858 4.86189C7.40356 4.98691 7.33332 5.15648 7.33332 5.33329V8.66663C7.33332 8.84344 7.40356 9.01301 7.52858 9.13803ZM7.52858 11.138C7.6536 11.2631 7.82317 11.3333 7.99998 11.3333C8.1768 11.3333 8.34636 11.2631 8.47139 11.138C8.59641 11.013 8.66665 10.8434 8.66665 10.6666C8.66665 10.4898 8.59641 10.3202 8.47139 10.1952C8.34636 10.0702 8.1768 9.99996 7.99998 9.99996C7.82317 9.99996 7.6536 10.0702 7.52858 10.1952C7.40356 10.3202 7.33332 10.4898 7.33332 10.6666C7.33332 10.8434 7.40356 11.013 7.52858 11.138Z" fill="#F24646"/>
</svg>
