<svg width="24" height="24" viewBox="0 0 24 24" fill="none" xmlns="http://www.w3.org/2000/svg">
    <path fill-rule="evenodd" clip-rule="evenodd" d="M17.2071 7.79289C17.5976 8.18342 17.5976 8.81658 17.2071 9.20711C16.8166 9.59763 16.1834 9.59763 15.7929 9.20711L13 6.41421V16C13 16.5523 12.5523 17 12 17C11.4477 17 11 16.5523 11 16V6.41421L8.20711 9.20711C7.81658 9.59763 7.18342 9.59763 6.79289 9.20711C6.40237 8.81658 6.40237 8.18342 6.79289 7.79289L11.2929 3.29289C11.4804 3.10536 11.7348 3 12 3C12.2652 3 12.5196 3.10536 12.7071 3.29289L17.2071 7.79289ZM4 19C3.44772 19 3 19.4477 3 20C3 20.5523 3.44772 21 4 21H20C20.5523 21 21 20.5523 21 20C21 19.4477 20.5523 19 20 19H4Z" fill="#072D57"/>
</svg>
