<svg width="24" height="24" viewBox="0 0 24 24" fill="none" xmlns="http://www.w3.org/2000/svg">
<path d="M14.25 21V13.0862L20.7018 6.34483C20.7977 6.2449 20.8735 6.12601 20.9247 5.99514C20.9759 5.86428 21.0014 5.72407 20.9999 5.58276V4.58621C20.9999 4.43074 20.9407 4.28163 20.8352 4.1717C20.7297 4.06176 20.5866 4 20.4374 4H3.5625C3.41331 4 3.27024 4.06176 3.16475 4.1717C3.05926 4.28163 3 4.43074 3 4.58621V5.56517C3.00011 5.70363 3.0265 5.84069 3.07767 5.96846C3.12883 6.09624 3.20376 6.2122 3.29812 6.30966L9.74998 13.1331V19.1124L14.25 21Z" fill="#1D3F66"/>
</svg>
