<svg width="24" height="24" viewBox="0 0 24 24" fill="none" xmlns="http://www.w3.org/2000/svg">
<path fill-rule="evenodd" clip-rule="evenodd" d="M20 10V8C20 6.89543 19.1046 6 18 6H12.4142C12.149 6 11.8946 5.89464 11.7071 5.70711L9.58579 3.58579C9.21071 3.21071 8.70201 3 8.17157 3H4C2.89543 3 2 3.89543 2 5V19C2 20.1046 2.89543 21 4 21H4.53875H18H18.3501C19.1405 21 19.8567 20.5345 20.1777 19.8123L23.2889 12.8123C23.8767 11.4897 22.9085 10 21.4612 10H20ZM18 10V8H12.4142C11.6186 8 10.8555 7.68393 10.2929 7.12132L8.17157 5L4 5L4 15.2878L5.82224 11.1877C6.14324 10.4655 6.85948 10 7.64986 10H18ZM7.64986 12H21.4612L18.3501 19H4.53875L7.64986 12Z" fill="#1D3F66"/>
</svg>
