<svg width="24" height="24" viewBox="0 0 24 24" fill="none" xmlns="http://www.w3.org/2000/svg">
    <path fill-rule="evenodd" clip-rule="evenodd" d="M20 22C20 22.5523 19.5523 23 19 23C18.4477 23 18 22.5523 18 22V20H16C15.4477 20 15 19.5523 15 19C15 18.4477 15.4477 18 16 18H18V16C18 15.4477 18.4477 15 19 15C19.5523 15 20 15.4477 20 16V18H22C22.5523 18 23 18.4477 23 19C23 19.5523 22.5523 20 22 20H20V22ZM4 18C4 19.1046 4.89543 20 6 20H12C12.5523 20 13 19.5523 13 19C13 18.4477 12.5523 18 12 18L6 18V6H18V12C18 12.5523 18.4477 13 19 13C19.5523 13 20 12.5523 20 12V6C20 4.89543 19.1046 4 18 4H6C4.89543 4 4 4.89543 4 6V18Z" fill="#072D57"/>
</svg>
