<svg width="24" height="24" viewBox="0 0 24 24" fill="none" xmlns="http://www.w3.org/2000/svg">
<path d="M13 6.80232C13 6.25003 12.5523 5.80232 12 5.80232C11.4477 5.80232 11 6.25003 11 6.80232H13ZM12 12H11V12.4998L11.3998 12.7998L12 12ZM14.5878 15.1922C15.0295 15.5237 15.6563 15.4344 15.9878 14.9927C16.3193 14.5509 16.2299 13.9241 15.7882 13.5926L14.5878 15.1922ZM7.71543 16.4754C8.26772 16.4754 8.71543 16.0277 8.71543 15.4754C8.71543 14.9231 8.26772 14.4754 7.71543 14.4754V16.4754ZM2.31152 19.8748C2.31152 20.4271 2.75924 20.8748 3.31152 20.8748C3.86381 20.8748 4.31152 20.4271 4.31152 19.8748H2.31152ZM2.3931 10.7378C2.32178 11.2855 2.70793 11.7873 3.25559 11.8586C3.80325 11.9299 4.30503 11.5438 4.37636 10.9961L2.3931 10.7378ZM11 6.80232C11 6.80662 11 6.81093 11 6.81522C11 6.81952 11 6.82381 11 6.8281C11 6.83238 11 6.83666 11 6.84094C11 6.84521 11 6.84948 11 6.85375C11 6.85801 11 6.86227 11 6.86653C11 6.87078 11 6.87503 11 6.87927C11 6.88352 11 6.88775 11 6.89199C11 6.89622 11 6.90045 11 6.90467C11 6.90889 11 6.91311 11 6.91732C11 6.92153 11 6.92574 11 6.92994C11 6.93414 11 6.93834 11 6.94253C11 6.94672 11 6.95091 11 6.95509C11 6.95927 11 6.96344 11 6.96761C11 6.97179 11 6.97595 11 6.98011C11 6.98427 11 6.98843 11 6.99258C11 6.99673 11 7.00087 11 7.00501C11 7.00915 11 7.01329 11 7.01742C11 7.02154 11 7.02567 11 7.02979C11 7.03391 11 7.03802 11 7.04213C11 7.04624 11 7.05035 11 7.05445C11 7.05855 11 7.06264 11 7.06673C11 7.07082 11 7.0749 11 7.07898C11 7.08306 11 7.08714 11 7.09121C11 7.09528 11 7.09934 11 7.1034C11 7.10746 11 7.11152 11 7.11557C11 7.11962 11 7.12366 11 7.1277C11 7.13174 11 7.13578 11 7.13981C11 7.14384 11 7.14787 11 7.15189C11 7.15591 11 7.15993 11 7.16394C11 7.16795 11 7.17196 11 7.17596C11 7.17996 11 7.18396 11 7.18795C11 7.19194 11 7.19593 11 7.19991C11 7.20389 11 7.20787 11 7.21185C11 7.21582 11 7.21979 11 7.22375C11 7.22772 11 7.23168 11 7.23563C11 7.23958 11 7.24354 11 7.24748C11 7.25143 11 7.25537 11 7.2593C11 7.26324 11 7.26717 11 7.2711C11 7.27502 11 7.27895 11 7.28286C11 7.28678 11 7.29069 11 7.2946C11 7.29851 11 7.30241 11 7.30631C11 7.31021 11 7.31411 11 7.318C11 7.32189 11 7.32577 11 7.32966C11 7.33354 11 7.33741 11 7.34129C11 7.34516 11 7.34903 11 7.35289C11 7.35675 11 7.36061 11 7.36447C11 7.36832 11 7.37217 11 7.37602C11 7.37986 11 7.3837 11 7.38754C11 7.39138 11 7.39521 11 7.39904C11 7.40286 11 7.40669 11 7.41051C11 7.41433 11 7.41814 11 7.42195C11 7.42576 11 7.42957 11 7.43337C11 7.43717 11 7.44097 11 7.44476C11 7.44856 11 7.45234 11 7.45613C11 7.45991 11 7.4637 11 7.46747C11 7.47125 11 7.47502 11 7.47879C11 7.48255 11 7.48632 11 7.49008C11 7.49384 11 7.49759 11 7.50134C11 7.50509 11 7.50884 11 7.51258C11 7.51633 11 7.52006 11 7.5238C11 7.52753 11 7.53126 11 7.53499C11 7.53871 11 7.54244 11 7.54615C11 7.54987 11 7.55359 11 7.55729C11 7.561 11 7.56471 11 7.56841C11 7.57211 11 7.57581 11 7.5795C11 7.5832 11 7.58689 11 7.59057C11 7.59426 11 7.59794 11 7.60162C11 7.60529 11 7.60897 11 7.61264C11 7.6163 11 7.61997 11 7.62363C11 7.62729 11 7.63095 11 7.6346C11 7.63826 11 7.64191 11 7.64555C11 7.6492 11 7.65284 11 7.65648C11 7.66011 11 7.66375 11 7.66738C11 7.67101 11 7.67464 11 7.67826C11 7.68188 11 7.6855 11 7.68911C11 7.69273 11 7.69634 11 7.69995C11 7.70355 11 7.70716 11 7.71076C11 7.71435 11 7.71795 11 7.72154C11 7.72513 11 7.72872 11 7.73231C11 7.73589 11 7.73947 11 7.74305C11 7.74663 11 7.7502 11 7.75377C11 7.75734 11 7.7609 11 7.76447C11 7.76803 11 7.77159 11 7.77514C11 7.7787 11 7.78225 11 7.7858C11 7.78934 11 7.79289 11 7.79643C11 7.79997 11 7.8035 11 7.80704C11 7.81057 11 7.8141 11 7.81763C11 7.82115 11 7.82467 11 7.82819C11 7.83171 11 7.83523 11 7.83874C11 7.84225 11 7.84576 11 7.84926C11 7.85277 11 7.85627 11 7.85977C11 7.86326 11 7.86676 11 7.87025C11 7.87374 11 7.87723 11 7.88071C11 7.88419 11 7.88767 11 7.89115C11 7.89463 11 7.8981 11 7.90157C11 7.90504 11 7.90851 11 7.91197C11 7.91543 11 7.91889 11 7.92235C11 7.92581 11 7.92926 11 7.93271C11 7.93616 11 7.93961 11 7.94305C11 7.94649 11 7.94993 11 7.95337C11 7.95681 11 7.96024 11 7.96367C11 7.9671 11 7.97053 11 7.97395C11 7.97737 11 7.98079 11 7.98421C11 7.98763 11 7.99104 11 7.99445C11 7.99786 11 8.00127 11 8.00467C11 8.00808 11 8.01148 11 8.01488C11 8.01827 11 8.02167 11 8.02506C11 8.02845 11 8.03184 11 8.03522C11 8.03861 11 8.04199 11 8.04537C11 8.04875 11 8.05213 11 8.0555C11 8.05887 11 8.06224 11 8.06561C11 8.06897 11 8.07234 11 8.0757C11 8.07906 11 8.08242 11 8.08577C11 8.08912 11 8.09248 11 8.09582C11 8.09917 11 8.10252 11 8.10586C11 8.1092 11 8.11254 11 8.11588C11 8.11922 11 8.12255 11 8.12588C11 8.12921 11 8.13254 11 8.13586C11 8.13919 11 8.14251 11 8.14583C11 8.14915 11 8.15246 11 8.15578C11 8.15909 11 8.1624 11 8.16571C11 8.16901 11 8.17232 11 8.17562C11 8.17892 11 8.18222 11 8.18552C11 8.18881 11 8.19211 11 8.1954C11 8.19869 11 8.20197 11 8.20526C11 8.20854 11 8.21183 11 8.21511C11 8.21838 11 8.22166 11 8.22494C11 8.22821 11 8.23148 11 8.23475C11 8.23802 11 8.24128 11 8.24455C11 8.24781 11 8.25107 11 8.25433C11 8.25758 11 8.26084 11 8.26409C11 8.26734 11 8.27059 11 8.27384C11 8.27709 11 8.28033 11 8.28357C11 8.28682 11 8.29006 11 8.29329C11 8.29653 11 8.29976 11 8.303C11 8.30623 11 8.30946 11 8.31268C11 8.31591 11 8.31913 11 8.32235C11 8.32558 11 8.32879 11 8.33201C11 8.33523 11 8.33844 11 8.34165C11 8.34486 11 8.34807 11 8.35128C11 8.35449 11 8.35769 11 8.36089C11 8.36409 11 8.36729 11 8.37049C11 8.37369 11 8.37688 11 8.38007C11 8.38327 11 8.38646 11 8.38964C11 8.39283 11 8.39601 11 8.3992C11 8.40238 11 8.40556 11 8.40874C11 8.41192 11 8.41509 11 8.41826C11 8.42144 11 8.42461 11 8.42778C11 8.43095 11 8.43411 11 8.43728C11 8.44044 11 8.4436 11 8.44676C11 8.44992 11 8.45308 11 8.45623C11 8.45939 11 8.46254 11 8.46569C11 8.46884 11 8.47199 11 8.47514C11 8.47828 11 8.48143 11 8.48457C11 8.48771 11 8.49085 11 8.49399C11 8.49713 11 8.50026 11 8.5034C11 8.50653 11 8.50966 11 8.51279C11 8.51592 11 8.51905 11 8.52217C11 8.5253 11 8.52842 11 8.53154C11 8.53466 11 8.53778 11 8.5409C11 8.54402 11 8.54713 11 8.55024C11 8.55336 11 8.55647 11 8.55958C11 8.56269 11 8.56579 11 8.5689C11 8.572 11 8.5751 11 8.57821C11 8.58131 11 8.58441 11 8.5875C11 8.5906 11 8.5937 11 8.59679C11 8.59988 11 8.60297 11 8.60606C11 8.60915 11 8.61224 11 8.61533C11 8.61841 11 8.6215 11 8.62458C11 8.62766 11 8.63074 11 8.63382C11 8.6369 11 8.63997 11 8.64305C11 8.64612 11 8.6492 11 8.65227C11 8.65534 11 8.65841 11 8.66148C11 8.66454 11 8.66761 11 8.67067C11 8.67374 11 8.6768 11 8.67986C11 8.68292 11 8.68598 11 8.68904C11 8.6921 11 8.69515 11 8.6982C11 8.70126 11 8.70431 11 8.70736C11 8.71041 11 8.71346 11 8.71651C11 8.71956 11 8.7226 11 8.72565C11 8.72869 11 8.73173 11 8.73477C11 8.73782 11 8.74085 11 8.74389C11 8.74693 11 8.74997 11 8.753C11 8.75604 11 8.75907 11 8.7621C11 8.76513 11 8.76816 11 8.77119C11 8.77422 11 8.77725 11 8.78027C11 8.7833 11 8.78632 11 8.78935C11 8.79237 11 8.79539 11 8.79841C11 8.80143 11 8.80445 11 8.80746C11 8.81048 11 8.8135 11 8.81651C11 8.81953 11 8.82254 11 8.82555C11 8.82856 11 8.83157 11 8.83458C11 8.83759 11 8.8406 11 8.8436C11 8.84661 11 8.84961 11 8.85262C11 8.85562 11 8.85862 11 8.86162C11 8.86462 11 8.86762 11 8.87062C11 8.87362 11 8.87662 11 8.87961C11 8.88261 11 8.8856 11 8.88859C11 8.89159 11 8.89458 11 8.89757C11 8.90056 11 8.90355 11 8.90654C11 8.90953 11 8.91251 11 8.9155C11 8.91849 11 8.92147 11 8.92445C11 8.92744 11 8.93042 11 8.9334C11 8.93638 11 8.93936 11 8.94234C11 8.94532 11 8.9483 11 8.95128C11 8.95425 11 8.95723 11 8.96021C11 8.96318 11 8.96615 11 8.96913C11 8.9721 11 8.97507 11 8.97804C11 8.98101 11 8.98398 11 8.98695C11 8.98992 11 8.99289 11 8.99586C11 8.99882 11 9.00179 11 9.00475C11 9.00772 11 9.01068 11 9.01364C11 9.01661 11 9.01957 11 9.02253C11 9.02549 11 9.02845 11 9.03141C11 9.03437 11 9.03733 11 9.04029C11 9.04324 11 9.0462 11 9.04916C11 9.05211 11 9.05507 11 9.05802C11 9.06098 11 9.06393 11 9.06688C11 9.06984 11 9.07279 11 9.07574C11 9.07869 11 9.08164 11 9.08459C11 9.08754 11 9.09049 11 9.09343C11 9.09638 11 9.09933 11 9.10228C11 9.10522 11 9.10817 11 9.11111C11 9.11406 11 9.117 11 9.11995C11 9.12289 11 9.12583 11 9.12878C11 9.13172 11 9.13466 11 9.1376C11 9.14054 11 9.14348 11 9.14642C11 9.14936 11 9.1523 11 9.15524C11 9.15818 11 9.16112 11 9.16405C11 9.16699 11 9.16993 11 9.17287C11 9.1758 11 9.17874 11 9.18167C11 9.18461 11 9.18754 11 9.19048C11 9.19341 11 9.19635 11 9.19928C11 9.20221 11 9.20514 11 9.20808C11 9.21101 11 9.21394 11 9.21687C11 9.2198 11 9.22273 11 9.22567C11 9.2286 11 9.23153 11 9.23446C11 9.23739 11 9.24031 11 9.24324C11 9.24617 11 9.2491 11 9.25203C11 9.25496 11 9.25788 11 9.26081C11 9.26374 11 9.26667 11 9.26959C11 9.27252 11 9.27545 11 9.27837C11 9.2813 11 9.28423 11 9.28715C11 9.29008 11 9.293 11 9.29593C11 9.29885 11 9.30178 11 9.3047C11 9.30763 11 9.31055 11 9.31348C11 9.3164 11 9.31932 11 9.32225C11 9.32517 11 9.32809 11 9.33102C11 9.33394 11 9.33686 11 9.33979C11 9.34271 11 9.34563 11 9.34856C11 9.35148 11 9.3544 11 9.35732C11 9.36025 11 9.36317 11 9.36609C11 9.36901 11 9.37194 11 9.37486C11 9.37778 11 9.3807 11 9.38363C11 9.38655 11 9.38947 11 9.39239C11 9.39531 11 9.39824 11 9.40116C11 9.40408 11 9.407 11 9.40992C11 9.41285 11 9.41577 11 9.41869C11 9.42161 11 9.42453 11 9.42746C11 9.43038 11 9.4333 11 9.43622C11 9.43915 11 9.44207 11 9.44499C11 9.44791 11 9.45084 11 9.45376C11 9.45668 11 9.45961 11 9.46253C11 9.46545 11 9.46838 11 9.4713C11 9.47422 11 9.47715 11 9.48007C11 9.48299 11 9.48592 11 9.48884C11 9.49177 11 9.49469 11 9.49761C11 9.50054 11 9.50346 11 9.50639C11 9.50931 11 9.51224 11 9.51516C11 9.51809 11 9.52102 11 9.52394C11 9.52687 11 9.5298 11 9.53272C11 9.53565 11 9.53858 11 9.5415C11 9.54443 11 9.54736 11 9.55029C11 9.55322 11 9.55614 11 9.55907C11 9.562 11 9.56493 11 9.56786C11 9.57079 11 9.57372 11 9.57665C11 9.57958 11 9.58251 11 9.58544C11 9.58838 11 9.59131 11 9.59424C11 9.59717 11 9.6001 11 9.60304C11 9.60597 11 9.6089 11 9.61184C11 9.61477 11 9.61771 11 9.62064C11 9.62358 11 9.62651 11 9.62945C11 9.63239 11 9.63532 11 9.63826C11 9.6412 11 9.64414 11 9.64708C11 9.65001 11 9.65295 11 9.65589C11 9.65883 11 9.66177 11 9.66471C11 9.66766 11 9.6706 11 9.67354C11 9.67648 11 9.67943 11 9.68237C11 9.68531 11 9.68826 11 9.6912C11 9.69415 11 9.69709 11 9.70004C11 9.70299 11 9.70593 11 9.70888C11 9.71183 11 9.71478 11 9.71773C11 9.72068 11 9.72363 11 9.72658C11 9.72953 11 9.73248 11 9.73543C11 9.73839 11 9.74134 11 9.74429C11 9.74725 11 9.7502 11 9.75316C11 9.75611 11 9.75907 11 9.76203C11 9.76499 11 9.76795 11 9.7709C11 9.77386 11 9.77682 11 9.77979C11 9.78275 11 9.78571 11 9.78867C11 9.79163 11 9.7946 11 9.79756C11 9.80053 11 9.80349 11 9.80646C11 9.80943 11 9.8124 11 9.81536C11 9.81833 11 9.8213 11 9.82427C11 9.82724 11 9.83022 11 9.83319C11 9.83616 11 9.83914 11 9.84211C11 9.84509 11 9.84806 11 9.85104C11 9.85402 11 9.85699 11 9.85997C11 9.86295 11 9.86593 11 9.86891C11 9.8719 11 9.87488 11 9.87786C11 9.88085 11 9.88383 11 9.88682C11 9.8898 11 9.89279 11 9.89578C11 9.89877 11 9.90176 11 9.90475C11 9.90774 11 9.91073 11 9.91372C11 9.91672 11 9.91971 11 9.92271C11 9.9257 11 9.9287 11 9.9317C11 9.93469 11 9.93769 11 9.94069C11 9.9437 11 9.9467 11 9.9497C11 9.9527 11 9.95571 11 9.95871C11 9.96172 11 9.96473 11 9.96774C11 9.97075 11 9.97376 11 9.97677C11 9.97978 11 9.98279 11 9.98581C11 9.98882 11 9.99183 11 9.99485C11 9.99787 11 10.0009 11 10.0039C11 10.0069 11 10.0099 11 10.013C11 10.016 11 10.019 11 10.022C11 10.0251 11 10.0281 11 10.0311C11 10.0342 11 10.0372 11 10.0402C11 10.0432 11 10.0463 11 10.0493C11 10.0523 11 10.0554 11 10.0584C11 10.0615 11 10.0645 11 10.0675C11 10.0706 11 10.0736 11 10.0767C11 10.0797 11 10.0828 11 10.0858C11 10.0889 11 10.0919 11 10.095C11 10.098 11 10.1011 11 10.1041C11 10.1072 11 10.1102 11 10.1133C11 10.1163 11 10.1194 11 10.1225C11 10.1255 11 10.1286 11 10.1316C11 10.1347 11 10.1378 11 10.1408C11 10.1439 11 10.147 11 10.15C11 10.1531 11 10.1562 11 10.1593C11 10.1623 11 10.1654 11 10.1685C11 10.1716 11 10.1747 11 10.1777C11 10.1808 11 10.1839 11 10.187C11 10.1901 11 10.1932 11 10.1963C11 10.1993 11 10.2024 11 10.2055C11 10.2086 11 10.2117 11 10.2148C11 10.2179 11 10.221 11 10.2241C11 10.2272 11 10.2303 11 10.2334C11 10.2365 11 10.2396 11 10.2427C11 10.2458 11 10.249 11 10.2521C11 10.2552 11 10.2583 11 10.2614C11 10.2645 11 10.2677 11 10.2708C11 10.2739 11 10.277 11 10.2801C11 10.2833 11 10.2864 11 10.2895C11 10.2927 11 10.2958 11 10.2989C11 10.3021 11 10.3052 11 10.3083C11 10.3115 11 10.3146 11 10.3177C11 10.3209 11 10.324 11 10.3272C11 10.3303 11 10.3335 11 10.3366C11 10.3398 11 10.3429 11 10.3461C11 10.3492 11 10.3524 11 10.3556C11 10.3587 11 10.3619 11 10.365C11 10.3682 11 10.3714 11 10.3745C11 10.3777 11 10.3809 11 10.3841C11 10.3872 11 10.3904 11 10.3936C11 10.3968 11 10.3999 11 10.4031C11 10.4063 11 10.4095 11 10.4127C11 10.4159 11 10.4191 11 10.4222C11 10.4254 11 10.4286 11 10.4318C11 10.435 11 10.4382 11 10.4414C11 10.4446 11 10.4478 11 10.451C11 10.4542 11 10.4575 11 10.4607C11 10.4639 11 10.4671 11 10.4703C11 10.4735 11 10.4767 11 10.48C11 10.4832 11 10.4864 11 10.4896C11 10.4929 11 10.4961 11 10.4993C11 10.5026 11 10.5058 11 10.509C11 10.5123 11 10.5155 11 10.5187C11 10.522 11 10.5252 11 10.5285C11 10.5317 11 10.535 11 10.5382C11 10.5415 11 10.5447 11 10.548C11 10.5512 11 10.5545 11 10.5578C11 10.561 11 10.5643 11 10.5676C11 10.5708 11 10.5741 11 10.5774C11 10.5807 11 10.5839 11 10.5872C11 10.5905 11 10.5938 11 10.5971C11 10.6003 11 10.6036 11 10.6069C11 10.6102 11 10.6135 11 10.6168C11 10.6201 11 10.6234 11 10.6267C11 10.63 11 10.6333 11 10.6366C11 10.6399 11 10.6432 11 10.6465C11 10.6499 11 10.6532 11 10.6565C11 10.6598 11 10.6631 11 10.6665C11 10.6698 11 10.6731 11 10.6764C11 10.6798 11 10.6831 11 10.6864C11 10.6898 11 10.6931 11 10.6965C11 10.6998 11 10.7031 11 10.7065C11 10.7098 11 10.7132 11 10.7165C11 10.7199 11 10.7233 11 10.7266C11 10.73 11 10.7333 11 10.7367C11 10.7401 11 10.7434 11 10.7468C11 10.7502 11 10.7536 11 10.7569C11 10.7603 11 10.7637 11 10.7671C11 10.7705 11 10.7739 11 10.7773C11 10.7806 11 10.784 11 10.7874C11 10.7908 11 10.7942 11 10.7976C11 10.801 11 10.8045 11 10.8079C11 10.8113 11 10.8147 11 10.8181C11 10.8215 11 10.8249 11 10.8284C11 10.8318 11 10.8352 11 10.8386C11 10.8421 11 10.8455 11 10.8489C11 10.8524 11 10.8558 11 10.8593C11 10.8627 11 10.8662 11 10.8696C11 10.8731 11 10.8765 11 10.88C11 10.8834 11 10.8869 11 10.8903C11 10.8938 11 10.8973 11 10.9007C11 10.9042 11 10.9077 11 10.9112C11 10.9146 11 10.9181 11 10.9216C11 10.9251 11 10.9286 11 10.9321C11 10.9356 11 10.9391 11 10.9426C11 10.946 11 10.9495 11 10.9531C11 10.9566 11 10.9601 11 10.9636C11 10.9671 11 10.9706 11 10.9741C11 10.9776 11 10.9812 11 10.9847C11 10.9882 11 10.9917 11 10.9953C11 10.9988 11 11.0023 11 11.0059C11 11.0094 11 11.013 11 11.0165C11 11.0201 11 11.0236 11 11.0272C11 11.0307 11 11.0343 11 11.0378C11 11.0414 11 11.045 11 11.0485C11 11.0521 11 11.0557 11 11.0593C11 11.0628 11 11.0664 11 11.07C11 11.0736 11 11.0772 11 11.0808C11 11.0844 11 11.088 11 11.0916C11 11.0952 11 11.0988 11 11.1024C11 11.106 11 11.1096 11 11.1132C11 11.1168 11 11.1204 11 11.1241C11 11.1277 11 11.1313 11 11.1349C11 11.1386 11 11.1422 11 11.1458C11 11.1495 11 11.1531 11 11.1568C11 11.1604 11 11.1641 11 11.1677C11 11.1714 11 11.175 11 11.1787C11 11.1823 11 11.186 11 11.1897C11 11.1934 11 11.197 11 11.2007C11 11.2044 11 11.2081 11 11.2117C11 11.2154 11 11.2191 11 11.2228C11 11.2265 11 11.2302 11 11.2339C11 11.2376 11 11.2413 11 11.245C11 11.2487 11 11.2524 11 11.2562C11 11.2599 11 11.2636 11 11.2673C11 11.2711 11 11.2748 11 11.2785C11 11.2823 11 11.286 11 11.2897C11 11.2935 11 11.2972 11 11.301C11 11.3047 11 11.3085 11 11.3122C11 11.316 11 11.3198 11 11.3235C11 11.3273 11 11.3311 11 11.3348C11 11.3386 11 11.3424 11 11.3462C11 11.35 11 11.3538 11 11.3576C11 11.3613 11 11.3651 11 11.3689C11 11.3727 11 11.3766 11 11.3804C11 11.3842 11 11.388 11 11.3918C11 11.3956 11 11.3995 11 11.4033C11 11.4071 11 11.4109 11 11.4148C11 11.4186 11 11.4225 11 11.4263C11 11.4301 11 11.434 11 11.4379C11 11.4417 11 11.4456 11 11.4494C11 11.4533 11 11.4572 11 11.461C11 11.4649 11 11.4688 11 11.4727C11 11.4765 11 11.4804 11 11.4843C11 11.4882 11 11.4921 11 11.496C11 11.4999 11 11.5038 11 11.5077C11 11.5116 11 11.5155 11 11.5195C11 11.5234 11 11.5273 11 11.5312C11 11.5351 11 11.5391 11 11.543C11 11.547 11 11.5509 11 11.5548C11 11.5588 11 11.5627 11 11.5667C11 11.5706 11 11.5746 11 11.5786C11 11.5825 11 11.5865 11 11.5905C11 11.5944 11 11.5984 11 11.6024C11 11.6064 11 11.6104 11 11.6144C11 11.6184 11 11.6224 11 11.6264C11 11.6304 11 11.6344 11 11.6384C11 11.6424 11 11.6464 11 11.6504C11 11.6544 11 11.6585 11 11.6625C11 11.6665 11 11.6706 11 11.6746C11 11.6787 11 11.6827 11 11.6867C11 11.6908 11 11.6949 11 11.6989C11 11.703 11 11.707 11 11.7111C11 11.7152 11 11.7193 11 11.7233C11 11.7274 11 11.7315 11 11.7356C11 11.7397 11 11.7438 11 11.7479C11 11.752 11 11.7561 11 11.7602C11 11.7643 11 11.7684 11 11.7725C11 11.7766 11 11.7808 11 11.7849C11 11.789 11 11.7932 11 11.7973C11 11.8014 11 11.8056 11 11.8097C11 11.8139 11 11.818 11 11.8222C11 11.8264 11 11.8305 11 11.8347C11 11.8389 11 11.843 11 11.8472C11 11.8514 11 11.8556 11 11.8598C11 11.864 11 11.8682 11 11.8724C11 11.8766 11 11.8808 11 11.885C11 11.8892 11 11.8934 11 11.8976C11 11.9019 11 11.9061 11 11.9103C11 11.9146 11 11.9188 11 11.923C11 11.9273 11 11.9315 11 11.9358C11 11.94 11 11.9443 11 11.9486C11 11.9528 11 11.9571 11 11.9614C11 11.9657 11 11.9699 11 11.9742C11 11.9785 11 11.9828 11 11.9871C11 11.9914 11 11.9957 11 12H13C13 11.9957 13 11.9914 13 11.9871C13 11.9828 13 11.9785 13 11.9742C13 11.9699 13 11.9657 13 11.9614C13 11.9571 13 11.9528 13 11.9486C13 11.9443 13 11.94 13 11.9358C13 11.9315 13 11.9273 13 11.923C13 11.9188 13 11.9146 13 11.9103C13 11.9061 13 11.9019 13 11.8976C13 11.8934 13 11.8892 13 11.885C13 11.8808 13 11.8766 13 11.8724C13 11.8682 13 11.864 13 11.8598C13 11.8556 13 11.8514 13 11.8472C13 11.843 13 11.8389 13 11.8347C13 11.8305 13 11.8264 13 11.8222C13 11.818 13 11.8139 13 11.8097C13 11.8056 13 11.8014 13 11.7973C13 11.7932 13 11.789 13 11.7849C13 11.7808 13 11.7766 13 11.7725C13 11.7684 13 11.7643 13 11.7602C13 11.7561 13 11.752 13 11.7479C13 11.7438 13 11.7397 13 11.7356C13 11.7315 13 11.7274 13 11.7233C13 11.7193 13 11.7152 13 11.7111C13 11.707 13 11.703 13 11.6989C13 11.6949 13 11.6908 13 11.6867C13 11.6827 13 11.6787 13 11.6746C13 11.6706 13 11.6665 13 11.6625C13 11.6585 13 11.6544 13 11.6504C13 11.6464 13 11.6424 13 11.6384C13 11.6344 13 11.6304 13 11.6264C13 11.6224 13 11.6184 13 11.6144C13 11.6104 13 11.6064 13 11.6024C13 11.5984 13 11.5944 13 11.5905C13 11.5865 13 11.5825 13 11.5786C13 11.5746 13 11.5706 13 11.5667C13 11.5627 13 11.5588 13 11.5548C13 11.5509 13 11.547 13 11.543C13 11.5391 13 11.5351 13 11.5312C13 11.5273 13 11.5234 13 11.5195C13 11.5155 13 11.5116 13 11.5077C13 11.5038 13 11.4999 13 11.496C13 11.4921 13 11.4882 13 11.4843C13 11.4804 13 11.4765 13 11.4727C13 11.4688 13 11.4649 13 11.461C13 11.4572 13 11.4533 13 11.4494C13 11.4456 13 11.4417 13 11.4379C13 11.434 13 11.4301 13 11.4263C13 11.4225 13 11.4186 13 11.4148C13 11.4109 13 11.4071 13 11.4033C13 11.3995 13 11.3956 13 11.3918C13 11.388 13 11.3842 13 11.3804C13 11.3766 13 11.3727 13 11.3689C13 11.3651 13 11.3613 13 11.3576C13 11.3538 13 11.35 13 11.3462C13 11.3424 13 11.3386 13 11.3348C13 11.3311 13 11.3273 13 11.3235C13 11.3198 13 11.316 13 11.3122C13 11.3085 13 11.3047 13 11.301C13 11.2972 13 11.2935 13 11.2897C13 11.286 13 11.2823 13 11.2785C13 11.2748 13 11.2711 13 11.2673C13 11.2636 13 11.2599 13 11.2562C13 11.2524 13 11.2487 13 11.245C13 11.2413 13 11.2376 13 11.2339C13 11.2302 13 11.2265 13 11.2228C13 11.2191 13 11.2154 13 11.2117C13 11.2081 13 11.2044 13 11.2007C13 11.197 13 11.1934 13 11.1897C13 11.186 13 11.1823 13 11.1787C13 11.175 13 11.1714 13 11.1677C13 11.1641 13 11.1604 13 11.1568C13 11.1531 13 11.1495 13 11.1458C13 11.1422 13 11.1386 13 11.1349C13 11.1313 13 11.1277 13 11.1241C13 11.1204 13 11.1168 13 11.1132C13 11.1096 13 11.106 13 11.1024C13 11.0988 13 11.0952 13 11.0916C13 11.088 13 11.0844 13 11.0808C13 11.0772 13 11.0736 13 11.07C13 11.0664 13 11.0628 13 11.0593C13 11.0557 13 11.0521 13 11.0485C13 11.045 13 11.0414 13 11.0378C13 11.0343 13 11.0307 13 11.0272C13 11.0236 13 11.0201 13 11.0165C13 11.013 13 11.0094 13 11.0059C13 11.0023 13 10.9988 13 10.9953C13 10.9917 13 10.9882 13 10.9847C13 10.9812 13 10.9776 13 10.9741C13 10.9706 13 10.9671 13 10.9636C13 10.9601 13 10.9566 13 10.9531C13 10.9495 13 10.946 13 10.9426C13 10.9391 13 10.9356 13 10.9321C13 10.9286 13 10.9251 13 10.9216C13 10.9181 13 10.9146 13 10.9112C13 10.9077 13 10.9042 13 10.9007C13 10.8973 13 10.8938 13 10.8903C13 10.8869 13 10.8834 13 10.88C13 10.8765 13 10.8731 13 10.8696C13 10.8662 13 10.8627 13 10.8593C13 10.8558 13 10.8524 13 10.8489C13 10.8455 13 10.8421 13 10.8386C13 10.8352 13 10.8318 13 10.8284C13 10.8249 13 10.8215 13 10.8181C13 10.8147 13 10.8113 13 10.8079C13 10.8045 13 10.801 13 10.7976C13 10.7942 13 10.7908 13 10.7874C13 10.784 13 10.7806 13 10.7773C13 10.7739 13 10.7705 13 10.7671C13 10.7637 13 10.7603 13 10.7569C13 10.7536 13 10.7502 13 10.7468C13 10.7434 13 10.7401 13 10.7367C13 10.7333 13 10.73 13 10.7266C13 10.7233 13 10.7199 13 10.7165C13 10.7132 13 10.7098 13 10.7065C13 10.7031 13 10.6998 13 10.6965C13 10.6931 13 10.6898 13 10.6864C13 10.6831 13 10.6798 13 10.6764C13 10.6731 13 10.6698 13 10.6665C13 10.6631 13 10.6598 13 10.6565C13 10.6532 13 10.6499 13 10.6465C13 10.6432 13 10.6399 13 10.6366C13 10.6333 13 10.63 13 10.6267C13 10.6234 13 10.6201 13 10.6168C13 10.6135 13 10.6102 13 10.6069C13 10.6036 13 10.6003 13 10.5971C13 10.5938 13 10.5905 13 10.5872C13 10.5839 13 10.5807 13 10.5774C13 10.5741 13 10.5708 13 10.5676C13 10.5643 13 10.561 13 10.5578C13 10.5545 13 10.5512 13 10.548C13 10.5447 13 10.5415 13 10.5382C13 10.535 13 10.5317 13 10.5285C13 10.5252 13 10.522 13 10.5187C13 10.5155 13 10.5123 13 10.509C13 10.5058 13 10.5026 13 10.4993C13 10.4961 13 10.4929 13 10.4896C13 10.4864 13 10.4832 13 10.48C13 10.4767 13 10.4735 13 10.4703C13 10.4671 13 10.4639 13 10.4607C13 10.4575 13 10.4542 13 10.451C13 10.4478 13 10.4446 13 10.4414C13 10.4382 13 10.435 13 10.4318C13 10.4286 13 10.4254 13 10.4222C13 10.4191 13 10.4159 13 10.4127C13 10.4095 13 10.4063 13 10.4031C13 10.3999 13 10.3968 13 10.3936C13 10.3904 13 10.3872 13 10.3841C13 10.3809 13 10.3777 13 10.3745C13 10.3714 13 10.3682 13 10.365C13 10.3619 13 10.3587 13 10.3556C13 10.3524 13 10.3492 13 10.3461C13 10.3429 13 10.3398 13 10.3366C13 10.3335 13 10.3303 13 10.3272C13 10.324 13 10.3209 13 10.3177C13 10.3146 13 10.3115 13 10.3083C13 10.3052 13 10.3021 13 10.2989C13 10.2958 13 10.2927 13 10.2895C13 10.2864 13 10.2833 13 10.2801C13 10.277 13 10.2739 13 10.2708C13 10.2677 13 10.2645 13 10.2614C13 10.2583 13 10.2552 13 10.2521C13 10.249 13 10.2458 13 10.2427C13 10.2396 13 10.2365 13 10.2334C13 10.2303 13 10.2272 13 10.2241C13 10.221 13 10.2179 13 10.2148C13 10.2117 13 10.2086 13 10.2055C13 10.2024 13 10.1993 13 10.1963C13 10.1932 13 10.1901 13 10.187C13 10.1839 13 10.1808 13 10.1777C13 10.1747 13 10.1716 13 10.1685C13 10.1654 13 10.1623 13 10.1593C13 10.1562 13 10.1531 13 10.15C13 10.147 13 10.1439 13 10.1408C13 10.1378 13 10.1347 13 10.1316C13 10.1286 13 10.1255 13 10.1225C13 10.1194 13 10.1163 13 10.1133C13 10.1102 13 10.1072 13 10.1041C13 10.1011 13 10.098 13 10.095C13 10.0919 13 10.0889 13 10.0858C13 10.0828 13 10.0797 13 10.0767C13 10.0736 13 10.0706 13 10.0675C13 10.0645 13 10.0615 13 10.0584C13 10.0554 13 10.0523 13 10.0493C13 10.0463 13 10.0432 13 10.0402C13 10.0372 13 10.0342 13 10.0311C13 10.0281 13 10.0251 13 10.022C13 10.019 13 10.016 13 10.013C13 10.0099 13 10.0069 13 10.0039C13 10.0009 13 9.99787 13 9.99485C13 9.99183 13 9.98882 13 9.98581C13 9.98279 13 9.97978 13 9.97677C13 9.97376 13 9.97075 13 9.96774C13 9.96473 13 9.96172 13 9.95871C13 9.95571 13 9.9527 13 9.9497C13 9.9467 13 9.9437 13 9.94069C13 9.93769 13 9.93469 13 9.9317C13 9.9287 13 9.9257 13 9.92271C13 9.91971 13 9.91672 13 9.91372C13 9.91073 13 9.90774 13 9.90475C13 9.90176 13 9.89877 13 9.89578C13 9.89279 13 9.8898 13 9.88682C13 9.88383 13 9.88085 13 9.87786C13 9.87488 13 9.8719 13 9.86891C13 9.86593 13 9.86295 13 9.85997C13 9.85699 13 9.85402 13 9.85104C13 9.84806 13 9.84509 13 9.84211C13 9.83914 13 9.83616 13 9.83319C13 9.83022 13 9.82724 13 9.82427C13 9.8213 13 9.81833 13 9.81536C13 9.8124 13 9.80943 13 9.80646C13 9.80349 13 9.80053 13 9.79756C13 9.7946 13 9.79163 13 9.78867C13 9.78571 13 9.78275 13 9.77979C13 9.77682 13 9.77386 13 9.7709C13 9.76795 13 9.76499 13 9.76203C13 9.75907 13 9.75611 13 9.75316C13 9.7502 13 9.74725 13 9.74429C13 9.74134 13 9.73839 13 9.73543C13 9.73248 13 9.72953 13 9.72658C13 9.72363 13 9.72068 13 9.71773C13 9.71478 13 9.71183 13 9.70888C13 9.70593 13 9.70299 13 9.70004C13 9.69709 13 9.69415 13 9.6912C13 9.68826 13 9.68531 13 9.68237C13 9.67943 13 9.67648 13 9.67354C13 9.6706 13 9.66766 13 9.66471C13 9.66177 13 9.65883 13 9.65589C13 9.65295 13 9.65001 13 9.64708C13 9.64414 13 9.6412 13 9.63826C13 9.63532 13 9.63239 13 9.62945C13 9.62651 13 9.62358 13 9.62064C13 9.61771 13 9.61477 13 9.61184C13 9.6089 13 9.60597 13 9.60304C13 9.6001 13 9.59717 13 9.59424C13 9.59131 13 9.58838 13 9.58544C13 9.58251 13 9.57958 13 9.57665C13 9.57372 13 9.57079 13 9.56786C13 9.56493 13 9.562 13 9.55907C13 9.55614 13 9.55322 13 9.55029C13 9.54736 13 9.54443 13 9.5415C13 9.53858 13 9.53565 13 9.53272C13 9.5298 13 9.52687 13 9.52394C13 9.52102 13 9.51809 13 9.51516C13 9.51224 13 9.50931 13 9.50639C13 9.50346 13 9.50054 13 9.49761C13 9.49469 13 9.49177 13 9.48884C13 9.48592 13 9.48299 13 9.48007C13 9.47715 13 9.47422 13 9.4713C13 9.46838 13 9.46545 13 9.46253C13 9.45961 13 9.45668 13 9.45376C13 9.45084 13 9.44791 13 9.44499C13 9.44207 13 9.43915 13 9.43622C13 9.4333 13 9.43038 13 9.42746C13 9.42453 13 9.42161 13 9.41869C13 9.41577 13 9.41285 13 9.40992C13 9.407 13 9.40408 13 9.40116C13 9.39824 13 9.39531 13 9.39239C13 9.38947 13 9.38655 13 9.38363C13 9.3807 13 9.37778 13 9.37486C13 9.37194 13 9.36901 13 9.36609C13 9.36317 13 9.36025 13 9.35732C13 9.3544 13 9.35148 13 9.34856C13 9.34563 13 9.34271 13 9.33979C13 9.33686 13 9.33394 13 9.33102C13 9.32809 13 9.32517 13 9.32225C13 9.31932 13 9.3164 13 9.31348C13 9.31055 13 9.30763 13 9.3047C13 9.30178 13 9.29885 13 9.29593C13 9.293 13 9.29008 13 9.28715C13 9.28423 13 9.2813 13 9.27837C13 9.27545 13 9.27252 13 9.26959C13 9.26667 13 9.26374 13 9.26081C13 9.25788 13 9.25496 13 9.25203C13 9.2491 13 9.24617 13 9.24324C13 9.24031 13 9.23739 13 9.23446C13 9.23153 13 9.2286 13 9.22567C13 9.22273 13 9.2198 13 9.21687C13 9.21394 13 9.21101 13 9.20808C13 9.20514 13 9.20221 13 9.19928C13 9.19635 13 9.19341 13 9.19048C13 9.18754 13 9.18461 13 9.18167C13 9.17874 13 9.1758 13 9.17287C13 9.16993 13 9.16699 13 9.16405C13 9.16112 13 9.15818 13 9.15524C13 9.1523 13 9.14936 13 9.14642C13 9.14348 13 9.14054 13 9.1376C13 9.13466 13 9.13172 13 9.12878C13 9.12583 13 9.12289 13 9.11995C13 9.117 13 9.11406 13 9.11111C13 9.10817 13 9.10522 13 9.10228C13 9.09933 13 9.09638 13 9.09343C13 9.09049 13 9.08754 13 9.08459C13 9.08164 13 9.07869 13 9.07574C13 9.07279 13 9.06984 13 9.06688C13 9.06393 13 9.06098 13 9.05802C13 9.05507 13 9.05211 13 9.04916C13 9.0462 13 9.04324 13 9.04029C13 9.03733 13 9.03437 13 9.03141C13 9.02845 13 9.02549 13 9.02253C13 9.01957 13 9.01661 13 9.01364C13 9.01068 13 9.00772 13 9.00475C13 9.00179 13 8.99882 13 8.99586C13 8.99289 13 8.98992 13 8.98695C13 8.98398 13 8.98101 13 8.97804C13 8.97507 13 8.9721 13 8.96913C13 8.96615 13 8.96318 13 8.96021C13 8.95723 13 8.95425 13 8.95128C13 8.9483 13 8.94532 13 8.94234C13 8.93936 13 8.93638 13 8.9334C13 8.93042 13 8.92744 13 8.92445C13 8.92147 13 8.91849 13 8.9155C13 8.91251 13 8.90953 13 8.90654C13 8.90355 13 8.90056 13 8.89757C13 8.89458 13 8.89159 13 8.88859C13 8.8856 13 8.88261 13 8.87961C13 8.87662 13 8.87362 13 8.87062C13 8.86762 13 8.86462 13 8.86162C13 8.85862 13 8.85562 13 8.85262C13 8.84961 13 8.84661 13 8.8436C13 8.8406 13 8.83759 13 8.83458C13 8.83157 13 8.82856 13 8.82555C13 8.82254 13 8.81953 13 8.81651C13 8.8135 13 8.81048 13 8.80746C13 8.80445 13 8.80143 13 8.79841C13 8.79539 13 8.79237 13 8.78935C13 8.78632 13 8.7833 13 8.78027C13 8.77725 13 8.77422 13 8.77119C13 8.76816 13 8.76513 13 8.7621C13 8.75907 13 8.75604 13 8.753C13 8.74997 13 8.74693 13 8.74389C13 8.74085 13 8.73782 13 8.73477C13 8.73173 13 8.72869 13 8.72565C13 8.7226 13 8.71956 13 8.71651C13 8.71346 13 8.71041 13 8.70736C13 8.70431 13 8.70126 13 8.6982C13 8.69515 13 8.6921 13 8.68904C13 8.68598 13 8.68292 13 8.67986C13 8.6768 13 8.67374 13 8.67067C13 8.66761 13 8.66454 13 8.66148C13 8.65841 13 8.65534 13 8.65227C13 8.6492 13 8.64612 13 8.64305C13 8.63997 13 8.6369 13 8.63382C13 8.63074 13 8.62766 13 8.62458C13 8.6215 13 8.61841 13 8.61533C13 8.61224 13 8.60915 13 8.60606C13 8.60297 13 8.59988 13 8.59679C13 8.5937 13 8.5906 13 8.5875C13 8.58441 13 8.58131 13 8.57821C13 8.5751 13 8.572 13 8.5689C13 8.56579 13 8.56269 13 8.55958C13 8.55647 13 8.55336 13 8.55024C13 8.54713 13 8.54402 13 8.5409C13 8.53778 13 8.53466 13 8.53154C13 8.52842 13 8.5253 13 8.52217C13 8.51905 13 8.51592 13 8.51279C13 8.50966 13 8.50653 13 8.5034C13 8.50026 13 8.49713 13 8.49399C13 8.49085 13 8.48771 13 8.48457C13 8.48143 13 8.47828 13 8.47514C13 8.47199 13 8.46884 13 8.46569C13 8.46254 13 8.45939 13 8.45623C13 8.45308 13 8.44992 13 8.44676C13 8.4436 13 8.44044 13 8.43728C13 8.43411 13 8.43095 13 8.42778C13 8.42461 13 8.42144 13 8.41826C13 8.41509 13 8.41192 13 8.40874C13 8.40556 13 8.40238 13 8.3992C13 8.39601 13 8.39283 13 8.38964C13 8.38646 13 8.38327 13 8.38007C13 8.37688 13 8.37369 13 8.37049C13 8.36729 13 8.36409 13 8.36089C13 8.35769 13 8.35449 13 8.35128C13 8.34807 13 8.34486 13 8.34165C13 8.33844 13 8.33523 13 8.33201C13 8.32879 13 8.32558 13 8.32235C13 8.31913 13 8.31591 13 8.31268C13 8.30946 13 8.30623 13 8.303C13 8.29976 13 8.29653 13 8.29329C13 8.29006 13 8.28682 13 8.28357C13 8.28033 13 8.27709 13 8.27384C13 8.27059 13 8.26734 13 8.26409C13 8.26084 13 8.25758 13 8.25433C13 8.25107 13 8.24781 13 8.24455C13 8.24128 13 8.23802 13 8.23475C13 8.23148 13 8.22821 13 8.22494C13 8.22166 13 8.21838 13 8.21511C13 8.21183 13 8.20854 13 8.20526C13 8.20197 13 8.19869 13 8.1954C13 8.19211 13 8.18881 13 8.18552C13 8.18222 13 8.17892 13 8.17562C13 8.17232 13 8.16901 13 8.16571C13 8.1624 13 8.15909 13 8.15578C13 8.15246 13 8.14915 13 8.14583C13 8.14251 13 8.13919 13 8.13586C13 8.13254 13 8.12921 13 8.12588C13 8.12255 13 8.11922 13 8.11588C13 8.11254 13 8.1092 13 8.10586C13 8.10252 13 8.09917 13 8.09582C13 8.09248 13 8.08912 13 8.08577C13 8.08242 13 8.07906 13 8.0757C13 8.07234 13 8.06897 13 8.06561C13 8.06224 13 8.05887 13 8.0555C13 8.05213 13 8.04875 13 8.04537C13 8.04199 13 8.03861 13 8.03522C13 8.03184 13 8.02845 13 8.02506C13 8.02167 13 8.01827 13 8.01488C13 8.01148 13 8.00808 13 8.00467C13 8.00127 13 7.99786 13 7.99445C13 7.99104 13 7.98763 13 7.98421C13 7.98079 13 7.97737 13 7.97395C13 7.97053 13 7.9671 13 7.96367C13 7.96024 13 7.95681 13 7.95337C13 7.94993 13 7.94649 13 7.94305C13 7.93961 13 7.93616 13 7.93271C13 7.92926 13 7.92581 13 7.92235C13 7.91889 13 7.91543 13 7.91197C13 7.90851 13 7.90504 13 7.90157C13 7.8981 13 7.89463 13 7.89115C13 7.88767 13 7.88419 13 7.88071C13 7.87723 13 7.87374 13 7.87025C13 7.86676 13 7.86326 13 7.85977C13 7.85627 13 7.85277 13 7.84926C13 7.84576 13 7.84225 13 7.83874C13 7.83523 13 7.83171 13 7.82819C13 7.82467 13 7.82115 13 7.81763C13 7.8141 13 7.81057 13 7.80704C13 7.8035 13 7.79997 13 7.79643C13 7.79289 13 7.78934 13 7.7858C13 7.78225 13 7.7787 13 7.77514C13 7.77159 13 7.76803 13 7.76447C13 7.7609 13 7.75734 13 7.75377C13 7.7502 13 7.74663 13 7.74305C13 7.73947 13 7.73589 13 7.73231C13 7.72872 13 7.72513 13 7.72154C13 7.71795 13 7.71435 13 7.71076C13 7.70716 13 7.70355 13 7.69995C13 7.69634 13 7.69273 13 7.68911C13 7.6855 13 7.68188 13 7.67826C13 7.67464 13 7.67101 13 7.66738C13 7.66375 13 7.66011 13 7.65648C13 7.65284 13 7.6492 13 7.64555C13 7.64191 13 7.63826 13 7.6346C13 7.63095 13 7.62729 13 7.62363C13 7.61997 13 7.6163 13 7.61264C13 7.60897 13 7.60529 13 7.60162C13 7.59794 13 7.59426 13 7.59057C13 7.58689 13 7.5832 13 7.5795C13 7.57581 13 7.57211 13 7.56841C13 7.56471 13 7.561 13 7.55729C13 7.55359 13 7.54987 13 7.54615C13 7.54244 13 7.53871 13 7.53499C13 7.53126 13 7.52753 13 7.5238C13 7.52006 13 7.51633 13 7.51258C13 7.50884 13 7.50509 13 7.50134C13 7.49759 13 7.49384 13 7.49008C13 7.48632 13 7.48255 13 7.47879C13 7.47502 13 7.47125 13 7.46747C13 7.4637 13 7.45991 13 7.45613C13 7.45234 13 7.44856 13 7.44476C13 7.44097 13 7.43717 13 7.43337C13 7.42957 13 7.42576 13 7.42195C13 7.41814 13 7.41433 13 7.41051C13 7.40669 13 7.40286 13 7.39904C13 7.39521 13 7.39138 13 7.38754C13 7.3837 13 7.37986 13 7.37602C13 7.37217 13 7.36832 13 7.36447C13 7.36061 13 7.35675 13 7.35289C13 7.34903 13 7.34516 13 7.34129C13 7.33741 13 7.33354 13 7.32966C13 7.32577 13 7.32189 13 7.318C13 7.31411 13 7.31021 13 7.30631C13 7.30241 13 7.29851 13 7.2946C13 7.29069 13 7.28678 13 7.28286C13 7.27895 13 7.27502 13 7.2711C13 7.26717 13 7.26324 13 7.2593C13 7.25537 13 7.25143 13 7.24748C13 7.24354 13 7.23958 13 7.23563C13 7.23168 13 7.22772 13 7.22375C13 7.21979 13 7.21582 13 7.21185C13 7.20787 13 7.20389 13 7.19991C13 7.19593 13 7.19194 13 7.18795C13 7.18396 13 7.17996 13 7.17596C13 7.17196 13 7.16795 13 7.16394C13 7.15993 13 7.15591 13 7.15189C13 7.14787 13 7.14384 13 7.13981C13 7.13578 13 7.13174 13 7.1277C13 7.12366 13 7.11962 13 7.11557C13 7.11152 13 7.10746 13 7.1034C13 7.09934 13 7.09528 13 7.09121C13 7.08714 13 7.08306 13 7.07898C13 7.0749 13 7.07082 13 7.06673C13 7.06264 13 7.05855 13 7.05445C13 7.05035 13 7.04624 13 7.04213C13 7.03802 13 7.03391 13 7.02979C13 7.02567 13 7.02154 13 7.01742C13 7.01329 13 7.00915 13 7.00501C13 7.00087 13 6.99673 13 6.99258C13 6.98843 13 6.98427 13 6.98011C13 6.97595 13 6.97179 13 6.96761C13 6.96344 13 6.95927 13 6.95509C13 6.95091 13 6.94672 13 6.94253C13 6.93834 13 6.93414 13 6.92994C13 6.92574 13 6.92153 13 6.91732C13 6.91311 13 6.90889 13 6.90467C13 6.90045 13 6.89622 13 6.89199C13 6.88775 13 6.88352 13 6.87927C13 6.87503 13 6.87078 13 6.86653C13 6.86227 13 6.85801 13 6.85375C13 6.84948 13 6.84521 13 6.84094C13 6.83666 13 6.83238 13 6.8281C13 6.82381 13 6.81952 13 6.81522C13 6.81093 13 6.80662 13 6.80232H11ZM11.3998 12.7998L14.5878 15.1922L15.7882 13.5926L12.6002 11.2002L11.3998 12.7998ZM7.71543 14.4754H3.81152V16.4754H7.71543V14.4754ZM2.31152 15.9753C2.31152 15.9769 2.31152 15.9785 2.31152 15.9801C2.31152 15.9816 2.31152 15.9832 2.31152 15.9848C2.31152 15.9864 2.31152 15.9879 2.31152 15.9895C2.31152 15.9911 2.31152 15.9927 2.31152 15.9943C2.31152 15.9959 2.31152 15.9975 2.31152 15.9991C2.31152 16.0007 2.31152 16.0023 2.31152 16.0039C2.31152 16.0055 2.31152 16.0071 2.31152 16.0087C2.31152 16.0103 2.31152 16.0119 2.31152 16.0135C2.31152 16.0152 2.31152 16.0168 2.31152 16.0184C2.31152 16.02 2.31152 16.0217 2.31152 16.0233C2.31152 16.0249 2.31152 16.0266 2.31152 16.0282C2.31152 16.0298 2.31152 16.0315 2.31152 16.0331C2.31152 16.0347 2.31152 16.0364 2.31152 16.038C2.31152 16.0397 2.31152 16.0413 2.31152 16.043C2.31152 16.0446 2.31152 16.0463 2.31152 16.048C2.31152 16.0496 2.31152 16.0513 2.31152 16.053C2.31152 16.0546 2.31152 16.0563 2.31152 16.058C2.31152 16.0596 2.31152 16.0613 2.31152 16.063C2.31152 16.0647 2.31152 16.0663 2.31152 16.068C2.31152 16.0697 2.31152 16.0714 2.31152 16.0731C2.31152 16.0748 2.31152 16.0765 2.31152 16.0782C2.31152 16.0799 2.31152 16.0816 2.31152 16.0833C2.31152 16.085 2.31152 16.0867 2.31152 16.0884C2.31152 16.0901 2.31152 16.0918 2.31152 16.0935C2.31152 16.0952 2.31152 16.097 2.31152 16.0987C2.31152 16.1004 2.31152 16.1021 2.31152 16.1039C2.31152 16.1056 2.31152 16.1073 2.31152 16.109C2.31152 16.1108 2.31152 16.1125 2.31152 16.1142C2.31152 16.116 2.31152 16.1177 2.31152 16.1195C2.31152 16.1212 2.31152 16.123 2.31152 16.1247C2.31152 16.1265 2.31152 16.1282 2.31152 16.13C2.31152 16.1317 2.31152 16.1335 2.31152 16.1353C2.31152 16.137 2.31152 16.1388 2.31152 16.1405C2.31152 16.1423 2.31152 16.1441 2.31152 16.1459C2.31152 16.1476 2.31152 16.1494 2.31152 16.1512C2.31152 16.153 2.31152 16.1547 2.31152 16.1565C2.31152 16.1583 2.31152 16.1601 2.31152 16.1619C2.31152 16.1637 2.31152 16.1655 2.31152 16.1673C2.31152 16.1691 2.31152 16.1709 2.31152 16.1727C2.31152 16.1745 2.31152 16.1763 2.31152 16.1781C2.31152 16.1799 2.31152 16.1817 2.31152 16.1835C2.31152 16.1853 2.31152 16.1872 2.31152 16.189C2.31152 16.1908 2.31152 16.1926 2.31152 16.1945C2.31152 16.1963 2.31152 16.1981 2.31152 16.1999C2.31152 16.2018 2.31152 16.2036 2.31152 16.2054C2.31152 16.2073 2.31152 16.2091 2.31152 16.211C2.31152 16.2128 2.31152 16.2146 2.31152 16.2165C2.31152 16.2183 2.31152 16.2202 2.31152 16.2221C2.31152 16.2239 2.31152 16.2258 2.31152 16.2276C2.31152 16.2295 2.31152 16.2313 2.31152 16.2332C2.31152 16.2351 2.31152 16.2369 2.31152 16.2388C2.31152 16.2407 2.31152 16.2426 2.31152 16.2444C2.31152 16.2463 2.31152 16.2482 2.31152 16.2501C2.31152 16.252 2.31152 16.2538 2.31152 16.2557C2.31152 16.2576 2.31152 16.2595 2.31152 16.2614C2.31152 16.2633 2.31152 16.2652 2.31152 16.2671C2.31152 16.269 2.31152 16.2709 2.31152 16.2728C2.31152 16.2747 2.31152 16.2766 2.31152 16.2785C2.31152 16.2804 2.31152 16.2823 2.31152 16.2842C2.31152 16.2862 2.31152 16.2881 2.31152 16.29C2.31152 16.2919 2.31152 16.2938 2.31152 16.2958C2.31152 16.2977 2.31152 16.2996 2.31152 16.3016C2.31152 16.3035 2.31152 16.3054 2.31152 16.3074C2.31152 16.3093 2.31152 16.3112 2.31152 16.3132C2.31152 16.3151 2.31152 16.3171 2.31152 16.319C2.31152 16.321 2.31152 16.3229 2.31152 16.3249C2.31152 16.3268 2.31152 16.3288 2.31152 16.3307C2.31152 16.3327 2.31152 16.3346 2.31152 16.3366C2.31152 16.3386 2.31152 16.3405 2.31152 16.3425C2.31152 16.3445 2.31152 16.3464 2.31152 16.3484C2.31152 16.3504 2.31152 16.3524 2.31152 16.3544C2.31152 16.3563 2.31152 16.3583 2.31152 16.3603C2.31152 16.3623 2.31152 16.3643 2.31152 16.3663C2.31152 16.3682 2.31152 16.3702 2.31152 16.3722C2.31152 16.3742 2.31152 16.3762 2.31152 16.3782C2.31152 16.3802 2.31152 16.3822 2.31152 16.3842C2.31152 16.3862 2.31152 16.3883 2.31152 16.3903C2.31152 16.3923 2.31152 16.3943 2.31152 16.3963C2.31152 16.3983 2.31152 16.4003 2.31152 16.4024C2.31152 16.4044 2.31152 16.4064 2.31152 16.4084C2.31152 16.4105 2.31152 16.4125 2.31152 16.4145C2.31152 16.4166 2.31152 16.4186 2.31152 16.4206C2.31152 16.4227 2.31152 16.4247 2.31152 16.4267C2.31152 16.4288 2.31152 16.4308 2.31152 16.4329C2.31152 16.4349 2.31152 16.437 2.31152 16.439C2.31152 16.4411 2.31152 16.4431 2.31152 16.4452C2.31152 16.4472 2.31152 16.4493 2.31152 16.4514C2.31152 16.4534 2.31152 16.4555 2.31152 16.4576C2.31152 16.4596 2.31152 16.4617 2.31152 16.4638C2.31152 16.4658 2.31152 16.4679 2.31152 16.47C2.31152 16.4721 2.31152 16.4741 2.31152 16.4762C2.31152 16.4783 2.31152 16.4804 2.31152 16.4825C2.31152 16.4846 2.31152 16.4867 2.31152 16.4887C2.31152 16.4908 2.31152 16.4929 2.31152 16.495C2.31152 16.4971 2.31152 16.4992 2.31152 16.5013C2.31152 16.5034 2.31152 16.5055 2.31152 16.5076C2.31152 16.5098 2.31152 16.5119 2.31152 16.514C2.31152 16.5161 2.31152 16.5182 2.31152 16.5203C2.31152 16.5224 2.31152 16.5246 2.31152 16.5267C2.31152 16.5288 2.31152 16.5309 2.31152 16.533C2.31152 16.5352 2.31152 16.5373 2.31152 16.5394C2.31152 16.5416 2.31152 16.5437 2.31152 16.5458C2.31152 16.548 2.31152 16.5501 2.31152 16.5522C2.31152 16.5544 2.31152 16.5565 2.31152 16.5587C2.31152 16.5608 2.31152 16.563 2.31152 16.5651C2.31152 16.5673 2.31152 16.5694 2.31152 16.5716C2.31152 16.5737 2.31152 16.5759 2.31152 16.5781C2.31152 16.5802 2.31152 16.5824 2.31152 16.5845C2.31152 16.5867 2.31152 16.5889 2.31152 16.591C2.31152 16.5932 2.31152 16.5954 2.31152 16.5976C2.31152 16.5997 2.31152 16.6019 2.31152 16.6041C2.31152 16.6063 2.31152 16.6084 2.31152 16.6106C2.31152 16.6128 2.31152 16.615 2.31152 16.6172C2.31152 16.6194 2.31152 16.6216 2.31152 16.6238C2.31152 16.626 2.31152 16.6281 2.31152 16.6303C2.31152 16.6325 2.31152 16.6347 2.31152 16.6369C2.31152 16.6391 2.31152 16.6413 2.31152 16.6436C2.31152 16.6458 2.31152 16.648 2.31152 16.6502C2.31152 16.6524 2.31152 16.6546 2.31152 16.6568C2.31152 16.659 2.31152 16.6613 2.31152 16.6635C2.31152 16.6657 2.31152 16.6679 2.31152 16.6701C2.31152 16.6724 2.31152 16.6746 2.31152 16.6768C2.31152 16.6791 2.31152 16.6813 2.31152 16.6835C2.31152 16.6858 2.31152 16.688 2.31152 16.6902C2.31152 16.6925 2.31152 16.6947 2.31152 16.697C2.31152 16.6992 2.31152 16.7014 2.31152 16.7037C2.31152 16.7059 2.31152 16.7082 2.31152 16.7104C2.31152 16.7127 2.31152 16.7149 2.31152 16.7172C2.31152 16.7195 2.31152 16.7217 2.31152 16.724C2.31152 16.7262 2.31152 16.7285 2.31152 16.7308C2.31152 16.733 2.31152 16.7353 2.31152 16.7376C2.31152 16.7398 2.31152 16.7421 2.31152 16.7444C2.31152 16.7467 2.31152 16.7489 2.31152 16.7512C2.31152 16.7535 2.31152 16.7558 2.31152 16.7581C2.31152 16.7603 2.31152 16.7626 2.31152 16.7649C2.31152 16.7672 2.31152 16.7695 2.31152 16.7718C2.31152 16.7741 2.31152 16.7764 2.31152 16.7787C2.31152 16.781 2.31152 16.7832 2.31152 16.7855C2.31152 16.7878 2.31152 16.7901 2.31152 16.7925C2.31152 16.7948 2.31152 16.7971 2.31152 16.7994C2.31152 16.8017 2.31152 16.804 2.31152 16.8063C2.31152 16.8086 2.31152 16.8109 2.31152 16.8132C2.31152 16.8156 2.31152 16.8179 2.31152 16.8202C2.31152 16.8225 2.31152 16.8249 2.31152 16.8272C2.31152 16.8295 2.31152 16.8318 2.31152 16.8342C2.31152 16.8365 2.31152 16.8388 2.31152 16.8412C2.31152 16.8435 2.31152 16.8458 2.31152 16.8482C2.31152 16.8505 2.31152 16.8528 2.31152 16.8552C2.31152 16.8575 2.31152 16.8599 2.31152 16.8622C2.31152 16.8646 2.31152 16.8669 2.31152 16.8693C2.31152 16.8716 2.31152 16.874 2.31152 16.8763C2.31152 16.8787 2.31152 16.881 2.31152 16.8834C2.31152 16.8857 2.31152 16.8881 2.31152 16.8905C2.31152 16.8928 2.31152 16.8952 2.31152 16.8976C2.31152 16.8999 2.31152 16.9023 2.31152 16.9047C2.31152 16.907 2.31152 16.9094 2.31152 16.9118C2.31152 16.9142 2.31152 16.9165 2.31152 16.9189C2.31152 16.9213 2.31152 16.9237 2.31152 16.9261C2.31152 16.9284 2.31152 16.9308 2.31152 16.9332C2.31152 16.9356 2.31152 16.938 2.31152 16.9404C2.31152 16.9428 2.31152 16.9452 2.31152 16.9476C2.31152 16.9499 2.31152 16.9523 2.31152 16.9547C2.31152 16.9571 2.31152 16.9595 2.31152 16.9619C2.31152 16.9643 2.31152 16.9667 2.31152 16.9692C2.31152 16.9716 2.31152 16.974 2.31152 16.9764C2.31152 16.9788 2.31152 16.9812 2.31152 16.9836C2.31152 16.986 2.31152 16.9884 2.31152 16.9909C2.31152 16.9933 2.31152 16.9957 2.31152 16.9981C2.31152 17.0005 2.31152 17.003 2.31152 17.0054C2.31152 17.0078 2.31152 17.0102 2.31152 17.0127C2.31152 17.0151 2.31152 17.0175 2.31152 17.02C2.31152 17.0224 2.31152 17.0248 2.31152 17.0273C2.31152 17.0297 2.31152 17.0322 2.31152 17.0346C2.31152 17.037 2.31152 17.0395 2.31152 17.0419C2.31152 17.0444 2.31152 17.0468 2.31152 17.0493C2.31152 17.0517 2.31152 17.0542 2.31152 17.0566C2.31152 17.0591 2.31152 17.0615 2.31152 17.064C2.31152 17.0664 2.31152 17.0689 2.31152 17.0713C2.31152 17.0738 2.31152 17.0763 2.31152 17.0787C2.31152 17.0812 2.31152 17.0837 2.31152 17.0861C2.31152 17.0886 2.31152 17.0911 2.31152 17.0935C2.31152 17.096 2.31152 17.0985 2.31152 17.1009C2.31152 17.1034 2.31152 17.1059 2.31152 17.1084C2.31152 17.1108 2.31152 17.1133 2.31152 17.1158C2.31152 17.1183 2.31152 17.1208 2.31152 17.1233C2.31152 17.1257 2.31152 17.1282 2.31152 17.1307C2.31152 17.1332 2.31152 17.1357 2.31152 17.1382C2.31152 17.1407 2.31152 17.1432 2.31152 17.1457C2.31152 17.1482 2.31152 17.1507 2.31152 17.1532C2.31152 17.1557 2.31152 17.1582 2.31152 17.1607C2.31152 17.1632 2.31152 17.1657 2.31152 17.1682C2.31152 17.1707 2.31152 17.1732 2.31152 17.1757C2.31152 17.1782 2.31152 17.1807 2.31152 17.1832C2.31152 17.1857 2.31152 17.1883 2.31152 17.1908C2.31152 17.1933 2.31152 17.1958 2.31152 17.1983C2.31152 17.2008 2.31152 17.2034 2.31152 17.2059C2.31152 17.2084 2.31152 17.2109 2.31152 17.2135C2.31152 17.216 2.31152 17.2185 2.31152 17.2211C2.31152 17.2236 2.31152 17.2261 2.31152 17.2287C2.31152 17.2312 2.31152 17.2337 2.31152 17.2363C2.31152 17.2388 2.31152 17.2413 2.31152 17.2439C2.31152 17.2464 2.31152 17.249 2.31152 17.2515C2.31152 17.254 2.31152 17.2566 2.31152 17.2591C2.31152 17.2617 2.31152 17.2642 2.31152 17.2668C2.31152 17.2693 2.31152 17.2719 2.31152 17.2744C2.31152 17.277 2.31152 17.2795 2.31152 17.2821C2.31152 17.2847 2.31152 17.2872 2.31152 17.2898C2.31152 17.2923 2.31152 17.2949 2.31152 17.2975C2.31152 17.3 2.31152 17.3026 2.31152 17.3052C2.31152 17.3077 2.31152 17.3103 2.31152 17.3129C2.31152 17.3154 2.31152 17.318 2.31152 17.3206C2.31152 17.3231 2.31152 17.3257 2.31152 17.3283C2.31152 17.3309 2.31152 17.3334 2.31152 17.336C2.31152 17.3386 2.31152 17.3412 2.31152 17.3438C2.31152 17.3464 2.31152 17.3489 2.31152 17.3515C2.31152 17.3541 2.31152 17.3567 2.31152 17.3593C2.31152 17.3619 2.31152 17.3645 2.31152 17.3671C2.31152 17.3696 2.31152 17.3722 2.31152 17.3748C2.31152 17.3774 2.31152 17.38 2.31152 17.3826C2.31152 17.3852 2.31152 17.3878 2.31152 17.3904C2.31152 17.393 2.31152 17.3956 2.31152 17.3982C2.31152 17.4008 2.31152 17.4034 2.31152 17.406C2.31152 17.4087 2.31152 17.4113 2.31152 17.4139C2.31152 17.4165 2.31152 17.4191 2.31152 17.4217C2.31152 17.4243 2.31152 17.4269 2.31152 17.4296C2.31152 17.4322 2.31152 17.4348 2.31152 17.4374C2.31152 17.44 2.31152 17.4426 2.31152 17.4453C2.31152 17.4479 2.31152 17.4505 2.31152 17.4531C2.31152 17.4558 2.31152 17.4584 2.31152 17.461C2.31152 17.4636 2.31152 17.4663 2.31152 17.4689C2.31152 17.4715 2.31152 17.4742 2.31152 17.4768C2.31152 17.4794 2.31152 17.4821 2.31152 17.4847C2.31152 17.4873 2.31152 17.49 2.31152 17.4926C2.31152 17.4953 2.31152 17.4979 2.31152 17.5005C2.31152 17.5032 2.31152 17.5058 2.31152 17.5085C2.31152 17.5111 2.31152 17.5138 2.31152 17.5164C2.31152 17.5191 2.31152 17.5217 2.31152 17.5244C2.31152 17.527 2.31152 17.5297 2.31152 17.5323C2.31152 17.535 2.31152 17.5376 2.31152 17.5403C2.31152 17.5429 2.31152 17.5456 2.31152 17.5483C2.31152 17.5509 2.31152 17.5536 2.31152 17.5562C2.31152 17.5589 2.31152 17.5616 2.31152 17.5642C2.31152 17.5669 2.31152 17.5696 2.31152 17.5722C2.31152 17.5749 2.31152 17.5776 2.31152 17.5802C2.31152 17.5829 2.31152 17.5856 2.31152 17.5883C2.31152 17.5909 2.31152 17.5936 2.31152 17.5963C2.31152 17.599 2.31152 17.6016 2.31152 17.6043C2.31152 17.607 2.31152 17.6097 2.31152 17.6123C2.31152 17.615 2.31152 17.6177 2.31152 17.6204C2.31152 17.6231 2.31152 17.6258 2.31152 17.6284C2.31152 17.6311 2.31152 17.6338 2.31152 17.6365C2.31152 17.6392 2.31152 17.6419 2.31152 17.6446C2.31152 17.6473 2.31152 17.65 2.31152 17.6527C2.31152 17.6554 2.31152 17.658 2.31152 17.6607C2.31152 17.6634 2.31152 17.6661 2.31152 17.6688C2.31152 17.6715 2.31152 17.6742 2.31152 17.6769C2.31152 17.6796 2.31152 17.6823 2.31152 17.685C2.31152 17.6878 2.31152 17.6905 2.31152 17.6932C2.31152 17.6959 2.31152 17.6986 2.31152 17.7013C2.31152 17.704 2.31152 17.7067 2.31152 17.7094C2.31152 17.7121 2.31152 17.7148 2.31152 17.7176C2.31152 17.7203 2.31152 17.723 2.31152 17.7257C2.31152 17.7284 2.31152 17.7311 2.31152 17.7339C2.31152 17.7366 2.31152 17.7393 2.31152 17.742C2.31152 17.7447 2.31152 17.7475 2.31152 17.7502C2.31152 17.7529 2.31152 17.7556 2.31152 17.7584C2.31152 17.7611 2.31152 17.7638 2.31152 17.7665C2.31152 17.7693 2.31152 17.772 2.31152 17.7747C2.31152 17.7775 2.31152 17.7802 2.31152 17.7829C2.31152 17.7857 2.31152 17.7884 2.31152 17.7911C2.31152 17.7939 2.31152 17.7966 2.31152 17.7993C2.31152 17.8021 2.31152 17.8048 2.31152 17.8076C2.31152 17.8103 2.31152 17.813 2.31152 17.8158C2.31152 17.8185 2.31152 17.8213 2.31152 17.824C2.31152 17.8268 2.31152 17.8295 2.31152 17.8322C2.31152 17.835 2.31152 17.8377 2.31152 17.8405C2.31152 17.8432 2.31152 17.846 2.31152 17.8487C2.31152 17.8515 2.31152 17.8542 2.31152 17.857C2.31152 17.8597 2.31152 17.8625 2.31152 17.8653C2.31152 17.868 2.31152 17.8708 2.31152 17.8735C2.31152 17.8763 2.31152 17.879 2.31152 17.8818C2.31152 17.8846 2.31152 17.8873 2.31152 17.8901C2.31152 17.8929 2.31152 17.8956 2.31152 17.8984C2.31152 17.9011 2.31152 17.9039 2.31152 17.9067C2.31152 17.9094 2.31152 17.9122 2.31152 17.915C2.31152 17.9177 2.31152 17.9205 2.31152 17.9233C2.31152 17.9261 2.31152 17.9288 2.31152 17.9316C2.31152 17.9344 2.31152 17.9371 2.31152 17.9399C2.31152 17.9427 2.31152 17.9455 2.31152 17.9483C2.31152 17.951 2.31152 17.9538 2.31152 17.9566C2.31152 17.9594 2.31152 17.9621 2.31152 17.9649C2.31152 17.9677 2.31152 17.9705 2.31152 17.9733C2.31152 17.9761 2.31152 17.9788 2.31152 17.9816C2.31152 17.9844 2.31152 17.9872 2.31152 17.99C2.31152 17.9928 2.31152 17.9956 2.31152 17.9983C2.31152 18.0011 2.31152 18.0039 2.31152 18.0067C2.31152 18.0095 2.31152 18.0123 2.31152 18.0151C2.31152 18.0179 2.31152 18.0207 2.31152 18.0235C2.31152 18.0263 2.31152 18.0291 2.31152 18.0319C2.31152 18.0346 2.31152 18.0374 2.31152 18.0402C2.31152 18.043 2.31152 18.0458 2.31152 18.0486C2.31152 18.0514 2.31152 18.0542 2.31152 18.057C2.31152 18.0598 2.31152 18.0626 2.31152 18.0655C2.31152 18.0683 2.31152 18.0711 2.31152 18.0739C2.31152 18.0767 2.31152 18.0795 2.31152 18.0823C2.31152 18.0851 2.31152 18.0879 2.31152 18.0907C2.31152 18.0935 2.31152 18.0963 2.31152 18.0991C2.31152 18.102 2.31152 18.1048 2.31152 18.1076C2.31152 18.1104 2.31152 18.1132 2.31152 18.116C2.31152 18.1188 2.31152 18.1216 2.31152 18.1245C2.31152 18.1273 2.31152 18.1301 2.31152 18.1329C2.31152 18.1357 2.31152 18.1385 2.31152 18.1414C2.31152 18.1442 2.31152 18.147 2.31152 18.1498C2.31152 18.1527 2.31152 18.1555 2.31152 18.1583C2.31152 18.1611 2.31152 18.1639 2.31152 18.1668C2.31152 18.1696 2.31152 18.1724 2.31152 18.1752C2.31152 18.1781 2.31152 18.1809 2.31152 18.1837C2.31152 18.1866 2.31152 18.1894 2.31152 18.1922C2.31152 18.195 2.31152 18.1979 2.31152 18.2007C2.31152 18.2035 2.31152 18.2064 2.31152 18.2092C2.31152 18.212 2.31152 18.2149 2.31152 18.2177C2.31152 18.2205 2.31152 18.2234 2.31152 18.2262C2.31152 18.229 2.31152 18.2319 2.31152 18.2347C2.31152 18.2375 2.31152 18.2404 2.31152 18.2432C2.31152 18.2461 2.31152 18.2489 2.31152 18.2517C2.31152 18.2546 2.31152 18.2574 2.31152 18.2603C2.31152 18.2631 2.31152 18.266 2.31152 18.2688C2.31152 18.2716 2.31152 18.2745 2.31152 18.2773C2.31152 18.2802 2.31152 18.283 2.31152 18.2859C2.31152 18.2887 2.31152 18.2916 2.31152 18.2944C2.31152 18.2973 2.31152 18.3001 2.31152 18.3029C2.31152 18.3058 2.31152 18.3086 2.31152 18.3115C2.31152 18.3143 2.31152 18.3172 2.31152 18.3201C2.31152 18.3229 2.31152 18.3258 2.31152 18.3286C2.31152 18.3315 2.31152 18.3343 2.31152 18.3372C2.31152 18.34 2.31152 18.3429 2.31152 18.3457C2.31152 18.3486 2.31152 18.3514 2.31152 18.3543C2.31152 18.3572 2.31152 18.36 2.31152 18.3629C2.31152 18.3657 2.31152 18.3686 2.31152 18.3715C2.31152 18.3743 2.31152 18.3772 2.31152 18.38C2.31152 18.3829 2.31152 18.3858 2.31152 18.3886C2.31152 18.3915 2.31152 18.3943 2.31152 18.3972C2.31152 18.4001 2.31152 18.4029 2.31152 18.4058C2.31152 18.4087 2.31152 18.4115 2.31152 18.4144C2.31152 18.4173 2.31152 18.4201 2.31152 18.423C2.31152 18.4259 2.31152 18.4287 2.31152 18.4316C2.31152 18.4345 2.31152 18.4373 2.31152 18.4402C2.31152 18.4431 2.31152 18.4459 2.31152 18.4488C2.31152 18.4517 2.31152 18.4546 2.31152 18.4574C2.31152 18.4603 2.31152 18.4632 2.31152 18.466C2.31152 18.4689 2.31152 18.4718 2.31152 18.4747C2.31152 18.4775 2.31152 18.4804 2.31152 18.4833C2.31152 18.4862 2.31152 18.489 2.31152 18.4919C2.31152 18.4948 2.31152 18.4977 2.31152 18.5006C2.31152 18.5034 2.31152 18.5063 2.31152 18.5092C2.31152 18.5121 2.31152 18.5149 2.31152 18.5178C2.31152 18.5207 2.31152 18.5236 2.31152 18.5265C2.31152 18.5293 2.31152 18.5322 2.31152 18.5351C2.31152 18.538 2.31152 18.5409 2.31152 18.5438C2.31152 18.5466 2.31152 18.5495 2.31152 18.5524C2.31152 18.5553 2.31152 18.5582 2.31152 18.5611C2.31152 18.5639 2.31152 18.5668 2.31152 18.5697C2.31152 18.5726 2.31152 18.5755 2.31152 18.5784C2.31152 18.5812 2.31152 18.5841 2.31152 18.587C2.31152 18.5899 2.31152 18.5928 2.31152 18.5957C2.31152 18.5986 2.31152 18.6015 2.31152 18.6044C2.31152 18.6072 2.31152 18.6101 2.31152 18.613C2.31152 18.6159 2.31152 18.6188 2.31152 18.6217C2.31152 18.6246 2.31152 18.6275 2.31152 18.6304C2.31152 18.6333 2.31152 18.6361 2.31152 18.639C2.31152 18.6419 2.31152 18.6448 2.31152 18.6477C2.31152 18.6506 2.31152 18.6535 2.31152 18.6564C2.31152 18.6593 2.31152 18.6622 2.31152 18.6651C2.31152 18.668 2.31152 18.6709 2.31152 18.6738C2.31152 18.6767 2.31152 18.6796 2.31152 18.6825C2.31152 18.6854 2.31152 18.6883 2.31152 18.6911C2.31152 18.694 2.31152 18.6969 2.31152 18.6998C2.31152 18.7027 2.31152 18.7056 2.31152 18.7085C2.31152 18.7114 2.31152 18.7143 2.31152 18.7172C2.31152 18.7201 2.31152 18.723 2.31152 18.7259C2.31152 18.7288 2.31152 18.7317 2.31152 18.7346C2.31152 18.7375 2.31152 18.7404 2.31152 18.7433C2.31152 18.7462 2.31152 18.7491 2.31152 18.752C2.31152 18.7549 2.31152 18.7578 2.31152 18.7607C2.31152 18.7636 2.31152 18.7666 2.31152 18.7695C2.31152 18.7724 2.31152 18.7753 2.31152 18.7782C2.31152 18.7811 2.31152 18.784 2.31152 18.7869C2.31152 18.7898 2.31152 18.7927 2.31152 18.7956C2.31152 18.7985 2.31152 18.8014 2.31152 18.8043C2.31152 18.8072 2.31152 18.8101 2.31152 18.813C2.31152 18.8159 2.31152 18.8188 2.31152 18.8217C2.31152 18.8246 2.31152 18.8276 2.31152 18.8305C2.31152 18.8334 2.31152 18.8363 2.31152 18.8392C2.31152 18.8421 2.31152 18.845 2.31152 18.8479C2.31152 18.8508 2.31152 18.8537 2.31152 18.8566C2.31152 18.8595 2.31152 18.8624 2.31152 18.8654C2.31152 18.8683 2.31152 18.8712 2.31152 18.8741C2.31152 18.877 2.31152 18.8799 2.31152 18.8828C2.31152 18.8857 2.31152 18.8886 2.31152 18.8915C2.31152 18.8945 2.31152 18.8974 2.31152 18.9003C2.31152 18.9032 2.31152 18.9061 2.31152 18.909C2.31152 18.9119 2.31152 18.9148 2.31152 18.9177C2.31152 18.9207 2.31152 18.9236 2.31152 18.9265C2.31152 18.9294 2.31152 18.9323 2.31152 18.9352C2.31152 18.9381 2.31152 18.941 2.31152 18.9439C2.31152 18.9469 2.31152 18.9498 2.31152 18.9527C2.31152 18.9556 2.31152 18.9585 2.31152 18.9614C2.31152 18.9643 2.31152 18.9672 2.31152 18.9702C2.31152 18.9731 2.31152 18.976 2.31152 18.9789C2.31152 18.9818 2.31152 18.9847 2.31152 18.9876C2.31152 18.9906 2.31152 18.9935 2.31152 18.9964C2.31152 18.9993 2.31152 19.0022 2.31152 19.0051C2.31152 19.008 2.31152 19.0109 2.31152 19.0139C2.31152 19.0168 2.31152 19.0197 2.31152 19.0226C2.31152 19.0255 2.31152 19.0284 2.31152 19.0313C2.31152 19.0343 2.31152 19.0372 2.31152 19.0401C2.31152 19.043 2.31152 19.0459 2.31152 19.0488C2.31152 19.0518 2.31152 19.0547 2.31152 19.0576C2.31152 19.0605 2.31152 19.0634 2.31152 19.0663C2.31152 19.0692 2.31152 19.0722 2.31152 19.0751C2.31152 19.078 2.31152 19.0809 2.31152 19.0838C2.31152 19.0867 2.31152 19.0896 2.31152 19.0926C2.31152 19.0955 2.31152 19.0984 2.31152 19.1013C2.31152 19.1042 2.31152 19.1071 2.31152 19.1101C2.31152 19.113 2.31152 19.1159 2.31152 19.1188C2.31152 19.1217 2.31152 19.1246 2.31152 19.1275C2.31152 19.1305 2.31152 19.1334 2.31152 19.1363C2.31152 19.1392 2.31152 19.1421 2.31152 19.145C2.31152 19.1479 2.31152 19.1509 2.31152 19.1538C2.31152 19.1567 2.31152 19.1596 2.31152 19.1625C2.31152 19.1654 2.31152 19.1684 2.31152 19.1713C2.31152 19.1742 2.31152 19.1771 2.31152 19.18C2.31152 19.1829 2.31152 19.1858 2.31152 19.1888C2.31152 19.1917 2.31152 19.1946 2.31152 19.1975C2.31152 19.2004 2.31152 19.2033 2.31152 19.2062C2.31152 19.2092 2.31152 19.2121 2.31152 19.215C2.31152 19.2179 2.31152 19.2208 2.31152 19.2237C2.31152 19.2266 2.31152 19.2296 2.31152 19.2325C2.31152 19.2354 2.31152 19.2383 2.31152 19.2412C2.31152 19.2441 2.31152 19.247 2.31152 19.25C2.31152 19.2529 2.31152 19.2558 2.31152 19.2587C2.31152 19.2616 2.31152 19.2645 2.31152 19.2674C2.31152 19.2704 2.31152 19.2733 2.31152 19.2762C2.31152 19.2791 2.31152 19.282 2.31152 19.2849C2.31152 19.2878 2.31152 19.2907 2.31152 19.2937C2.31152 19.2966 2.31152 19.2995 2.31152 19.3024C2.31152 19.3053 2.31152 19.3082 2.31152 19.3111C2.31152 19.314 2.31152 19.3169 2.31152 19.3199C2.31152 19.3228 2.31152 19.3257 2.31152 19.3286C2.31152 19.3315 2.31152 19.3344 2.31152 19.3373C2.31152 19.3402 2.31152 19.3431 2.31152 19.3461C2.31152 19.349 2.31152 19.3519 2.31152 19.3548C2.31152 19.3577 2.31152 19.3606 2.31152 19.3635C2.31152 19.3664 2.31152 19.3693 2.31152 19.3722C2.31152 19.3752 2.31152 19.3781 2.31152 19.381C2.31152 19.3839 2.31152 19.3868 2.31152 19.3897C2.31152 19.3926 2.31152 19.3955 2.31152 19.3984C2.31152 19.4013 2.31152 19.4042 2.31152 19.4071C2.31152 19.4101 2.31152 19.413 2.31152 19.4159C2.31152 19.4188 2.31152 19.4217 2.31152 19.4246C2.31152 19.4275 2.31152 19.4304 2.31152 19.4333C2.31152 19.4362 2.31152 19.4391 2.31152 19.442C2.31152 19.4449 2.31152 19.4478 2.31152 19.4507C2.31152 19.4536 2.31152 19.4565 2.31152 19.4594C2.31152 19.4624 2.31152 19.4653 2.31152 19.4682C2.31152 19.4711 2.31152 19.474 2.31152 19.4769C2.31152 19.4798 2.31152 19.4827 2.31152 19.4856C2.31152 19.4885 2.31152 19.4914 2.31152 19.4943C2.31152 19.4972 2.31152 19.5001 2.31152 19.503C2.31152 19.5059 2.31152 19.5088 2.31152 19.5117C2.31152 19.5146 2.31152 19.5175 2.31152 19.5204C2.31152 19.5233 2.31152 19.5262 2.31152 19.5291C2.31152 19.532 2.31152 19.5349 2.31152 19.5378C2.31152 19.5407 2.31152 19.5436 2.31152 19.5465C2.31152 19.5494 2.31152 19.5523 2.31152 19.5552C2.31152 19.5581 2.31152 19.561 2.31152 19.5639C2.31152 19.5668 2.31152 19.5696 2.31152 19.5725C2.31152 19.5754 2.31152 19.5783 2.31152 19.5812C2.31152 19.5841 2.31152 19.587 2.31152 19.5899C2.31152 19.5928 2.31152 19.5957 2.31152 19.5986C2.31152 19.6015 2.31152 19.6044 2.31152 19.6073C2.31152 19.6102 2.31152 19.6131 2.31152 19.6159C2.31152 19.6188 2.31152 19.6217 2.31152 19.6246C2.31152 19.6275 2.31152 19.6304 2.31152 19.6333C2.31152 19.6362 2.31152 19.6391 2.31152 19.642C2.31152 19.6448 2.31152 19.6477 2.31152 19.6506C2.31152 19.6535 2.31152 19.6564 2.31152 19.6593C2.31152 19.6622 2.31152 19.6651 2.31152 19.6679C2.31152 19.6708 2.31152 19.6737 2.31152 19.6766C2.31152 19.6795 2.31152 19.6824 2.31152 19.6852C2.31152 19.6881 2.31152 19.691 2.31152 19.6939C2.31152 19.6968 2.31152 19.6997 2.31152 19.7025C2.31152 19.7054 2.31152 19.7083 2.31152 19.7112C2.31152 19.7141 2.31152 19.717 2.31152 19.7198C2.31152 19.7227 2.31152 19.7256 2.31152 19.7285C2.31152 19.7314 2.31152 19.7342 2.31152 19.7371C2.31152 19.74 2.31152 19.7429 2.31152 19.7457C2.31152 19.7486 2.31152 19.7515 2.31152 19.7544C2.31152 19.7572 2.31152 19.7601 2.31152 19.763C2.31152 19.7659 2.31152 19.7687 2.31152 19.7716C2.31152 19.7745 2.31152 19.7774 2.31152 19.7802C2.31152 19.7831 2.31152 19.786 2.31152 19.7889C2.31152 19.7917 2.31152 19.7946 2.31152 19.7975C2.31152 19.8003 2.31152 19.8032 2.31152 19.8061C2.31152 19.8089 2.31152 19.8118 2.31152 19.8147C2.31152 19.8175 2.31152 19.8204 2.31152 19.8233C2.31152 19.8261 2.31152 19.829 2.31152 19.8319C2.31152 19.8347 2.31152 19.8376 2.31152 19.8405C2.31152 19.8433 2.31152 19.8462 2.31152 19.8491C2.31152 19.8519 2.31152 19.8548 2.31152 19.8577C2.31152 19.8605 2.31152 19.8634 2.31152 19.8662C2.31152 19.8691 2.31152 19.872 2.31152 19.8748H4.31152C4.31152 19.872 4.31152 19.8691 4.31152 19.8662C4.31152 19.8634 4.31152 19.8605 4.31152 19.8577C4.31152 19.8548 4.31152 19.8519 4.31152 19.8491C4.31152 19.8462 4.31152 19.8433 4.31152 19.8405C4.31152 19.8376 4.31152 19.8347 4.31152 19.8319C4.31152 19.829 4.31152 19.8261 4.31152 19.8233C4.31152 19.8204 4.31152 19.8175 4.31152 19.8147C4.31152 19.8118 4.31152 19.8089 4.31152 19.8061C4.31152 19.8032 4.31152 19.8003 4.31152 19.7975C4.31152 19.7946 4.31152 19.7917 4.31152 19.7889C4.31152 19.786 4.31152 19.7831 4.31152 19.7802C4.31152 19.7774 4.31152 19.7745 4.31152 19.7716C4.31152 19.7687 4.31152 19.7659 4.31152 19.763C4.31152 19.7601 4.31152 19.7572 4.31152 19.7544C4.31152 19.7515 4.31152 19.7486 4.31152 19.7457C4.31152 19.7429 4.31152 19.74 4.31152 19.7371C4.31152 19.7342 4.31152 19.7314 4.31152 19.7285C4.31152 19.7256 4.31152 19.7227 4.31152 19.7198C4.31152 19.717 4.31152 19.7141 4.31152 19.7112C4.31152 19.7083 4.31152 19.7054 4.31152 19.7025C4.31152 19.6997 4.31152 19.6968 4.31152 19.6939C4.31152 19.691 4.31152 19.6881 4.31152 19.6852C4.31152 19.6824 4.31152 19.6795 4.31152 19.6766C4.31152 19.6737 4.31152 19.6708 4.31152 19.6679C4.31152 19.6651 4.31152 19.6622 4.31152 19.6593C4.31152 19.6564 4.31152 19.6535 4.31152 19.6506C4.31152 19.6477 4.31152 19.6448 4.31152 19.642C4.31152 19.6391 4.31152 19.6362 4.31152 19.6333C4.31152 19.6304 4.31152 19.6275 4.31152 19.6246C4.31152 19.6217 4.31152 19.6188 4.31152 19.6159C4.31152 19.6131 4.31152 19.6102 4.31152 19.6073C4.31152 19.6044 4.31152 19.6015 4.31152 19.5986C4.31152 19.5957 4.31152 19.5928 4.31152 19.5899C4.31152 19.587 4.31152 19.5841 4.31152 19.5812C4.31152 19.5783 4.31152 19.5754 4.31152 19.5725C4.31152 19.5696 4.31152 19.5668 4.31152 19.5639C4.31152 19.561 4.31152 19.5581 4.31152 19.5552C4.31152 19.5523 4.31152 19.5494 4.31152 19.5465C4.31152 19.5436 4.31152 19.5407 4.31152 19.5378C4.31152 19.5349 4.31152 19.532 4.31152 19.5291C4.31152 19.5262 4.31152 19.5233 4.31152 19.5204C4.31152 19.5175 4.31152 19.5146 4.31152 19.5117C4.31152 19.5088 4.31152 19.5059 4.31152 19.503C4.31152 19.5001 4.31152 19.4972 4.31152 19.4943C4.31152 19.4914 4.31152 19.4885 4.31152 19.4856C4.31152 19.4827 4.31152 19.4798 4.31152 19.4769C4.31152 19.474 4.31152 19.4711 4.31152 19.4682C4.31152 19.4653 4.31152 19.4624 4.31152 19.4594C4.31152 19.4565 4.31152 19.4536 4.31152 19.4507C4.31152 19.4478 4.31152 19.4449 4.31152 19.442C4.31152 19.4391 4.31152 19.4362 4.31152 19.4333C4.31152 19.4304 4.31152 19.4275 4.31152 19.4246C4.31152 19.4217 4.31152 19.4188 4.31152 19.4159C4.31152 19.413 4.31152 19.4101 4.31152 19.4071C4.31152 19.4042 4.31152 19.4013 4.31152 19.3984C4.31152 19.3955 4.31152 19.3926 4.31152 19.3897C4.31152 19.3868 4.31152 19.3839 4.31152 19.381C4.31152 19.3781 4.31152 19.3752 4.31152 19.3722C4.31152 19.3693 4.31152 19.3664 4.31152 19.3635C4.31152 19.3606 4.31152 19.3577 4.31152 19.3548C4.31152 19.3519 4.31152 19.349 4.31152 19.3461C4.31152 19.3431 4.31152 19.3402 4.31152 19.3373C4.31152 19.3344 4.31152 19.3315 4.31152 19.3286C4.31152 19.3257 4.31152 19.3228 4.31152 19.3199C4.31152 19.3169 4.31152 19.314 4.31152 19.3111C4.31152 19.3082 4.31152 19.3053 4.31152 19.3024C4.31152 19.2995 4.31152 19.2966 4.31152 19.2937C4.31152 19.2907 4.31152 19.2878 4.31152 19.2849C4.31152 19.282 4.31152 19.2791 4.31152 19.2762C4.31152 19.2733 4.31152 19.2704 4.31152 19.2674C4.31152 19.2645 4.31152 19.2616 4.31152 19.2587C4.31152 19.2558 4.31152 19.2529 4.31152 19.25C4.31152 19.247 4.31152 19.2441 4.31152 19.2412C4.31152 19.2383 4.31152 19.2354 4.31152 19.2325C4.31152 19.2296 4.31152 19.2266 4.31152 19.2237C4.31152 19.2208 4.31152 19.2179 4.31152 19.215C4.31152 19.2121 4.31152 19.2092 4.31152 19.2062C4.31152 19.2033 4.31152 19.2004 4.31152 19.1975C4.31152 19.1946 4.31152 19.1917 4.31152 19.1888C4.31152 19.1858 4.31152 19.1829 4.31152 19.18C4.31152 19.1771 4.31152 19.1742 4.31152 19.1713C4.31152 19.1684 4.31152 19.1654 4.31152 19.1625C4.31152 19.1596 4.31152 19.1567 4.31152 19.1538C4.31152 19.1509 4.31152 19.1479 4.31152 19.145C4.31152 19.1421 4.31152 19.1392 4.31152 19.1363C4.31152 19.1334 4.31152 19.1305 4.31152 19.1275C4.31152 19.1246 4.31152 19.1217 4.31152 19.1188C4.31152 19.1159 4.31152 19.113 4.31152 19.1101C4.31152 19.1071 4.31152 19.1042 4.31152 19.1013C4.31152 19.0984 4.31152 19.0955 4.31152 19.0926C4.31152 19.0896 4.31152 19.0867 4.31152 19.0838C4.31152 19.0809 4.31152 19.078 4.31152 19.0751C4.31152 19.0722 4.31152 19.0692 4.31152 19.0663C4.31152 19.0634 4.31152 19.0605 4.31152 19.0576C4.31152 19.0547 4.31152 19.0518 4.31152 19.0488C4.31152 19.0459 4.31152 19.043 4.31152 19.0401C4.31152 19.0372 4.31152 19.0343 4.31152 19.0313C4.31152 19.0284 4.31152 19.0255 4.31152 19.0226C4.31152 19.0197 4.31152 19.0168 4.31152 19.0139C4.31152 19.0109 4.31152 19.008 4.31152 19.0051C4.31152 19.0022 4.31152 18.9993 4.31152 18.9964C4.31152 18.9935 4.31152 18.9906 4.31152 18.9876C4.31152 18.9847 4.31152 18.9818 4.31152 18.9789C4.31152 18.976 4.31152 18.9731 4.31152 18.9702C4.31152 18.9672 4.31152 18.9643 4.31152 18.9614C4.31152 18.9585 4.31152 18.9556 4.31152 18.9527C4.31152 18.9498 4.31152 18.9469 4.31152 18.9439C4.31152 18.941 4.31152 18.9381 4.31152 18.9352C4.31152 18.9323 4.31152 18.9294 4.31152 18.9265C4.31152 18.9236 4.31152 18.9207 4.31152 18.9177C4.31152 18.9148 4.31152 18.9119 4.31152 18.909C4.31152 18.9061 4.31152 18.9032 4.31152 18.9003C4.31152 18.8974 4.31152 18.8945 4.31152 18.8915C4.31152 18.8886 4.31152 18.8857 4.31152 18.8828C4.31152 18.8799 4.31152 18.877 4.31152 18.8741C4.31152 18.8712 4.31152 18.8683 4.31152 18.8654C4.31152 18.8624 4.31152 18.8595 4.31152 18.8566C4.31152 18.8537 4.31152 18.8508 4.31152 18.8479C4.31152 18.845 4.31152 18.8421 4.31152 18.8392C4.31152 18.8363 4.31152 18.8334 4.31152 18.8305C4.31152 18.8276 4.31152 18.8246 4.31152 18.8217C4.31152 18.8188 4.31152 18.8159 4.31152 18.813C4.31152 18.8101 4.31152 18.8072 4.31152 18.8043C4.31152 18.8014 4.31152 18.7985 4.31152 18.7956C4.31152 18.7927 4.31152 18.7898 4.31152 18.7869C4.31152 18.784 4.31152 18.7811 4.31152 18.7782C4.31152 18.7753 4.31152 18.7724 4.31152 18.7695C4.31152 18.7666 4.31152 18.7636 4.31152 18.7607C4.31152 18.7578 4.31152 18.7549 4.31152 18.752C4.31152 18.7491 4.31152 18.7462 4.31152 18.7433C4.31152 18.7404 4.31152 18.7375 4.31152 18.7346C4.31152 18.7317 4.31152 18.7288 4.31152 18.7259C4.31152 18.723 4.31152 18.7201 4.31152 18.7172C4.31152 18.7143 4.31152 18.7114 4.31152 18.7085C4.31152 18.7056 4.31152 18.7027 4.31152 18.6998C4.31152 18.6969 4.31152 18.694 4.31152 18.6911C4.31152 18.6883 4.31152 18.6854 4.31152 18.6825C4.31152 18.6796 4.31152 18.6767 4.31152 18.6738C4.31152 18.6709 4.31152 18.668 4.31152 18.6651C4.31152 18.6622 4.31152 18.6593 4.31152 18.6564C4.31152 18.6535 4.31152 18.6506 4.31152 18.6477C4.31152 18.6448 4.31152 18.6419 4.31152 18.639C4.31152 18.6361 4.31152 18.6333 4.31152 18.6304C4.31152 18.6275 4.31152 18.6246 4.31152 18.6217C4.31152 18.6188 4.31152 18.6159 4.31152 18.613C4.31152 18.6101 4.31152 18.6072 4.31152 18.6044C4.31152 18.6015 4.31152 18.5986 4.31152 18.5957C4.31152 18.5928 4.31152 18.5899 4.31152 18.587C4.31152 18.5841 4.31152 18.5812 4.31152 18.5784C4.31152 18.5755 4.31152 18.5726 4.31152 18.5697C4.31152 18.5668 4.31152 18.5639 4.31152 18.5611C4.31152 18.5582 4.31152 18.5553 4.31152 18.5524C4.31152 18.5495 4.31152 18.5466 4.31152 18.5438C4.31152 18.5409 4.31152 18.538 4.31152 18.5351C4.31152 18.5322 4.31152 18.5293 4.31152 18.5265C4.31152 18.5236 4.31152 18.5207 4.31152 18.5178C4.31152 18.5149 4.31152 18.5121 4.31152 18.5092C4.31152 18.5063 4.31152 18.5034 4.31152 18.5006C4.31152 18.4977 4.31152 18.4948 4.31152 18.4919C4.31152 18.489 4.31152 18.4862 4.31152 18.4833C4.31152 18.4804 4.31152 18.4775 4.31152 18.4747C4.31152 18.4718 4.31152 18.4689 4.31152 18.466C4.31152 18.4632 4.31152 18.4603 4.31152 18.4574C4.31152 18.4546 4.31152 18.4517 4.31152 18.4488C4.31152 18.4459 4.31152 18.4431 4.31152 18.4402C4.31152 18.4373 4.31152 18.4345 4.31152 18.4316C4.31152 18.4287 4.31152 18.4259 4.31152 18.423C4.31152 18.4201 4.31152 18.4173 4.31152 18.4144C4.31152 18.4115 4.31152 18.4087 4.31152 18.4058C4.31152 18.4029 4.31152 18.4001 4.31152 18.3972C4.31152 18.3943 4.31152 18.3915 4.31152 18.3886C4.31152 18.3858 4.31152 18.3829 4.31152 18.38C4.31152 18.3772 4.31152 18.3743 4.31152 18.3715C4.31152 18.3686 4.31152 18.3657 4.31152 18.3629C4.31152 18.36 4.31152 18.3572 4.31152 18.3543C4.31152 18.3514 4.31152 18.3486 4.31152 18.3457C4.31152 18.3429 4.31152 18.34 4.31152 18.3372C4.31152 18.3343 4.31152 18.3315 4.31152 18.3286C4.31152 18.3258 4.31152 18.3229 4.31152 18.3201C4.31152 18.3172 4.31152 18.3143 4.31152 18.3115C4.31152 18.3086 4.31152 18.3058 4.31152 18.3029C4.31152 18.3001 4.31152 18.2973 4.31152 18.2944C4.31152 18.2916 4.31152 18.2887 4.31152 18.2859C4.31152 18.283 4.31152 18.2802 4.31152 18.2773C4.31152 18.2745 4.31152 18.2716 4.31152 18.2688C4.31152 18.266 4.31152 18.2631 4.31152 18.2603C4.31152 18.2574 4.31152 18.2546 4.31152 18.2517C4.31152 18.2489 4.31152 18.2461 4.31152 18.2432C4.31152 18.2404 4.31152 18.2375 4.31152 18.2347C4.31152 18.2319 4.31152 18.229 4.31152 18.2262C4.31152 18.2234 4.31152 18.2205 4.31152 18.2177C4.31152 18.2149 4.31152 18.212 4.31152 18.2092C4.31152 18.2064 4.31152 18.2035 4.31152 18.2007C4.31152 18.1979 4.31152 18.195 4.31152 18.1922C4.31152 18.1894 4.31152 18.1866 4.31152 18.1837C4.31152 18.1809 4.31152 18.1781 4.31152 18.1752C4.31152 18.1724 4.31152 18.1696 4.31152 18.1668C4.31152 18.1639 4.31152 18.1611 4.31152 18.1583C4.31152 18.1555 4.31152 18.1527 4.31152 18.1498C4.31152 18.147 4.31152 18.1442 4.31152 18.1414C4.31152 18.1385 4.31152 18.1357 4.31152 18.1329C4.31152 18.1301 4.31152 18.1273 4.31152 18.1245C4.31152 18.1216 4.31152 18.1188 4.31152 18.116C4.31152 18.1132 4.31152 18.1104 4.31152 18.1076C4.31152 18.1048 4.31152 18.102 4.31152 18.0991C4.31152 18.0963 4.31152 18.0935 4.31152 18.0907C4.31152 18.0879 4.31152 18.0851 4.31152 18.0823C4.31152 18.0795 4.31152 18.0767 4.31152 18.0739C4.31152 18.0711 4.31152 18.0683 4.31152 18.0655C4.31152 18.0626 4.31152 18.0598 4.31152 18.057C4.31152 18.0542 4.31152 18.0514 4.31152 18.0486C4.31152 18.0458 4.31152 18.043 4.31152 18.0402C4.31152 18.0374 4.31152 18.0346 4.31152 18.0319C4.31152 18.0291 4.31152 18.0263 4.31152 18.0235C4.31152 18.0207 4.31152 18.0179 4.31152 18.0151C4.31152 18.0123 4.31152 18.0095 4.31152 18.0067C4.31152 18.0039 4.31152 18.0011 4.31152 17.9983C4.31152 17.9956 4.31152 17.9928 4.31152 17.99C4.31152 17.9872 4.31152 17.9844 4.31152 17.9816C4.31152 17.9788 4.31152 17.9761 4.31152 17.9733C4.31152 17.9705 4.31152 17.9677 4.31152 17.9649C4.31152 17.9621 4.31152 17.9594 4.31152 17.9566C4.31152 17.9538 4.31152 17.951 4.31152 17.9483C4.31152 17.9455 4.31152 17.9427 4.31152 17.9399C4.31152 17.9371 4.31152 17.9344 4.31152 17.9316C4.31152 17.9288 4.31152 17.9261 4.31152 17.9233C4.31152 17.9205 4.31152 17.9177 4.31152 17.915C4.31152 17.9122 4.31152 17.9094 4.31152 17.9067C4.31152 17.9039 4.31152 17.9011 4.31152 17.8984C4.31152 17.8956 4.31152 17.8929 4.31152 17.8901C4.31152 17.8873 4.31152 17.8846 4.31152 17.8818C4.31152 17.879 4.31152 17.8763 4.31152 17.8735C4.31152 17.8708 4.31152 17.868 4.31152 17.8653C4.31152 17.8625 4.31152 17.8597 4.31152 17.857C4.31152 17.8542 4.31152 17.8515 4.31152 17.8487C4.31152 17.846 4.31152 17.8432 4.31152 17.8405C4.31152 17.8377 4.31152 17.835 4.31152 17.8322C4.31152 17.8295 4.31152 17.8268 4.31152 17.824C4.31152 17.8213 4.31152 17.8185 4.31152 17.8158C4.31152 17.813 4.31152 17.8103 4.31152 17.8076C4.31152 17.8048 4.31152 17.8021 4.31152 17.7993C4.31152 17.7966 4.31152 17.7939 4.31152 17.7911C4.31152 17.7884 4.31152 17.7857 4.31152 17.7829C4.31152 17.7802 4.31152 17.7775 4.31152 17.7747C4.31152 17.772 4.31152 17.7693 4.31152 17.7665C4.31152 17.7638 4.31152 17.7611 4.31152 17.7584C4.31152 17.7556 4.31152 17.7529 4.31152 17.7502C4.31152 17.7475 4.31152 17.7447 4.31152 17.742C4.31152 17.7393 4.31152 17.7366 4.31152 17.7339C4.31152 17.7311 4.31152 17.7284 4.31152 17.7257C4.31152 17.723 4.31152 17.7203 4.31152 17.7176C4.31152 17.7148 4.31152 17.7121 4.31152 17.7094C4.31152 17.7067 4.31152 17.704 4.31152 17.7013C4.31152 17.6986 4.31152 17.6959 4.31152 17.6932C4.31152 17.6905 4.31152 17.6878 4.31152 17.685C4.31152 17.6823 4.31152 17.6796 4.31152 17.6769C4.31152 17.6742 4.31152 17.6715 4.31152 17.6688C4.31152 17.6661 4.31152 17.6634 4.31152 17.6607C4.31152 17.658 4.31152 17.6554 4.31152 17.6527C4.31152 17.65 4.31152 17.6473 4.31152 17.6446C4.31152 17.6419 4.31152 17.6392 4.31152 17.6365C4.31152 17.6338 4.31152 17.6311 4.31152 17.6284C4.31152 17.6258 4.31152 17.6231 4.31152 17.6204C4.31152 17.6177 4.31152 17.615 4.31152 17.6123C4.31152 17.6097 4.31152 17.607 4.31152 17.6043C4.31152 17.6016 4.31152 17.599 4.31152 17.5963C4.31152 17.5936 4.31152 17.5909 4.31152 17.5883C4.31152 17.5856 4.31152 17.5829 4.31152 17.5802C4.31152 17.5776 4.31152 17.5749 4.31152 17.5722C4.31152 17.5696 4.31152 17.5669 4.31152 17.5642C4.31152 17.5616 4.31152 17.5589 4.31152 17.5562C4.31152 17.5536 4.31152 17.5509 4.31152 17.5483C4.31152 17.5456 4.31152 17.5429 4.31152 17.5403C4.31152 17.5376 4.31152 17.535 4.31152 17.5323C4.31152 17.5297 4.31152 17.527 4.31152 17.5244C4.31152 17.5217 4.31152 17.5191 4.31152 17.5164C4.31152 17.5138 4.31152 17.5111 4.31152 17.5085C4.31152 17.5058 4.31152 17.5032 4.31152 17.5005C4.31152 17.4979 4.31152 17.4953 4.31152 17.4926C4.31152 17.49 4.31152 17.4873 4.31152 17.4847C4.31152 17.4821 4.31152 17.4794 4.31152 17.4768C4.31152 17.4742 4.31152 17.4715 4.31152 17.4689C4.31152 17.4663 4.31152 17.4636 4.31152 17.461C4.31152 17.4584 4.31152 17.4558 4.31152 17.4531C4.31152 17.4505 4.31152 17.4479 4.31152 17.4453C4.31152 17.4426 4.31152 17.44 4.31152 17.4374C4.31152 17.4348 4.31152 17.4322 4.31152 17.4296C4.31152 17.4269 4.31152 17.4243 4.31152 17.4217C4.31152 17.4191 4.31152 17.4165 4.31152 17.4139C4.31152 17.4113 4.31152 17.4087 4.31152 17.406C4.31152 17.4034 4.31152 17.4008 4.31152 17.3982C4.31152 17.3956 4.31152 17.393 4.31152 17.3904C4.31152 17.3878 4.31152 17.3852 4.31152 17.3826C4.31152 17.38 4.31152 17.3774 4.31152 17.3748C4.31152 17.3722 4.31152 17.3696 4.31152 17.3671C4.31152 17.3645 4.31152 17.3619 4.31152 17.3593C4.31152 17.3567 4.31152 17.3541 4.31152 17.3515C4.31152 17.3489 4.31152 17.3464 4.31152 17.3438C4.31152 17.3412 4.31152 17.3386 4.31152 17.336C4.31152 17.3334 4.31152 17.3309 4.31152 17.3283C4.31152 17.3257 4.31152 17.3231 4.31152 17.3206C4.31152 17.318 4.31152 17.3154 4.31152 17.3129C4.31152 17.3103 4.31152 17.3077 4.31152 17.3052C4.31152 17.3026 4.31152 17.3 4.31152 17.2975C4.31152 17.2949 4.31152 17.2923 4.31152 17.2898C4.31152 17.2872 4.31152 17.2847 4.31152 17.2821C4.31152 17.2795 4.31152 17.277 4.31152 17.2744C4.31152 17.2719 4.31152 17.2693 4.31152 17.2668C4.31152 17.2642 4.31152 17.2617 4.31152 17.2591C4.31152 17.2566 4.31152 17.254 4.31152 17.2515C4.31152 17.249 4.31152 17.2464 4.31152 17.2439C4.31152 17.2413 4.31152 17.2388 4.31152 17.2363C4.31152 17.2337 4.31152 17.2312 4.31152 17.2287C4.31152 17.2261 4.31152 17.2236 4.31152 17.2211C4.31152 17.2185 4.31152 17.216 4.31152 17.2135C4.31152 17.2109 4.31152 17.2084 4.31152 17.2059C4.31152 17.2034 4.31152 17.2008 4.31152 17.1983C4.31152 17.1958 4.31152 17.1933 4.31152 17.1908C4.31152 17.1883 4.31152 17.1857 4.31152 17.1832C4.31152 17.1807 4.31152 17.1782 4.31152 17.1757C4.31152 17.1732 4.31152 17.1707 4.31152 17.1682C4.31152 17.1657 4.31152 17.1632 4.31152 17.1607C4.31152 17.1582 4.31152 17.1557 4.31152 17.1532C4.31152 17.1507 4.31152 17.1482 4.31152 17.1457C4.31152 17.1432 4.31152 17.1407 4.31152 17.1382C4.31152 17.1357 4.31152 17.1332 4.31152 17.1307C4.31152 17.1282 4.31152 17.1257 4.31152 17.1233C4.31152 17.1208 4.31152 17.1183 4.31152 17.1158C4.31152 17.1133 4.31152 17.1108 4.31152 17.1084C4.31152 17.1059 4.31152 17.1034 4.31152 17.1009C4.31152 17.0985 4.31152 17.096 4.31152 17.0935C4.31152 17.0911 4.31152 17.0886 4.31152 17.0861C4.31152 17.0837 4.31152 17.0812 4.31152 17.0787C4.31152 17.0763 4.31152 17.0738 4.31152 17.0713C4.31152 17.0689 4.31152 17.0664 4.31152 17.064C4.31152 17.0615 4.31152 17.0591 4.31152 17.0566C4.31152 17.0542 4.31152 17.0517 4.31152 17.0493C4.31152 17.0468 4.31152 17.0444 4.31152 17.0419C4.31152 17.0395 4.31152 17.037 4.31152 17.0346C4.31152 17.0322 4.31152 17.0297 4.31152 17.0273C4.31152 17.0248 4.31152 17.0224 4.31152 17.02C4.31152 17.0175 4.31152 17.0151 4.31152 17.0127C4.31152 17.0102 4.31152 17.0078 4.31152 17.0054C4.31152 17.003 4.31152 17.0005 4.31152 16.9981C4.31152 16.9957 4.31152 16.9933 4.31152 16.9909C4.31152 16.9884 4.31152 16.986 4.31152 16.9836C4.31152 16.9812 4.31152 16.9788 4.31152 16.9764C4.31152 16.974 4.31152 16.9716 4.31152 16.9692C4.31152 16.9667 4.31152 16.9643 4.31152 16.9619C4.31152 16.9595 4.31152 16.9571 4.31152 16.9547C4.31152 16.9523 4.31152 16.9499 4.31152 16.9476C4.31152 16.9452 4.31152 16.9428 4.31152 16.9404C4.31152 16.938 4.31152 16.9356 4.31152 16.9332C4.31152 16.9308 4.31152 16.9284 4.31152 16.9261C4.31152 16.9237 4.31152 16.9213 4.31152 16.9189C4.31152 16.9165 4.31152 16.9142 4.31152 16.9118C4.31152 16.9094 4.31152 16.907 4.31152 16.9047C4.31152 16.9023 4.31152 16.8999 4.31152 16.8976C4.31152 16.8952 4.31152 16.8928 4.31152 16.8905C4.31152 16.8881 4.31152 16.8857 4.31152 16.8834C4.31152 16.881 4.31152 16.8787 4.31152 16.8763C4.31152 16.874 4.31152 16.8716 4.31152 16.8693C4.31152 16.8669 4.31152 16.8646 4.31152 16.8622C4.31152 16.8599 4.31152 16.8575 4.31152 16.8552C4.31152 16.8528 4.31152 16.8505 4.31152 16.8482C4.31152 16.8458 4.31152 16.8435 4.31152 16.8412C4.31152 16.8388 4.31152 16.8365 4.31152 16.8342C4.31152 16.8318 4.31152 16.8295 4.31152 16.8272C4.31152 16.8249 4.31152 16.8225 4.31152 16.8202C4.31152 16.8179 4.31152 16.8156 4.31152 16.8132C4.31152 16.8109 4.31152 16.8086 4.31152 16.8063C4.31152 16.804 4.31152 16.8017 4.31152 16.7994C4.31152 16.7971 4.31152 16.7948 4.31152 16.7925C4.31152 16.7901 4.31152 16.7878 4.31152 16.7855C4.31152 16.7832 4.31152 16.781 4.31152 16.7787C4.31152 16.7764 4.31152 16.7741 4.31152 16.7718C4.31152 16.7695 4.31152 16.7672 4.31152 16.7649C4.31152 16.7626 4.31152 16.7603 4.31152 16.7581C4.31152 16.7558 4.31152 16.7535 4.31152 16.7512C4.31152 16.7489 4.31152 16.7467 4.31152 16.7444C4.31152 16.7421 4.31152 16.7398 4.31152 16.7376C4.31152 16.7353 4.31152 16.733 4.31152 16.7308C4.31152 16.7285 4.31152 16.7262 4.31152 16.724C4.31152 16.7217 4.31152 16.7195 4.31152 16.7172C4.31152 16.7149 4.31152 16.7127 4.31152 16.7104C4.31152 16.7082 4.31152 16.7059 4.31152 16.7037C4.31152 16.7014 4.31152 16.6992 4.31152 16.697C4.31152 16.6947 4.31152 16.6925 4.31152 16.6902C4.31152 16.688 4.31152 16.6858 4.31152 16.6835C4.31152 16.6813 4.31152 16.6791 4.31152 16.6768C4.31152 16.6746 4.31152 16.6724 4.31152 16.6701C4.31152 16.6679 4.31152 16.6657 4.31152 16.6635C4.31152 16.6613 4.31152 16.659 4.31152 16.6568C4.31152 16.6546 4.31152 16.6524 4.31152 16.6502C4.31152 16.648 4.31152 16.6458 4.31152 16.6436C4.31152 16.6413 4.31152 16.6391 4.31152 16.6369C4.31152 16.6347 4.31152 16.6325 4.31152 16.6303C4.31152 16.6281 4.31152 16.626 4.31152 16.6238C4.31152 16.6216 4.31152 16.6194 4.31152 16.6172C4.31152 16.615 4.31152 16.6128 4.31152 16.6106C4.31152 16.6084 4.31152 16.6063 4.31152 16.6041C4.31152 16.6019 4.31152 16.5997 4.31152 16.5976C4.31152 16.5954 4.31152 16.5932 4.31152 16.591C4.31152 16.5889 4.31152 16.5867 4.31152 16.5845C4.31152 16.5824 4.31152 16.5802 4.31152 16.5781C4.31152 16.5759 4.31152 16.5737 4.31152 16.5716C4.31152 16.5694 4.31152 16.5673 4.31152 16.5651C4.31152 16.563 4.31152 16.5608 4.31152 16.5587C4.31152 16.5565 4.31152 16.5544 4.31152 16.5522C4.31152 16.5501 4.31152 16.548 4.31152 16.5458C4.31152 16.5437 4.31152 16.5416 4.31152 16.5394C4.31152 16.5373 4.31152 16.5352 4.31152 16.533C4.31152 16.5309 4.31152 16.5288 4.31152 16.5267C4.31152 16.5246 4.31152 16.5224 4.31152 16.5203C4.31152 16.5182 4.31152 16.5161 4.31152 16.514C4.31152 16.5119 4.31152 16.5098 4.31152 16.5076C4.31152 16.5055 4.31152 16.5034 4.31152 16.5013C4.31152 16.4992 4.31152 16.4971 4.31152 16.495C4.31152 16.4929 4.31152 16.4908 4.31152 16.4887C4.31152 16.4867 4.31152 16.4846 4.31152 16.4825C4.31152 16.4804 4.31152 16.4783 4.31152 16.4762C4.31152 16.4741 4.31152 16.4721 4.31152 16.47C4.31152 16.4679 4.31152 16.4658 4.31152 16.4638C4.31152 16.4617 4.31152 16.4596 4.31152 16.4576C4.31152 16.4555 4.31152 16.4534 4.31152 16.4514C4.31152 16.4493 4.31152 16.4472 4.31152 16.4452C4.31152 16.4431 4.31152 16.4411 4.31152 16.439C4.31152 16.437 4.31152 16.4349 4.31152 16.4329C4.31152 16.4308 4.31152 16.4288 4.31152 16.4267C4.31152 16.4247 4.31152 16.4227 4.31152 16.4206C4.31152 16.4186 4.31152 16.4166 4.31152 16.4145C4.31152 16.4125 4.31152 16.4105 4.31152 16.4084C4.31152 16.4064 4.31152 16.4044 4.31152 16.4024C4.31152 16.4003 4.31152 16.3983 4.31152 16.3963C4.31152 16.3943 4.31152 16.3923 4.31152 16.3903C4.31152 16.3883 4.31152 16.3862 4.31152 16.3842C4.31152 16.3822 4.31152 16.3802 4.31152 16.3782C4.31152 16.3762 4.31152 16.3742 4.31152 16.3722C4.31152 16.3702 4.31152 16.3682 4.31152 16.3663C4.31152 16.3643 4.31152 16.3623 4.31152 16.3603C4.31152 16.3583 4.31152 16.3563 4.31152 16.3544C4.31152 16.3524 4.31152 16.3504 4.31152 16.3484C4.31152 16.3464 4.31152 16.3445 4.31152 16.3425C4.31152 16.3405 4.31152 16.3386 4.31152 16.3366C4.31152 16.3346 4.31152 16.3327 4.31152 16.3307C4.31152 16.3288 4.31152 16.3268 4.31152 16.3249C4.31152 16.3229 4.31152 16.321 4.31152 16.319C4.31152 16.3171 4.31152 16.3151 4.31152 16.3132C4.31152 16.3112 4.31152 16.3093 4.31152 16.3074C4.31152 16.3054 4.31152 16.3035 4.31152 16.3016C4.31152 16.2996 4.31152 16.2977 4.31152 16.2958C4.31152 16.2938 4.31152 16.2919 4.31152 16.29C4.31152 16.2881 4.31152 16.2862 4.31152 16.2842C4.31152 16.2823 4.31152 16.2804 4.31152 16.2785C4.31152 16.2766 4.31152 16.2747 4.31152 16.2728C4.31152 16.2709 4.31152 16.269 4.31152 16.2671C4.31152 16.2652 4.31152 16.2633 4.31152 16.2614C4.31152 16.2595 4.31152 16.2576 4.31152 16.2557C4.31152 16.2538 4.31152 16.252 4.31152 16.2501C4.31152 16.2482 4.31152 16.2463 4.31152 16.2444C4.31152 16.2426 4.31152 16.2407 4.31152 16.2388C4.31152 16.2369 4.31152 16.2351 4.31152 16.2332C4.31152 16.2313 4.31152 16.2295 4.31152 16.2276C4.31152 16.2258 4.31152 16.2239 4.31152 16.2221C4.31152 16.2202 4.31152 16.2183 4.31152 16.2165C4.31152 16.2146 4.31152 16.2128 4.31152 16.211C4.31152 16.2091 4.31152 16.2073 4.31152 16.2054C4.31152 16.2036 4.31152 16.2018 4.31152 16.1999C4.31152 16.1981 4.31152 16.1963 4.31152 16.1945C4.31152 16.1926 4.31152 16.1908 4.31152 16.189C4.31152 16.1872 4.31152 16.1853 4.31152 16.1835C4.31152 16.1817 4.31152 16.1799 4.31152 16.1781C4.31152 16.1763 4.31152 16.1745 4.31152 16.1727C4.31152 16.1709 4.31152 16.1691 4.31152 16.1673C4.31152 16.1655 4.31152 16.1637 4.31152 16.1619C4.31152 16.1601 4.31152 16.1583 4.31152 16.1565C4.31152 16.1547 4.31152 16.153 4.31152 16.1512C4.31152 16.1494 4.31152 16.1476 4.31152 16.1459C4.31152 16.1441 4.31152 16.1423 4.31152 16.1405C4.31152 16.1388 4.31152 16.137 4.31152 16.1353C4.31152 16.1335 4.31152 16.1317 4.31152 16.13C4.31152 16.1282 4.31152 16.1265 4.31152 16.1247C4.31152 16.123 4.31152 16.1212 4.31152 16.1195C4.31152 16.1177 4.31152 16.116 4.31152 16.1142C4.31152 16.1125 4.31152 16.1108 4.31152 16.109C4.31152 16.1073 4.31152 16.1056 4.31152 16.1039C4.31152 16.1021 4.31152 16.1004 4.31152 16.0987C4.31152 16.097 4.31152 16.0952 4.31152 16.0935C4.31152 16.0918 4.31152 16.0901 4.31152 16.0884C4.31152 16.0867 4.31152 16.085 4.31152 16.0833C4.31152 16.0816 4.31152 16.0799 4.31152 16.0782C4.31152 16.0765 4.31152 16.0748 4.31152 16.0731C4.31152 16.0714 4.31152 16.0697 4.31152 16.068C4.31152 16.0663 4.31152 16.0647 4.31152 16.063C4.31152 16.0613 4.31152 16.0596 4.31152 16.058C4.31152 16.0563 4.31152 16.0546 4.31152 16.053C4.31152 16.0513 4.31152 16.0496 4.31152 16.048C4.31152 16.0463 4.31152 16.0446 4.31152 16.043C4.31152 16.0413 4.31152 16.0397 4.31152 16.038C4.31152 16.0364 4.31152 16.0347 4.31152 16.0331C4.31152 16.0315 4.31152 16.0298 4.31152 16.0282C4.31152 16.0266 4.31152 16.0249 4.31152 16.0233C4.31152 16.0217 4.31152 16.02 4.31152 16.0184C4.31152 16.0168 4.31152 16.0152 4.31152 16.0135C4.31152 16.0119 4.31152 16.0103 4.31152 16.0087C4.31152 16.0071 4.31152 16.0055 4.31152 16.0039C4.31152 16.0023 4.31152 16.0007 4.31152 15.9991C4.31152 15.9975 4.31152 15.9959 4.31152 15.9943C4.31152 15.9927 4.31152 15.9911 4.31152 15.9895C4.31152 15.9879 4.31152 15.9864 4.31152 15.9848C4.31152 15.9832 4.31152 15.9816 4.31152 15.9801C4.31152 15.9785 4.31152 15.9769 4.31152 15.9753H2.31152ZM19.6885 12C19.6885 16.2462 16.2462 19.6885 12 19.6885V21.6885C17.3508 21.6885 21.6885 17.3508 21.6885 12H19.6885ZM12 4.31152C16.2462 4.31152 19.6885 7.75377 19.6885 12H21.6885C21.6885 6.6492 17.3508 2.31152 12 2.31152V4.31152ZM12 19.6885C8.84879 19.6885 6.13817 17.7925 4.95083 15.075L3.11813 15.8758C4.61226 19.2955 8.02555 21.6885 12 21.6885V19.6885ZM4.37636 10.9961C4.86752 7.22462 8.09436 4.31152 12 4.31152V2.31152C7.07661 2.31152 3.01233 5.983 2.3931 10.7378L4.37636 10.9961ZM3.81152 14.4754C2.98322 14.4754 2.31152 15.1468 2.31152 15.9753H4.31152C4.31152 16.2516 4.08754 16.4754 3.81152 16.4754V14.4754Z" fill="#072D57"/>
</svg>
