<svg width="24" height="24" viewBox="0 0 24 24" fill="none" xmlns="http://www.w3.org/2000/svg">
<path d="M10 18.9999V14.4999C10 13.9695 10.2107 13.4608 10.5858 13.0857C10.9609 12.7106 11.4696 12.4999 12 12.4999C12.5304 12.4999 13.0391 12.7106 13.4142 13.0857C13.7893 13.4608 14 13.9695 14 14.4999V18.9999H18C18.2652 18.9999 18.5196 18.8946 18.7071 18.707C18.8946 18.5195 19 18.2651 19 17.9999V10.1689L12.707 3.87293C12.5195 3.68545 12.2652 3.58014 12 3.58014C11.7348 3.58014 11.4805 3.68545 11.293 3.87293L5 10.1689V17.9999C5 18.2651 5.10535 18.5195 5.29289 18.707C5.48043 18.8946 5.73478 18.9999 6 18.9999H10ZM21 12.1699V17.9999C21 18.7956 20.6839 19.5586 20.1213 20.1212C19.5587 20.6839 18.7956 20.9999 18 20.9999H6C5.20435 20.9999 4.44129 20.6839 3.87868 20.1212C3.31607 19.5586 3 18.7956 3 17.9999V12.1699L2.96 12.2099C2.57 12.5999 1.93 12.5999 1.54 12.2099C1.15 11.8199 1.15 11.1799 1.54 10.7899L9.879 2.45893C10.4416 1.89651 11.2045 1.58057 12 1.58057C12.7955 1.58057 13.5584 1.89651 14.121 2.45893L22.46 10.7899C22.85 11.1799 22.85 11.8199 22.46 12.2099C22.07 12.5999 21.43 12.5999 21.04 12.2099L21 12.1699Z" fill="#1D3F66"/>
</svg>
