<svg width="24" height="24" viewBox="0 0 24 24" fill="none" xmlns="http://www.w3.org/2000/svg">
    <path fill-rule="evenodd" clip-rule="evenodd" d="M20 19V8H12.4142C11.6186 8 10.8555 7.68393 10.2929 7.12132L8.17157 5H4V19H6C6.55228 19 7 19.4477 7 20C7 20.5523 6.55228 21 6 21H4C2.89543 21 2 20.1046 2 19V5C2 3.89543 2.89543 3 4 3H8.17157C8.70201 3 9.21071 3.21071 9.58579 3.58579L11.7071 5.70711C11.8946 5.89464 12.149 6 12.4142 6H20C21.1046 6 22 6.89543 22 8V19C22 20.1046 21.1046 21 20 21H18C17.4477 21 17 20.5523 17 20C17 19.4477 17.4477 19 18 19H20ZM15.5425 18.465L12.7138 21.2931C12.3233 21.6835 11.6903 21.6835 11.2997 21.2931L8.471 18.465C8.08039 18.0745 8.08051 17.4411 8.47107 17.0506C8.86174 16.6599 9.49537 16.6599 9.88583 17.0508L11.0068 18.1729V13.5859C11.0068 13.0337 11.4545 12.5859 12.0068 12.5859C12.5591 12.5859 13.0068 13.0337 13.0068 13.5859V18.1709L14.1277 17.05C14.5182 16.6595 15.1517 16.6599 15.5422 17.0504C15.9328 17.441 15.9331 18.0745 15.5425 18.465Z" fill="#072D57"/>
</svg>
