<svg viewBox="0 0 80 80" xmlns="http://www.w3.org/2000/svg">
    <path d="M 51.745 68.32 C 48.004 69.868 43.997 70.665 39.95 70.665 C 31.775 70.665 23.937 67.418 18.155 61.639 C 12.376 55.858 9.127 48.018 9.127 39.844 C 9.127 31.669 12.376 23.831 18.155 18.049 C 23.937 12.27 31.775 9.024 39.95 9.024 C 43.997 9.024 48.004 9.819 51.745 11.367 C 55.484 12.918 58.882 15.19 61.742 18.049 C 64.607 20.911 66.875 24.31 68.426 28.048 C 69.974 31.789 70.771 35.797 70.771 39.844 C 70.771 43.891 69.974 47.9 68.426 51.639 C 66.875 55.378 64.607 58.776 61.742 61.639 C 58.882 64.501 55.484 66.771 51.745 68.32 Z M 24.786 76.454 C 29.593 78.446 34.745 79.471 39.95 79.471 C 50.459 79.471 60.538 75.297 67.969 67.865 C 75.403 60.432 79.577 50.355 79.577 39.844 C 79.577 29.336 75.403 19.255 67.969 11.824 C 60.538 4.391 50.459 0.217 39.95 0.217 C 34.745 0.217 29.593 1.242 24.786 3.234 C 19.976 5.225 15.608 8.145 11.928 11.824 C 8.249 15.504 5.329 19.872 3.34 24.68 C 1.348 29.487 0.323 34.639 0.323 39.844 C 0.323 45.048 1.348 50.2 3.34 55.009 C 5.329 59.818 8.249 64.186 11.928 67.865 C 15.608 71.546 19.976 74.464 24.786 76.454 Z M 39.95 31.038 C 41.118 31.038 42.238 31.503 43.063 32.328 C 43.889 33.154 44.352 34.274 44.352 35.442 L 44.352 57.456 C 44.352 58.625 43.889 59.744 43.063 60.57 C 42.238 61.395 41.118 61.86 39.95 61.86 C 38.781 61.86 37.663 61.395 36.836 60.57 C 36.011 59.744 35.546 58.625 35.546 57.456 L 35.546 35.442 C 35.546 34.274 36.011 33.154 36.836 32.328 C 37.663 31.503 38.781 31.038 39.95 31.038 Z M 39.95 17.829 C 41.118 17.829 42.238 18.292 43.063 19.118 C 43.889 19.944 44.352 21.063 44.352 22.231 C 44.352 23.4 43.889 24.519 43.063 25.345 C 42.238 26.17 41.118 26.635 39.95 26.635 C 38.781 26.635 37.663 26.17 36.836 25.345 C 36.011 24.519 35.546 23.4 35.546 22.231 C 35.546 21.063 36.011 19.944 36.836 19.118 C 37.663 18.292 38.781 17.829 39.95 17.829 Z" fill="#1D3F66"/>
</svg>
