<svg width="24" height="24" viewBox="0 0 24 24" fill="none" xmlns="http://www.w3.org/2000/svg">
    <path fill-rule="evenodd" clip-rule="evenodd" d="M12 22C17.5229 22 22 17.5228 22 12C22 6.47717 17.5229 2 12 2C6.47714 2 2 6.47717 2 12C2 17.5228 6.47714 22 12 22ZM12.9501 12.4849L14.4851 10.95L15.8993 12.3641L17.3136 10.9498L15.8994 9.53564L16.6066 8.82849L15.1924 7.41418L11.5359 11.0707C10.8973 10.7657 10.1714 10.6963 9.48657 10.8748C8.8017 11.0532 8.20197 11.4681 7.79333 12.046C7.3847 12.6239 7.19348 13.3275 7.25351 14.0327C7.31354 14.7379 7.62091 15.3992 8.12131 15.8995C8.62173 16.3999 9.28296 16.7073 9.98813 16.7673C10.6933 16.8274 11.397 16.6361 11.9749 16.2275C12.5527 15.8188 12.9676 15.2191 13.146 14.5343C13.3245 13.8494 13.2551 13.1235 12.9501 12.4849ZM11.2421 13.7787C11.2421 14.0439 11.1367 14.2983 10.9492 14.4858C10.7616 14.6735 10.5073 14.7788 10.242 14.7788C9.97681 14.7788 9.72244 14.6735 9.53491 14.486C9.34738 14.2983 9.24203 14.0441 9.24203 13.7788C9.24207 13.5135 9.34744 13.2592 9.53497 13.0717C9.72253 12.884 9.9769 12.7787 10.2421 12.7787C10.5074 12.7787 10.7617 12.884 10.9493 13.0715C11.1368 13.2592 11.2422 13.5134 11.2421 13.7787Z" fill="#072D57"/>
</svg>
