<svg width="24" height="24" viewBox="0 0 24 24" fill="none" xmlns="http://www.w3.org/2000/svg">
    <path fill-rule="evenodd" clip-rule="evenodd" d="M10.6 2C10.2237 2 9.87921 2.21128 9.70863 2.54672L8.94585 4.04672L10.7286 4.95328L11.2134 4H16.4369L13.2666 8.78066C13.063 9.08765 13.0447 9.4817 13.2189 9.80626C13.3931 10.1308 13.7316 10.3333 14.1 10.3333H16.238L15.9604 10.5646L17.2408 12.1011L19.6402 10.1016C19.9636 9.83202 20.0836 9.38878 19.9403 8.99291C19.7969 8.59703 19.421 8.33333 19 8.33333H15.9631L19.1334 3.55267C19.337 3.24568 19.3553 2.85163 19.1811 2.52707C19.0069 2.20251 18.6684 2 18.3 2H10.6ZM8.64212 9.05633L8.03039 10.2593H9.84509L8.64212 9.05633ZM7.15473 7.56895L5.50863 10.806C5.35099 11.116 5.36573 11.4856 5.54757 11.7821C5.7294 12.0786 6.05221 12.2593 6.4 12.2593H8.87162L4.13306 20.5016C3.89168 20.9215 3.98586 21.4539 4.35662 21.7655C4.72737 22.0771 5.26813 22.0783 5.64018 21.7682L14.2114 14.6256L19.2929 19.7071C19.6834 20.0976 20.3166 20.0976 20.7071 19.7071C21.0976 19.3166 21.0976 18.6834 20.7071 18.2929L4.70711 2.29289C4.31658 1.90237 3.68342 1.90237 3.29289 2.29289C2.90237 2.68342 2.90237 3.31658 3.29289 3.70711L7.15473 7.56895ZM12.7913 13.2055L11.4219 11.8361L8.65097 16.6558L12.7913 13.2055Z" fill="#072D57"/>
</svg>
