<svg width="24" height="24" viewBox="0 0 24 24" fill="none" xmlns="http://www.w3.org/2000/svg">
    <path fill-rule="evenodd" clip-rule="evenodd" d="M9.70862 2.54672C9.8792 2.21128 10.2237 2 10.6 2H18.3C18.6683 2 19.0069 2.20251 19.1811 2.52707C19.3553 2.85163 19.337 3.24568 19.1334 3.55267L15.9631 8.33333H19C19.421 8.33333 19.7969 8.59703 19.9403 8.99291C20.0836 9.38878 19.9636 9.83202 19.6402 10.1016L5.64017 21.7682C5.26812 22.0783 4.72736 22.0771 4.35661 21.7655C3.98585 21.4539 3.89167 20.9215 4.13305 20.5016L8.87161 12.2593H6.39999C6.0522 12.2593 5.7294 12.0786 5.54756 11.7821C5.36572 11.4856 5.35098 11.116 5.50862 10.806L9.70862 2.54672ZM11.2133 4L8.03038 10.2593H10.6C10.9569 10.2593 11.2868 10.4495 11.4656 10.7585C11.6443 11.0674 11.6448 11.4482 11.4669 11.7577L8.65096 16.6558L16.2379 10.3333H14.1C13.7316 10.3333 13.3931 10.1308 13.2189 9.80626C13.0447 9.4817 13.063 9.08765 13.2666 8.78066L16.4369 4H11.2133Z" fill="#072D57"/>
</svg>
