<svg width="24" height="24" viewBox="0 0 24 24" fill="none" xmlns="http://www.w3.org/2000/svg">
    <path fill-rule="evenodd" clip-rule="evenodd" d="M4.00001 12V19C3.99686 19.13 4.01984 19.2593 4.06759 19.3802C4.11534 19.5011 4.1869 19.6113 4.27801 19.704C4.36956 19.7971 4.47863 19.8712 4.59894 19.922C4.71925 19.9729 4.84842 19.9993 4.97901 20H6.00001V11H4.98001C4.84942 11.0007 4.72025 11.0272 4.59994 11.078C4.47963 11.1288 4.37056 11.2029 4.27901 11.296C4.18772 11.3887 4.11598 11.4988 4.06805 11.6197C4.02013 11.7406 3.99699 11.87 4.00001 12ZM19.281 11.061C18.9939 10.7268 18.6377 10.4589 18.237 10.2757C17.8363 10.0925 17.4006 9.99847 16.96 10H14C15 7 14.11 5.44701 13.606 4.85301C13.3769 4.58462 13.0921 4.3693 12.7714 4.222C12.4508 4.0747 12.1019 3.99895 11.749 4.00001C10.0161 4.00521 10.5857 5.94171 9.83567 8C9.26893 9.5552 7.79516 10 7.40001 10.565C7.16597 10.8997 7.03935 11.2976 7.03701 11.706L7 18C7.001 18.532 7.216 19.041 7.596 19.416C7.976 19.791 8.463 20.001 9 20H16.247C16.9629 20.0062 17.6576 19.7573 18.2068 19.2979C18.7559 18.8386 19.1236 18.1987 19.244 17.493L19.958 13.493C20.0312 13.0628 20.0085 12.6217 19.8915 12.2013C19.7744 11.7809 19.566 11.3915 19.281 11.061Z" fill="#072D57"/>
</svg>
