<svg width="16" height="16" viewBox="0 0 16 16" fill="none" xmlns="http://www.w3.org/2000/svg">
    <path fill-rule="evenodd" clip-rule="evenodd" d="M10.21 4.46235C10.3166 2.9438 9.99714 2.11167 9.65526 1.70873C8.80365 0.705028 7.59595 0.833656 6.68388 1.67919C6.16084 2.16407 6.03947 3.00808 5.9215 3.82846C5.83375 4.43866 5.74788 5.03578 5.5 5.46232C5.16317 6.04193 4.31762 6.70679 4.31762 6.70679C4.11283 6.99961 4.00205 7.34784 4 7.70516V13.2316C4.00087 13.6971 4.189 14.1425 4.52149 14.4706C4.85399 14.7988 5.30548 14.9825 5.77534 14.9816H11.7486C12.375 14.987 12.9828 14.7692 13.4633 14.3673C13.9438 13.9654 14.2655 13.4055 14.3709 12.788L14.9633 9.01878C15.0273 8.64234 15.0074 8.2564 14.905 7.88854C14.8026 7.52067 14.6202 7.17997 14.3709 6.89078C14.1197 6.59837 13.808 6.36393 13.4574 6.20365C13.1068 6.04337 12.7256 5.96107 12.34 5.96241L10 5.96235C10.1058 5.43312 10.1712 4.96064 10.2043 4.53966L10.21 4.46235ZM12.3453 7.4624C12.5138 7.46181 12.6805 7.4978 12.8337 7.56787C12.9661 7.62838 13.0858 7.71307 13.1867 7.8174L13.2349 7.8703C13.34 7.99218 13.4168 8.13576 13.46 8.29079C13.5031 8.44582 13.5115 8.60848 13.4845 8.76713L13.4829 8.77651L12.8909 12.5434C12.8441 12.8067 12.7061 13.0451 12.5009 13.2168C12.2937 13.3901 12.0316 13.484 11.7615 13.4817L5.77534 13.4816H5.77255C5.69458 13.4818 5.62375 13.451 5.57511 13.403C5.52498 13.3535 5.50031 13.2907 5.5 13.2296V7.71137C5.5002 7.69766 5.50149 7.68405 5.50383 7.67066C5.59175 7.59472 5.69739 7.50074 5.81074 7.39402C6.08166 7.13895 6.5131 6.70437 6.79691 6.216C7.06624 5.75254 7.19487 5.25258 7.27286 4.86189C7.32873 4.58203 7.37448 4.26395 7.41269 3.99828L7.41285 3.99719C7.42634 3.90342 7.43889 3.8162 7.45061 3.73951C7.50305 3.39649 7.55236 3.15497 7.61485 2.97262C7.75765 2.55586 8.02374 2.50491 8.2278 2.50008C8.30455 2.49826 8.49185 2.54549 8.60443 2.88835C8.717 3.2312 8.85406 4.04348 8.52913 5.66817L8.17031 7.4623L12.34 7.46242L12.3453 7.4624ZM1.00025 7.8374V14.125C0.997489 14.2387 1.0176 14.3519 1.05938 14.4577C1.10117 14.5635 1.16377 14.6598 1.2435 14.741C1.3236 14.8225 1.41903 14.8873 1.5243 14.9318C1.62957 14.9762 1.74259 14.9994 1.85686 15H3V6.9624H1.85774C1.74347 6.96298 1.63044 6.98617 1.52518 7.03062C1.41991 7.07507 1.32447 7.13991 1.24437 7.2214C1.16449 7.30249 1.10172 7.3988 1.05979 7.50462C1.01785 7.61044 0.997604 7.72361 1.00025 7.8374Z" fill="#072D57"/>
</svg>
