<svg width="16" height="16" viewBox="0 0 16 16" fill="none" xmlns="http://www.w3.org/2000/svg">
    <path fill-rule="evenodd" clip-rule="evenodd" d="M1.00025 7.83741V14.125C0.997489 14.2387 1.0176 14.3519 1.05938 14.4577C1.10117 14.5635 1.16377 14.6598 1.2435 14.741C1.3236 14.8225 1.41903 14.8873 1.5243 14.9318C1.62957 14.9762 1.74259 14.9994 1.85686 15H3V6.96241H1.85774C1.74347 6.96299 1.63044 6.98617 1.52518 7.03062C1.41991 7.07507 1.32447 7.13991 1.24437 7.22141C1.16449 7.3025 1.10172 7.39881 1.05979 7.50463C1.01785 7.61045 0.997604 7.72361 1.00025 7.83741ZM14.3709 6.89078C14.1197 6.59837 13.808 6.36393 13.4574 6.20365C13.1068 6.04337 12.7256 5.96107 12.34 5.96241L10 5.96235C10.5 3.46232 10.0962 2.22848 9.65526 1.70873C8.80365 0.705028 7.59595 0.833656 6.68388 1.67919C5.77181 2.52472 6.08113 4.46232 5.5 5.46232C5.16317 6.04193 4.31762 6.70679 4.31762 6.70679C4.11283 6.99961 4.00205 7.34784 4 7.70516V13.2316C4.00087 13.6971 4.189 14.1425 4.52149 14.4706C4.85399 14.7988 5.30548 14.9825 5.77534 14.9816H11.7486C12.375 14.987 12.9828 14.7692 13.4633 14.3673C13.9438 13.9654 14.2655 13.4055 14.3709 12.788L14.9633 9.01878C15.0273 8.64234 15.0074 8.2564 14.905 7.88854C14.8026 7.52067 14.6202 7.17997 14.3709 6.89078Z" fill="#072D57"/>
</svg>
