<svg width="24" height="24" viewBox="0 0 24 24" fill="none" xmlns="http://www.w3.org/2000/svg">
<path clip-rule="evenodd" d="M12.856 5.45693L11.919 6.37693C11.8229 6.47032 11.7466 6.58202 11.6944 6.70543C11.6423 6.82884 11.6154 6.96146 11.6154 7.09543C11.6154 7.22941 11.6423 7.36203 11.6944 7.48544C11.7466 7.60885 11.8229 7.72055 11.919 7.81393C12.1146 8.00493 12.3771 8.11186 12.6505 8.11186C12.9239 8.11186 13.1864 8.00493 13.382 7.81393L14.366 6.84793C15.333 5.89793 16.908 5.71293 17.968 6.55993C18.2515 6.78355 18.484 7.06502 18.6501 7.3856C18.8162 7.70617 18.9121 8.05848 18.9313 8.41902C18.9505 8.77956 18.8926 9.14005 18.7615 9.47646C18.6304 9.81287 18.4291 10.1175 18.171 10.3699L15.268 13.2219C14.7738 13.7042 14.1106 13.9742 13.42 13.9742C12.7294 13.9742 12.0662 13.7042 11.572 13.2219L10.462 12.1319L9.00001 13.5699L10.108 14.6589C11.93 16.4469 14.91 16.4469 16.73 14.6589L19.635 11.8069C20.0957 11.3545 20.455 10.8094 20.6892 10.2077C20.9234 9.60593 21.027 8.9613 20.9932 8.31649C20.9595 7.67168 20.7891 7.0414 20.4934 6.4674C20.1977 5.89339 19.7834 5.38876 19.278 4.98693C17.385 3.46993 14.583 3.76093 12.856 5.45693Z" fill="#1D3F66"/>
<path clip-rule="evenodd" d="M11.144 19.5429L12.081 18.6229C12.1771 18.5296 12.2534 18.4179 12.3056 18.2944C12.3577 18.171 12.3846 18.0384 12.3846 17.9044C12.3846 17.7705 12.3577 17.6378 12.3056 17.5144C12.2534 17.391 12.1771 17.2793 12.081 17.1859C11.8855 16.9952 11.6231 16.8885 11.35 16.8885C11.0769 16.8885 10.8145 16.9952 10.619 17.1859L9.63401 18.1519C8.66701 19.1019 7.09201 19.2869 6.03201 18.4399C5.74853 18.2163 5.51599 17.9348 5.34988 17.6143C5.18378 17.2937 5.08792 16.9414 5.06871 16.5809C5.0495 16.2203 5.10738 15.8598 5.23848 15.5234C5.36958 15.187 5.5709 14.8824 5.82901 14.6299L8.73201 11.7779C9.22624 11.2956 9.88944 11.0257 10.58 11.0257C11.2706 11.0257 11.9338 11.2956 12.428 11.7779L13.538 12.8679L15 11.4299L13.892 10.3409C12.07 8.55293 9.09001 8.55293 7.27001 10.3409L4.36501 13.1929C3.9043 13.6453 3.54497 14.1905 3.31081 14.7922C3.07666 15.3939 2.97303 16.0386 3.00678 16.6834C3.04053 17.3282 3.2109 17.9585 3.5066 18.5325C3.8023 19.1065 4.21658 19.6111 4.72201 20.0129C6.61501 21.5299 9.417 21.2389 11.144 19.5429Z" fill="#1D3F66"/>
</svg>
