<svg width="16" height="16" viewBox="0 0 16 16" fill="none" xmlns="http://www.w3.org/2000/svg">
<path clip-rule="evenodd" d="M12.2427 10.8995L7.99999 15L3.75733 10.8995C2.91822 10.0885 2.34678 9.05518 2.11527 7.93029C1.88377 6.8054 2.00259 5.63942 2.45672 4.5798C2.91085 3.52017 3.67988 2.6145 4.66658 1.9773C5.65327 1.3401 6.81331 1 7.99999 1C9.18668 1 10.3467 1.3401 11.3334 1.9773C12.3201 2.6145 13.0891 3.52017 13.5433 4.5798C13.9974 5.63942 14.1162 6.8054 13.8847 7.93029C13.6532 9.05518 13.0818 10.0885 12.2427 10.8995ZM7.99999 9C9.10456 9 9.99999 8.10457 9.99999 7C9.99999 5.89543 9.10456 5 7.99999 5C6.89542 5 5.99999 5.89543 5.99999 7C5.99999 8.10457 6.89542 9 7.99999 9Z" fill="#1D3F66"/>
</svg>
