<svg width="16" height="16" viewBox="0 0 16 16" fill="none" xmlns="http://www.w3.org/2000/svg">
<path fill-rule="evenodd" clip-rule="evenodd" d="M3 3C1.89543 3 1 3.89543 1 5V11C1 12.1046 1.89543 13 3 13H13C14.1046 13 15 12.1046 15 11V5C15 3.89543 14.1046 3 13 3H3ZM3.12299 5.03003C2.86344 4.82403 2.48603 4.86745 2.28003 5.12701C2.07403 5.38656 2.11745 5.76397 2.37701 5.96997L4.74698 7.8509L3.13346 10.1559C2.94343 10.4274 3.00945 10.8015 3.28092 10.9915C3.55239 11.1816 3.92651 11.1155 4.11654 10.8441L5.68862 8.59824L6.38369 9.14988C7.33029 9.90115 8.66972 9.90115 9.61631 9.14988L10.3114 8.59824L11.8835 10.8441C12.0735 11.1155 12.4476 11.1816 12.7191 10.9915C12.9905 10.8015 13.0566 10.4274 12.8665 10.1559L11.253 7.8509L13.623 5.96997C13.8826 5.76397 13.926 5.38656 13.72 5.12701C13.514 4.86745 13.1366 4.82403 12.877 5.03003L8.87032 8.20994C8.36062 8.61446 7.63938 8.61446 7.12968 8.20994L3.12299 5.03003Z" fill="#1D3F66"/>
</svg>
