<svg width="16" height="16" viewBox="0 0 16 16" fill="none" xmlns="http://www.w3.org/2000/svg">
<path fill-rule="evenodd" clip-rule="evenodd" d="M9.5 4C9.5 4.82843 8.82843 5.5 8 5.5C7.17157 5.5 6.5 4.82843 6.5 4C6.5 3.17157 7.17157 2.5 8 2.5C8.82843 2.5 9.5 3.17157 9.5 4ZM11 4C11 5.65685 9.65685 7 8 7C6.34315 7 5 5.65685 5 4C5 2.34315 6.34315 1 8 1C9.65685 1 11 2.34315 11 4ZM3.5 10C3.5 9.72386 3.72386 9.5 4 9.5H12C12.2761 9.5 12.5 9.72386 12.5 10V11.4384C12.5 11.6679 12.3439 11.8679 12.1213 11.9235L9.81902 12.4991C8.62472 12.7977 7.37528 12.7977 6.18098 12.4991L3.87873 11.9235C3.65615 11.8679 3.5 11.6679 3.5 11.4384V10ZM2 10C2 8.89543 2.89543 8 4 8H12C13.1046 8 14 8.89543 14 10V11.4384C14 12.3562 13.3754 13.1561 12.4851 13.3787L10.1828 13.9543C8.74966 14.3126 7.25034 14.3126 5.81718 13.9543L3.51493 13.3787C2.62459 13.1561 2 12.3562 2 11.4384V10Z" fill="#1D3F66"/>
</svg>
