<svg width="24" height="24" viewBox="0 0 24 24" fill="none" xmlns="http://www.w3.org/2000/svg">
<path fill-rule="evenodd" clip-rule="evenodd" d="M7 3C5.89543 3 5 3.89543 5 5V19C5 20.1046 5.89543 21 7 21H10V19H7V5H12H12.143H13V5.70115V7.5C13 8.32843 13.6716 9 14.5 9H17H19V8.73694V8.46837C19 8.1716 18.8682 7.89015 18.6402 7.70015L13.75 3.625L13.5563 3.46356C13.2843 3.23692 12.9587 3.08786 12.6137 3.02873C12.5181 3.00973 12.4202 3 12.3215 3H12.2759H12H7ZM19 10H17V13H19V10ZM12 17C12 16.4477 12.4477 16 13 16H15V19H12V17ZM17 21V19H15V21H12V23C12 23.5523 12.4477 24 13 24H15V21H17ZM17 21H19V23H17V21ZM19 18H17V16H20C20.5523 16 21 16.4477 21 17V20H19V18Z" fill="#072D57"/>
</svg>
