<svg width="24" height="24" viewBox="0 0 24 24" fill="none" xmlns="http://www.w3.org/2000/svg">
<path clip-rule="evenodd" d="M12.9436 3.66649L13.4149 5H13.7324H14V6H10V5H10.2676H10.5851L11.0564 3.66649C11.1946 3.2754 11.5677 3 12 3C12.4323 3 12.8054 3.2754 12.9436 3.66649ZM8 5H6V19H18V5H16V6C16 7.10457 15.1046 8 14 8H10C8.89543 8 8 7.10457 8 6V5ZM6 3H9.17071C9.58254 1.83481 10.6938 1 12 1C13.3062 1 14.4175 1.83481 14.8293 3H18C19.1046 3 20 3.89543 20 5V19C20 20.1046 19.1046 21 18 21H6C4.89543 21 4 20.1046 4 19V5C4 3.89543 4.89543 3 6 3ZM16 11V13H8V11H16ZM16 17V15H8V17H16Z" fill="#1D3F66"/>
</svg>
