<svg width="24" height="24" viewBox="0 0 24 24" fill="none" xmlns="http://www.w3.org/2000/svg">
<path d="M4 6.4C4 6.17909 4.17909 6 4.4 6H19.6C19.8209 6 20 6.17909 20 6.4V7.6C20 7.82091 19.8209 8 19.6 8H4.4C4.17909 8 4 7.82091 4 7.6V6.4ZM4.4 13C4.17909 13 4 12.8209 4 12.6V11.4C4 11.1791 4.17909 11 4.4 11H19.6C19.8209 11 20 11.1791 20 11.4V12.6C20 12.8209 19.8209 13 19.6 13H4.4ZM4.4 18C4.17909 18 4 17.8209 4 17.6V16.4C4 16.1791 4.17909 16 4.4 16H19.6C19.8209 16 20 16.1791 20 16.4V17.6C20 17.8209 19.8209 18 19.6 18H4.4Z" fill="#1D3F66"/>
</svg>
