<svg width="24" height="24" viewBox="0 0 24 24" fill="none" xmlns="http://www.w3.org/2000/svg">
<path d="M20.7191 15.3251C20.8742 15.4825 20.8724 15.7358 20.7151 15.8909L19.8725 16.7215C19.7161 16.8757 19.4646 16.8749 19.3092 16.7197L14.8637 12.2831C14.7071 12.1269 14.7071 11.8731 14.8637 11.7169L19.3092 7.28027C19.4646 7.12511 19.7161 7.12434 19.8725 7.27854L20.7151 8.10914C20.8724 8.26425 20.8742 8.51754 20.7191 8.67486L17.717 11.7191C17.5634 11.8749 17.5634 12.1251 17.717 12.2809L20.7191 15.3251ZM3 6.4C3 6.17909 3.17909 6 3.4 6H15.6C15.8209 6 16 6.17909 16 6.4V7.6C16 7.82091 15.8209 8 15.6 8H3.4C3.17909 8 3 7.82091 3 7.6V6.4ZM3.4 13C3.17909 13 3 12.8209 3 12.6V11.4C3 11.1791 3.17909 11 3.4 11H12.6C12.8209 11 13 11.1791 13 11.4V12.6C13 12.8209 12.8209 13 12.6 13H3.4ZM3.4 18C3.17909 18 3 17.8209 3 17.6V16.4C3 16.1791 3.17909 16 3.4 16H15.6C15.8209 16 16 16.1791 16 16.4V17.6C16 17.8209 15.8209 18 15.6 18H3.4Z" fill="#1D3F66"/>
</svg>
