<svg width="16" height="16" viewBox="0 0 16 16" fill="none" xmlns="http://www.w3.org/2000/svg">
    <path fill-rule="evenodd" clip-rule="evenodd" d="M5.81718 2.5835L5.81819 2.5835L10.1828 2.5835C11.393 2.58511 12.5535 3.06528 13.41 3.91979C14.2663 4.77422 14.7484 5.93278 14.75 7.14197L14.75 7.14364L14.7496 7.56526C14.748 8.77422 14.2661 9.93325 13.4096 10.7878C12.5532 11.6422 11.3927 12.1225 10.1824 12.1241L6.88653 12.124C6.8865 12.124 6.88656 12.124 6.88653 12.124C5.89309 12.1241 4.93249 12.4786 4.17854 13.1231C4.17845 13.1231 4.17863 13.123 4.17854 13.1231L4.1378 13.1579C3.00233 14.1296 1.25 13.3227 1.25 11.8283L1.25 7.14197C1.25162 5.93295 1.73368 4.7743 2.59002 3.91981C3.44635 3.06544 4.6069 2.58512 5.81718 2.5835ZM10.1813 4.0835H5.81873C5.0046 4.08471 4.22463 4.40785 3.64953 4.98162M10.1813 4.0835C10.9954 4.08471 11.7753 4.40777 12.3505 4.98164C12.9255 5.55535 13.2487 6.33258 13.25 7.14335C13.25 7.14314 13.25 7.14356 13.25 7.14335L13.2496 7.56359C13.2485 8.37444 12.9254 9.152 12.3501 9.72591C11.775 10.2997 10.995 10.6229 10.1808 10.6241C10.1807 10.6241 10.1809 10.6241 10.1808 10.6241L6.88649 10.624C5.53598 10.6241 4.22952 11.106 3.20354 11.9831L3.16254 12.0182C3.00033 12.157 2.75 12.0418 2.75 11.8283V7.14352C2.75121 6.3329 3.07446 5.55547 3.64953 4.98162" fill="#072D57"/>
</svg>
