<svg width="24" height="24" viewBox="0 0 24 24" fill="none" xmlns="http://www.w3.org/2000/svg">
    <path fill-rule="evenodd" clip-rule="evenodd" d="M6 4C6 2.89543 6.89543 2 8 2H20C21.1046 2 22 2.89543 22 4V20C22 21.1046 21.1046 22 20 22H7H6.2H6V21.9953C3.77327 21.8909 2 20.0526 2 17.8V12C2 10.8954 2.89543 10 4 10H6V4ZM8 10V11V20H20V4L8 4V10ZM6 12H4V17.8C4 18.9476 4.8787 19.89 6 19.991V12ZM10 6H11H17H18V7V11V12H17H11H10V11V7V6ZM12 8V10H16V8H12ZM18 13H10V15H18V13ZM18 16V18H14V16H18Z" fill="#072D57"/>
</svg>
