<svg width="24" height="24" viewBox="0 0 24 24" fill="none" xmlns="http://www.w3.org/2000/svg">
<path clip-rule="evenodd" d="M15.995 10.9951C16.1825 11.1826 16.2878 11.4369 16.2878 11.7021C16.2878 11.9672 16.1825 12.2215 15.995 12.4091L11.402 17.0021C11.2157 17.1846 10.9649 17.2863 10.7041 17.285C10.4433 17.2837 10.1935 17.1795 10.009 16.995C9.82461 16.8106 9.72042 16.5608 9.7191 16.3C9.71778 16.0392 9.81945 15.7884 10.002 15.6021L13.902 11.7021L10.002 7.80207C9.81945 7.61578 9.71778 7.36497 9.7191 7.10414C9.72042 6.84331 9.82461 6.59354 10.009 6.4091C10.1935 6.22467 10.4433 6.12047 10.7041 6.11915C10.9649 6.11784 11.2157 6.21951 11.402 6.40207L15.995 10.9951Z" fill="#1D3F66"/>
</svg>
