<svg width="16" height="16" viewBox="0 0 16 16" fill="none" xmlns="http://www.w3.org/2000/svg">
<path clip-rule="evenodd" d="M12.6667 4.27592L8.47136 8.47122C8.34563 8.59266 8.17722 8.65986 8.00243 8.65834C7.82763 8.65682 7.66042 8.58671 7.53681 8.4631C7.41321 8.3395 7.3431 8.17229 7.34158 7.99749C7.34006 7.82269 7.40726 7.65429 7.52869 7.52856L11.7244 3.33285H10.6667C10.4899 3.33285 10.3203 3.26261 10.1953 3.13758C10.0702 3.01256 10 2.84299 10 2.66618C10 2.48937 10.0702 2.3198 10.1953 2.19477C10.3203 2.06975 10.4899 1.99951 10.6667 1.99951H13.2398C13.2715 1.99462 13.3036 1.992 13.3358 1.99172C13.4243 1.99096 13.5121 2.00782 13.594 2.04134C13.6759 2.07486 13.7504 2.12437 13.813 2.18696C13.8756 2.24956 13.9251 2.32399 13.9586 2.40592C13.9921 2.48785 14.009 2.57564 14.0082 2.66416C14.0079 2.69725 14.0052 2.7302 14 2.76274V5.33285C14 5.50966 13.9298 5.67923 13.8047 5.80425C13.6797 5.92927 13.5101 5.99951 13.3333 5.99951C13.1565 5.99951 12.987 5.92927 12.8619 5.80425C12.7369 5.67923 12.6667 5.50966 12.6667 5.33285V4.27592ZM3.33333 12.6662V3.33285H7.33333V1.99951H3.33133C2.59733 1.99951 2 2.59485 2 3.32885V12.6702C2.00035 13.0227 2.14061 13.3608 2.38998 13.61C2.63934 13.8592 2.97743 13.9993 3.33 13.9995H12.67C12.8448 13.9994 13.0179 13.9649 13.1793 13.8979C13.3408 13.8309 13.4875 13.7328 13.611 13.6091C13.7345 13.4854 13.8324 13.3385 13.8992 13.177C13.9659 13.0154 14.0002 12.8423 14 12.6675V8.66618H12.6667V12.6662H3.33333Z" fill="#1D3F66"/>
</svg>
