<svg width="24" height="24" viewBox="0 0 24 24" fill="none" xmlns="http://www.w3.org/2000/svg">
<path clip-rule="evenodd" d="M15 4C14.4477 4 14 4.44772 14 5C14 5.55228 14.4477 6 15 6H16.5858L11.7929 10.7929C11.4024 11.1834 11.4024 11.8166 11.7929 12.2071C12.1834 12.5976 12.8166 12.5976 13.2071 12.2071L18 7.41421V9C18 9.55228 18.4477 10 19 10C19.5523 10 20 9.55228 20 9V5C20 4.44772 19.5523 4 19 4H15ZM7 5H12V7H7L7 17H17V12H19V17C19 18.1046 18.1046 19 17 19H7C5.89543 19 5 18.1046 5 17V7C5 5.89543 5.89543 5 7 5Z" fill="#1D3F66"/>
</svg>
