<svg width="16" height="16" viewBox="0 0 16 16" fill="none" xmlns="http://www.w3.org/2000/svg">
    <path fill-rule="evenodd" clip-rule="evenodd" d="M8 14C11.3137 14 14 11.3137 14 8C14 4.68629 11.3137 2 8 2C4.68629 2 2 4.68629 2 8C2 11.3137 4.68629 14 8 14ZM6 5C6.55228 5 7 5.44772 7 6V10C7 10.5523 6.55228 11 6 11C5.44772 11 5 10.5523 5 10V6C5 5.44772 5.44772 5 6 5ZM10 5C10.5523 5 11 5.44772 11 6V10C11 10.5523 10.5523 11 10 11C9.44772 11 9 10.5523 9 10V6C9 5.44772 9.44772 5 10 5Z" fill="#F98700"/>
</svg>
