<svg width="24" height="24" viewBox="0 0 24 24" fill="none" xmlns="http://www.w3.org/2000/svg">
<path clip-rule="evenodd" d="M7 7C7 5.89543 7.89543 5 9 5C10.1046 5 11 5.89543 11 7C11 8.10457 10.1046 9 9 9C7.89543 9 7 8.10457 7 7ZM9 3C6.79086 3 5 4.79086 5 7C5 9.20914 6.79086 11 9 11C11.2091 11 13 9.20914 13 7C13 4.79086 11.2091 3 9 3ZM16 8C16 7.44772 16.4477 7 17 7C17.5523 7 18 7.44772 18 8C18 8.55228 17.5523 9 17 9C16.4477 9 16 8.55228 16 8ZM17 5C15.3431 5 14 6.34315 14 8C14 9.65685 15.3431 11 17 11C18.6569 11 20 9.65685 20 8C20 6.34315 18.6569 5 17 5ZM3 15C3 13.3431 4.34315 12 6 12H12C13.6569 12 15 13.3431 15 15V16.0119C15 17.3368 14.131 18.5047 12.862 18.8854L12.4482 19.0096C10.1989 19.6844 7.80109 19.6844 5.55183 19.0096L5.13796 18.8854C3.869 18.5047 3 17.3368 3 16.0119V15ZM6 14C5.44772 14 5 14.4477 5 15V16.0119C5 16.4535 5.28967 16.8429 5.71265 16.9698L6.12652 17.0939C8.00091 17.6562 9.99909 17.6562 11.8735 17.0939L12.2873 16.9698C12.7103 16.8429 13 16.4535 13 16.0119V15C13 14.4477 12.5523 14 12 14H6ZM19.8161 17.9992C18.3486 18.4394 16.8038 18.5279 15.3052 18.2648C15.687 17.7049 15.9276 17.047 15.9861 16.3463C17.0729 16.4888 18.1825 16.4012 19.2414 16.0835L19.5725 15.9842C19.8263 15.908 20.0001 15.6744 20.0001 15.4095V14.5999C20.0001 14.2685 19.7314 13.9999 19.4 13.9999H15.874C15.6716 13.2137 15.2361 12.521 14.6457 11.9999H19.4C20.836 11.9999 22.0001 13.164 22.0001 14.5999V15.4095C22.0001 16.5577 21.2469 17.5699 20.1472 17.8998L19.8161 17.9992Z" fill="#072D57"/>
</svg>
