<svg width="24" height="24" viewBox="0 0 24 24" fill="none" xmlns="http://www.w3.org/2000/svg">
<path fill-rule="evenodd" clip-rule="evenodd" d="M8.51977 3.07819C8.0165 2.17398 6.94095 1.77296 5.96817 2.12922C2.87855 3.26029 1.21337 6.60068 2.36517 9.75635C4.42161 15.3898 8.6103 19.5788 14.2438 21.635C17.3996 22.7868 20.74 21.1219 21.871 18.032C22.2271 17.0597 21.8266 15.9836 20.9214 15.4808L19.0489 14.4403L17.6107 13.6412C16.8319 13.2085 15.9099 13.2459 15.1822 13.7166C15.1822 13.7166 14.9413 13.893 14.8869 13.9414C14.4685 14.3132 14.0501 14.685 13.6319 15.0569C11.6304 14.0766 9.92361 12.3698 8.94326 10.3683C9.31517 9.95001 9.68702 9.53159 10.0588 9.11321C10.1072 9.0588 10.1527 9.00277 10.1954 8.9453C10.3313 8.76227 10.4379 8.56469 10.5146 8.35852C10.5323 8.31098 10.5484 8.26299 10.5629 8.21461C10.7417 7.61867 10.6784 6.96461 10.3589 6.38925L9.9844 5.71525C9.49618 4.83658 9.00801 3.95766 8.5203 3.07915L8.51977 3.07819ZM6.65592 4.00725C6.68383 3.99702 6.7056 3.99916 6.72247 4.00544C7.32888 5.09775 8.00363 6.2683 8.61059 7.36049C8.69207 7.50721 8.67467 7.66013 8.56434 7.78409C8.04916 8.36382 7.53374 8.9438 7.01877 9.52268L6.60359 9.98939L6.84087 10.5672C8.04209 13.4924 10.5077 15.9581 13.4329 17.1593L14.0108 17.3966L14.4775 16.9814C15.0563 16.4664 15.6357 15.9515 16.2155 15.4363C16.3405 15.3252 16.4934 15.3084 16.6396 15.3895L18.0826 16.1913L19.9502 17.2291C19.976 17.2434 19.9885 17.2612 19.9948 17.2779C20.001 17.2946 20.0031 17.3166 19.9928 17.3446C19.2254 19.4412 17.0055 20.5139 14.9296 19.7563C9.85023 17.9023 6.09812 14.15 4.24394 9.07061C3.48625 6.99471 4.55927 4.77469 6.65592 4.00725Z" fill="#072D57"/>
</svg>
