<svg width="16" height="16" viewBox="0 0 16 16" fill="none" xmlns="http://www.w3.org/2000/svg">
<path d="M1 1.82353C1 1.36871 1.36871 1 1.82353 1L4.34987 1C4.74519 1 5.10285 1.2317 5.26694 1.59136C5.55768 2.2286 6.03625 3.25755 6.44758 4.04782C6.72018 4.57156 6.55861 5.26536 6.12122 5.66198C5.4712 6.25142 4.79443 7.15207 5.39574 8.01781C6.09493 9.02448 6.9763 9.90566 7.98274 10.6045C8.55727 11.0035 9.59462 10.3747 10.3247 9.72295C10.7342 9.35749 11.3713 9.24013 11.8571 9.49531C12.664 9.91908 13.7506 10.428 14.4119 10.7322C14.7698 10.8968 15 11.2527 15 11.6466C15 12.3892 15 13.4491 15 14.1775C15 14.6323 14.6313 15 14.1765 15C6.89931 15 1 9.10069 1 1.82353Z" fill="#1D3F66"/>
</svg>
