<svg width="24" height="24" viewBox="0 0 24 24" fill="none" xmlns="http://www.w3.org/2000/svg">
<path d="M19.7475 11.8769L16.8277 10.7182L19.1797 4.79317C19.2297 4.6673 19.2543 4.53282 19.2523 4.39742C19.2503 4.26202 19.2216 4.12835 19.1679 4.00403C19.1142 3.87972 19.0365 3.7672 18.9393 3.67289C18.8422 3.57859 18.7274 3.50435 18.6015 3.45442C18.4756 3.40448 18.3411 3.37983 18.2057 3.38186C18.0703 3.3839 17.9367 3.41258 17.8124 3.46628C17.688 3.51997 17.5755 3.59763 17.4812 3.69481C17.3869 3.79199 17.3127 3.9068 17.2627 4.03267L14.9107 9.95767L11.25 8.50492L13.602 2.57992C13.6976 2.32694 13.69 2.04652 13.5809 1.79909C13.4717 1.55165 13.2697 1.357 13.0184 1.25707C12.7671 1.15713 12.4866 1.15992 12.2373 1.26483C11.988 1.36973 11.79 1.56836 11.6857 1.81792L9.33449 7.74292L6.41699 6.58567L5.20574 9.63592L6.81824 10.2764L4.91549 15.0704C4.69585 15.6252 4.70541 16.2445 4.94209 16.7923C5.17877 17.34 5.62319 17.7714 6.17774 17.9917L7.39724 18.4762L6.73949 20.1314C6.59294 20.5012 6.59926 20.914 6.75707 21.2792C6.91488 21.6443 7.21124 21.9318 7.58099 22.0784L8.27849 22.3559C8.64829 22.5023 9.06105 22.4958 9.42612 22.3381C9.79118 22.1803 10.0787 21.884 10.2255 21.5144L10.8832 19.8592L12.2767 20.4119C12.8315 20.6318 13.4509 20.6225 13.9988 20.386C14.5467 20.1494 14.9783 19.705 15.1987 19.1504L17.1 14.3579L18.5377 14.9279L19.7475 11.8784V11.8769Z" fill="#1D3F66"/>
</svg>
