<svg width="24" height="24" viewBox="0 0 24 24" fill="none" xmlns="http://www.w3.org/2000/svg">
<path clip-rule="evenodd" d="M8.01185 10.9951C7.82438 11.1826 7.71907 11.4369 7.71907 11.7021C7.71907 11.9672 7.82438 12.2215 8.01185 12.4091L12.6049 17.0021C12.7911 17.1846 13.042 17.2863 13.3028 17.285C13.5636 17.2837 13.8134 17.1795 13.9978 16.995C14.1823 16.8106 14.2865 16.5608 14.2878 16.3C14.2891 16.0392 14.1874 15.7884 14.0049 15.6021L10.1049 11.7021L14.0049 7.80207C14.1874 7.61578 14.2891 7.36497 14.2878 7.10414C14.2865 6.84331 14.1823 6.59354 13.9978 6.4091C13.8134 6.22467 13.5636 6.12047 13.3028 6.11915C13.042 6.11784 12.7911 6.21951 12.6049 6.40207L8.01185 10.9951Z" fill="#1D3F66"/>
</svg>
