<svg width="24" height="24" viewBox="0 0 24 24" fill="none" xmlns="http://www.w3.org/2000/svg">
<path fill-rule="evenodd" clip-rule="evenodd" d="M22 6.89796C22 7.46463 21.9665 8.07501 21.8957 8.71456C21.3546 13.6029 18.6323 20.1953 12 22C5.36774 20.1953 2.64542 13.6029 2.10427 8.71461C2.03347 8.07504 2 7.46465 2 6.89796C3.66667 6.89796 7 4.44898 7 2H17C17 4.44898 20.3913 6.89796 22 6.89796ZM15.5411 3.81818C16.0168 5.02165 16.8899 6.02685 17.699 6.7353C18.3356 7.29263 19.0419 7.76608 19.7371 8.1083C19.8578 8.1677 19.9833 8.22573 20.1128 8.28091C19.9241 10.2447 19.3365 12.5648 18.2109 14.6599C16.8932 17.1123 14.8949 19.1664 12 20.1035C9.10511 19.1664 7.10679 17.1123 5.78915 14.6599C4.66527 12.5681 4.07776 10.2518 3.88805 8.29004C4.02446 8.23282 4.15681 8.17225 4.28413 8.10988C4.98565 7.76628 5.69273 7.29071 6.3274 6.73118C7.13551 6.01872 7.99429 5.01511 8.46254 3.81818H15.5411ZM12 14.7272C14.0083 14.7272 15.6364 13.0991 15.6364 11.0908C15.6364 9.08247 14.0083 7.45442 12 7.45442C9.99171 7.45442 8.36366 9.08247 8.36366 11.0908C8.36366 13.0991 9.99171 14.7272 12 14.7272ZM12 16.5454C15.0125 16.5454 17.4545 14.1033 17.4545 11.0908C17.4545 8.07832 15.0125 5.63623 12 5.63623C8.98756 5.63623 6.54547 8.07832 6.54547 11.0908C6.54547 14.1033 8.98756 16.5454 12 16.5454ZM14.1703 10.8934C14.5018 10.5573 14.5018 10.0124 14.1703 9.67637C13.8388 9.3403 13.3014 9.3403 12.9699 9.67637L11.6242 11.0405L10.9834 10.3909C10.6519 10.0548 10.1144 10.0548 9.78293 10.3909C9.45143 10.727 9.45143 11.2719 9.78293 11.6079L11.024 12.8661C11.3555 13.2021 11.893 13.2021 12.2245 12.8661L14.1703 10.8934Z" fill="#072D57"/>
</svg>
