<svg width="24" height="24" viewBox="0 0 24 24" fill="none" xmlns="http://www.w3.org/2000/svg">
    <path fill-rule="evenodd" clip-rule="evenodd" d="M19.7778 12C19.7778 16.2955 16.2955 19.7778 12 19.7778C7.70445 19.7778 4.22222 16.2955 4.22222 12C4.22222 7.70445 7.70445 4.22222 12 4.22222C16.2955 4.22222 19.7778 7.70445 19.7778 12ZM22 12C22 17.5228 17.5228 22 12 22C6.47715 22 2 17.5228 2 12C2 6.47715 6.47715 2 12 2C17.5228 2 22 6.47715 22 12ZM14.8284 7.16015C15.3505 7.67964 15.7181 8.33398 15.89 9.05018C16.1223 10.0082 15.9918 11.0183 15.5235 11.8858C15.0552 12.7533 14.2824 13.4167 13.354 13.7482C13.149 13.8212 13.004 14.0032 13.004 14.2202V15.0022C13.004 15.2679 12.8984 15.5228 12.7105 15.7107C12.5226 15.8986 12.2677 16.0042 12.002 16.0042C11.7363 16.0042 11.4814 15.8986 11.2935 15.7107C11.1056 15.5228 11 15.2679 11 15.0022V12.9882C11.0034 12.7252 11.1103 12.4742 11.2975 12.2895C11.4846 12.1048 11.7369 12.0012 11.9998 12.0012C13.1048 12.0012 13.996 11.1032 13.996 10.0012C13.984 9.47757 13.7676 8.97945 13.3929 8.61345C13.0183 8.24746 12.5153 8.04267 11.9915 8.04293C11.4678 8.04319 10.9649 8.24848 10.5907 8.61485C10.2164 8.98122 10.0004 9.47956 9.989 10.0032C9.987 10.5542 9.539 11.0012 8.987 11.0012C8.74019 10.9997 8.50281 10.9062 8.32123 10.739C8.13964 10.5719 8.02689 10.343 8.005 10.0972L8 9.95018C8.017 7.44618 10.321 5.51418 12.933 6.10818C13.6501 6.27646 14.3063 6.64066 14.8284 7.16015ZM13 18.0002C13 18.5525 12.5523 19.0002 12 19.0002C11.4477 19.0002 11 18.5525 11 18.0002C11 17.4479 11.4477 17.0002 12 17.0002C12.5523 17.0002 13 17.4479 13 18.0002Z" fill="#072D57"/>
</svg>
