<svg width="16" height="16" viewBox="0 0 16 16" fill="none" xmlns="http://www.w3.org/2000/svg">
<path d="M5.0011 3.50224V5.74847C5.0011 5.94738 5.08012 6.13814 5.22077 6.27879C5.36142 6.41944 5.55218 6.49846 5.75109 6.49846C5.95 6.49846 6.14077 6.41944 6.28142 6.27879C6.42207 6.13814 6.50108 5.94738 6.50108 5.74847V2.82649C6.50108 2.3705 6.13134 2 5.67609 2H2.75112C2.55191 2 2.36086 2.07914 2.22 2.22C2.07914 2.36086 2 2.55191 2 2.75112C2 2.95033 2.07914 3.14138 2.22 3.28224C2.36086 3.4231 2.55191 3.50224 2.75112 3.50224H5.0011Z" fill="#1D3F66"/>
<path d="M6.07209 12.5134C4.51435 11.7417 3.50111 10.1052 3.50111 8.27744C3.50111 6.57796 4.37635 5.03822 5.76609 4.20873C6.12609 3.99423 6.25059 3.51724 6.04434 3.14299C5.99795 3.05507 5.9342 2.97748 5.85693 2.91493C5.77967 2.85237 5.69051 2.80616 5.59486 2.7791C5.49921 2.75203 5.39905 2.74466 5.30047 2.75745C5.20189 2.77024 5.10693 2.80291 5.02135 2.85349C3.16886 3.95823 2.00112 6.01246 2.00112 8.27744C2.00112 10.7134 3.35261 12.8959 5.42859 13.9241C5.80209 14.1094 6.24984 13.9436 6.42759 13.5544C6.60533 13.1644 6.44634 12.6987 6.07209 12.5134Z" fill="#1D3F66"/>
<path clip-rule="evenodd" d="M9.50106 10.2514V13.1734C9.50106 13.6294 9.8708 13.9999 10.3261 13.9999H13.251C13.4502 13.9999 13.6413 13.9208 13.7821 13.7799C13.923 13.639 14.0021 13.448 14.0021 13.2488C14.0021 13.0496 13.923 12.8585 13.7821 12.7177C13.6413 12.5768 13.4502 12.4977 13.251 12.4977H11.001V10.2514C11.001 10.0525 10.922 9.86175 10.7814 9.7211C10.6407 9.58045 10.45 9.50143 10.2511 9.50143C10.0521 9.50143 9.86138 9.58045 9.72073 9.7211C9.58007 9.86175 9.50106 10.0525 9.50106 10.2514Z" fill="#1D3F66"/>
<path clip-rule="evenodd" d="M9.57381 2.447C9.39606 2.83699 9.55506 3.30199 9.9293 3.48724C11.487 4.25898 12.5003 5.89472 12.5003 7.72245C12.5003 9.42193 11.625 10.9624 10.2346 11.7912C10.0603 11.899 9.93423 12.0698 9.88256 12.2681C9.83089 12.4664 9.85757 12.677 9.95705 12.8562C10.1626 13.2312 10.6208 13.3609 10.98 13.1464C12.8325 12.0417 14.0003 9.98743 14.0003 7.72245C14.0003 5.28647 12.6488 3.10399 10.5728 2.0765C10.4734 2.02653 10.3638 2.00034 10.2526 2C10.1084 2.00141 9.96776 2.04432 9.84738 2.12359C9.72701 2.20287 9.63203 2.31515 9.57381 2.447Z" fill="#1D3F66"/>
</svg>
