<svg viewBox="0 0 50 50" xmlns="http://www.w3.org/2000/svg">
    <path d="M 31.013 38.005 C 29.238 38.741 27.334 39.119 25.413 39.119 C 21.533 39.119 17.809 37.579 15.065 34.834 C 12.322 32.089 10.779 28.368 10.779 24.486 C 10.779 20.606 12.322 16.882 15.065 14.138 C 17.809 11.395 21.533 9.852 25.413 9.852 C 27.334 9.852 29.238 10.23 31.013 10.966 C 32.788 11.702 34.402 12.779 35.761 14.138 C 37.12 15.496 38.198 17.11 38.932 18.885 C 39.668 20.662 40.046 22.565 40.046 24.486 C 40.046 26.407 39.668 28.311 38.932 30.086 C 38.198 31.861 37.12 33.475 35.761 34.834 C 34.402 36.193 32.788 37.271 31.013 38.005 Z M 18.213 41.868 C 20.496 42.813 22.942 43.3 25.413 43.3 C 30.403 43.3 35.188 41.319 38.717 37.79 C 42.246 34.261 44.227 29.476 44.227 24.486 C 44.227 19.496 42.246 14.71 38.717 11.182 C 35.188 7.653 30.403 5.671 25.413 5.671 C 22.942 5.671 20.496 6.158 18.213 7.103 C 15.93 8.05 13.856 9.434 12.109 11.182 C 10.361 12.929 8.977 15.003 8.03 17.286 C 7.085 19.569 6.598 22.015 6.598 24.486 C 6.598 26.957 7.085 29.403 8.03 31.685 C 8.977 33.968 10.361 36.042 12.109 37.79 C 13.856 39.537 15.93 40.923 18.213 41.868 Z M 25.413 28.667 C 24.859 28.667 24.328 28.447 23.935 28.054 C 23.544 27.663 23.322 27.13 23.322 26.576 L 23.322 16.124 C 23.322 15.57 23.544 15.039 23.935 14.646 C 24.328 14.255 24.859 14.033 25.413 14.033 C 25.967 14.033 26.5 14.255 26.891 14.646 C 27.284 15.039 27.503 15.57 27.503 16.124 L 27.503 26.576 C 27.503 27.13 27.284 27.663 26.891 28.054 C 26.5 28.447 25.967 28.667 25.413 28.667 Z M 25.413 34.938 C 24.859 34.938 24.328 34.719 23.935 34.326 C 23.544 33.935 23.322 33.402 23.322 32.848 C 23.322 32.294 23.544 31.763 23.935 31.37 C 24.328 30.979 24.859 30.757 25.413 30.757 C 25.967 30.757 26.5 30.979 26.891 31.37 C 27.284 31.763 27.503 32.294 27.503 32.848 C 27.503 33.402 27.284 33.935 26.891 34.326 C 26.5 34.719 25.967 34.938 25.413 34.938 Z" fill="#1D3F66"/>
</svg>
