<svg width="24" height="24" viewBox="0 0 24 24" fill="none" xmlns="http://www.w3.org/2000/svg">
<path d="M8 5.5C8 6.88071 6.88071 8 5.5 8C4.11929 8 3 6.88071 3 5.5C3 4.11929 4.11929 3 5.5 3C6.88071 3 8 4.11929 8 5.5ZM8 5.5L16.5344 6.27586C17.9308 6.4028 19 7.57359 19 8.97573C19 10.398 17.9008 11.5785 16.4821 11.6798L7.51785 12.3202C6.09917 12.4215 5 13.602 5 15.0243C5 16.4264 6.06918 17.5972 7.46556 17.7241L16 18.5M16 18.5C16 19.8807 17.1193 21 18.5 21C19.8807 21 21 19.8807 21 18.5C21 17.1193 19.8807 16 18.5 16C17.1193 16 16 17.1193 16 18.5Z" stroke="#072D57" stroke-width="2"/>
</svg>
