<svg width="16" height="16" viewBox="0 0 16 16" fill="none" xmlns="http://www.w3.org/2000/svg">
<path fill-rule="evenodd" clip-rule="evenodd" d="M3.5 2.75C3.08579 2.75 2.75 3.08579 2.75 3.5C2.75 3.91421 3.08579 4.25 3.5 4.25C3.91421 4.25 4.25 3.91421 4.25 3.5C4.25 3.08579 3.91421 2.75 3.5 2.75ZM1.25 3.5C1.25 2.25736 2.25736 1.25 3.5 1.25C4.67372 1.25 5.63753 2.14871 5.74083 3.29553L10.4583 3.59505C11.7468 3.67686 12.75 4.74578 12.75 6.03689C12.75 7.28363 11.8126 8.331 10.5734 8.46868L5.59221 9.02215C5.11274 9.07542 4.75 9.4807 4.75 9.96311C4.75 10.4627 5.13818 10.8763 5.63677 10.908L10.6452 11.226C11.0509 10.6365 11.7303 10.25 12.5 10.25C13.7426 10.25 14.75 11.2574 14.75 12.5C14.75 13.7426 13.7426 14.75 12.5 14.75C11.3263 14.75 10.3625 13.8513 10.2592 12.7045L5.54172 12.405C4.2532 12.3231 3.25 11.2542 3.25 9.96311C3.25 8.71637 4.18744 7.669 5.42656 7.53132L10.4078 6.97785C10.8873 6.92458 11.25 6.51931 11.25 6.03689C11.25 5.5373 10.8618 5.12369 10.3632 5.09203L5.3548 4.77404C4.94911 5.36352 4.26969 5.75 3.5 5.75C2.25736 5.75 1.25 4.74264 1.25 3.5ZM12.5 11.75C12.0858 11.75 11.75 12.0858 11.75 12.5C11.75 12.9142 12.0858 13.25 12.5 13.25C12.9142 13.25 13.25 12.9142 13.25 12.5C13.25 12.0858 12.9142 11.75 12.5 11.75Z" fill="#072D57"/>
</svg>
