<svg width="24" height="24" viewBox="0 0 24 24" fill="none" xmlns="http://www.w3.org/2000/svg">
<path fill-rule="evenodd" clip-rule="evenodd" d="M5.5 4C4.67157 4 4 4.67157 4 5.5C4 6.32843 4.67157 7 5.5 7C6.32843 7 7 6.32843 7 5.5C7 4.67157 6.32843 4 5.5 4ZM2 5.5C2 3.567 3.567 2 5.5 2C7.11301 2 8.47117 3.09114 8.87662 4.57557L16.625 5.27996C18.5364 5.45373 20 7.05638 20 8.97573C20 10.9227 18.4954 12.5386 16.5534 12.6773L7.5891 13.3176C6.69372 13.3816 6 14.1266 6 15.0243C6 15.9092 6.6748 16.6481 7.5561 16.7282L15.1697 17.4204C15.6247 16.0157 16.9437 15 18.5 15C20.433 15 22 16.567 22 18.5C22 20.433 20.433 22 18.5 22C16.887 22 15.5288 20.9089 15.1234 19.4244L7.37503 18.72C5.46356 18.5463 4 16.9436 4 15.0243C4 13.0773 5.50462 11.4614 7.44661 11.3227L16.4109 10.6824C17.3063 10.6184 18 9.87339 18 8.97573C18 8.09079 17.3252 7.35187 16.4439 7.27175L8.83032 6.57961C8.37529 7.98428 7.05626 9 5.5 9C3.567 9 2 7.433 2 5.5ZM18.5 17C17.6716 17 17 17.6716 17 18.5C17 19.3284 17.6716 20 18.5 20C19.3284 20 20 19.3284 20 18.5C20 17.6716 19.3284 17 18.5 17Z" fill="#072D57"/>
</svg>
