<svg width="16" height="16" viewBox="0 0 16 16" fill="none" xmlns="http://www.w3.org/2000/svg">
<path d="M5 4L10.4108 4.34354C11.3043 4.40027 12 5.14154 12 6.03689C12 6.90147 11.3499 7.62779 10.4906 7.72326L5.50938 8.27674C4.65009 8.37221 4 9.09853 4 9.96311C4 10.8585 4.69569 11.5997 5.58924 11.6565L11 12M5 3.5C5 4.32843 4.32843 5 3.5 5C2.67157 5 2 4.32843 2 3.5C2 2.67157 2.67157 2 3.5 2C4.32843 2 5 2.67157 5 3.5ZM14 12.5C14 13.3284 13.3284 14 12.5 14C11.6716 14 11 13.3284 11 12.5C11 11.6716 11.6716 11 12.5 11C13.3284 11 14 11.6716 14 12.5Z" stroke="#072D57" stroke-width="1.5"/>
</svg>
