<svg width="24" height="24" viewBox="0 0 24 24" fill="none" xmlns="http://www.w3.org/2000/svg">
    <path fill-rule="evenodd" clip-rule="evenodd" d="M5 3H16.2519C16.4994 3 16.7381 3.09177 16.9218 3.25757L20.6699 6.63966C20.8801 6.82927 21 7.09905 21 7.38209V19C21 20.1046 20.1046 21 19 21H5C3.89543 21 3 20.1046 3 19V5C3 3.89543 3.89543 3 5 3ZM7 5H5L5 19H7V13.5C7 12.6716 7.67157 12 8.5 12H15.5C16.3284 12 17 12.6716 17 13.5V19H19V7.82668L16 5.11964V7.5C16 8.32843 15.3284 9 14.5 9H8.5C7.67157 9 7 8.32843 7 7.5V5ZM9 5V7H14V5H9ZM15 19H9V14H15V19Z" fill="#072D57"/>
</svg>
