<svg width="24" height="24" viewBox="0 0 24 24" fill="none" xmlns="http://www.w3.org/2000/svg">
    <path d="M19.5594 7.05937L16.9375 4.4375C16.6562 4.15718 16.2752 3.99985 15.8781 4L5 4C4.44772 4 4 4.44772 4 5V19C4 19.5523 4.44772 20 5 20H19C19.5523 20 20 19.5523 20 19V8.12187C19.9993 7.72431 19.8408 7.34328 19.5594 7.0625V7.05937ZM12 17C10.3431 17 9 15.6569 9 14C9 12.3431 10.3431 11 12 11C13.6569 11 15 12.3431 15 14C15 15.6569 13.6569 17 12 17ZM13.5 6C13.7761 6 14 6.22386 14 6.5V8.5C14 8.77614 13.7761 9 13.5 9H6.5C6.22386 9 6 8.77614 6 8.5V6.5C6 6.22386 6.22386 6 6.5 6H13.5Z" fill="#072D57"/>
</svg>
