<svg width="24" height="24" viewBox="0 0 24 24" fill="none" xmlns="http://www.w3.org/2000/svg">
<path d="M6.97798 19.477C6.97798 20.848 8.62298 21.519 9.55498 20.527L21.558 7.723C22.518 6.695 21.803 5 20.409 5H3.49598C2.17798 5 1.50498 6.607 2.41798 7.572L6.97798 12.4V19.477ZM8.97098 18.212V11.585L3.85598 6.169C4.15898 6.491 3.93398 7.026 3.49598 7.026H19.459L8.97098 18.212Z" fill="#1D3F66"/>
<path d="M8.41598 12.902L12.426 10.952C12.6665 10.8303 12.8503 10.6199 12.9387 10.3653C13.0272 10.1106 13.0133 9.83159 12.9 9.587C12.8469 9.46651 12.7701 9.35793 12.6741 9.26772C12.5782 9.17751 12.4651 9.10751 12.3416 9.06189C12.2181 9.01627 12.0867 8.99595 11.9551 9.00216C11.8236 9.00836 11.6947 9.04096 11.576 9.098L7.56598 11.048C7.06898 11.29 6.85598 11.901 7.09098 12.412C7.14399 12.5327 7.22076 12.6415 7.31671 12.7319C7.41267 12.8223 7.52584 12.8925 7.64949 12.9382C7.77314 12.9839 7.90473 13.0043 8.03642 12.9981C8.1681 12.9918 8.29719 12.9592 8.41598 12.902Z" fill="#1D3F66"/>
</svg>
