<svg width="24" height="24" viewBox="0 0 24 24" fill="none" xmlns="http://www.w3.org/2000/svg">
    <path fill-rule="evenodd" clip-rule="evenodd" d="M4.92893 19.0711C6.8043 20.9464 9.34783 22 12 22C14.6522 22 17.1957 20.9464 19.0711 19.0711C20.9464 17.1957 22 14.6522 22 12C22 9.34783 20.9464 6.8043 19.0711 4.92893C17.1957 3.05357 14.6522 2 12 2C9.34783 2 6.8043 3.05357 4.92893 4.92893C3.05357 6.8043 2 9.34783 2 12C2 14.6522 3.05357 17.1957 4.92893 19.0711ZM10.0001 8.00007C9.44778 8.00006 9.00006 8.44777 9.00005 9.00005C9.00004 9.55234 9.44774 10.0001 10 10.0001L12.5858 10.0001L8.29289 14.293C7.90236 14.6835 7.90235 15.3166 8.29287 15.7072C8.68339 16.0977 9.31655 16.0977 9.70708 15.7072L14 11.4144L14 14C14 14.5523 14.4477 15 15 15C15.5523 15 16 14.5523 16 14L16 9.00017C16.0001 8.44789 15.5523 8.00017 15.0001 8.00016L10.0001 8.00007Z" fill="#00875A"/>
</svg>
