<svg width="24" height="24" viewBox="0 0 24 24" fill="none" xmlns="http://www.w3.org/2000/svg">
<path fill-rule="evenodd" clip-rule="evenodd" d="M5 16C5 16.5523 5.44772 17 6 17H11C11.5523 17 12 17.4477 12 18C12 18.5523 11.5523 19 11 19H5C3.9 19 3 18.1 3 17V7C3 5.9 3.9 5 5 5H19C20.1 5 21 5.9 21 7V11C21 11.5523 20.5523 12 20 12C19.4477 12 19 11.5523 19 11V8.75282L14.166 13.586C13.8765 13.8757 13.5328 14.1056 13.1544 14.2624C12.7761 14.4192 12.3706 14.4999 11.961 14.4999C11.5514 14.4999 11.1459 14.4192 10.7676 14.2624C10.3892 14.1056 10.0455 13.8757 9.756 13.586L5 8.83081V16ZM5.99791 7L11.169 12.172C11.2729 12.276 11.3963 12.3585 11.5321 12.4147C11.6679 12.471 11.8135 12.5 11.9605 12.5C12.1075 12.5 12.2531 12.471 12.3889 12.4147C12.5247 12.3585 12.6481 12.276 12.752 12.172L17.924 7H5.99791ZM23.7071 18.7069C24.0976 18.3164 24.0976 17.6832 23.7071 17.2927L20.3431 13.9287C19.9526 13.5382 19.3195 13.5382 18.9289 13.9287C18.5384 14.3193 18.5384 14.9524 18.9289 15.343L20.5858 16.9998H15C14.4477 16.9998 14 17.4475 14 17.9998C14 18.5521 14.4477 18.9998 15 18.9998L20.5858 18.9998L18.9289 20.6567C18.5384 21.0472 18.5384 21.6804 18.9289 22.0709C19.3195 22.4614 19.9526 22.4614 20.3431 22.0709L23.7071 18.7069Z" fill="#072D57"/>
</svg>
