<svg width="16" height="16" viewBox="0 0 16 16" fill="none" xmlns="http://www.w3.org/2000/svg">
    <path fill-rule="evenodd" clip-rule="evenodd" d="M3.75736 12.2426C4.88258 13.3679 6.4087 14 8 14C9.5913 14 11.1174 13.3679 12.2426 12.2426C13.3679 11.1174 14 9.5913 14 8C14 6.4087 13.3679 4.88258 12.2426 3.75736C11.1174 2.63214 9.5913 2 8 2C6.4087 2 4.88258 2.63214 3.75736 3.75736C2.63214 4.88258 2 6.4087 2 8C2 9.5913 2.63214 11.1174 3.75736 12.2426ZM6.50002 5.24999C6.08581 5.24998 5.75002 5.58576 5.75001 5.99998C5.75001 6.41419 6.08579 6.74998 6.5 6.74999L8.18936 6.75001L5.46969 9.46966C5.1768 9.76256 5.1768 10.2374 5.46969 10.5303C5.76258 10.8232 6.23746 10.8232 6.53035 10.5303L9.25001 7.81069L9.25001 9.49999C9.25001 9.9142 9.58579 10.25 10 10.25C10.4142 10.25 10.75 9.9142 10.75 9.49999V6.00004C10.75 5.58583 10.4142 5.25004 10 5.25004L6.50002 5.24999Z" fill="#00875A"/>
</svg>
