<svg width="24" height="24" viewBox="0 0 24 24" fill="none" xmlns="http://www.w3.org/2000/svg">
<path clip-rule="evenodd" d="M11.701 16.7C11.0382 16.7094 10.3802 16.5869 9.76519 16.3398C9.15016 16.0926 8.59039 15.7257 8.1184 15.2604C7.64641 14.795 7.27162 14.2405 7.01581 13.629C6.75999 13.0175 6.62826 12.3613 6.62826 11.6985C6.62826 11.0357 6.75999 10.3795 7.01581 9.76799C7.27162 9.15652 7.64641 8.60199 8.1184 8.13663C8.59039 7.67127 9.15016 7.30435 9.76519 7.05721C10.3802 6.81006 11.0382 6.68762 11.701 6.69699C13.0276 6.69699 14.2999 7.22399 15.2379 8.16204C16.176 9.1001 16.703 10.3724 16.703 11.699C16.703 13.0256 16.176 14.2979 15.2379 15.2359C14.2999 16.174 13.0276 16.701 11.701 16.701V16.7ZM20.069 13.584C19.6764 13.4489 19.3357 13.1947 19.0944 12.8568C18.8531 12.5189 18.7233 12.1142 18.723 11.699C18.723 10.823 19.286 10.086 20.068 9.81399C20.1834 9.77596 20.2801 9.69557 20.3385 9.58904C20.397 9.48251 20.4129 9.35777 20.383 9.23999C20.1859 8.54432 19.9052 7.8751 19.547 7.24699C19.4879 7.14748 19.3947 7.07284 19.2847 7.03696C19.1747 7.00109 19.0553 7.00643 18.949 7.05199C18.539 7.21777 18.0863 7.24585 17.659 7.13199C17.3235 7.04234 17.0174 6.86638 16.771 6.62163C16.5247 6.37688 16.3468 6.07188 16.255 5.73699C16.1383 5.30793 16.165 4.85249 16.331 4.43999C16.376 4.3336 16.3809 4.21451 16.3449 4.10476C16.3088 3.99501 16.2343 3.90202 16.135 3.84299C15.5119 3.48989 14.8489 3.21259 14.16 3.01699C14.0423 2.98679 13.9176 3.00243 13.811 3.06072C13.7044 3.11902 13.624 3.21563 13.586 3.33099C13.4509 3.7236 13.1967 4.06429 12.8588 4.30557C12.5209 4.54684 12.1162 4.67668 11.701 4.67699C11.286 4.67669 10.8815 4.54696 10.5438 4.30587C10.2061 4.06477 9.95203 3.72434 9.81698 3.33199C9.77854 3.21664 9.69792 3.12009 9.59129 3.06167C9.48465 3.00325 9.35988 2.98729 9.24198 3.01699C8.53398 3.21699 7.86298 3.50199 7.23798 3.85899C7.14059 3.91606 7.06699 4.00627 7.03063 4.11313C6.99428 4.21999 6.99759 4.33637 7.03998 4.44099C7.18925 4.8048 7.22806 5.20452 7.15158 5.59025C7.0751 5.97599 6.88672 6.33066 6.60994 6.61C6.33316 6.88934 5.98024 7.08098 5.59522 7.16101C5.21021 7.24104 4.81015 7.2059 4.44498 7.05999C4.33882 7.01557 4.2202 7.01093 4.1109 7.04694C4.00159 7.08294 3.90895 7.15717 3.84998 7.25599C3.49276 7.88456 3.21305 8.55411 3.01698 9.24999C2.98729 9.36659 3.00247 9.49008 3.05951 9.59602C3.11655 9.70195 3.21129 9.7826 3.32498 9.82199C3.712 9.96045 4.04681 10.2151 4.28363 10.551C4.52044 10.887 4.64769 11.2879 4.64798 11.699C4.64798 12.566 4.09598 13.298 3.32398 13.576C3.21059 13.6152 3.11602 13.6955 3.05899 13.801C3.00196 13.9066 2.98661 14.0297 3.01598 14.146C3.19203 14.7669 3.43443 15.367 3.73898 15.936C3.79876 16.0417 3.8966 16.1206 4.01254 16.1566C4.12849 16.1927 4.25381 16.1831 4.36298 16.13C4.95798 15.857 5.70598 15.866 6.46698 16.368C6.58398 16.445 6.69198 16.553 6.76898 16.668C7.29598 17.468 7.28098 18.248 6.96698 18.856C6.90942 18.9623 6.89475 19.0866 6.926 19.2034C6.95724 19.3202 7.03202 19.4206 7.13498 19.484C7.79693 19.8723 8.50608 20.1737 9.24498 20.381C9.36199 20.4113 9.48616 20.3958 9.59212 20.3377C9.69807 20.2795 9.77779 20.183 9.81498 20.068C9.94892 19.6739 10.2028 19.3316 10.541 19.089C10.8792 18.8464 11.2848 18.7156 11.701 18.715C12.579 18.715 13.319 19.282 13.588 20.068C13.6254 20.1829 13.7051 20.2792 13.811 20.3373C13.9169 20.3955 14.041 20.4111 14.158 20.381C14.8872 20.1759 15.5874 19.8792 16.242 19.498C16.3455 19.4344 16.4207 19.3334 16.4518 19.2159C16.4829 19.0984 16.4675 18.9735 16.409 18.867C16.091 18.259 16.072 17.474 16.6 16.672C16.677 16.556 16.785 16.447 16.902 16.37C17.674 15.859 18.429 15.857 19.027 16.14C19.1361 16.1947 19.262 16.2055 19.3788 16.1701C19.4957 16.1348 19.5945 16.056 19.655 15.95C19.9619 15.3805 20.206 14.7793 20.383 14.157C20.4131 14.0395 20.3975 13.9149 20.3392 13.8085C20.2809 13.7021 20.1843 13.6218 20.069 13.584Z" fill="#1D3F66"/>
</svg>
