<svg width="24" height="24" viewBox="0 0 24 24" fill="none" xmlns="http://www.w3.org/2000/svg">
<path d="M13.82 22H10.18C9.95194 22 9.73071 21.9221 9.55301 21.7792C9.37531 21.6362 9.25181 21.4368 9.20301 21.214L8.79601 19.33C8.25306 19.0921 7.73824 18.7946 7.26101 18.443L5.42401 19.028C5.20657 19.0973 4.97196 19.0902 4.75913 19.0078C4.5463 18.9254 4.36806 18.7727 4.25401 18.575L2.43001 15.424C2.31715 15.2261 2.27479 14.9958 2.30985 14.7708C2.34491 14.5457 2.45532 14.3392 2.62301 14.185L4.04801 12.885C3.9832 12.2961 3.9832 11.7019 4.04801 11.113L2.62301 9.816C2.45508 9.66177 2.34452 9.45507 2.30946 9.22978C2.27439 9.00449 2.3169 8.77397 2.43001 8.576L4.25001 5.423C4.36406 5.22532 4.5423 5.07259 4.75513 4.99019C4.96796 4.90778 5.20257 4.90066 5.42001 4.97L7.25701 5.555C7.50101 5.375 7.75501 5.207 8.01701 5.055C8.27001 4.913 8.53001 4.784 8.79601 4.669L9.20401 2.787C9.25258 2.5642 9.37584 2.36469 9.55335 2.22155C9.73087 2.07841 9.95197 2.00024 10.18 2H13.82C14.048 2.00024 14.2691 2.07841 14.4467 2.22155C14.6242 2.36469 14.7474 2.5642 14.796 2.787L15.208 4.67C15.7506 4.9079 16.2651 5.20539 16.742 5.557L18.58 4.972C18.7973 4.90292 19.0317 4.91017 19.2443 4.99256C19.4569 5.07495 19.635 5.22753 19.749 5.425L21.569 8.578C21.801 8.985 21.721 9.5 21.376 9.817L19.951 11.117C20.0158 11.7059 20.0158 12.3001 19.951 12.889L21.376 14.189C21.721 14.507 21.801 15.021 21.569 15.428L19.749 18.581C19.635 18.7787 19.4567 18.9314 19.2439 19.0138C19.0311 19.0962 18.7964 19.1033 18.579 19.034L16.742 18.449C16.2651 18.8003 15.7506 19.0975 15.208 19.335L14.796 21.214C14.7472 21.4366 14.6239 21.6359 14.4464 21.7788C14.2689 21.9218 14.0479 21.9998 13.82 22ZM7.62001 16.229L8.44001 16.829C8.62501 16.965 8.81701 17.09 9.01701 17.204C9.20501 17.313 9.39701 17.411 9.59601 17.5L10.529 17.909L10.986 20H13.016L13.473 17.908L14.406 17.499C14.813 17.319 15.2 17.096 15.559 16.833L16.379 16.233L18.421 16.883L19.436 15.125L17.853 13.682L17.965 12.67C18.015 12.227 18.015 11.78 17.965 11.338L17.853 10.326L19.437 8.88L18.421 7.121L16.38 7.771L15.559 7.171C15.1998 6.90669 14.8133 6.68173 14.406 6.5L13.473 6.091L13.016 4H10.986L10.526 6.092L9.59601 6.5C9.18819 6.67861 8.80149 6.90198 8.44301 7.166L7.62201 7.766L5.58201 7.116L4.56501 8.88L6.14801 10.321L6.03601 11.334C5.98601 11.777 5.98601 12.224 6.03601 12.666L6.14801 13.678L4.56501 15.121L5.58001 16.879L7.62001 16.229ZM11.996 16C10.9351 16 9.91772 15.5786 9.16758 14.8284C8.41743 14.0783 7.99601 13.0609 7.99601 12C7.99601 10.9391 8.41743 9.92172 9.16758 9.17157C9.91772 8.42143 10.9351 8 11.996 8C13.0569 8 14.0743 8.42143 14.8244 9.17157C15.5746 9.92172 15.996 10.9391 15.996 12C15.996 13.0609 15.5746 14.0783 14.8244 14.8284C14.0743 15.5786 13.0569 16 11.996 16ZM11.996 10C11.6044 10.0004 11.2215 10.1158 10.8948 10.3318C10.5681 10.5479 10.3121 10.855 10.1584 11.2153C10.0047 11.5755 9.96023 11.9729 10.0304 12.3583C10.1005 12.7436 10.2823 13.0998 10.553 13.3828C10.8238 13.6657 11.1717 13.863 11.5536 13.95C11.9354 14.037 12.3344 14.01 12.7011 13.8724C13.0677 13.7347 13.3859 13.4924 13.6161 13.1756C13.8463 12.8587 13.9784 12.4812 13.996 12.09V12.49V12C13.996 11.4696 13.7853 10.9609 13.4102 10.5858C13.0351 10.2107 12.5264 10 11.996 10Z" fill="#1D3F66"/>
</svg>
