<svg width="24" height="24" viewBox="0 0 24 24" fill="none" xmlns="http://www.w3.org/2000/svg">
    <path fill-rule="evenodd" clip-rule="evenodd" d="M16.7 5C15.8716 5 15.2 5.67157 15.2 6.5C15.2 7.32843 15.8716 8 16.7 8C17.5284 8 18.2 7.32843 18.2 6.5C18.2 5.67157 17.5284 5 16.7 5ZM13.2 6.5C13.2 4.567 14.767 3 16.7 3C18.633 3 20.2 4.567 20.2 6.5C20.2 8.433 18.633 10 16.7 10C15.7535 10 14.8947 9.62427 14.2647 9.01382L10.8893 11.1234C10.9616 11.4036 11 11.6973 11 12C11 12.3027 10.9616 12.5964 10.8893 12.8766L14.1446 14.9111C14.7664 14.3451 15.5929 14 16.5 14C18.433 14 20 15.567 20 17.5C20 19.433 18.433 21 16.5 21C14.567 21 13 19.433 13 17.5C13 17.1973 13.0384 16.9036 13.1107 16.6234L9.8554 14.5889C9.23361 15.1549 8.4071 15.5 7.5 15.5C5.567 15.5 4 13.933 4 12C4 10.067 5.567 8.5 7.5 8.5C8.4071 8.5 9.23361 8.84508 9.8554 9.41113L13.2845 7.26794C13.2292 7.02081 13.2 6.76381 13.2 6.5ZM7.5 10.5C6.67157 10.5 6 11.1716 6 12C6 12.8284 6.67157 13.5 7.5 13.5C8.32843 13.5 9 12.8284 9 12C9 11.1716 8.32843 10.5 7.5 10.5ZM15 17.5C15 16.6716 15.6716 16 16.5 16C17.3284 16 18 16.6716 18 17.5C18 18.3284 17.3284 19 16.5 19C15.6716 19 15 18.3284 15 17.5Z" fill="#072D57"/>
</svg>
