<svg width="16" height="16" viewBox="0 0 16 16" fill="none" xmlns="http://www.w3.org/2000/svg">
<path d="M7.04894 1.92707C7.34829 1.00576 8.6517 1.00576 8.95106 1.92707L9.79611 4.52788C9.92999 4.9399 10.3139 5.21886 10.7472 5.21886H13.4818C14.4505 5.21886 14.8533 6.45848 14.0696 7.02788L11.8572 8.63527C11.5067 8.88991 11.3601 9.34128 11.494 9.7533L12.339 12.3541C12.6384 13.2754 11.5839 14.0416 10.8002 13.4722L8.58778 11.8648C8.2373 11.6101 7.7627 11.6101 7.41221 11.8648L5.19983 13.4722C4.41612 14.0416 3.36164 13.2754 3.66099 12.3541L4.50604 9.7533C4.63992 9.34128 4.49326 8.88991 4.14277 8.63527L1.93039 7.02788C1.14668 6.45848 1.54945 5.21886 2.51817 5.21886H5.25283C5.68606 5.21886 6.07001 4.9399 6.20389 4.52788L7.04894 1.92707Z" fill="#1D3F66"/>
</svg>
