<svg width="24" height="24" viewBox="0 0 24 24" fill="none" xmlns="http://www.w3.org/2000/svg">
    <path fill-rule="evenodd" clip-rule="evenodd" d="M19 2C20.6569 2 22 3.34315 22 5V7C22 7.76836 21.7111 8.46925 21.2361 9C21.7111 9.53076 22 10.2316 22 11V13C22 13.7684 21.7111 14.4692 21.2361 15C21.7111 15.5308 22 16.2316 22 17V19C22 20.6569 20.6569 22 19 22H5C3.34315 22 2 20.6569 2 19V17C2 16.2316 2.28885 15.5308 2.7639 15C2.28885 14.4692 2 13.7684 2 13V11C2 10.2316 2.28885 9.53076 2.76389 9C2.28885 8.46924 2 7.76835 2 7V5C2 3.34315 3.34315 2 5 2H19ZM4.99879 14L5 14L19 14C19.5523 14 20 13.5523 20 13V11C20 10.4477 19.5523 10 19 10L5 10C4.44772 10 4 10.4477 4 11V13C4 13.5519 4.44706 13.9993 4.99879 14ZM4.99879 16C4.44706 16.0007 4 16.4481 4 17V19C4 19.5523 4.44772 20 5 20H19C19.5523 20 20 19.5523 20 19V17C20 16.4477 19.5523 16 19 16L5 16H4.99879ZM20 7C20 7.55229 19.5523 8 19 8L5 8C4.44772 8 4 7.55229 4 7V5C4 4.44772 4.44772 4 5 4L19 4C19.5523 4 20 4.44772 20 5V7ZM18 6C18 6.55229 17.5523 7 17 7C16.4477 7 16 6.55229 16 6C16 5.44772 16.4477 5 17 5C17.5523 5 18 5.44772 18 6ZM17 13C17.5523 13 18 12.5523 18 12C18 11.4477 17.5523 11 17 11C16.4477 11 16 11.4477 16 12C16 12.5523 16.4477 13 17 13ZM18 18C18 18.5523 17.5523 19 17 19C16.4477 19 16 18.5523 16 18C16 17.4477 16.4477 17 17 17C17.5523 17 18 17.4477 18 18ZM14 7C14.5523 7 15 6.55229 15 6C15 5.44772 14.5523 5 14 5C13.4477 5 13 5.44772 13 6C13 6.55229 13.4477 7 14 7ZM15 12C15 12.5523 14.5523 13 14 13C13.4477 13 13 12.5523 13 12C13 11.4477 13.4477 11 14 11C14.5523 11 15 11.4477 15 12ZM14 19C14.5523 19 15 18.5523 15 18C15 17.4477 14.5523 17 14 17C13.4477 17 13 17.4477 13 18C13 18.5523 13.4477 19 14 19Z" fill="#072D57"/>
</svg>
