<?xml version="1.0" encoding="utf-8"?>
<!-- Generator: Adobe Illustrator 26.0.3, SVG Export Plug-In . SVG Version: 6.00 Build 0)  -->
<svg version="1.1" id="Layer_1" xmlns="http://www.w3.org/2000/svg" xmlns:xlink="http://www.w3.org/1999/xlink" x="0px" y="0px"
	 viewBox="0 0 16 16" style="enable-background:new 0 0 16 16;" xml:space="preserve">
<style type="text/css">
	.st0{fill-rule:evenodd;clip-rule:evenodd;fill:#00875A;}
</style>
<path class="st0" d="M10.636,6.398l-2.5,4c-0.121,0.194-0.324,0.322-0.551,0.348c-0.227,0.026-0.454-0.053-0.615-0.215l-2-2
	c-0.293-0.293-0.293-0.768,0-1.061s0.768-0.293,1.061,0l1.333,1.333l2-3.201c0.22-0.351,0.682-0.458,1.034-0.238
	S10.856,6.046,10.636,6.398z M14,8c0,3.314-2.686,6-6,6s-6-2.686-6-6s2.686-6,6-6S14,4.686,14,8z M12.5,8c0-2.485-2.015-4.5-4.5-4.5
	S3.5,5.515,3.5,8s2.015,4.5,4.5,4.5S12.5,10.485,12.5,8z"/>
</svg>
