<svg viewBox="0 0 80 80" xmlns="http://www.w3.org/2000/svg">
  <path d="M 78.537 57.427 C 78.534 62.618 76.76 67.653 73.505 71.699 C 70.25 75.746 65.712 78.56 60.639 79.675 L 58.218 72.407 C 60.437 72.042 62.547 71.19 64.394 69.911 C 66.244 68.63 67.786 66.959 68.91 65.01 L 59.55 65.01 C 57.536 65.01 55.605 64.212 54.18 62.786 C 52.756 61.363 51.956 59.43 51.956 57.417 L 51.956 42.229 C 51.956 40.215 52.756 38.285 54.18 36.859 C 55.605 35.436 57.536 34.635 59.55 34.635 L 70.707 34.635 C 69.78 27.296 66.207 20.545 60.657 15.654 C 55.108 10.759 47.965 8.06 40.566 8.06 C 33.167 8.06 26.025 10.759 20.474 15.654 C 14.925 20.545 11.352 27.296 10.425 34.635 L 21.581 34.635 C 23.595 34.635 25.528 35.436 26.951 36.859 C 28.374 38.285 29.175 40.215 29.175 42.229 L 29.175 57.417 C 29.175 59.43 28.374 61.363 26.951 62.786 C 25.528 64.212 23.595 65.01 21.581 65.01 L 10.189 65.01 C 8.176 65.01 6.245 64.212 4.82 62.786 C 3.396 61.363 2.596 59.43 2.596 57.417 L 2.596 38.433 C 2.596 17.462 19.595 0.463 40.566 0.463 C 61.536 0.463 78.537 17.462 78.537 38.433 L 78.537 57.427 Z" fill="#1D3F66"/>
</svg>
