<svg width="16" height="16" viewBox="0 0 16 16" fill="none" xmlns="http://www.w3.org/2000/svg">
    <path fill-rule="evenodd" clip-rule="evenodd" d="M5.49129 7.30111C5.79566 7.58206 6.27015 7.56308 6.5511 7.25871C6.83206 6.95435 6.81308 6.47986 6.50871 6.1989L4.66824 4.5L13.25 4.5C13.6642 4.5 14 4.16422 14 3.75001C14 3.33579 13.6642 3.00001 13.25 3.00001L4.66824 3L6.50871 1.30111C6.81308 1.02015 6.83206 0.545659 6.5511 0.241294C6.27015 -0.0630718 5.79566 -0.0820518 5.49129 0.198901L2.24129 3.1989C2.08748 3.34088 2 3.54068 2 3.75C2 3.95933 2.08748 4.15913 2.24129 4.30111L5.49129 7.30111ZM10.5087 8.69891C10.2043 8.41796 9.72985 8.43694 9.4489 8.7413C9.16794 9.04567 9.18692 9.52016 9.49129 9.80112L11.3318 11.5H2.75C2.33579 11.5 2 11.8358 2 12.25C2 12.6642 2.33579 13 2.75 13H11.3318L9.49129 14.6989C9.18692 14.9799 9.16794 15.4544 9.4489 15.7587C9.72985 16.0631 10.2043 16.0821 10.5087 15.8011L13.7587 12.8011C13.9125 12.6591 14 12.4593 14 12.25C14 12.0407 13.9125 11.8409 13.7587 11.6989L10.5087 8.69891Z" fill="#072D57"/>
</svg>
