<svg width="24" height="24" viewBox="0 0 24 24" fill="none" xmlns="http://www.w3.org/2000/svg">
    <path fill-rule="evenodd" clip-rule="evenodd" d="M16.9142 3.49992C16.5237 3.1094 15.8905 3.1094 15.5 3.49992C15.1095 3.89045 15.1095 4.52361 15.5 4.91414L16.5858 5.99992H5C4.44772 5.99992 4 6.44764 4 6.99992C4 7.55221 4.44772 7.99992 5 7.99992H16.5858L15.5 9.08579C15.1095 9.47631 15.1095 10.1095 15.5 10.5C15.8905 10.8905 16.5237 10.8905 16.9142 10.5L19.7071 7.70703C20.0976 7.31651 20.0976 6.68334 19.7071 6.29282L16.9142 3.49992ZM4.13374 16.4993C3.91264 16.8817 3.96569 17.3793 4.29289 17.7065L7.08579 20.5C7.47631 20.8905 8.10948 20.8905 8.5 20.5C8.89052 20.1095 8.89052 19.4763 8.5 19.0858L7.41421 17.9994H19C19.5523 17.9994 20 17.5517 20 16.9994C20 16.4471 19.5523 15.9994 19 15.9994H7.41421L8.5 14.9141C8.89052 14.5236 8.89052 13.8904 8.5 13.4999C8.10948 13.1094 7.47631 13.1094 7.08579 13.4999L4.29289 16.2923C4.22957 16.3556 4.17652 16.4253 4.13374 16.4993Z" fill="#072D57"/>
</svg>
