<svg width="24" height="24" viewBox="0 0 24 24" fill="none" xmlns="http://www.w3.org/2000/svg">
<path clip-rule="evenodd" d="M17.8333 11.1667C17.8333 12.25 17.1667 13.1667 16.1667 13.5V14.5C16.1667 16.3333 14.6667 17.8333 12.8333 17.8333H11C10.6667 18.8333 9.75 19.5 8.66666 19.5C7.25 19.5 6.16666 18.4167 6.16666 17C6.16666 15.9167 6.83333 15 7.83333 14.6667V9.33333C6.91666 9 6.16666 8.08333 6.16666 7C6.16666 5.58333 7.25 4.5 8.66666 4.5C10.0833 4.5 11.1667 5.58333 11.1667 7C11.1667 8.08333 10.5 9 9.41666 9.33333V14.6667C10.1667 14.9167 10.75 15.4167 11 16.1667H12.8333C13.75 16.1667 14.5 15.4167 14.5 14.5V13.5C13.5 13.1667 12.8333 12.25 12.8333 11.1667C12.8333 9.75 13.9167 8.66667 15.3333 8.66667C16.75 8.66667 17.8333 9.75 17.8333 11.1667ZM8.66666 6.16667C8.25 6.16667 7.83333 6.5 7.83333 7C7.83333 7.5 8.16666 7.83333 8.66666 7.83333C9.16666 7.83333 9.5 7.5 9.5 7C9.5 6.5 9.16666 6.16667 8.66666 6.16667ZM15.3333 12C15.8333 12 16.1667 11.6667 16.1667 11.1667C16.1667 10.6667 15.8333 10.3333 15.3333 10.3333C14.8333 10.3333 14.5 10.6667 14.5 11.1667C14.5 11.6667 14.8333 12 15.3333 12ZM8.66666 17.8333C9.16666 17.8333 9.5 17.5 9.5 17C9.5 16.5 9.16666 16.1667 8.66666 16.1667C8.16666 16.1667 7.83333 16.5 7.83333 17C7.83333 17.5 8.16666 17.8333 8.66666 17.8333Z" fill="#1D3F66"/>
</svg>
