<svg width="24" height="24" viewBox="0 0 24 24" fill="none" xmlns="http://www.w3.org/2000/svg">
    <path fill-rule="evenodd" clip-rule="evenodd" d="M6 20C4.89543 20 4 19.1046 4 18V6C4 4.89543 4.89543 4 6 4H18C19.1046 4 20 4.89543 20 6V15C20 15.5523 19.5523 16 19 16C18.4477 16 18 15.5523 18 15V6H6V18L12 18C12.5523 18 13 18.4477 13 19C13 19.5523 12.5523 20 12 20H6ZM16 20C15.4477 20 15 19.5523 15 19C15 18.4477 15.4477 18 16 18H22C22.5523 18 23 18.4477 23 19C23 19.5523 22.5523 20 22 20H16Z" fill="#072D57"/>
</svg>
