<svg width="24" height="24" viewBox="0 0 24 24" fill="none" xmlns="http://www.w3.org/2000/svg">
<path fill-rule="evenodd" clip-rule="evenodd" d="M9.87868 5.87868C10.4413 5.31607 11.2044 5 12 5C12.7957 5 13.5587 5.31607 14.1213 5.87868C14.6839 6.44129 15 7.20435 15 8V12H7C5.89543 12 5 12.8954 5 14V19C5 20.1046 5.89543 21 7 21H17C18.1046 21 19 20.1046 19 19V14C19 12.8954 18.1046 12 17 12V8C17 6.67392 16.4732 5.40215 15.5355 4.46447C14.5979 3.52678 13.3261 3 12 3C10.6739 3 9.40215 3.52678 8.46447 4.46447C7.52678 5.40215 7 6.67392 7 8C7 8.55228 7.44772 9 8 9C8.55228 9 9 8.55228 9 8C9 7.20435 9.31607 6.44129 9.87868 5.87868ZM16 14H7V19H17V14H16Z" fill="#072D57"/>
</svg>
