<svg width="24" height="24" viewBox="0 0 24 24" fill="none" xmlns="http://www.w3.org/2000/svg">
    <path fill-rule="evenodd" clip-rule="evenodd" d="M13.06 3.42168C12.4115 3.01634 11.5886 3.01634 10.94 3.42168L3.47001 8.09043C3.15669 8.28626 2.98926 8.62721 3.0004 8.9717C3.00013 8.98112 3 8.99057 3 9.00004V19C3 20.1046 3.89543 21 5 21H19C20.1046 21 21 20.1046 21 19V9.00004C21 8.9907 20.9999 8.98138 20.9996 8.97208C21.0109 8.62746 20.8435 8.28633 20.53 8.09043L13.06 3.42168ZM18.0127 8.87563L12 5.11768L5.98727 8.87564L12 11.882L18.0127 8.87563ZM5 19V10.6181L11.1056 13.6709C11.6686 13.9524 12.3314 13.9524 12.8944 13.6709L19 10.6181V19H5Z" fill="#072D57"/>
</svg>
