<svg width="24" height="24" viewBox="0 0 24 24" fill="none" xmlns="http://www.w3.org/2000/svg">
    <path fill-rule="evenodd" clip-rule="evenodd" d="M11.3101 9.04267C11.4976 8.8552 11.7519 8.74989 12.0171 8.74989C12.2822 8.74989 12.5365 8.8552 12.7241 9.04267L17.3171 13.6357C17.4996 13.822 17.6013 14.0728 17.6 14.3336C17.5987 14.5944 17.4945 14.8442 17.31 15.0286C17.1256 15.2131 16.8758 15.3173 16.615 15.3186C16.3542 15.3199 16.1034 15.2182 15.9171 15.0357L12.0171 11.1357L8.11707 15.0357C7.93078 15.2182 7.67997 15.3199 7.41914 15.3186C7.15831 15.3173 6.90854 15.2131 6.72411 15.0286C6.53967 14.8442 6.43547 14.5944 6.43416 14.3336C6.43284 14.0728 6.53451 13.822 6.71707 13.6357L11.3101 9.04267Z" fill="#1D3F66"/>
</svg>
