<svg width="16" height="16" viewBox="0 0 16 16" fill="none" xmlns="http://www.w3.org/2000/svg">
    <path fill-rule="evenodd" clip-rule="evenodd" d="M3.75736 12.2426C4.88258 13.3679 6.4087 14 8 14C9.5913 14 11.1174 13.3679 12.2426 12.2426C13.3679 11.1174 14 9.5913 14 8C14 6.4087 13.3679 4.88258 12.2426 3.75736C11.1174 2.63214 9.5913 2 8 2C6.4087 2 4.88258 2.63214 3.75736 3.75736C2.63214 4.88258 2 6.4087 2 8C2 9.5913 2.63214 11.1174 3.75736 12.2426ZM5.4489 7.49129C5.16795 7.79566 5.18693 8.27015 5.49129 8.5511C5.79566 8.83206 6.27015 8.81308 6.55111 8.50871L7.25 7.66824V10.25C7.25 10.6642 7.58579 11 8 11C8.41422 11 8.75 10.6642 8.75 10.25V7.66824L9.4489 8.50871C9.72985 8.81308 10.2043 8.83206 10.5087 8.5511C10.8131 8.27015 10.8321 7.79565 10.5511 7.49129L8.55111 5.24129C8.40913 5.08748 8.20933 5 8 5C7.79068 5 7.59088 5.08748 7.4489 5.24129L5.4489 7.49129Z" fill="#00875A"/>
</svg>
