<svg width="24" height="24" viewBox="0 0 24 24" fill="none" xmlns="http://www.w3.org/2000/svg">
<path fill-rule="evenodd" clip-rule="evenodd" d="M17 7C17 9.76142 14.7614 12 12 12C9.23858 12 7 9.76142 7 7C7 4.23858 9.23858 2 12 2C14.7614 2 17 4.23858 17 7ZM12.6046 9.93905C12.4093 9.97901 12.2071 10 12 10C11.5583 10 11.1388 9.90453 10.7612 9.73309C10.0765 9.42226 9.52928 8.86171 9.23575 8.16774C9.08395 7.80882 9 7.41421 9 7C9 6.48978 9.12737 6.0093 9.35205 5.58864C9.67458 4.98479 10.1976 4.50418 10.8323 4.23575C11.1912 4.08395 11.5858 4 12 4C12.4073 4 12.7957 4.08118 13.1498 4.22825C13.876 4.52983 14.4581 5.10847 14.7642 5.83226C14.9161 6.19118 15 6.58579 15 7C15 7.50442 14.8755 7.97975 14.6556 8.39697C14.2434 9.17888 13.496 9.75664 12.6046 9.93905ZM18 22C18.5523 22 19 21.5523 19 21V16.3012L20.3177 17.5311C20.7214 17.9079 21.3542 17.8861 21.7311 17.4823C22.1079 17.0786 22.0861 16.4458 21.6823 16.0689L18.6823 13.2689C18.2981 12.9104 17.7019 12.9104 17.3177 13.2689L14.3177 16.0689C13.9139 16.4458 13.8921 17.0786 14.2689 17.4823C14.6458 17.8861 15.2786 17.9079 15.6823 17.5311L17 16.3012V21C17 21.5523 17.4477 22 18 22ZM3 16.1706C3 14.4195 4.51104 13 6.375 13H12C12.5523 13 13 13.4477 13 14V14.1138C13 14.666 12.5523 15.1138 12 15.1138H6.375C5.75368 15.1138 5.25 15.5869 5.25 16.1706V18.297C5.25 18.7637 5.57588 19.1752 6.05173 19.3093L6.51734 19.4405C7.57557 19.7388 10.5624 19.8873 12.9795 19.8862C13.5398 19.886 14 20.3365 14 20.8968V21.01C14 21.5544 13.5651 21.9994 13.0207 22C10.3909 22.0028 7.14586 21.8245 5.8708 21.4651L5.4052 21.3339C3.97763 20.9316 3 19.6972 3 18.297V16.1706Z" fill="#072D57"/>
</svg>
