<svg width="24" height="24" viewBox="0 0 24 24" fill="none" xmlns="http://www.w3.org/2000/svg">
<path fill-rule="evenodd" clip-rule="evenodd" d="M17 7C17 9.76142 14.7614 12 12 12C9.23858 12 7 9.76142 7 7C7 4.23858 9.23858 2 12 2C14.7614 2 17 4.23858 17 7ZM15 7C15 8.65685 13.6569 10 12 10C10.3431 10 9 8.65685 9 7C9 5.34315 10.3431 4 12 4C13.6569 4 15 5.34315 15 7ZM18 13C18.5523 13 19 13.4477 19 14V18.6988L20.3177 17.4689C20.7214 17.0921 21.3542 17.1139 21.7311 17.5177C22.1079 17.9214 22.0861 18.5542 21.6823 18.9311L18.6823 21.7311C18.2981 22.0896 17.7019 22.0896 17.3177 21.7311L14.3177 18.9311C13.9139 18.5542 13.8921 17.9214 14.2689 17.5177C14.6458 17.1139 15.2786 17.0921 15.6823 17.4689L17 18.6988V14C17 13.4477 17.4477 13 18 13ZM3 16.1706C3 14.4195 4.51104 13 6.375 13H14C14.5523 13 15 13.4477 15 14V14.1138C15 14.666 14.5523 15.1138 14 15.1138H6.375C5.75368 15.1138 5.25 15.5869 5.25 16.1706V18.297C5.25 18.7637 5.57588 19.1752 6.05173 19.3093L6.51734 19.4405C7.5684 19.7367 9.77206 19.8853 11.9793 19.8862C12.5396 19.8865 13 20.3365 13 20.8968V21.01C13 21.5544 12.5646 21.9998 12.0202 22C9.58149 22.001 7.13952 21.8227 5.8708 21.4651L5.4052 21.3339C3.97763 20.9316 3 19.6972 3 18.297V16.1706Z" fill="#072D57"/>
</svg>
