<svg width="24" height="24" viewBox="0 0 24 24" fill="none" xmlns="http://www.w3.org/2000/svg">
    <path fill-rule="evenodd" clip-rule="evenodd" d="M12 10C13.6569 10 15 8.65685 15 7C15 5.34315 13.6569 4 12 4C10.3431 4 9 5.34315 9 7C9 8.65685 10.3431 10 12 10ZM12 12C14.7614 12 17 9.76142 17 7C17 4.23858 14.7614 2 12 2C9.23858 2 7 4.23858 7 7C7 9.76142 9.23858 12 12 12ZM3 16.1706C3 14.4195 4.51104 13 6.375 13H13C13.5523 13 14 13.4477 14 14V14.1138C14 14.666 13.5523 15.1138 13 15.1138H6.375C5.75368 15.1138 5.25 15.5869 5.25 16.1706V18.297C5.25 18.7637 5.57588 19.1752 6.05173 19.3093L6.51734 19.4405C7.5684 19.7367 9.77206 19.8853 11.9793 19.8862C12.5396 19.8865 13 20.3365 13 20.8968V21.01C13 21.5544 12.5646 21.9998 12.0202 22C9.58149 22.001 7.13952 21.8227 5.8708 21.4651L5.4052 21.3339C3.97763 20.9316 3 19.6972 3 18.297V16.1706ZM21.7179 16.6962C22.1024 16.2997 22.0926 15.6666 21.6962 15.2821C21.2997 14.8976 20.6666 14.9074 20.2821 15.3038L17.0033 18.6849L15.7321 17.3188C15.3559 16.9145 14.7231 16.8917 14.3188 17.2679C13.9145 17.6441 13.8917 18.2769 14.2679 18.6812L16.0411 20.5867C16.548 21.1315 17.4079 21.1404 17.926 20.6062L21.7179 16.6962Z" fill="#072D57"/>
</svg>
