<svg width="24" height="24" viewBox="0 0 24 24" fill="none" xmlns="http://www.w3.org/2000/svg">
<path fill-rule="evenodd" clip-rule="evenodd" d="M17 7C17 9.76142 14.7614 12 12 12C9.23858 12 7 9.76142 7 7C7 4.23858 9.23858 2 12 2C14.7614 2 17 4.23858 17 7ZM15 7C15 8.65685 13.6569 10 12 10C10.3431 10 9 8.65685 9 7C9 5.34315 10.3431 4 12 4C13.6569 4 15 5.34315 15 7ZM15.2929 14.2929C15.6834 13.9024 16.3166 13.9024 16.7071 14.2929L18.5 16.0858L20.2929 14.2929C20.6834 13.9024 21.3166 13.9024 21.7071 14.2929C22.0976 14.6834 22.0976 15.3166 21.7071 15.7071L19.9142 17.5L21.7071 19.2929C22.0976 19.6834 22.0976 20.3166 21.7071 20.7071C21.3166 21.0976 20.6834 21.0976 20.2929 20.7071L18.5 18.9142L16.7071 20.7071C16.3166 21.0976 15.6834 21.0976 15.2929 20.7071C14.9024 20.3166 14.9024 19.6834 15.2929 19.2929L17.0858 17.5L15.2929 15.7071C14.9024 15.3166 14.9024 14.6834 15.2929 14.2929ZM3 16.1706C3 14.4195 4.51104 13 6.375 13H12C12.5523 13 13 13.4477 13 14V14.1138C13 14.666 12.5523 15.1138 12 15.1138H6.375C5.75368 15.1138 5.25 15.5869 5.25 16.1706V18.297C5.25 18.7637 5.57588 19.1752 6.05173 19.3093L6.51734 19.4405C7.5684 19.7367 9.77206 19.8853 11.9793 19.8862C12.5396 19.8865 13 20.3365 13 20.8968V21.01C13 21.5544 12.5646 21.9998 12.0202 22C9.58149 22.001 7.13952 21.8227 5.8708 21.4651L5.4052 21.3339C3.97763 20.9316 3 19.6972 3 18.297V16.1706Z" fill="#072D57"/>
</svg>
