<svg width="125" height="124" fill="none" xmlns="http://www.w3.org/2000/svg">
  <circle cx="60.5" cy="72.6" r="43" fill="#EBEEF1" stroke="#B7C2CE" opacity=".5"/>
  <path fill="#EBEEF1" stroke="#B7C2CE" d="M27.5 57.1c0-2 1.6-3.5 3.5-3.5h17.4c1.5 0 2.8.7 3.7 2l.5.7c1 1.4 2.7 2.3 4.5 2.3h33.5c1.9 0 3.4 1.5 3.5 3.4l.4 19.6h-67V57.1Z"/>
  <path fill="#fff" stroke="#B7C2CE" stroke-linejoin="round" d="M45 56.5 19.3 70.1c-.2 0-.5 0-.6-.3L1 36.2c-.1-.2 0-.5.2-.7l17.2-9c.8-.5 1.7-.6 2.5-.4l8.4 2.1c1 .3 1.8 1 2.2 1.8l13.7 25.8c.1.3 0 .6-.2.7Z"/>
  <path fill="#B7C2CE" d="M22.3 32.9 18.8 26c0-.1.1-.3.3-.2l12 3c.2 0 .2.3 0 .4l-7.4 4a1 1 0 0 1-1.4-.4Z"/>
  <rect width="14" height="1" x="5.4" y="37.3" fill="#B7C2CE" rx=".5" transform="rotate(-27.9 5.4 37.3)"/>
  <rect width="8" height="1" x="6.8" y="39.9" fill="#B7C2CE" rx=".5" transform="rotate(-27.9 6.8 40)"/>
  <g clip-path="url(#a)">
    <path fill="#B7C2CE" d="M30.3 39.8c-.6-.7-1.5-1-2.4-.8-1.7.4-7.4 3.4-7.4 3.4s-5.7 3-6.9 4.1c-.7.6-1 1.6-.8 2.5a27.1 27.1 0 0 0 4.6 8.8c.7.6 1.6 1 2.5.7 1.7-.3 7.4-3.4 7.4-3.4s5.7-3 7-4.1c.6-.6.9-1.6.7-2.5-.4-1.6-2-4.5-2-4.5s-1.5-3-2.7-4.2Zm-6.8 12.7L20.6 47l6.2.2-3.3 5.3Z"/>
  </g>
  <path fill="#fff" stroke="#B7C2CE" stroke-linejoin="round" d="m77 55-29-2.4a.5.5 0 0 1-.4-.6l3.3-37.8c0-.3.2-.5.5-.5l19.4 1.6c.9.1 1.7.5 2.3 1.1l5.9 6.3a4 4 0 0 1 1 2.7l-2.5 29.1c0 .3-.3.5-.6.5Z"/>
  <path fill="#B7C2CE" d="m70.6 22.8.7-7.5c0-.1.3-.2.4 0l8.4 9c.2.1 0 .4-.1.3l-8.5-.7a1 1 0 0 1-.9-1Z"/>
  <rect width="14" height="1" x="54" y="17.4" fill="#B7C2CE" rx=".5" transform="rotate(4.8 54 17.4)"/>
  <rect width="14" height="1" x="53.8" y="20.4" fill="#B7C2CE" rx=".5" transform="rotate(4.8 53.8 20.4)"/>
  <rect width="14" height="1" x="51.6" y="46.3" fill="#B7C2CE" rx=".5" transform="rotate(4.8 51.6 46.3)"/>
  <rect width="12" height="1" x="53.5" y="23.4" fill="#B7C2CE" rx=".5" transform="rotate(4.8 53.5 23.4)"/>
  <rect width="24" height="1" x="51.3" y="49.3" fill="#B7C2CE" rx=".5" transform="rotate(4.8 51.3 49.3)"/>
  <rect width="24" height="16" x="53.1" y="28.4" fill="#EBEEF1" rx="1" transform="rotate(4.8 53 28.4)"/>
  <circle cx="58.7" cy="32.9" r="2" fill="#B7C2CE" transform="rotate(4.8 58.7 32.9)"/>
  <path fill="#B7C2CE" d="m59 37.4-4.3 4.4c-.3.3-.2.8.3.8l7.8.7c.4 0 .7-.5.5-.8l-3.6-5a.5.5 0 0 0-.7-.1Z"/>
  <path fill="#fff" d="m66.6 36-6.9 6.2c-.3.3-.1.8.3.8l12.7 1.1c.4 0 .7-.5.4-.8L67.4 36a.5.5 0 0 0-.8 0Z"/>
  <path fill="#fff" stroke="#B7C2CE" stroke-linejoin="round" d="M102.3 71.9 81 55.2a.5.5 0 0 1 0-.7l22.3-28.2c.2-.3.5-.3.7-.1L117.8 37c.7.5 1.1 1.3 1.3 2.2l1.5 8.5c.1 1-.1 2-.7 2.8l-17 21.3c0 .2-.4.3-.6.1Z"/>
  <path fill="#B7C2CE" d="m113.5 43.2 4.7-6c.2 0 .4 0 .4.2l2 12.2c0 .2-.1.3-.3.2l-6.6-5.2a1 1 0 0 1-.2-1.4Z"/>
  <rect width="12" height="1" x="104.2" y="30.7" fill="#B7C2CE" rx=".5" transform="rotate(38.3 104.2 30.7)"/>
  <rect width="5" height="1" fill="#B7C2CE" rx=".5" transform="rotate(38.3 3.5 164)"/>
  <path fill="#B7C2CE" fill-rule="evenodd" d="M97.5 40.4 96 42.3l4.7 3.6 1.4-1.8-4.6-3.7Zm-2 2.5 4.7 3.6-1.4 1.8-4.6-3.7 1.4-1.7Zm5.3 4-1.4 1.8 4.9 4 1.4-1.9-5-3.8Zm5.5 4.4-1.4 1.8 4.6 3.6 1.4-1.7-4.6-3.7Zm-2.5 1.9L99 49.3l-1.4 1.8 5 3.9 1.3-1.8Zm-.8 2.2 1.4-1.7 4.6 3.6-1.4 1.8-4.6-3.7Zm-1 .2-5-4-1.3 1.9 4.9 3.8 1.4-1.7Zm-.8 2.2 1.4-1.8 4.6 3.7-1.4 1.7-4.6-3.6Zm-1 .1-5-3.9-1.5 2 5 3.8 1.4-1.9Zm-1 2.3 1.5-1.8 4.6 3.6-1.5 1.9-4.6-3.7Zm-.4.6-.6-.4-5-4-.5-.4-4.8-3.8a.5.5 0 0 1-.1-.7l3.5-4.4.4-.6 1.4-1.7.5-.6 1.4-1.8.5-.6 1.6-2c.2-.3.5-.3.7-.1l4.8 3.8.6.4 10.3 8.2c.2.1.2.5 0 .7l-1.6 2-.4.6-1.4 1.8-.5.6-1.4 1.7-.4.6-1.4 1.8-.5.6-1.6 2c-.2.3-.5.3-.7.1l-4.8-3.8Zm8-10 1.4-2 4.6 3.7-1.4 1.9-4.7-3.7Zm.8-2.4-1.4 1.9-5-4 1.5-1.8 5 3.9Zm-13.9-3.2 4.6 3.7-1.4 1.7-4.6-3.6 1.4-1.8ZM92 47.6l4.6 3.6L95 53l-4.6-3.7 1.4-1.7Zm-2 2.3 4.6 3.7-1.5 1.8-4.6-3.6 1.5-1.9Z" clip-rule="evenodd"/>
  <rect width="1" height="5" x="46" y="6.6" fill="#B7C2CE" rx=".5" transform="rotate(-25 46 6.6)"/>
  <rect width="1" height="5" x="41" y="14.1" fill="#B7C2CE" rx=".5" transform="rotate(-77.6 41 14)"/>
  <rect width="1" height="5" x="55.8" y="6" fill="#B7C2CE" rx=".5" transform="rotate(31.7 55.8 6)"/>
  <path fill="#fff" stroke="#B7C2CE" d="M21.3 77.7a4.5 4.5 0 0 1 4.4-5h30.7c2.3 0 4.3-1.4 5.2-3.4a4.6 4.6 0 0 1 4.2-2.7h29.7c2.1 0 3.7 1.8 3.5 4l-4 33a5.5 5.5 0 0 1-5.4 5H30.2c-2.7 0-5-2.1-5.4-4.8l-3.5-26.2Z"/>
  <circle cx="61.5" cy="100.6" r="16" fill="#DDE2E8" stroke="#778DA8"/>
  <mask id="b" width="15" height="15" x="54" y="93.1" fill="#000" maskUnits="userSpaceOnUse">
    <path fill="#fff" d="M54 93.1h15v15H54z"/>
    <path fill-rule="evenodd" d="M63 95.6a1.5 1.5 0 0 0-3 0v3.5h-3.5a1.5 1.5 0 0 0 0 3H60v3.5a1.5 1.5 0 0 0 3 0v-3.5h3.5a1.5 1.5 0 0 0 0-3H63v-3.5Z" clip-rule="evenodd"/>
  </mask>
  <path fill="#fff" fill-rule="evenodd" d="M63 95.6a1.5 1.5 0 0 0-3 0v3.5h-3.5a1.5 1.5 0 0 0 0 3H60v3.5a1.5 1.5 0 0 0 3 0v-3.5h3.5a1.5 1.5 0 0 0 0-3H63v-3.5Z" clip-rule="evenodd"/>
  <path fill="#778DA8" d="M60 99.1v1h1v-1h-1Zm0 3h1v-1h-1v1Zm3 0v-1h-1v1h1Zm0-3h-1v1h1v-1Zm-1.5-4c.3 0 .5.2.5.5h2c0-1.4-1.1-2.5-2.5-2.5v2Zm-.5.5c0-.3.2-.5.5-.5v-2a2.5 2.5 0 0 0-2.5 2.5h2Zm0 3.5v-3.5h-2v3.5h2Zm-4.5 1H60v-2h-3.5v2Zm-.5.5c0-.3.2-.5.5-.5v-2a2.5 2.5 0 0 0-2.5 2.5h2Zm.5.5a.5.5 0 0 1-.5-.5h-2c0 1.4 1.1 2.5 2.5 2.5v-2Zm3.5 0h-3.5v2H60v-2Zm1 4.5v-3.5h-2v3.5h2Zm.5.5a.5.5 0 0 1-.5-.5h-2c0 1.4 1.1 2.5 2.5 2.5v-2Zm.5-.5c0 .3-.2.5-.5.5v2c1.4 0 2.5-1.1 2.5-2.5h-2Zm0-3.5v3.5h2v-3.5h-2Zm4.5-1H63v2h3.5v-2Zm.5-.5c0 .3-.2.5-.5.5v2c1.4 0 2.5-1.1 2.5-2.5h-2Zm-.5-.5c.3 0 .5.2.5.5h2c0-1.4-1.1-2.5-2.5-2.5v2Zm-3.5 0h3.5v-2H63v2Zm-1-4.5v3.5h2v-3.5h-2Z" mask="url(#b)"/>
  <defs>
    <clipPath id="a">
      <path fill="#fff" d="M0 0h22v22H0z" transform="rotate(-27.9 94 3.7)"/>
    </clipPath>
  </defs>
</svg>
