<svg width="124" height="124" fill="none" xmlns="http://www.w3.org/2000/svg">
  <circle cx="61.5" cy="67.5" r="42.9" fill="#EBEEF1" stroke="#B7C2CE" stroke-width="1.2" opacity=".5"/>
  <path fill="#EBEEF1" stroke="#B7C2CE" stroke-width="1.2" d="M28.6 52c0-1.9 1.5-3.4 3.4-3.4h17.4c1.4 0 2.8.7 3.6 1.9l.5.7c1 1.5 2.8 2.4 4.6 2.4h33.5c1.8 0 3.3 1.5 3.4 3.3l.4 19.5H28.6V52Z"/>
  <path fill="#fff" stroke="#B7C2CE" stroke-linejoin="round" stroke-width="1.2" d="M54 59.3 28.2 72.8c-.2.1-.4 0-.5-.1L10 39c-.1-.1 0-.4.1-.5l17.3-9a3 3 0 0 1 2.4-.4l8.4 2.1c.9.3 1.7.9 2.1 1.7L54 58.8c0 .2 0 .4-.2.5Z"/>
  <path fill="#B7C2CE" d="M31.3 35.7 27.8 29c0-.1.1-.3.3-.3l12 3.1c.2 0 .2.3 0 .4l-7.4 4a1 1 0 0 1-1.4-.5Z"/>
  <rect width="14" height="1" x="14.4" y="40.2" fill="#B7C2CE" rx=".5" transform="rotate(-27.9 14.4 40.2)"/>
  <rect width="8" height="1" x="15.8" y="42.8" fill="#B7C2CE" rx=".5" transform="rotate(-27.9 15.8 42.8)"/>
  <g clip-path="url(#a)">
    <path fill="#B7C2CE" d="M39.3 42.6c-.6-.6-1.5-1-2.4-.7-1.7.3-7.4 3.4-7.4 3.4s-5.7 3-6.9 4.1c-.7.6-1 1.6-.8 2.5a27.1 27.1 0 0 0 4.6 8.8c.7.6 1.6 1 2.5.7 1.7-.4 7.4-3.4 7.4-3.4s5.7-3 7-4.1c.6-.6.9-1.6.7-2.5-.4-1.6-2-4.6-2-4.6s-1.5-3-2.7-4.2Zm-6.8 12.7L29.6 50l6.2.2-3.3 5.2Z"/>
  </g>
  <path fill="#fff" stroke="#B7C2CE" stroke-linejoin="round" stroke-width="1.2" d="m78 62.9-29-2.5a.4.4 0 0 1-.3-.4L52 22.2c0-.2.2-.4.4-.4l19.4 1.7c.8 0 1.6.4 2.2 1l6 6.3c.6.7.9 1.7.8 2.6l-2.4 29.1c0 .2-.2.4-.5.4Z"/>
  <path fill="#B7C2CE" d="m71.6 30.8.7-7.5c0-.1.3-.2.4 0l8.4 9c.2.1 0 .4-.1.3l-8.5-.7a1 1 0 0 1-.9-1Z"/>
  <rect width="14" height="1" x="55" y="25.4" fill="#B7C2CE" rx=".5" transform="rotate(4.8 55 25.4)"/>
  <rect width="14" height="1" x="54.8" y="28.4" fill="#B7C2CE" rx=".5" transform="rotate(4.8 54.8 28.4)"/>
  <rect width="14" height="1" x="52.6" y="54.3" fill="#B7C2CE" rx=".5" transform="rotate(4.8 52.6 54.3)"/>
  <rect width="12" height="1" x="54.5" y="31.4" fill="#B7C2CE" rx=".5" transform="rotate(4.8 54.5 31.4)"/>
  <rect width="24" height="1" x="52.3" y="57.3" fill="#B7C2CE" rx=".5" transform="rotate(4.8 52.3 57.3)"/>
  <rect width="24" height="16" x="54.1" y="36.4" fill="#EBEEF1" rx="1" transform="rotate(4.8 54 36.4)"/>
  <circle cx="59.7" cy="40.9" r="2" fill="#B7C2CE" transform="rotate(4.8 59.7 40.9)"/>
  <path fill="#B7C2CE" d="m60 45.4-4.3 4.4c-.3.3-.2.8.3.8l7.8.7c.4 0 .7-.5.5-.8l-3.6-5a.5.5 0 0 0-.7-.1Z"/>
  <path fill="#fff" d="m67.6 44-6.9 6.2c-.3.3-.1.8.3.8l12.7 1.1c.4 0 .7-.5.4-.8L68.4 44a.5.5 0 0 0-.8 0Z"/>
  <path fill="#fff" stroke="#B7C2CE" stroke-linejoin="round" stroke-width="1.2" d="M91.4 73.7 70.2 57a.4.4 0 0 1 0-.6l22.3-28.2c.1-.1.3-.2.5 0L106.7 39c.7.5 1.1 1.2 1.3 2l1.4 8.6c.2 1 0 2-.6 2.7l-17 21.3c0 .2-.3.2-.4 0Z"/>
  <path fill="#B7C2CE" d="m102.5 45 4.7-5.8c.2-.2.4-.1.4 0l2 12.3c0 .2-.1.3-.3.2l-6.6-5.2a1 1 0 0 1-.2-1.4Z"/>
  <rect width="12" height="1" x="93.2" y="32.6" fill="#B7C2CE" rx=".5" transform="rotate(38.3 93.2 32.6)"/>
  <rect width="5" height="1" x="91.4" y="35" fill="#B7C2CE" rx=".5" transform="rotate(38.3 91.4 35)"/>
  <path fill="#B7C2CE" fill-rule="evenodd" d="M86.5 42.3 85 44.2l4.7 3.6L91 46l-4.6-3.6Zm-2 2.5 4.7 3.6-1.4 1.8-4.6-3.7 1.4-1.7Zm5.3 4-1.4 1.8 4.9 3.9 1.4-1.8-5-3.8Zm5.5 4.4L93.9 55l4.6 3.6 1.4-1.8-4.6-3.6Zm-2.5 1.9L88 51.2 86.5 53l5 3.9 1.3-1.8Zm-.8 2.2 1.4-1.7 4.6 3.6-1.4 1.8-4.6-3.7Zm-1 .1-5-3.8-1.3 1.7 4.9 4 1.4-1.9Zm-.8 2.3 1.4-1.8 4.6 3.7-1.4 1.7-4.6-3.6Zm-1 .1-5-3.9-1.5 1.9 5 3.9 1.4-1.9Zm-1 2.3 1.5-1.8 4.6 3.6-1.5 1.9-4.6-3.7Zm7.5-9.5 1.5-1.9 4.6 3.7-1.4 1.9-4.7-3.7Zm1-2.3L95.1 52l-5-3.8 1.5-1.9 5 3.9Zm1-.1 4.8 3.8c.2.1.2.4 0 .7l-1.6 2-.4.6-1.4 1.8-.5.6-1.4 1.7-.4.6-1.4 1.8-.5.6-1.6 2c-.2.2-.5.3-.7.1l-4.8-3.8-.6-.4-5-4-.5-.4-4.8-3.8a.5.5 0 0 1-.1-.7l3.5-4.4.4-.6 1.4-1.8.5-.5 1.4-1.8.5-.6 1.6-2c.2-.3.5-.3.7-.1l10.3 8 .6.6Zm-15-3 4.6 3.6-1.4 1.7-4.6-3.6 1.4-1.8ZM81 49.4l4.6 3.6-1.6 2-4.6-3.7 1.4-1.7Zm-2 2.4 4.6 3.7-1.5 1.8-4.6-3.6 1.5-1.9Z" clip-rule="evenodd"/>
  <path fill="#fff" stroke="#B7C2CE" stroke-width="1.2" d="M24.9 68.2a4.4 4.4 0 0 1 4.3-4.6h28.2c2.3 0 4.4-1.3 5.3-3.3a4.5 4.5 0 0 1 4.1-2.7h27c2 0 3.5 1.6 3.4 3.5l-1.6 37.1a5.4 5.4 0 0 1-5.4 5.2H31.7a5.4 5.4 0 0 1-5.4-5.1l-1.4-30Z"/>
  <circle cx="62.5" cy="95.5" r="14.9" fill="#DDE2E8" stroke="#778DA8" stroke-width="1.2"/>
  <mask id="b" width="17" height="17" x="54" y="87" fill="#000" maskUnits="userSpaceOnUse">
    <path fill="#fff" d="M54 87h17v17H54z"/>
    <path fill-rule="evenodd" d="M64 90.5a1.5 1.5 0 0 0-3 0V94h-3.5a1.5 1.5 0 0 0 0 3H61v3.5a1.5 1.5 0 0 0 3 0V97h3.5a1.5 1.5 0 0 0 0-3H64v-3.5Z" clip-rule="evenodd"/>
  </mask>
  <path fill="#fff" fill-rule="evenodd" d="M64 90.5a1.5 1.5 0 0 0-3 0V94h-3.5a1.5 1.5 0 0 0 0 3H61v3.5a1.5 1.5 0 0 0 3 0V97h3.5a1.5 1.5 0 0 0 0-3H64v-3.5Z" clip-rule="evenodd"/>
  <path fill="#778DA8" d="M61 94v1.2h1.2V94H61Zm0 3h1.2v-1.2H61V97Zm3 0v-1.2h-1.2V97H64Zm0-3h-1.2v1.2H64V94Zm-1.5-3.8.3.3h2.4c0-1.5-1.2-2.7-2.7-2.7v2.4Zm-.3.3.3-.3v-2.4a2.7 2.7 0 0 0-2.7 2.7h2.4Zm0 3.5v-3.5h-2.4V94h2.4Zm-4.7 1.2H61v-2.4h-3.5v2.4Zm-.3.3.3-.3v-2.4a2.7 2.7 0 0 0-2.7 2.7h2.4Zm.3.3a.3.3 0 0 1-.3-.3h-2.4c0 1.5 1.2 2.7 2.7 2.7v-2.4Zm3.5 0h-3.5v2.4H61v-2.4Zm1.2 4.7V97h-2.4v3.5h2.4Zm.3.3a.3.3 0 0 1-.3-.3h-2.4c0 1.5 1.2 2.7 2.7 2.7v-2.4Zm.3-.3-.3.3v2.4c1.5 0 2.7-1.2 2.7-2.7h-2.4Zm0-3.5v3.5h2.4V97h-2.4Zm4.7-1.2H64v2.4h3.5v-2.4Zm.3-.3-.3.3v2.4c1.5 0 2.7-1.2 2.7-2.7h-2.4Zm-.3-.3.3.3h2.4c0-1.5-1.2-2.7-2.7-2.7v2.4Zm-3.5 0h3.5v-2.4H64v2.4Zm-1.2-4.7V94h2.4v-3.5h-2.4Z" mask="url(#b)"/>
  <defs>
    <clipPath id="a">
      <path fill="#fff" d="M0 0h22v22H0z" transform="rotate(-27.9 104.3 -13)"/>
    </clipPath>
  </defs>
</svg>
