<svg width="492" height="259" viewBox="0 0 492 259" fill="none" xmlns="http://www.w3.org/2000/svg">
    <path fill-rule="evenodd" clip-rule="evenodd" d="M-1 0C-2.65685 0 -4 1.34315 -4 3.00001V258.363C58.5888 244.597 147.442 236 246 236C344.558 236 433.411 244.596 496 258.363V3C496 1.34315 494.657 0 493 0H-1Z" fill="url(#paint0_linear_776_13891)"/>
    <path d="M344.353 166.19C359.992 166.19 374.99 159.437 386.049 147.417C397.107 135.397 403.32 119.094 403.32 102.095C403.32 85.096 397.107 68.7932 386.049 56.773C374.99 44.7529 359.992 38 344.353 38" stroke="url(#paint1_linear_776_13891)" stroke-width="45.2436"/>
    <path d="M240.901 166.19C256.54 166.19 271.539 159.437 282.597 147.417C293.656 135.397 299.868 119.094 299.868 102.095C299.868 85.096 293.656 68.7932 282.597 56.773C271.539 44.7529 256.54 38 240.901 38" stroke="url(#paint2_linear_776_13891)" stroke-width="45.2436"/>
    <path d="M136.794 101.533C136.794 89.0392 126.666 78.9111 114.173 78.9111C101.679 78.9111 91.5508 89.0392 91.5508 101.533L136.794 101.533ZM173.14 188.25C185.634 188.25 195.762 178.122 195.762 165.628C195.762 153.134 185.634 143.006 173.14 143.006L173.14 188.25ZM91.5508 101.533C91.5508 123.951 99.7265 145.792 114.796 162.171L148.092 131.539C141.044 123.878 136.794 113.113 136.794 101.533L91.5508 101.533ZM114.796 162.171C129.923 178.614 150.864 188.25 173.14 188.25L173.14 143.006C164.138 143.006 155.082 139.136 148.092 131.539L114.796 162.171Z" fill="url(#paint3_linear_776_13891)"/>
    <path d="M353.694 46.8698C354.501 45.1385 356.963 45.1385 357.77 46.8698L361.411 54.6772C361.723 55.3467 362.344 55.8202 363.073 55.9439L371.318 57.344C373.078 57.643 373.805 59.7758 372.593 61.0874L366.458 67.7284C365.996 68.2281 365.786 68.91 365.885 69.5831L367.227 78.6707C367.5 80.5155 365.538 81.8713 363.908 80.9643L356.826 77.0214C356.146 76.6428 355.318 76.6428 354.638 77.0214L347.556 80.9643C345.926 81.8713 343.965 80.5155 344.237 78.6707L345.579 69.5831C345.679 68.91 345.468 68.2281 345.006 67.7284L338.871 61.0874C337.659 59.7758 338.386 57.643 340.146 57.344L348.391 55.9439C349.12 55.8202 349.741 55.3467 350.053 54.6772L353.694 46.8698Z" fill="white"/>
    <path d="M146.791 143.575C147.598 141.843 150.06 141.843 150.867 143.575L152.655 147.408C152.967 148.077 153.588 148.551 154.316 148.675L158.511 149.387C160.272 149.686 160.999 151.819 159.787 153.13L156.556 156.627C156.094 157.127 155.884 157.809 155.983 158.482L156.676 163.17C156.948 165.015 154.986 166.371 153.357 165.464L149.923 163.552C149.243 163.174 148.415 163.174 147.735 163.552L144.301 165.464C142.672 166.371 140.71 165.015 140.982 163.17L141.675 158.482C141.774 157.809 141.564 157.127 141.102 156.627L137.871 153.13C136.659 151.819 137.386 149.686 139.146 149.387L143.341 148.675C144.07 148.551 144.691 148.077 145.003 147.408L146.791 143.575Z" fill="white"/>
    <path fill-rule="evenodd" clip-rule="evenodd" d="M277.112 64.9885H219.179L216.894 77.4095C212.933 98.9342 212.933 121.001 216.894 142.525L219.179 154.946H277.112L279.398 142.525C283.358 121.001 283.358 98.9342 279.398 77.4095L277.112 64.9885ZM259.526 105.47C261.24 105.47 262.629 103.959 262.629 102.096C262.629 100.233 261.24 98.7227 259.526 98.7227C257.812 98.7227 256.422 100.233 256.422 102.096C256.422 103.959 257.812 105.47 259.526 105.47ZM234.697 105.47C236.411 105.47 237.801 103.959 237.801 102.096C237.801 100.233 236.411 98.7227 234.697 98.7227C232.983 98.7227 231.594 100.233 231.594 102.096C231.594 103.959 232.983 105.47 234.697 105.47ZM237.801 114.465H256.422V116.399C256.422 121.542 252.254 125.71 247.111 125.71C241.969 125.71 237.801 121.542 237.801 116.399V114.465Z" fill="white"/>
    <path d="M285.385 78.4822H308.144L310.213 109.967L308.144 141.453H285.385L285.671 139.273C288.228 119.82 288.228 100.115 285.671 80.6619L285.385 78.4822Z" fill="white"/>
    <path d="M210.9 78.4822H188.141L186.072 109.967L188.141 141.453H210.9L210.613 139.273C208.057 119.82 208.057 100.115 210.613 80.6619L210.9 78.4822Z" fill="white"/>
    <path d="M312.282 87.4779H326.766C328.142 102.439 328.142 117.495 326.766 132.457H312.282L312.456 130.571C313.717 116.864 313.717 103.071 312.456 89.3641L312.282 87.4779Z" fill="white"/>
    <path d="M184.002 87.4779H169.519C168.143 102.439 168.143 117.495 169.519 132.457H184.002L183.829 130.571C182.568 116.864 182.568 103.071 183.829 89.3641L184.002 87.4779Z" fill="white"/>
    <path d="M448 140C448 133.373 453.373 128 460 128C466.627 128 472 133.373 472 140C472 146.627 466.627 152 460 152C453.373 152 448 146.627 448 140Z" fill="white" fill-opacity="0.1"/>
    <path fill-rule="evenodd" clip-rule="evenodd" d="M463.706 138.876C463.893 139.063 463.999 139.318 463.999 139.583C463.999 139.848 463.893 140.102 463.706 140.29L459.113 144.883C458.927 145.065 458.676 145.167 458.415 145.166C458.154 145.165 457.904 145.06 457.72 144.876C457.535 144.691 457.431 144.442 457.43 144.181C457.429 143.92 457.53 143.669 457.713 143.483L461.613 139.583L457.713 135.683C457.53 135.497 457.429 135.246 457.43 134.985C457.431 134.724 457.535 134.474 457.72 134.29C457.904 134.106 458.154 134.001 458.415 134C458.676 133.999 458.927 134.1 459.113 134.283L463.706 138.876Z" fill="white"/>
    <path d="M20 140C20 133.373 25.3726 128 32 128C38.6274 128 44 133.373 44 140C44 146.627 38.6274 152 32 152C25.3726 152 20 146.627 20 140Z" fill="white" fill-opacity="0.1"/>
    <path fill-rule="evenodd" clip-rule="evenodd" d="M28.2928 138.876C28.1053 139.063 28 139.318 28 139.583C28 139.848 28.1053 140.102 28.2928 140.29L32.8858 144.883C33.0721 145.065 33.3229 145.167 33.5837 145.166C33.8446 145.165 34.0943 145.06 34.2788 144.876C34.4632 144.691 34.5674 144.442 34.5687 144.181C34.57 143.92 34.4684 143.669 34.2858 143.483L30.3858 139.583L34.2858 135.683C34.4684 135.497 34.57 135.246 34.5687 134.985C34.5674 134.724 34.4632 134.474 34.2788 134.29C34.0943 134.106 33.8446 134.001 33.5837 134C33.3229 133.999 33.0721 134.1 32.8858 134.283L28.2928 138.876Z" fill="white"/>
    <defs>
        <linearGradient id="paint0_linear_776_13891" x1="-30.0001" y1="247.905" x2="291.359" y2="-185.869" gradientUnits="userSpaceOnUse">
            <stop stop-color="#0057C2"/>
            <stop offset="1" stop-color="#0095FF"/>
        </linearGradient>
        <linearGradient id="paint1_linear_776_13891" x1="344.353" y1="138.964" x2="429.259" y2="107.084" gradientUnits="userSpaceOnUse">
            <stop stop-color="#0057C2"/>
            <stop offset="1" stop-color="#0095FF"/>
        </linearGradient>
        <linearGradient id="paint2_linear_776_13891" x1="240.901" y1="138.964" x2="325.807" y2="107.084" gradientUnits="userSpaceOnUse">
            <stop stop-color="#0057C2"/>
            <stop offset="1" stop-color="#0095FF"/>
        </linearGradient>
        <linearGradient id="paint3_linear_776_13891" x1="126.697" y1="101.533" x2="178.972" y2="160.453" gradientUnits="userSpaceOnUse">
            <stop stop-color="#0057C2"/>
            <stop offset="1" stop-color="#0095FF"/>
        </linearGradient>
    </defs>
</svg>
