<svg width="492" height="259" fill="none" xmlns="http://www.w3.org/2000/svg">
  <path fill="url(#a)" fill-rule="evenodd" d="M-1 0a3 3 0 0 0-3 3v255.4C58.6 244.6 147.4 236 246 236s187.4 8.6 250 22.4V3a3 3 0 0 0-3-3H-1Z" clip-rule="evenodd"/>
  <path stroke="url(#b)" stroke-width="45.2" d="M344.4 166.2c15.6 0 30.6-6.8 41.6-18.8a67 67 0 0 0 17.3-45.3A67 67 0 0 0 386 56.8c-11-12-26-18.8-41.6-18.8"/>
  <path stroke="url(#c)" stroke-width="45.2" d="M240.9 166.2a57 57 0 0 0 41.7-18.8 67 67 0 0 0 17.3-45.3 67 67 0 0 0-17.3-45.3c-11-12-26-18.8-41.7-18.8"/>
  <path fill="url(#d)" d="M136.8 101.5a22.6 22.6 0 1 0-45.2 0h45.2Zm36.3 86.8a22.6 22.6 0 1 0 0-45.3v45.3Zm-81.5-86.8c0 22.5 8.1 44.3 23.2 60.7l33.3-30.7a44.4 44.4 0 0 1-11.3-30H91.6Zm23.2 60.7c15.1 16.4 36 26 58.3 26V143c-9 0-18-3.9-25-11.5l-33.3 30.7Z"/>
  <path fill="#fff" d="M353.7 46.9a2.2 2.2 0 0 1 4 0l3.7 7.8c.3.6 1 1.1 1.7 1.2l8.2 1.4c1.8.3 2.5 2.5 1.3 3.8l-6.1 6.6c-.5.5-.7 1.2-.6 1.9l1.3 9A2.2 2.2 0 0 1 364 81l-7-4c-.8-.4-1.6-.4-2.3 0l-7 4c-1.7.9-3.6-.5-3.4-2.3l1.4-9.1c0-.7-.1-1.4-.6-1.9l-6.1-6.6a2.2 2.2 0 0 1 1.2-3.8l8.3-1.4c.7 0 1.3-.6 1.7-1.2l3.6-7.8Zm-206.9 96.7a2.2 2.2 0 0 1 4 0l1.9 3.8c.3.7.9 1.2 1.6 1.3l4.2.7c1.8.3 2.5 2.4 1.3 3.7l-3.2 3.5c-.5.5-.7 1.2-.6 1.9l.7 4.7a2.2 2.2 0 0 1-3.3 2.3l-3.5-2c-.7-.3-1.5-.3-2.2 0l-3.4 2c-1.6.9-3.6-.5-3.3-2.3l.7-4.7c0-.7-.1-1.4-.6-1.9l-3.2-3.5a2.2 2.2 0 0 1 1.2-3.7l4.2-.7c.8-.1 1.4-.6 1.7-1.3l1.8-3.8Z"/>
  <path fill="#fff" fill-rule="evenodd" d="M277.1 65h-58L217 77.4a178 178 0 0 0 0 65.1l2.3 12.4h58l2.2-12.4c4-21.5 4-43.6 0-65L277.1 65Zm-17.6 40.5c1.7 0 3.1-1.5 3.1-3.4s-1.4-3.4-3-3.4c-1.8 0-3.2 1.5-3.2 3.4s1.4 3.4 3.1 3.4Zm-24.8 0c1.7 0 3.1-1.5 3.1-3.4s-1.4-3.4-3.1-3.4c-1.7 0-3.1 1.5-3.1 3.4s1.4 3.4 3.1 3.4Zm3.1 9h18.6v1.9a9.3 9.3 0 1 1-18.6 0v-2Z" clip-rule="evenodd"/>
  <path fill="#fff" d="M285.4 78.5H308l2.1 31.5-2 31.5h-22.8l.3-2.2c2.5-19.5 2.5-39.2 0-58.6l-.3-2.2Zm-74.5 0h-22.8l-2 31.5 2 31.5H211l-.3-2.2a225 225 0 0 1 0-58.6l.3-2.2Zm101.4 9h14.5c1.3 15 1.3 30 0 45h-14.5l.2-2a235 235 0 0 0 0-41.1l-.2-2Zm-128.3 0h-14.5c-1.4 15-1.4 30 0 45H184l-.2-2a224.9 224.9 0 0 1 0-41.1l.2-2Z"/>
  <path fill="#fff" fill-opacity=".1" d="M448 140a12 12 0 1 1 24 0 12 12 0 0 1-24 0Z"/>
  <path fill="#fff" fill-rule="evenodd" d="M463.7 138.9a1 1 0 0 1 0 1.4l-4.6 4.6a1 1 0 0 1-1.7-.7c0-.3.1-.5.3-.7l4-4-4-3.8a1 1 0 0 1 1.4-1.4l4.6 4.6Z" clip-rule="evenodd"/>
  <path fill="#fff" fill-opacity=".1" d="M20 140a12 12 0 1 1 24 0 12 12 0 0 1-24 0Z"/>
  <path fill="#fff" fill-rule="evenodd" d="M28.3 138.9a1 1 0 0 0 0 1.4l4.6 4.6a1 1 0 0 0 1.4 0 1 1 0 0 0 0-1.4l-4-4 4-3.8a1 1 0 0 0-1.4-1.4l-4.6 4.6Z" clip-rule="evenodd"/>
  <defs>
    <linearGradient id="a" x1="-30" x2="291.4" y1="247.9" y2="-185.9" gradientUnits="userSpaceOnUse">
      <stop stop-color="#0057C2"/>
      <stop offset="1" stop-color="#0095FF"/>
    </linearGradient>
    <linearGradient id="b" x1="344.4" x2="429.3" y1="139" y2="107.1" gradientUnits="userSpaceOnUse">
      <stop stop-color="#0057C2"/>
      <stop offset="1" stop-color="#0095FF"/>
    </linearGradient>
    <linearGradient id="c" x1="240.9" x2="325.8" y1="139" y2="107.1" gradientUnits="userSpaceOnUse">
      <stop stop-color="#0057C2"/>
      <stop offset="1" stop-color="#0095FF"/>
    </linearGradient>
    <linearGradient id="d" x1="126.7" x2="179" y1="101.5" y2="160.5" gradientUnits="userSpaceOnUse">
      <stop stop-color="#0057C2"/>
      <stop offset="1" stop-color="#0095FF"/>
    </linearGradient>
  </defs>
</svg>
