<svg width="324" height="162" fill="none" xmlns="http://www.w3.org/2000/svg">
  <path fill="url(#a)" d="M0 0h24.6v29.1H0z" transform="matrix(-.94902 -.31521 -.68431 .72919 111.5 27.3)"/>
  <path fill="url(#b)" d="M0 0h36.7v44.2H0z" transform="matrix(-.94902 -.31521 -.68431 .72919 70 64.6)"/>
  <path fill="url(#c)" d="M0 0h35.6v41.9H0z" transform="matrix(-.94902 -.31521 -.68431 .72919 320 131)"/>
  <path fill="url(#d)" d="M0 0h20.4v24H0z" transform="matrix(-.94902 -.31521 -.68431 .72919 319.9 71.4)"/>
  <path fill="url(#e)" d="M0 0h140v77.3H0z" transform="matrix(-.94902 -.31521 -.68431 .72919 263.6 95.4)"/>
  <path fill="#DEEAF7" d="M110.3 8.8 87 1c-3.7 9-20 21.2-20 21.2L90.4 30a54.9 54.9 0 0 0 20-21.2Z"/>
  <path fill="#F7FBFF" d="M110.3 7.8 87 0c-3.7 9-20 21.2-20 21.2L90.4 29a54.9 54.9 0 0 0 20-21.2Z"/>
  <path fill="#DEEAF7" d="M65.1 42 30.3 30.4C26.3 42 .7 62 .7 62l34.8 11.6C60.3 56.5 65.1 42 65.1 42Z"/>
  <path fill="#F7FBFF" d="M65.1 41 30.3 29.4C26.3 41 .7 61 .7 61l34.8 11.6C60.3 55.5 65.1 41 65.1 41Z"/>
  <path fill="#DEEAF7" d="m319.8 103.4-33.7-11.2c-4.3 11.2-28.7 30.6-28.7 30.6L291 134c26.2-20 28.7-30.6 28.7-30.6Z"/>
  <path fill="#F7FBFF" d="m319.8 102.4-33.7-11.2c-4.3 11.2-28.7 30.6-28.7 30.6L291 133c26.2-20 28.7-30.6 28.7-30.6Z"/>
  <path fill="#DEEAF7" d="M319.3 51.5 300 45.1c-2.6 6.4-16.4 17.5-16.4 17.5L303 69c14.4-10 16.4-17.5 16.4-17.5Z"/>
  <path fill="#F7FBFF" d="M319.3 50.5 300 44.1c-2.6 6.4-16.4 17.5-16.4 17.5L303 68c14.4-10 16.4-17.5 16.4-17.5Z"/>
  <path fill="#DEEAF7" d="M257.3 62.5 131.3 23c-11 22.5-55.7 55.2-55.7 55.2l130.7 43.5c45.5-31.7 51-59.2 51-59.2Z"/>
  <mask id="f" width="186" height="99" x="76" y="21" maskUnits="userSpaceOnUse" style="mask-type:alpha">
    <path fill="#F8F9FF" d="M261 61.5c.4-.7 0-1.4-.9-1.6L132.7 21.6c-1-.3-2.5 0-3.3.8L76.7 74.7c-.9.8-.7 1.8.5 2.2l127.2 42.3c.8.3 2 .2 2.8-.4 7.3-4.6 42-27.8 53.9-57.3Z"/>
  </mask>
  <g mask="url(#f)">
    <path fill="url(#g)" d="M256.8 60.5 130.8 21C119.8 43.5 75 76.2 75 76.2l130.7 43.5c45.5-31.7 51-59.2 51-59.2Z"/>
    <path stroke="#7AB9FC" stroke-linecap="round" stroke-linejoin="round" stroke-width="1.5" d="M143.4 87s4.3.6 5.9 1c1.6.4 3.2 1.3 4.2 1 1.2-.5 2-1.1 2.8-1.8 1.5-1.2 3.9-1 6-2.1 2.3-1.2 4-2 4.8-4 1-2-1.2-2.2-1.2-2.2-2.3 1-4.2 3-4.2 3l-3.9 3.3s-3 2.6-5.5 3.4c-1.5.5-2.9 1.6-2.9 1.6s-1.5 1-1.4 1.8c.3 1.1 3-.8 3.5-1.1.7-.5 1.1-1.2 1.8-1.7 0 0 10-2.4 10.6-2.2.6.3-.3 1.4-.8 2-.6.8-3 3.4-1.7 3.8 1 .4 1.9-.4 2.3-.8 1-.9 2.6-2.5 3.9-2.6 3.8 0 1.1 3.7 3.8 5.1 3.3 1.7 5.9-1.6 9 .2 3.1 1.7-.6 4.4 2.6 6 2.7 1.5 7.7.6 7.7.6"/>
    <path fill="#0989E3" d="m112.2 75-10.7-3.5L90.8 83l10.6 3.5z"/>
  </g>
  <path stroke="#CEE5FE" stroke-linecap="round" stroke-width="2" d="M224.9 71.4 130.2 40m65.3 32.8-57.6-18.7"/>
  <g filter="url(#h)">
    <path fill="#7AB9FC" d="m120.5 59.7-5.8 1.6-3.6-2.8-4.2 3.2-5.6-1-1.3 3.9-6 .9 1.8 3.6-5 2.7 4.6 2.3-2.5 3.7 6 .4.7 3.8 5.8-1.7 3.6 2.9 4.1-3.2 5.6 1 1.4-3.9 6-1-1.8-3.5 4.9-2.7-4.5-2.3 2.4-3.7-6-.4-.6-3.8Z"/>
  </g>
  <g filter="url(#i)">
    <path fill="#fff" d="M114.8 71.8c2.1-2.2 1.5-4.8-1.4-5.8l-1.2-.3a9 9 0 0 0-9 2.3c-2.1 2.2-1.5 4.8 1.4 5.8l1.2.3c2.9 1 7 0 9-2.3Z"/>
  </g>
  <g filter="url(#j)">
    <path fill="#3889DD" fill-rule="evenodd" d="M117.5 72.7c3.1-3.3 2.1-7.2-2.2-8.7l-1.2-.4c-4.3-1.4-10.4.1-13.6 3.5-3.1 3.3-2.1 7.2 2.2 8.7l1.2.4c4.3 1.4 10.4-.1 13.6-3.5Zm-6-4.6c1.4.4 1.8 1.7.7 2.9-1 1-3 1.6-4.5 1.1l-1.2-.4c-1.4-.4-1.8-1.7-.7-2.9 1-1 3-1.6 4.5-1.1l1.2.4Z" clip-rule="evenodd"/>
  </g>
  <path fill="#0074C6" d="M102.5 85.3 92 81.8V90l5.6-.7 5.3 4.3-.3-8.2Z"/>
  <defs>
    <linearGradient id="a" x1="6.3" x2="9.6" y1="32.4" y2="-2.5" gradientUnits="userSpaceOnUse">
      <stop stop-color="#F5F9FF"/>
      <stop stop-color="#F3F7FF"/>
      <stop offset="0" stop-color="#F5F9FF"/>
      <stop offset="1" stop-color="#F4FAFF" stop-opacity="0"/>
    </linearGradient>
    <linearGradient id="b" x1="13.7" x2="15.7" y1="45.6" y2="-.9" gradientUnits="userSpaceOnUse">
      <stop stop-color="#F2F7FF"/>
      <stop offset="1" stop-color="#F5FAFF" stop-opacity="0"/>
    </linearGradient>
    <linearGradient id="c" x1="8.4" x2="10.4" y1="42.1" y2="-2.3" gradientUnits="userSpaceOnUse">
      <stop stop-color="#F5F9FF"/>
      <stop offset="1" stop-color="#F9FCFF" stop-opacity="0"/>
    </linearGradient>
    <linearGradient id="d" x1="2.5" x2="3.3" y1="25.1" y2="2.2" gradientUnits="userSpaceOnUse">
      <stop stop-color="#F2F7FF"/>
      <stop offset="1" stop-color="#F5FAFF" stop-opacity="0"/>
    </linearGradient>
    <linearGradient id="e" x1="46.2" x2="48.9" y1="72.2" y2="-19.2" gradientUnits="userSpaceOnUse">
      <stop stop-color="#F4F9FF"/>
      <stop offset="1" stop-color="#EFF7FF" stop-opacity="0"/>
    </linearGradient>
    <filter id="h" width="40.3" height="26.6" x="89.9" y="58.5" color-interpolation-filters="sRGB" filterUnits="userSpaceOnUse">
      <feFlood flood-opacity="0" result="BackgroundImageFix"/>
      <feColorMatrix in="SourceAlpha" result="hardAlpha" values="0 0 0 0 0 0 0 0 0 0 0 0 0 0 0 0 0 0 127 0"/>
      <feOffset dy="1"/>
      <feGaussianBlur stdDeviation=".5"/>
      <feColorMatrix values="0 0 0 0 0 0 0 0 0 0 0 0 0 0 0 0 0 0 0.25 0"/>
      <feBlend in2="BackgroundImageFix" result="effect1_dropShadow_740_13647"/>
      <feBlend in="SourceGraphic" in2="effect1_dropShadow_740_13647" result="shape"/>
    </filter>
    <filter id="i" width="14.7" height="11" x="101.3" y="65.3" color-interpolation-filters="sRGB" filterUnits="userSpaceOnUse">
      <feFlood flood-opacity="0" result="BackgroundImageFix"/>
      <feColorMatrix in="SourceAlpha" result="hardAlpha" values="0 0 0 0 0 0 0 0 0 0 0 0 0 0 0 0 0 0 127 0"/>
      <feOffset dx="-.6" dy="1.7"/>
      <feColorMatrix values="0 0 0 0 0 0 0 0 0 0 0 0 0 0 0 0 0 0 0.25 0"/>
      <feBlend in2="BackgroundImageFix" result="effect1_dropShadow_740_13647"/>
      <feBlend in="SourceGraphic" in2="effect1_dropShadow_740_13647" result="shape"/>
    </filter>
    <filter id="j" width="20.6" height="13.6" x="98.7" y="63.1" color-interpolation-filters="sRGB" filterUnits="userSpaceOnUse">
      <feFlood flood-opacity="0" result="BackgroundImageFix"/>
      <feBlend in="SourceGraphic" in2="BackgroundImageFix" result="shape"/>
      <feColorMatrix in="SourceAlpha" result="hardAlpha" values="0 0 0 0 0 0 0 0 0 0 0 0 0 0 0 0 0 0 127 0"/>
      <feOffset dy="1"/>
      <feComposite in2="hardAlpha" k2="-1" k3="1" operator="arithmetic"/>
      <feColorMatrix values="0 0 0 0 0 0 0 0 0 0 0 0 0 0 0 0 0 0 0.25 0"/>
      <feBlend in2="shape" result="effect1_innerShadow_740_13647"/>
    </filter>
    <radialGradient id="g" cx="0" cy="0" r="1" gradientTransform="matrix(-8.5303 34.99267 -81.17808 -19.78908 170.5 70.1)" gradientUnits="userSpaceOnUse">
      <stop offset=".1" stop-color="#fff"/>
      <stop offset="1" stop-color="#FBFDFF"/>
      <stop offset="1" stop-color="#F7FBFF"/>
    </radialGradient>
  </defs>
</svg>
