<svg xmlns="http://www.w3.org/2000/svg" width="228" height="204" fill="none"><circle cx="114.32" cy="101.68" r="96.636" fill="#EBEEF1" stroke="#B7C2CE" stroke-width="2.082"/><mask id="a" width="140" height="165" x="78" y="20" maskUnits="userSpaceOnUse" style="mask-type:alpha"><path fill="#C4C4C4" d="m78.898 133.856 55.667-110.423a5.263 5.263 0 0 1 7.068-2.33l60.76 30.63a5.26 5.26 0 0 1 2.642 3.094L217.1 92.491a5.264 5.264 0 0 1-.313 3.974l-42.972 85.241a5.262 5.262 0 0 1-7.067 2.33l-85.52-43.112a5.263 5.263 0 0 1-2.33-7.068Z"/></mask><g mask="url(#a)"><path fill="#fff" d="m78.898 133.856 55.667-110.423a5.263 5.263 0 0 1 7.068-2.33l60.76 30.63a5.26 5.26 0 0 1 2.642 3.094L217.1 92.491a5.264 5.264 0 0 1-.313 3.974l-42.972 85.241a5.262 5.262 0 0 1-7.067 2.33l-85.52-43.112a5.263 5.263 0 0 1-2.33-7.068Z"/><path fill="#B7C2CE" d="m205.194 50.493 30.542 15.397a5.262 5.262 0 0 1 2.33 7.068l-12.791 25.374-30.543-15.397a5.262 5.262 0 0 1-2.33-7.068l12.792-25.374Z"/><mask id="b" width="88" height="77" x="106" y="71" maskUnits="userSpaceOnUse" style="mask-type:alpha"><rect width="74.939" height="48.938" x="127.701" y="70.948" fill="#C4C4C4" rx="2.631" transform="rotate(26.754 127.701 70.948)"/></mask><g mask="url(#b)"><rect width="72.857" height="46.856" x="128.162" y="72.346" stroke="#B7C2CE" stroke-width="2.082" rx="1.59" transform="rotate(26.754 128.162 72.346)"/><path fill="#B7C2CE" fill-rule="evenodd" d="M118.721 80.578c.259-.514.885-.72 1.398-.461l76.612 38.622a1.04 1.04 0 1 1-.937 1.859l-76.612-38.622a1.042 1.042 0 0 1-.461-1.398ZM113.747 90.445c.259-.513.885-.72 1.398-.46l76.612 38.621a1.04 1.04 0 1 1-.937 1.859l-76.612-38.622a1.042 1.042 0 0 1-.461-1.398ZM107.824 102.192c.259-.513.885-.72 1.398-.461l76.612 38.622a1.04 1.04 0 1 1-.937 1.859l-76.612-38.622a1.042 1.042 0 0 1-.461-1.398Z" clip-rule="evenodd"/></g><path fill="#B7C2CE" fill-rule="evenodd" d="M145.457 39.236a1.578 1.578 0 0 1 2.12-.7l39.001 19.662a1.58 1.58 0 0 1-1.422 2.82l-39-19.662a1.578 1.578 0 0 1-.699-2.12ZM140.244 49.574a1.58 1.58 0 0 1 2.121-.7l13.626 6.87a1.578 1.578 0 1 1-1.421 2.82l-13.627-6.87a1.58 1.58 0 0 1-.699-2.12Z" clip-rule="evenodd"/><path stroke="#B7C2CE" stroke-linecap="round" stroke-width="2.105" d="m99.742 128.747 14.566 7.343M122.296 140.118l7.518 3.79"/></g><path stroke="#B7C2CE" stroke-width="2.082" d="m79.829 134.325 55.667-110.423a4.22 4.22 0 0 1 5.669-1.87l60.76 30.631a4.22 4.22 0 0 1 2.12 2.482l12.064 37.664a4.222 4.222 0 0 1-.25 3.188l-42.972 85.24a4.222 4.222 0 0 1-5.67 1.87l-85.519-43.113a4.22 4.22 0 0 1-1.87-5.669Z"/><mask id="c" width="156" height="152" x="5" y="28" maskUnits="userSpaceOnUse" style="mask-type:alpha"><path fill="#C4C4C4" d="M68.135 177.288 6.305 70.195a5.262 5.262 0 0 1 1.926-7.188l58.927-34.022a5.262 5.262 0 0 1 4.037-.514l38.113 10.559a5.262 5.262 0 0 1 3.152 2.44l47.73 82.67a5.264 5.264 0 0 1-1.926 7.189l-82.94 47.885a5.261 5.261 0 0 1-7.19-1.926Z"/></mask><g mask="url(#c)"><path fill="#fff" d="M68.135 177.288 6.305 70.195a5.262 5.262 0 0 1 1.926-7.188l58.927-34.022a5.262 5.262 0 0 1 4.037-.514l38.113 10.559a5.262 5.262 0 0 1 3.152 2.44l47.73 82.67a5.264 5.264 0 0 1-1.926 7.189l-82.94 47.885a5.261 5.261 0 0 1-7.19-1.926Z"/><path fill="#B7C2CE" d="M67.657 25.963 97.28 8.86a5.262 5.262 0 0 1 7.188 1.926l14.208 24.609-29.622 17.102a5.262 5.262 0 0 1-7.188-1.926l-14.208-24.61Z"/><mask id="d" width="92" height="81" x="43" y="63" maskUnits="userSpaceOnUse" style="mask-type:alpha"><rect width="79.459" height="48.938" x="42.279" y="101.984" fill="#C4C4C4" rx="2.631" transform="rotate(-30 42.28 101.984)"/></mask><g stroke="#B7C2CE" stroke-width="2.082" mask="url(#d)"><rect width="77.377" height="46.856" x="43.701" y="102.365" rx="1.59" transform="rotate(-30 43.701 102.365)"/><path stroke-linecap="round" d="m46.311 114.253 74.302-42.898M51.837 123.823l74.302-42.898M58.414 135.216l74.302-42.898"/></g><path fill="#B7C2CE" fill-rule="evenodd" d="M25.743 70.186c-.575-.995-.429-2.156.326-2.592l37.825-21.837c.755-.436 1.833.017 2.408 1.013.575.995.428 2.156-.327 2.592L28.151 71.2c-.755.436-1.833-.018-2.408-1.014ZM31.532 80.212c-.575-.996-.43-2.156.326-2.592l13.216-7.63c.755-.436 1.833.017 2.408 1.013.575.996.428 2.156-.327 2.592l-13.215 7.63c-.756.436-1.834-.017-2.408-1.013ZM74.373 157.571a1.046 1.046 0 0 1 .39-1.427l14.128-8.157a1.047 1.047 0 0 1 1.432.376 1.046 1.046 0 0 1-.391 1.427l-14.128 8.156a1.046 1.046 0 0 1-1.431-.375ZM96.247 144.942a1.046 1.046 0 0 1 .391-1.427l7.291-4.21a1.046 1.046 0 0 1 1.432.375 1.046 1.046 0 0 1-.391 1.428l-7.291 4.21a1.047 1.047 0 0 1-1.432-.376Z" clip-rule="evenodd"/></g><path stroke="#B7C2CE" stroke-width="2.082" d="M69.036 176.768 7.206 69.674a4.221 4.221 0 0 1 1.545-5.766l58.928-34.022a4.222 4.222 0 0 1 3.238-.412l38.113 10.559a4.223 4.223 0 0 1 2.529 1.957l47.729 82.671a4.22 4.22 0 0 1-1.545 5.766l-82.94 47.886a4.221 4.221 0 0 1-5.767-1.545Z"/><mask id="e" width="130" height="172" x="49" y="16" maskUnits="userSpaceOnUse" style="mask-type:alpha"><path fill="#C4C4C4" d="M49.47 180.941V23.057a6.405 6.405 0 0 1 6.404-6.405h82.507c1.769 0 3.46.732 4.67 2.022l33.745 35.959a6.406 6.406 0 0 1 1.734 4.383V180.94a6.404 6.404 0 0 1-6.405 6.405H55.875a6.405 6.405 0 0 1-6.406-6.405Z"/></mask><g mask="url(#e)"><path fill="#fff" d="M49.47 180.941V23.057a6.405 6.405 0 0 1 6.404-6.405h82.507c1.769 0 3.46.732 4.67 2.022l33.745 35.959a6.406 6.406 0 0 1 1.734 4.383V180.94a6.404 6.404 0 0 1-6.405 6.405H55.875a6.405 6.405 0 0 1-6.406-6.405Z"/><path fill="#B7C2CE" d="M141.061 14.57h41.473a6.405 6.405 0 0 1 6.405 6.405v37.31h-41.473a6.405 6.405 0 0 1-6.405-6.405V14.57Z"/><mask id="f" width="96" height="63" x="66" y="81" maskUnits="userSpaceOnUse" style="mask-type:alpha"><rect width="95.755" height="62.449" x="66.122" y="81.183" fill="#C4C4C4" rx="2.082"/></mask><g mask="url(#f)"><rect width="93.674" height="60.367" x="67.163" y="82.223" stroke="#B7C2CE" stroke-width="2.082" rx="1.041"/><path fill="#B7C2CE" fill-rule="evenodd" d="M66.122 96.875c0-.53.43-.96.96-.96h93.834a.96.96 0 1 1 0 1.92H67.083a.96.96 0 0 1-.96-.96ZM66.122 111.446a.96.96 0 0 1 .96-.961h93.834a.96.96 0 1 1 0 1.922H67.083a.96.96 0 0 1-.96-.961ZM66.122 128.099c0-.53.43-.96.96-.96h93.834a.96.96 0 1 1 0 1.921H67.083a.96.96 0 0 1-.96-.961Z" clip-rule="evenodd"/></g><path fill="#B7C2CE" fill-rule="evenodd" d="M70.286 39.55c0-1.15.86-2.081 1.921-2.081h46.116c1.062 0 1.922.932 1.922 2.081 0 1.15-.86 2.082-1.922 2.082H72.207c-1.061 0-1.921-.932-1.921-2.082ZM70.286 47.877c0-1.15.86-2.082 1.921-2.082h16.974c1.06 0 1.921.932 1.921 2.082s-.86 2.081-1.922 2.081H72.207c-1.061 0-1.921-.932-1.921-2.081ZM68.204 163.407c0-.575.317-1.041 1.04-1.041h20.817c.725 0 1.041.466 1.041 1.041s-.316 1.041-1.04 1.041H69.244c-.725 0-1.04-.466-1.04-1.041ZM99.428 163.407c0-.575.35-1.041 1.041-1.041h10.408c.692 0 1.041.466 1.041 1.041s-.349 1.041-1.041 1.041h-10.408c-.691 0-1.04-.466-1.04-1.041Z" clip-rule="evenodd"/></g><path stroke="#B7C2CE" stroke-width="2.082" d="M50.51 180.941V23.057a5.364 5.364 0 0 1 5.364-5.364h82.507c1.482 0 2.897.613 3.911 1.694l33.745 35.958a5.365 5.365 0 0 1 1.453 3.67v121.926a5.364 5.364 0 0 1-5.365 5.364H55.875a5.364 5.364 0 0 1-5.365-5.364Z"/><circle cx="18.565" cy="43.714" r="4.484" fill="#F0F4F7"/><circle cx="199.187" cy="26.901" r="6.085" fill="#F0F4F7"/><circle cx="40.022" cy="182.383" r="4.163" fill="#DDE2E8"/><circle cx="28.493" cy="29.943" r="2.882" fill="#DDE2E8"/><circle cx="189.26" cy="15.211" r="2.882" fill="#DDE2E8"/><circle cx="205.271" cy="155.482" r="2.882" fill="#EBEEF1"/></svg>
