<svg width="250" height="172" viewBox="0 0 250 172" fill="none" xmlns="http://www.w3.org/2000/svg">
<g clip-path="url(#clip0_16895_1825)">
<path d="M21.9542 85.5637C22.4255 85.4061 22.7398 84.9335 22.7398 84.3034L22.4255 83.0432C22.2684 82.5706 21.797 82.2555 21.3257 82.413L9.38462 85.5637C8.91326 85.7212 8.59902 86.1938 8.75614 86.6664L9.07038 87.9266C9.2275 88.3992 9.69886 88.7143 10.1702 88.5567C10.6416 90.2896 11.8985 91.7073 13.4697 92.6525L15.5123 93.7552C15.8265 93.9128 15.8265 94.2278 15.6694 94.3853L14.2553 96.2757C13.1555 97.6935 12.8412 99.5838 13.1555 101.317C12.6841 101.474 12.3699 101.947 12.527 102.419L12.8412 103.68C12.9984 104.467 13.6268 104.782 14.0982 104.625L26.0393 101.474C26.5106 101.317 26.8249 100.844 26.6677 100.371L26.3535 99.1113C26.1964 98.6387 25.725 98.3236 25.2537 98.4811C24.7823 96.7483 23.5253 95.3305 21.9542 94.5429L19.7545 93.4402C19.4402 93.2826 19.4402 92.9676 19.5974 92.81L21.0114 90.9197C21.9542 89.1869 22.2684 87.454 21.9542 85.5637ZM19.126 89.5019L17.5548 91.7073C17.3977 92.0224 16.9263 92.0224 16.7692 91.8649L14.4124 90.6046C13.4697 90.132 12.8412 89.5019 12.3699 88.5567C12.2128 88.2417 12.3699 87.9266 12.6841 87.7691C12.6841 87.7691 12.6841 87.7691 12.8412 87.7691L19.4402 86.0362C19.7545 86.0362 20.0687 86.1938 20.0687 86.5088C20.0687 86.5088 20.0687 86.5088 20.0687 86.6664C19.9116 87.7691 19.7545 88.7143 19.126 89.5019Z" fill="url(#paint0_linear_16895_1825)"/>
<path d="M123.593 172C167.5 172 203.093 136.63 203.093 93C203.093 49.3695 167.5 14 123.593 14C79.6864 14 44.093 49.3695 44.093 93C44.093 136.63 79.6864 172 123.593 172Z" fill="#EAEEF9"/>
<path d="M212.606 53.2694C215.04 51.0391 215.21 47.2527 212.985 44.8122C210.761 42.3716 206.984 42.2012 204.55 44.4315C202.116 46.6617 201.946 50.4482 204.17 52.8887C206.395 55.3292 210.171 55.4997 212.606 53.2694Z" fill="#EAEEF9"/>
<path d="M78.1394 20.1343C80.2025 19.462 81.3313 17.2402 80.6608 15.1718C79.9902 13.1033 77.7742 11.9715 75.7111 12.6438C73.648 13.3161 72.5192 15.5379 73.1897 17.6064C73.8603 19.6748 76.0764 20.8066 78.1394 20.1343Z" fill="#EAEEF9"/>
<path d="M86.7138 7.2846C88.1166 6.82743 88.8843 5.31658 88.4283 3.91002C87.9723 2.50347 86.4654 1.73384 85.0625 2.19101C83.6597 2.64819 82.892 4.15904 83.348 5.56559C83.804 6.97215 85.3109 7.74177 86.7138 7.2846Z" fill="#EAEEF9"/>
<path d="M213.057 26.4326C214.081 25.4935 214.153 23.8992 213.216 22.8716C212.28 21.844 210.69 21.7722 209.665 22.7113C208.64 23.6504 208.568 25.2447 209.505 26.2723C210.441 27.2999 212.032 27.3716 213.057 26.4326Z" fill="#EAEEF9"/>
<path d="M151.035 7.64231C151.74 6.99671 151.789 5.90065 151.145 5.19418C150.501 4.48772 149.408 4.43837 148.703 5.08397C147.998 5.72957 147.949 6.82563 148.593 7.5321C149.237 8.23856 150.33 8.28791 151.035 7.64231Z" fill="#EAEEF9"/>
<path d="M133.127 9.82177C132.656 9.34918 132.028 8.87659 131.399 8.404V8.24647C131.399 8.24647 131.556 8.08894 131.713 8.08894C132.185 7.77388 132.656 7.30129 132.813 6.8287C132.97 5.88351 132.185 5.56845 131.713 5.25339C131.713 5.25339 131.556 5.25339 131.556 5.09586L131.713 4.93833C132.185 4.62327 132.656 3.99315 132.656 3.36303C132.656 3.04797 132.342 2.73291 132.028 2.73291C131.713 2.73291 131.399 3.04797 131.399 3.36303C131.399 3.52056 131.085 3.83562 130.928 3.99315C130.613 4.30821 130.142 4.7808 130.142 5.41092C130.299 5.88351 130.613 6.19858 131.085 6.35611C131.242 6.35611 131.399 6.51363 131.399 6.51363C131.399 6.67116 131.085 6.8287 130.928 6.98623C130.613 7.14376 130.456 7.45882 130.142 7.61635C130.142 7.61635 129.985 7.61635 129.985 7.45882C129.671 7.30129 129.357 7.14376 129.042 6.98623C128.885 6.98623 128.728 6.8287 128.571 6.8287C127.471 6.51364 126.685 6.67116 126.057 7.30129C125.9 7.45882 125.743 7.61635 125.743 7.93141L121.343 20.5338C121.186 21.0064 121.343 21.479 121.815 21.6365C121.972 21.6365 122.286 21.6365 122.443 21.6365L134.541 17.0682H134.699C134.856 16.9106 135.013 16.9106 135.17 16.7531C135.641 16.2805 135.798 15.6504 135.798 15.0203C135.641 13.76 135.327 12.6573 134.541 11.7121C134.227 11.082 133.756 10.4519 133.127 9.82177ZM134.384 15.9654C133.913 16.438 131.713 15.9654 129.356 13.6025C127.157 11.2395 126.685 9.03412 127.157 8.56153C127.471 8.24647 128.414 8.404 129.671 9.03412L129.356 9.50671C129.199 9.82177 129.199 10.1368 129.514 10.4519C129.671 10.4519 129.671 10.6094 129.828 10.6094C129.985 10.6094 130.299 10.4519 130.299 10.2944L130.613 9.82177C131.085 10.1368 131.556 10.6094 132.028 11.082C134.384 13.1299 134.856 15.4929 134.384 15.9654Z" fill="url(#paint1_linear_16895_1825)"/>
<path d="M141.612 11.2392C141.455 11.3967 140.983 11.0817 140.669 10.9242C140.198 10.6091 139.412 10.294 138.941 10.7666C138.469 11.2392 138.627 11.7118 138.627 12.3419C138.627 12.4995 138.627 12.657 138.627 12.8145C138.312 12.657 138.155 12.4995 137.841 12.3419C137.37 12.0269 136.584 11.5543 135.955 12.1844C135.798 12.4995 135.798 12.8145 136.113 13.1296C136.27 13.2871 136.584 13.2871 136.741 13.1296C136.898 13.1296 137.055 13.2871 137.212 13.4446C137.684 13.7597 138.155 14.0748 138.784 14.0748C138.941 14.0748 138.941 14.0748 139.098 14.0748C140.041 13.7597 139.883 12.657 139.883 12.1844C139.883 12.1844 139.883 12.0269 139.883 11.8693C140.041 11.8693 140.041 12.0269 140.198 12.0269C140.826 12.3419 141.612 12.657 142.24 12.3419C142.555 12.1844 142.712 11.8693 142.554 11.5543C142.397 11.2392 141.926 11.0817 141.612 11.2392Z" fill="url(#paint2_linear_16895_1825)"/>
<path d="M134.541 9.03428C134.699 9.03428 134.856 8.87675 135.013 8.87675C135.17 8.87675 135.327 8.87675 135.327 8.87675C135.955 9.03428 136.584 9.03428 137.055 8.71922C137.684 8.24663 137.841 7.61651 137.684 6.82886C137.684 6.67133 137.684 6.35627 137.684 6.35627C137.841 6.35627 137.998 6.35627 138.155 6.35627C138.784 6.5138 139.569 6.35627 140.041 5.88368C140.355 5.72615 140.355 5.25355 140.198 4.93849C140.041 4.62343 139.569 4.62343 139.255 4.78096C138.941 4.9385 138.469 5.09602 138.155 4.93849C137.527 4.78096 137.055 4.93849 136.584 5.41109C136.27 5.88368 136.27 6.35627 136.27 6.82886C136.27 7.30145 136.27 7.45898 136.113 7.45898C135.955 7.61651 135.641 7.45898 135.327 7.45898C134.856 7.30145 134.227 7.14392 133.756 7.77404C133.599 8.0891 133.599 8.40416 133.913 8.56169C134.227 9.03428 134.384 9.03428 134.541 9.03428Z" fill="url(#paint3_linear_16895_1825)"/>
<path d="M135.798 3.36295C135.798 3.52048 135.798 3.52048 135.955 3.67801H136.113L136.898 3.36295C137.055 3.20542 137.212 3.20542 137.37 3.36295L138.155 3.67801C138.312 3.67801 138.312 3.67801 138.469 3.52048V3.36295L138.155 2.5753C137.998 2.41777 137.998 2.26024 138.155 2.10271L138.469 1.31506C138.469 1.15753 138.469 1.15753 138.312 1H138.155L137.37 1.31506C137.212 1.47259 137.055 1.47259 136.898 1.31506L136.113 1C135.955 1 135.955 1 135.798 1.15753V1.31506L136.113 2.10271C136.27 2.26024 136.27 2.41777 136.113 2.5753L135.798 3.36295Z" fill="url(#paint4_linear_16895_1825)"/>
<path d="M145.383 8.56139C145.383 8.40386 145.383 8.24633 145.383 8.08879L145.697 7.30114C145.697 7.14361 145.697 7.14361 145.54 6.98608H145.383L144.597 7.30114C144.44 7.30114 144.283 7.30114 144.126 7.30114L143.34 6.98608C143.183 6.98608 143.183 6.98608 143.026 7.14361V7.30114L143.34 8.08879C143.34 8.24633 143.34 8.40386 143.34 8.56139L143.026 9.34904C143.026 9.50657 143.026 9.50657 143.183 9.6641H143.34L144.126 9.34904C144.283 9.34904 144.44 9.34904 144.597 9.34904L145.383 9.6641C145.54 9.6641 145.54 9.6641 145.697 9.50657V9.34904L145.383 8.56139Z" fill="url(#paint5_linear_16895_1825)"/>
<path d="M126.371 5.5684L127 5.25334C127.157 5.25334 127.314 5.25334 127.471 5.25334L128.1 5.5684H128.257V5.41087L127.943 4.78075C127.943 4.62322 127.943 4.46569 127.943 4.30816L128.257 3.67804V3.52051H128.1L127.471 3.83557C127.314 3.83557 127.157 3.83557 127 3.83557L126.371 3.52051H126.214V3.67804L126.528 4.30816C126.528 4.46569 126.528 4.62322 126.528 4.78075L126.214 5.41087C126.057 5.5684 126.057 5.5684 126.371 5.5684C126.214 5.5684 126.214 5.5684 126.371 5.5684Z" fill="url(#paint6_linear_16895_1825)"/>
<path d="M166.947 156.137H25.0688L50.9935 36.5718H193.029L166.947 156.137Z" fill="white"/>
<path d="M166.947 156.137H25.0688L50.9935 36.5718H193.029L166.947 156.137Z" fill="#D5DAE8"/>
<path d="M85.0883 156.137H55.707C50.3649 156.137 45.9656 151.569 46.2798 146.213L50.9934 36.5718H58.0638L85.0883 156.137Z" fill="url(#paint7_linear_16895_1825)"/>
<path d="M224.139 156.137H82.2601L58.2208 64.2971L58.0637 63.667L50.9933 36.5718H193.029L199.157 60.0438L200.099 63.667L200.257 64.2971L224.139 156.137Z" fill="white"/>
<path d="M200.099 63.667H58.0637L50.9933 36.5718H193.029L199.157 60.0438L200.099 63.667Z" fill="#F3F5FA"/>
<path opacity="0.3" d="M88.3878 55.9481C91.1646 55.9481 93.4156 53.6912 93.4156 50.9072C93.4156 48.1231 91.1646 45.8662 88.3878 45.8662C85.611 45.8662 83.36 48.1231 83.36 50.9072C83.36 53.6912 85.611 55.9481 88.3878 55.9481Z" fill="#172D45"/>
<path opacity="0.3" d="M171.347 55.9481C174.124 55.9481 176.375 53.6912 176.375 50.9072C176.375 48.1231 174.124 45.8662 171.347 45.8662C168.57 45.8662 166.319 48.1231 166.319 50.9072C166.319 53.6912 168.57 55.9481 171.347 55.9481Z" fill="#172D45"/>
<path d="M87.1309 52.955C86.1882 52.955 85.4026 52.1674 85.4026 51.2222C85.4026 50.277 86.1882 49.4894 87.1309 49.4894C90.5875 49.4894 94.2012 44.6059 94.2012 37.202C94.2012 37.0445 94.2012 36.7294 94.2012 36.5719C94.0441 29.3255 90.4304 24.9146 87.1309 24.9146C83.9885 24.9146 80.5319 29.168 80.0605 35.7842H76.4468C76.9181 27.5927 81.4746 21.449 86.9738 21.449C92.7872 21.449 97.3436 28.2228 97.6579 36.8869C97.6579 37.0445 97.6579 37.202 97.6579 37.3595C97.815 46.0237 93.1014 52.955 87.1309 52.955Z" fill="#1C3754"/>
<path d="M169.618 52.955C168.676 52.955 167.89 52.1674 167.89 51.2222C167.89 50.277 168.676 49.4894 169.618 49.4894C173.075 49.4894 176.689 44.6059 176.689 37.202C176.689 37.0445 176.689 36.7294 176.689 36.5719C176.532 29.3255 172.918 24.9146 169.618 24.9146C166.476 24.9146 163.019 29.168 162.548 35.7842H158.934C159.406 27.5927 163.962 21.449 169.461 21.449C175.275 21.449 179.831 28.2228 180.145 36.8869C180.145 37.0445 180.145 37.202 180.145 37.3595C180.302 46.0237 175.589 52.955 169.618 52.955Z" fill="#1C3754"/>
<path d="M7 155.98H235.608" stroke="#EAEEF9" stroke-width="3.93023" stroke-miterlimit="10" stroke-linecap="round" stroke-linejoin="round"/>
<path d="M172.132 99.1113C171.19 99.1113 170.561 98.3236 170.561 97.536C170.561 96.5908 171.19 95.9607 172.132 95.9607H177.003C177.946 95.9607 178.574 96.7483 178.574 97.536C178.574 98.4812 177.789 99.1113 177.003 99.1113H172.132Z" fill="#D5DAE8"/>
<path d="M105.199 143.535C104.571 143.535 103.942 143.062 103.628 142.432L101.114 133.138H88.7019C87.7592 133.138 87.1307 132.35 87.1307 131.563C87.1307 130.617 87.9163 129.987 88.7019 129.987H100.172L96.2436 116.125H84.3026C83.3599 116.125 82.7314 115.337 82.7314 114.549C82.7314 113.604 83.3599 112.974 84.3026 112.974H95.3009L91.3729 99.1114H80.0604C79.1176 99.1114 78.4892 98.3237 78.4892 97.5361C78.4892 96.5909 79.1176 95.9608 80.0604 95.9608H90.5873L86.6594 82.0981H75.8181C74.8754 82.0981 74.2469 81.3104 74.2469 80.5228C74.2469 79.5776 74.8754 78.9475 75.8181 78.9475H85.7166L84.1455 73.2764C83.9883 72.4888 84.4597 71.5436 85.2453 71.386C85.4024 71.386 85.5595 71.386 85.7166 71.386C86.3451 71.386 86.9736 71.8586 87.2878 72.4888L89.1733 78.9475H101.743C102.686 78.9475 103.314 79.5776 103.314 80.5228C103.314 81.468 102.686 82.0981 101.743 82.0981H90.116L94.044 95.9608H113.841L107.556 73.2764C107.399 72.4888 107.87 71.5436 108.656 71.386C108.813 71.386 108.97 71.386 109.127 71.386C109.756 71.386 110.384 71.8586 110.699 72.4888L112.584 78.9475H119.34C120.283 78.9475 120.911 79.5776 120.911 80.5228C120.911 81.468 120.126 82.0981 119.34 82.0981H113.527L117.455 95.9608H130.81C131.753 95.9608 132.381 96.7484 132.381 97.5361C132.381 98.4812 131.753 99.1114 130.81 99.1114H118.397L122.325 112.974H142.28L133.638 82.0981H129.396C128.453 82.0981 127.825 81.3104 127.825 80.5228C127.825 79.5776 128.61 78.9475 129.396 78.9475H132.695L131.124 73.2764C130.967 72.8038 131.124 72.4888 131.281 72.0162C131.438 71.7011 131.753 71.386 132.224 71.2285C132.381 71.2285 132.538 71.2285 132.695 71.2285C133.324 71.2285 133.952 71.7011 134.266 72.3312L136.152 78.79H139.451C140.394 78.79 141.023 79.4201 141.023 80.3653C141.023 81.3104 140.394 81.9406 139.451 81.9406H137.095L141.023 95.8032H160.977L157.049 81.9406H146.836C145.893 81.9406 145.265 81.1529 145.265 80.3653C145.265 79.4201 146.05 78.79 146.836 78.79H155.635L154.063 73.1189C153.906 72.3312 154.378 71.386 155.163 71.2285C155.32 71.2285 155.478 71.2285 155.635 71.2285C156.263 71.2285 156.892 71.7011 157.206 72.3312L159.091 78.79H179.045L177.474 73.1189C177.317 72.3312 177.788 71.386 178.574 71.2285C178.731 71.2285 178.888 71.2285 179.045 71.2285C179.674 71.2285 180.302 71.7011 180.617 72.3312L182.502 78.79H194.757C195.7 78.79 196.329 79.4201 196.329 80.3653C196.329 81.3104 195.7 81.9406 194.757 81.9406H182.973L186.901 95.8032H198.685C199.628 95.8032 200.257 96.5909 200.257 97.3785C200.257 98.3237 199.628 98.9538 198.685 98.9538H187.844L191.772 112.816H203.085C204.027 112.816 204.656 113.604 204.656 114.392C204.656 115.337 204.027 115.967 203.085 115.967H192.715L196.643 129.83H207.327C208.27 129.83 208.898 130.617 208.898 131.405C208.898 132.35 208.113 132.98 207.327 132.98H197.428L199.785 141.329C199.942 142.117 199.471 143.062 198.685 143.22C198.528 143.22 198.371 143.22 198.214 143.22C197.586 143.22 196.957 142.747 196.643 142.117L194.129 132.98H174.175L176.532 141.172C176.689 141.645 176.532 141.96 176.374 142.432C176.217 142.747 175.903 143.062 175.432 143.22C175.275 143.22 175.117 143.22 174.96 143.22C174.332 143.22 173.703 142.747 173.389 142.117L170.875 133.138H150.921L153.278 141.329C153.435 142.117 152.964 143.062 152.178 143.22C152.021 143.22 151.864 143.22 151.707 143.22C151.078 143.22 150.45 142.747 150.136 142.117L147.622 133.138H127.667L130.024 141.329C130.181 142.117 129.71 143.062 128.924 143.22C128.767 143.22 128.61 143.22 128.453 143.22C127.825 143.22 127.196 142.747 126.882 142.117L124.368 133.138H104.414L106.771 141.487C106.928 141.96 106.771 142.275 106.614 142.747C106.456 143.062 106.142 143.377 105.671 143.535C105.514 143.535 105.357 143.535 105.199 143.535ZM149.978 129.987H193.186L189.258 116.125H169.304L170.718 121.166C170.875 121.638 170.718 121.953 170.561 122.426C170.404 122.741 170.09 123.056 169.618 123.213C169.461 123.213 169.304 123.213 169.147 123.213C168.518 123.213 167.89 122.741 167.576 122.111L166.005 116.282H160.034C159.091 116.282 158.463 115.495 158.463 114.707C158.463 113.762 159.091 113.132 160.034 113.132H165.062L161.134 99.2689H141.337L145.265 113.132H150.136C151.078 113.132 151.707 113.919 151.707 114.707C151.707 115.652 151.078 116.282 150.136 116.282H146.05L149.978 129.987ZM126.725 129.987H146.679L142.751 116.125H122.797L126.725 129.987ZM103.471 129.987H123.425L119.497 116.125H113.684C112.741 116.125 112.113 115.337 112.113 114.549C112.113 113.604 112.898 112.974 113.684 112.974H118.712L114.784 99.1114H94.8296L98.7575 112.974H103.942C104.885 112.974 105.514 113.762 105.514 114.549C105.514 115.494 104.728 116.125 103.942 116.125H99.7003L103.471 129.987ZM168.518 112.974H188.473L179.831 82.0981H159.72L168.518 112.974Z" fill="#D5DAE8"/>
<path d="M116.984 89.9747C114.941 93.1253 113.998 96.906 114.312 100.687C114.47 104.31 115.884 107.933 118.083 110.926C120.283 113.762 123.425 116.125 126.882 117.07C130.339 118.173 134.11 118.015 137.566 117.07C140.866 115.967 143.851 113.762 145.422 110.769C146.993 107.776 147.15 104.152 145.579 101.317C144.165 98.3238 141.18 96.1184 137.88 94.8581C134.581 93.4404 130.81 92.8103 127.039 92.6527C125.625 92.6527 124.682 91.3925 124.682 90.1322C124.682 88.7145 125.939 87.7693 127.196 87.7693C131.438 88.0843 135.681 88.7145 139.609 90.4473C143.537 92.1801 147.465 95.0157 149.507 99.4265C150.45 101.474 151.078 103.995 150.921 106.358C150.764 108.721 150.136 111.084 149.036 112.974C146.836 117.07 142.908 119.905 138.666 121.166C134.424 122.426 129.867 122.268 125.782 120.851C121.697 119.433 118.083 116.597 115.569 113.132C113.056 109.666 111.641 105.413 111.484 101.159C111.327 96.906 112.741 92.4952 115.098 89.0295C115.412 88.5569 116.198 88.3994 116.826 88.7145C117.141 88.7145 117.298 89.5021 116.984 89.9747Z" fill="url(#paint8_linear_16895_1825)"/>
<g filter="url(#filter0_d_16895_1825)">
<path d="M242.387 140.873C242.23 141.345 242.23 141.975 242.072 142.448C241.601 144.181 241.13 145.756 240.344 147.174C236.73 155.208 229.817 161.194 221.49 163.557C221.018 163.714 220.547 163.872 220.233 163.872C215.99 164.975 211.434 165.132 206.878 164.187C190.694 160.879 180.168 144.811 183.624 128.586C186.924 112.36 202.95 101.805 219.133 105.271C224.946 106.531 230.131 109.367 234.216 113.463C241.287 120.552 244.429 130.948 242.387 140.873Z" fill="url(#paint9_linear_16895_1825)"/>
</g>
<path d="M240.322 147.158C236.708 155.192 229.795 161.178 221.468 163.541L207.484 149.521L206.384 143.062L217.225 141.802L218.325 125.261L240.322 147.158Z" fill="url(#paint10_linear_16895_1825)"/>
<path d="M200.821 142.048C200.821 140.315 202.706 141.103 203.806 137.322C205.063 132.754 203.178 128.343 208.048 124.562C208.362 124.247 208.834 124.089 209.305 123.774C209.462 123.617 209.619 123.459 209.619 123.302C209.462 121.569 210.719 119.994 212.448 119.836C214.176 119.679 215.747 120.939 215.904 122.672C215.904 122.829 215.904 122.987 215.904 122.987C215.904 123.302 216.061 123.459 216.218 123.617C219.675 125.35 221.089 128.343 221.246 132.123C221.875 140.63 223.76 139.37 224.86 140.788C225.803 142.205 224.389 143.781 222.503 143.781C203.649 144.411 200.821 144.568 200.821 142.048Z" fill="url(#paint11_linear_16895_1825)"/>
<path d="M211.662 149.451C210.091 148.821 209.305 147.089 209.934 145.671C209.934 145.513 210.091 145.356 210.405 145.356C212.133 145.356 213.704 145.356 215.433 145.356C215.59 145.356 215.904 145.513 215.904 145.671C216.375 146.773 215.904 148.191 215.119 148.979C214.019 149.609 212.762 149.924 211.662 149.451Z" fill="url(#paint12_linear_16895_1825)"/>
</g>
<defs>
<filter id="filter0_d_16895_1825" x="172.967" y="96.6116" width="80.0334" height="80.196" filterUnits="userSpaceOnUse" color-interpolation-filters="sRGB">
<feFlood flood-opacity="0" result="BackgroundImageFix"/>
<feColorMatrix in="SourceAlpha" type="matrix" values="0 0 0 0 0 0 0 0 0 0 0 0 0 0 0 0 0 0 127 0" result="hardAlpha"/>
<feOffset dy="2"/>
<feGaussianBlur stdDeviation="5"/>
<feColorMatrix type="matrix" values="0 0 0 0 0.1125 0 0 0 0 0.295916 0 0 0 0 1 0 0 0 0.22 0"/>
<feBlend mode="normal" in2="BackgroundImageFix" result="effect1_dropShadow_16895_1825"/>
<feBlend mode="normal" in="SourceGraphic" in2="effect1_dropShadow_16895_1825" result="shape"/>
</filter>
<linearGradient id="paint0_linear_16895_1825" x1="8.47097" y1="93.5723" x2="26.7465" y2="93.5723" gradientUnits="userSpaceOnUse">
<stop stop-color="#83A6FF"/>
<stop offset="1" stop-color="#5A78FF"/>
</linearGradient>
<linearGradient id="paint1_linear_16895_1825" x1="121.338" y1="12.3251" x2="135.974" y2="12.3251" gradientUnits="userSpaceOnUse">
<stop stop-color="#FF66A9"/>
<stop offset="1" stop-color="#F53689"/>
</linearGradient>
<linearGradient id="paint2_linear_16895_1825" x1="135.967" y1="12.2351" x2="142.535" y2="12.2351" gradientUnits="userSpaceOnUse">
<stop stop-color="#FF66A9"/>
<stop offset="1" stop-color="#F53689"/>
</linearGradient>
<linearGradient id="paint3_linear_16895_1825" x1="133.924" y1="6.95504" x2="140.486" y2="6.95504" gradientUnits="userSpaceOnUse">
<stop stop-color="#FF66A9"/>
<stop offset="1" stop-color="#F53689"/>
</linearGradient>
<linearGradient id="paint4_linear_16895_1825" x1="135.818" y1="2.1903" x2="138.567" y2="2.1903" gradientUnits="userSpaceOnUse">
<stop stop-color="#FF66A9"/>
<stop offset="1" stop-color="#F53689"/>
</linearGradient>
<linearGradient id="paint5_linear_16895_1825" x1="143.059" y1="8.36542" x2="145.742" y2="8.36542" gradientUnits="userSpaceOnUse">
<stop stop-color="#FF66A9"/>
<stop offset="1" stop-color="#F53689"/>
</linearGradient>
<linearGradient id="paint6_linear_16895_1825" x1="126.107" y1="4.59959" x2="128.159" y2="4.59959" gradientUnits="userSpaceOnUse">
<stop stop-color="#FF66A9"/>
<stop offset="1" stop-color="#F53689"/>
</linearGradient>
<linearGradient id="paint7_linear_16895_1825" x1="46.2511" y1="96.3365" x2="85.1463" y2="96.3365" gradientUnits="userSpaceOnUse">
<stop stop-color="#D5DAE8"/>
<stop offset="1" stop-color="#9AA3BA"/>
</linearGradient>
<linearGradient id="paint8_linear_16895_1825" x1="127.798" y1="121.78" x2="133.682" y2="88.3311" gradientUnits="userSpaceOnUse">
<stop stop-color="#FF66A9"/>
<stop offset="1" stop-color="#F53689"/>
</linearGradient>
<linearGradient id="paint9_linear_16895_1825" x1="182.881" y1="134.756" x2="242.984" y2="134.756" gradientUnits="userSpaceOnUse">
<stop stop-color="#83A6FF"/>
<stop offset="1" stop-color="#5A78FF"/>
</linearGradient>
<linearGradient id="paint10_linear_16895_1825" x1="214.758" y1="139.206" x2="227.606" y2="152.021" gradientUnits="userSpaceOnUse">
<stop stop-color="#4F6AFF"/>
<stop offset="1" stop-color="#657EFF" stop-opacity="0"/>
</linearGradient>
<linearGradient id="paint11_linear_16895_1825" x1="222.441" y1="146.455" x2="205.362" y2="129.421" gradientUnits="userSpaceOnUse">
<stop offset="0.0113208" stop-color="#C2D1FF"/>
<stop offset="1" stop-color="white"/>
</linearGradient>
<linearGradient id="paint12_linear_16895_1825" x1="217.51" y1="151.398" x2="200.431" y2="134.364" gradientUnits="userSpaceOnUse">
<stop offset="0.0113208" stop-color="#C2D1FF"/>
<stop offset="1" stop-color="white"/>
</linearGradient>
<clipPath id="clip0_16895_1825">
<rect width="250" height="172" fill="white"/>
</clipPath>
</defs>
</svg>
