<svg width="324" height="162" viewBox="0 0 324 162" fill="none" xmlns="http://www.w3.org/2000/svg">
    <g clip-path="url(#clip0_16536_7550)">
        <path d="M215.845 27.9684C218.904 27.9684 221.384 25.5003 221.384 22.4556C221.384 19.411 218.904 16.9429 215.845 16.9429C212.786 16.9429 210.307 19.411 210.307 22.4556C210.307 25.5003 212.786 27.9684 215.845 27.9684Z" fill="#EAEEF9"/>
        <path d="M113.671 31.8845C115.684 31.8845 117.315 30.2607 117.315 28.2577C117.315 26.2546 115.684 24.6309 113.671 24.6309C111.659 24.6309 110.027 26.2546 110.027 28.2577C110.027 30.2607 111.659 31.8845 113.671 31.8845Z" fill="#EAEEF9"/>
        <path d="M103.615 38.5575C104.983 38.5575 106.092 37.4533 106.092 36.0912C106.092 34.7292 104.983 33.625 103.615 33.625C102.246 33.625 101.137 34.7292 101.137 36.0912C101.137 37.4533 102.246 38.5575 103.615 38.5575Z" fill="#EAEEF9"/>
        <path d="M229.547 31.1599C230.835 31.1599 231.879 30.1207 231.879 28.8387C231.879 27.5568 230.835 26.5176 229.547 26.5176C228.259 26.5176 227.215 27.5568 227.215 28.8387C227.215 30.1207 228.259 31.1599 229.547 31.1599Z" fill="#EAEEF9"/>
        <path d="M162.354 161C202.361 161 234.793 128.719 234.793 88.8982C234.793 49.0777 202.361 16.7969 162.354 16.7969C122.346 16.7969 89.9141 49.0777 89.9141 88.8982C89.9141 128.719 122.346 161 162.354 161Z" fill="#EAEEF9"/>
        <g filter="url(#filter0_d_16536_7550)">
            <path d="M149.672 54.3719L147.778 49.1492C147.34 47.8436 146.029 46.9731 144.717 46.9731H111.485C108.716 46.9731 106.529 49.1492 106.529 51.9056V125.893V113.707H219.489V61.4805C219.489 58.7241 217.302 56.548 214.533 56.548H152.733C151.421 56.548 150.11 55.6775 149.672 54.3719Z" fill="#CED7E2"/>
        </g>
        <g filter="url(#filter1_d_16536_7550)">
            <path d="M135.535 42.7656L158.127 81.9354C158.855 83.241 158.418 84.9819 157.106 85.7073L118.627 107.178C117.316 107.903 115.567 107.468 114.838 106.163L86.4158 55.387C85.5413 54.0813 86.1243 52.3405 87.4361 51.6151L115.421 36.0923L135.535 42.7656Z" fill="white"/>
        </g>
        <path d="M115.129 46.9733L96.6185 57.2735C96.1812 57.5636 95.5982 57.4185 95.4524 56.9833C95.1609 56.5481 95.3067 55.9678 95.7439 55.8227L114.255 45.5225C114.692 45.2324 115.275 45.3775 115.421 45.8127C115.712 46.2479 115.566 46.8282 115.129 46.9733Z" fill="#CED7E2"/>
        <path d="M106.239 57.8531L99.097 61.7701C98.6597 62.0603 98.0767 61.9152 97.931 61.48C97.6394 61.0448 97.7852 60.4645 98.2225 60.3194L105.219 56.4024C105.656 56.1123 106.239 56.2573 106.385 56.6926C106.822 56.9827 106.676 57.563 106.239 57.8531Z" fill="#E6EDF5"/>
        <path d="M115.42 36.0923L121.542 46.9728C122.416 48.4235 124.457 49.0038 125.914 48.1334L135.68 42.7656" fill="#E6EDF5"/>
        <path d="M137.721 66.7025C136.555 64.2363 134.952 61.4799 132.911 59.4489C131.891 58.4334 130.434 57.708 128.83 57.708C127.227 57.708 125.77 58.2883 124.166 59.0137C121.397 60.1742 118.773 61.4799 116.296 63.0757C113.963 64.3814 111.34 65.8321 109.591 68.0082C107.259 71.0547 108.571 74.2463 110.174 77.4379C111.34 79.9042 112.943 82.6606 114.984 84.6916C116.587 86.2874 118.773 86.8677 120.96 86.1423C123.729 85.417 128.976 82.5155 131.454 81.0648C133.64 79.7591 136.118 78.4535 137.721 76.5675C140.782 73.3759 139.616 70.1843 137.721 66.7025ZM118.919 70.0392C118.482 69.1688 118.773 68.5885 119.794 68.7336C122.563 68.8786 125.332 68.8786 127.956 69.0237C128.976 69.0237 129.268 69.604 128.83 70.4744C127.519 72.7956 126.207 75.1168 124.749 77.583C124.166 78.4535 123.583 78.4535 123.146 77.7281C123 77.2929 119.356 70.7646 118.919 70.0392Z" fill="#CED7E2"/>
        <g filter="url(#filter2_d_16536_7550)">
            <path d="M237.854 67.7181L212.201 100.795C211.327 101.955 209.724 102.1 208.557 101.23L176.492 76.1323C175.326 75.2619 175.18 73.6661 176.054 72.5055L209.432 30.2892C210.307 29.1286 211.91 28.9836 213.076 29.854L236.396 48.1332L237.854 67.7181Z" fill="white"/>
        </g>
        <path d="M195.295 80.1936L194.129 79.3232C193.837 79.0331 193.837 78.7429 194.129 78.4528C194.42 78.1626 194.712 78.1626 195.003 78.3077L196.169 79.1781C196.461 79.3232 196.461 79.7584 196.315 80.0486C196.024 80.3387 195.586 80.3387 195.295 80.1936Z" fill="#E3EAF2"/>
        <path d="M192.088 77.583L185.238 72.2153C184.946 72.0702 184.946 71.635 185.092 71.3449C185.238 71.0547 185.675 71.0547 185.966 71.1998L192.817 76.5675C193.108 76.7126 193.108 77.1478 192.963 77.4379C192.817 77.7281 192.38 77.8732 192.088 77.583Z" fill="#E3EAF2"/>
        <path d="M226.923 51.7593L211.473 39.7182C211.181 39.4281 211.035 38.9928 211.327 38.5576C211.618 38.2675 212.056 38.1224 212.493 38.4125L227.943 50.4536C228.234 50.7438 228.38 51.179 228.089 51.6142C227.797 52.0494 227.36 52.0494 226.923 51.7593Z" fill="#CED7E2"/>
        <path d="M214.533 47.9876L208.703 43.3453C208.412 43.0551 208.266 42.6199 208.557 42.1847C208.849 41.7495 209.286 41.7495 209.723 42.0396L215.554 46.682C215.845 46.9721 215.991 47.4073 215.699 47.8425C215.408 48.2778 214.825 48.2778 214.533 47.9876Z" fill="#CED7E2"/>
        <path d="M236.396 48.1333L229.254 57.1278C228.234 58.4335 228.525 60.3194 229.837 61.335L237.999 67.7182" fill="#E6EDF5"/>
        <path d="M227.943 69.7489L219.926 63.5107L211.618 56.9825L203.893 50.8894C203.019 50.164 201.707 50.3091 201.124 51.3246L190.047 65.2516C189.318 66.1221 189.464 67.4277 190.338 68.008L214.533 87.0126C215.408 87.7379 216.72 87.5929 217.303 86.5774L228.38 72.6503C228.963 71.6348 228.817 70.4743 227.943 69.7489ZM202.29 69.6038L204.768 66.4122L212.201 72.2151L209.723 75.4067L202.29 69.6038ZM208.995 76.2772L206.663 79.1786L199.229 73.3757L201.561 70.4743L208.995 76.2772ZM215.408 68.1531L212.93 71.3447L205.497 65.5418L207.974 62.3502L215.408 68.1531ZM208.703 61.3347L211.327 58.143L218.76 63.946L216.282 67.1376L208.703 61.3347ZM222.113 78.4533L213.95 72.0701L216.428 68.8785L224.59 75.2617L222.113 78.4533ZM204.622 64.6713L196.751 58.4332L199.229 55.2416L207.1 61.4797L204.622 64.6713ZM195.877 59.4487L203.748 65.6868L201.27 68.8785L193.399 62.6403L195.877 59.4487ZM213.222 72.9405L221.384 79.3237L218.906 82.5153L210.744 76.1321L213.222 72.9405ZM227.36 71.7799L225.319 74.3912L217.157 68.008L219.635 64.8164L227.214 70.7644C227.651 70.9095 227.651 71.4898 227.36 71.7799ZM203.019 51.6148L210.306 57.4177L207.829 60.6093L199.958 54.3711L201.999 51.7598C202.144 51.4697 202.727 51.4697 203.019 51.6148ZM190.921 65.8319L192.67 63.6558L200.541 69.894L198.209 72.7954L190.921 66.9925C190.63 66.7024 190.63 66.1221 190.921 65.8319ZM215.262 85.852L207.683 79.904L210.015 77.0025L218.177 83.3858L216.282 85.7069C215.991 86.1421 215.554 86.1421 215.262 85.852Z" fill="#E3EAF2"/>
        <g filter="url(#filter3_d_16536_7550)">
            <path d="M195.732 35.2222L191.505 81.7906C191.359 83.3864 189.902 84.547 188.299 84.4019L142.823 79.7596C141.22 79.6145 140.054 78.1638 140.2 76.568L146.321 16.7979C146.467 15.2021 147.925 14.0415 149.528 14.1866L182.468 17.5232L195.732 35.2222Z" fill="white"/>
        </g>
        <path d="M182.614 17.6685L181.302 30.4349C181.156 32.1758 182.468 33.9166 184.363 34.0617L195.877 35.2223" fill="#E6EDF5"/>
        <path d="M185.383 69.3143L148.07 65.1072C147.195 64.9621 146.467 64.2367 146.612 63.3663L149.382 39.5743C149.527 38.7039 150.256 37.9785 151.131 38.1236L188.444 42.1856C189.318 42.3307 190.047 43.056 189.901 43.9265L187.132 67.7185C186.986 68.734 186.257 69.3143 185.383 69.3143Z" fill="#E6EDF5"/>
        <path d="M168.621 63.6563L151.422 61.6253L161.042 52.9209L168.621 63.6563Z" fill="#CED7E2"/>
        <path d="M182.904 65.2518L157.98 62.3503L172.119 49.874L182.904 65.2518Z" fill="white"/>
        <path d="M159.731 49.1489C161.583 49.1489 163.084 47.6551 163.084 45.8123C163.084 43.9695 161.583 42.4756 159.731 42.4756C157.88 42.4756 156.379 43.9695 156.379 45.8123C156.379 47.6551 157.88 49.1489 159.731 49.1489Z" fill="url(#paint0_linear_16536_7550)"/>
        <path d="M174.16 25.647L151.568 23.0357C151.276 23.0357 150.985 22.7455 151.131 22.4554V22.1652C151.131 21.8751 151.422 21.5849 151.714 21.73L174.305 24.3413C174.597 24.3413 174.888 24.6315 174.743 24.9216V25.2117C174.743 25.5019 174.451 25.792 174.16 25.647Z" fill="#CED7E2"/>
        <path d="M174.014 29.8545L151.13 27.2432C150.839 27.2432 150.547 26.953 150.693 26.6629V26.3727C150.693 26.0826 150.985 25.7924 151.276 25.9375L174.159 28.5488C174.451 28.5488 174.742 28.839 174.597 29.1291V29.4193C174.597 29.7094 174.305 29.8545 174.014 29.8545Z" fill="#E6EDF5"/>
        <path d="M174.742 73.8114L146.32 70.6198C145.883 70.6198 145.591 70.1846 145.737 69.7494C145.737 69.3142 146.174 69.024 146.612 69.1691L174.888 72.3607C175.325 72.3607 175.617 72.7959 175.471 73.2311C175.471 73.6664 175.179 73.9565 174.742 73.8114Z" fill="#E6EDF5"/>
        <path d="M170.661 33.9156L150.693 31.5944C150.256 31.5944 149.964 31.1592 150.11 30.724C150.11 30.2888 150.547 29.9986 150.985 30.1437L170.953 32.4649C171.39 32.4649 171.682 32.9001 171.536 33.3353C171.39 33.6254 171.099 33.9156 170.661 33.9156Z" fill="#E6EDF5"/>
        <path d="M185.237 79.3237L145.738 74.6813C145.301 74.6813 145.009 74.2461 145.155 73.8109C145.155 73.3757 145.592 73.0855 146.03 73.2306L185.529 77.7279C185.966 77.7279 186.258 78.1631 186.112 78.5983C186.112 79.0335 185.675 79.3237 185.237 79.3237Z" fill="#E6EDF5"/>
        <path d="M185.82 75.1172L178.096 74.2468C177.658 74.2468 177.367 73.8116 177.513 73.3763C177.513 72.9411 177.95 72.651 178.387 72.796L186.112 73.6665C186.549 73.6665 186.841 74.1017 186.695 74.5369C186.549 74.9721 186.258 75.2623 185.82 75.1172Z" fill="url(#paint1_linear_16536_7550)"/>
        <g filter="url(#filter4_d_16536_7550)">
            <path d="M221.788 82.3596L213.418 119.553C212.895 121.73 210.279 123.434 207.14 123.434H116.635C113.496 123.434 110.88 121.825 110.357 119.553L103.556 89.0791C103.033 86.8077 105.518 84.631 108.788 84.631H159.795C161.364 84.631 162.672 83.8739 163.195 82.8328L164.634 79.6151C165.157 78.574 166.465 77.8169 168.034 77.8169H216.687C219.826 77.9115 222.311 79.9936 221.788 82.3596Z" fill="white"/>
        </g>
        <g filter="url(#filter5_d_16536_7550)">
            <path d="M228.38 77.2931L219.052 134.307C218.469 137.644 215.554 140.255 212.056 140.255H111.194C107.696 140.255 104.781 137.789 104.198 134.307L96.6188 87.5933C96.0358 84.1115 98.8051 80.7748 102.449 80.7748H159.293C161.042 80.7748 162.5 79.6143 163.083 78.0185L164.686 73.086C165.269 71.4902 166.726 70.3296 168.475 70.3296H222.696C226.194 70.4747 228.963 73.6663 228.38 77.2931Z" fill="white"/>
        </g>
        <g filter="url(#filter6_d_16536_7550)">
            <path d="M203.602 140.399C203.602 144.607 201.853 148.378 198.938 150.99C196.314 153.311 192.962 154.762 189.172 154.762C189.172 154.762 188.443 154.762 169.495 154.762C168.767 154.762 168.184 154.762 167.455 154.762C166.289 154.762 165.123 154.762 163.957 154.762H141.365C131.745 155.052 124.166 147.363 124.166 138.223C124.166 129.084 131.745 121.395 141.365 121.685H141.511C142.531 118.784 143.843 116.172 145.446 113.996C145.446 113.996 145.446 113.996 145.446 113.851C148.361 109.934 152.297 107.178 156.523 105.582C156.669 105.437 156.961 105.437 157.106 105.292C162.937 103.406 169.35 103.551 175.034 105.582C183.051 108.628 189.755 115.592 191.067 126.037C198.209 127.053 203.602 133.146 203.602 140.399Z" fill="url(#paint2_linear_16536_7550)"/>
        </g>
        <path d="M189.318 154.762C197.288 154.762 203.748 148.331 203.748 140.399C203.748 132.467 197.288 126.037 189.318 126.037C181.349 126.037 174.889 132.467 174.889 140.399C174.889 148.331 181.349 154.762 189.318 154.762Z" fill="url(#paint3_linear_16536_7550)"/>
        <path d="M165.706 154.761C179.793 154.761 191.213 143.395 191.213 129.374C191.213 115.352 179.793 103.986 165.706 103.986C151.619 103.986 140.199 115.352 140.199 129.374C140.199 143.395 151.619 154.761 165.706 154.761Z" fill="url(#paint4_linear_16536_7550)"/>
        <path d="M199.014 150.944C196.391 153.266 193.038 154.716 189.249 154.716C189.249 154.716 188.52 154.716 169.572 154.716L169.426 154.571L157.474 142.675L157.766 138.323L150.77 130.634L158.64 125.411L166.657 120.479L175.839 123.961L189.249 139.484L199.014 150.944Z" fill="url(#paint5_linear_16536_7550)"/>
        <path d="M159.516 131.07C160.099 130.489 160.099 129.619 159.516 129.039C158.933 128.458 158.204 128.603 157.33 128.603C159.807 122.22 168.115 120.769 172.634 125.992C174.237 127.733 177.006 125.412 175.403 123.526C170.739 118.158 162.723 117.578 157.475 122.22C155.581 123.961 154.123 126.137 153.54 128.603C151.645 128.603 151.354 128.603 151.062 129.039C150.479 129.619 150.479 130.489 151.062 131.07C155.872 136.002 154.56 135.857 159.516 131.07Z" fill="url(#paint6_linear_16536_7550)"/>
        <path d="M181.38 134.261L178.173 131.069C177.59 130.489 176.716 130.489 176.133 131.069L172.926 134.261C172.343 134.841 172.343 135.712 172.926 136.292C173.509 136.872 174.238 136.727 175.112 136.727C172.635 143.256 164.035 144.561 159.663 139.194C159.08 138.468 157.768 138.323 157.039 138.903C154.27 141.225 160.829 146.302 166.659 146.302C172.489 146.302 177.445 142.385 179.048 136.872C180.943 136.872 181.234 136.872 181.526 136.437C181.817 135.712 181.963 134.841 181.38 134.261Z" fill="url(#paint7_linear_16536_7550)"/>
        <path d="M144.28 8.23792C143.697 8.52806 143.114 8.23792 142.823 7.65763L140.345 1.56456C140.053 0.984264 140.345 0.403972 140.928 0.113826C141.511 -0.17632 142.094 0.113826 142.385 0.694118L144.863 6.78719C145.155 7.51255 144.863 8.09284 144.28 8.23792Z" fill="url(#paint8_linear_16536_7550)"/>
        <path d="M139.763 14.0414C139.471 14.3316 139.18 14.4767 138.742 14.3316L132.475 13.171C131.892 13.0259 131.455 12.4456 131.601 11.8654C131.746 11.2851 132.329 10.8498 132.912 10.9949L139.18 12.1555C139.763 12.3006 140.2 12.8809 140.054 13.4612C139.908 13.7513 139.908 13.8964 139.763 14.0414Z" fill="url(#paint9_linear_16536_7550)"/>
        <path d="M152.588 7.51291C152.443 7.51291 152.297 7.36784 152.005 7.36784C151.568 6.93262 151.422 6.35233 151.86 5.77204L155.795 0.694478C156.232 0.259259 156.815 0.114186 157.398 0.549405C157.836 0.984624 157.981 1.56492 157.544 2.14521L153.609 7.22277C153.317 7.36784 152.88 7.51291 152.588 7.51291Z" fill="url(#paint10_linear_16536_7550)"/>
        <path d="M141.51 102.826H110.027C109.444 102.826 108.861 102.39 108.861 101.665C108.861 100.94 109.299 100.504 110.027 100.504H141.656C142.239 100.504 142.822 100.94 142.822 101.665C142.822 102.39 142.239 102.826 141.51 102.826Z" fill="#E6EDF5"/>
        <path d="M131.016 109.644H112.068C111.485 109.644 110.902 109.209 110.902 108.483C110.902 107.758 111.34 107.323 112.068 107.323H131.016C131.599 107.323 132.182 107.758 132.182 108.483C132.182 109.209 131.599 109.644 131.016 109.644Z" fill="#E6EDF5"/>
    </g>
    <defs>
        <filter id="filter0_d_16536_7550" x="76.9364" y="32.1767" width="172.145" height="138.106" filterUnits="userSpaceOnUse" color-interpolation-filters="sRGB">
            <feFlood flood-opacity="0" result="BackgroundImageFix"/>
            <feColorMatrix in="SourceAlpha" type="matrix" values="0 0 0 0 0 0 0 0 0 0 0 0 0 0 0 0 0 0 127 0" result="hardAlpha"/>
            <feOffset dy="14.7964"/>
            <feGaussianBlur stdDeviation="14.7964"/>
            <feColorMatrix type="matrix" values="0 0 0 0 0.397708 0 0 0 0 0.47749 0 0 0 0 0.575 0 0 0 0.18 0"/>
            <feBlend mode="normal" in2="BackgroundImageFix" result="effect1_dropShadow_16536_7550"/>
            <feBlend mode="normal" in="SourceGraphic" in2="effect1_dropShadow_16536_7550" result="shape"/>
        </filter>
        <filter id="filter1_d_16536_7550" x="56.4071" y="21.2958" width="131.664" height="130.621" filterUnits="userSpaceOnUse" color-interpolation-filters="sRGB">
            <feFlood flood-opacity="0" result="BackgroundImageFix"/>
            <feColorMatrix in="SourceAlpha" type="matrix" values="0 0 0 0 0 0 0 0 0 0 0 0 0 0 0 0 0 0 127 0" result="hardAlpha"/>
            <feOffset dy="14.7964"/>
            <feGaussianBlur stdDeviation="14.7964"/>
            <feColorMatrix type="matrix" values="0 0 0 0 0.397708 0 0 0 0 0.47749 0 0 0 0 0.575 0 0 0 0.18 0"/>
            <feBlend mode="normal" in2="BackgroundImageFix" result="effect1_dropShadow_16536_7550"/>
            <feBlend mode="normal" in="SourceGraphic" in2="effect1_dropShadow_16536_7550" result="shape"/>
        </filter>
        <filter id="filter2_d_16536_7550" x="145.899" y="14.498" width="121.547" height="131.681" filterUnits="userSpaceOnUse" color-interpolation-filters="sRGB">
            <feFlood flood-opacity="0" result="BackgroundImageFix"/>
            <feColorMatrix in="SourceAlpha" type="matrix" values="0 0 0 0 0 0 0 0 0 0 0 0 0 0 0 0 0 0 127 0" result="hardAlpha"/>
            <feOffset dy="14.7964"/>
            <feGaussianBlur stdDeviation="14.7964"/>
            <feColorMatrix type="matrix" values="0 0 0 0 0.397708 0 0 0 0 0.47749 0 0 0 0 0.575 0 0 0 0.18 0"/>
            <feBlend mode="normal" in2="BackgroundImageFix" result="effect1_dropShadow_16536_7550"/>
            <feBlend mode="normal" in="SourceGraphic" in2="effect1_dropShadow_16536_7550" result="shape"/>
        </filter>
        <filter id="filter3_d_16536_7550" x="110.595" y="-0.62213" width="114.731" height="129.426" filterUnits="userSpaceOnUse" color-interpolation-filters="sRGB">
            <feFlood flood-opacity="0" result="BackgroundImageFix"/>
            <feColorMatrix in="SourceAlpha" type="matrix" values="0 0 0 0 0 0 0 0 0 0 0 0 0 0 0 0 0 0 127 0" result="hardAlpha"/>
            <feOffset dy="14.7964"/>
            <feGaussianBlur stdDeviation="14.7964"/>
            <feColorMatrix type="matrix" values="0 0 0 0 0.397708 0 0 0 0 0.47749 0 0 0 0 0.575 0 0 0 0.18 0"/>
            <feBlend mode="normal" in2="BackgroundImageFix" result="effect1_dropShadow_16536_7550"/>
            <feBlend mode="normal" in="SourceGraphic" in2="effect1_dropShadow_16536_7550" result="shape"/>
        </filter>
        <filter id="filter4_d_16536_7550" x="73.8934" y="25.3568" width="177.557" height="104.802" filterUnits="userSpaceOnUse" color-interpolation-filters="sRGB">
            <feFlood flood-opacity="0" result="BackgroundImageFix"/>
            <feColorMatrix in="SourceAlpha" type="matrix" values="0 0 0 0 0 0 0 0 0 0 0 0 0 0 0 0 0 0 127 0" result="hardAlpha"/>
            <feOffset dy="-22.8672"/>
            <feGaussianBlur stdDeviation="14.7964"/>
            <feColorMatrix type="matrix" values="0 0 0 0 0.397708 0 0 0 0 0.47749 0 0 0 0 0.575 0 0 0 0.18 0"/>
            <feBlend mode="normal" in2="BackgroundImageFix" result="effect1_dropShadow_16536_7550"/>
            <feBlend mode="normal" in="SourceGraphic" in2="effect1_dropShadow_16536_7550" result="shape"/>
        </filter>
        <filter id="filter5_d_16536_7550" x="80.541" y="62.3296" width="163.918" height="101.925" filterUnits="userSpaceOnUse" color-interpolation-filters="sRGB">
            <feFlood flood-opacity="0" result="BackgroundImageFix"/>
            <feColorMatrix in="SourceAlpha" type="matrix" values="0 0 0 0 0 0 0 0 0 0 0 0 0 0 0 0 0 0 127 0" result="hardAlpha"/>
            <feOffset dy="8"/>
            <feGaussianBlur stdDeviation="8"/>
            <feColorMatrix type="matrix" values="0 0 0 0 0.397708 0 0 0 0 0.47749 0 0 0 0 0.575 0 0 0 0.18 0"/>
            <feBlend mode="normal" in2="BackgroundImageFix" result="effect1_dropShadow_16536_7550"/>
            <feBlend mode="normal" in="SourceGraphic" in2="effect1_dropShadow_16536_7550" result="shape"/>
        </filter>
        <filter id="filter6_d_16536_7550" x="116.166" y="97.9634" width="95.4355" height="66.8062" filterUnits="userSpaceOnUse" color-interpolation-filters="sRGB">
            <feFlood flood-opacity="0" result="BackgroundImageFix"/>
            <feColorMatrix in="SourceAlpha" type="matrix" values="0 0 0 0 0 0 0 0 0 0 0 0 0 0 0 0 0 0 127 0" result="hardAlpha"/>
            <feOffset dy="2"/>
            <feGaussianBlur stdDeviation="4"/>
            <feColorMatrix type="matrix" values="0 0 0 0 0.1125 0 0 0 0 0.295916 0 0 0 0 1 0 0 0 0.22 0"/>
            <feBlend mode="normal" in2="BackgroundImageFix" result="effect1_dropShadow_16536_7550"/>
            <feBlend mode="normal" in="SourceGraphic" in2="effect1_dropShadow_16536_7550" result="shape"/>
        </filter>
        <linearGradient id="paint0_linear_16536_7550" x1="156.528" y1="45.508" x2="163.05" y2="46.262" gradientUnits="userSpaceOnUse">
            <stop stop-color="#FF66A9"/>
            <stop offset="1" stop-color="#F53689"/>
        </linearGradient>
        <linearGradient id="paint1_linear_16536_7550" x1="177.415" y1="73.4772" x2="186.595" y2="74.5384" gradientUnits="userSpaceOnUse">
            <stop stop-color="#83A6FF"/>
            <stop offset="1" stop-color="#5A78FF"/>
        </linearGradient>
        <linearGradient id="paint2_linear_16536_7550" x1="163.944" y1="103.778" x2="163.944" y2="154.685" gradientUnits="userSpaceOnUse">
            <stop stop-color="#A7CAFF"/>
            <stop offset="1" stop-color="#5599FF"/>
        </linearGradient>
        <linearGradient id="paint3_linear_16536_7550" x1="173.377" y1="123.124" x2="186.07" y2="137.035" gradientUnits="userSpaceOnUse">
            <stop stop-color="#84B5FF"/>
            <stop offset="1" stop-color="#8EBBFF" stop-opacity="0"/>
        </linearGradient>
        <linearGradient id="paint4_linear_16536_7550" x1="182" y1="144" x2="145.637" y2="113.835" gradientUnits="userSpaceOnUse">
            <stop stop-color="#8DBBFF"/>
            <stop offset="1" stop-color="#8DBBFF" stop-opacity="0"/>
        </linearGradient>
        <linearGradient id="paint5_linear_16536_7550" x1="159.147" y1="125.866" x2="189.611" y2="156.473" gradientUnits="userSpaceOnUse">
            <stop stop-color="#2165CC"/>
            <stop offset="1" stop-color="#68A4FF" stop-opacity="0"/>
        </linearGradient>
        <linearGradient id="paint6_linear_16536_7550" x1="176.938" y1="140.915" x2="163.889" y2="127.806" gradientUnits="userSpaceOnUse">
            <stop offset="0.0113208" stop-color="#C2D1FF"/>
            <stop offset="1" stop-color="white"/>
        </linearGradient>
        <linearGradient id="paint7_linear_16536_7550" x1="174.438" y1="143.404" x2="161.39" y2="130.295" gradientUnits="userSpaceOnUse">
            <stop offset="0.0113208" stop-color="#C2D1FF"/>
            <stop offset="1" stop-color="white"/>
        </linearGradient>
        <linearGradient id="paint8_linear_16536_7550" x1="141.598" y1="4.66847" x2="143.615" y2="3.82922" gradientUnits="userSpaceOnUse">
            <stop stop-color="#FF66A9"/>
            <stop offset="1" stop-color="#F53689"/>
        </linearGradient>
        <linearGradient id="paint9_linear_16536_7550" x1="135.569" y1="13.8339" x2="135.975" y2="11.6948" gradientUnits="userSpaceOnUse">
            <stop stop-color="#FF66A9"/>
            <stop offset="1" stop-color="#F53689"/>
        </linearGradient>
        <linearGradient id="paint10_linear_16536_7550" x1="155.504" y1="4.55199" x2="153.781" y2="3.21122" gradientUnits="userSpaceOnUse">
            <stop stop-color="#FF66A9"/>
            <stop offset="1" stop-color="#F53689"/>
        </linearGradient>
        <clipPath id="clip0_16536_7550">
            <rect width="324" height="162" fill="white"/>
        </clipPath>
    </defs>
</svg>
