<svg width="178" height="156" fill="none" xmlns="http://www.w3.org/2000/svg">
  <path fill="#E9F3FD" d="M63.1 16.5C30.3 18.8 7.7 50 11.3 100c2.4 34.7 70.7 24.4 113.5 13.3 35-20.3 60.4-64.8 35.7-96.8-23.2-30-64.6-2.2-97.4 0Z" opacity=".4"/>
  <path fill="url(#a)" d="M177.4 123H17.7L0 156h151l26.4-33Z"/>
  <path stroke="#6E6464" stroke-linecap="round" stroke-width=".5" d="M29.2 107.5c1 1.8 1.2 3 .5 5.5"/>
  <path fill="url(#b)" d="M12.4 95.9c6.9 7.2 7 13.6 16.4 12.2.5 0 .9-.5.9-1 .1-2.2.1-8.6-2.7-11.5-3.2-3.4-10.6-2.3-14-1.6-.9.2-1.2 1.2-.6 1.9Z"/>
  <path stroke="#6E6464" stroke-linecap="round" stroke-width=".5" d="m30.8 113 .6-2.5m-.6-8c-.2 1.9-.7 3 0 5 .5 1 .6 2 .6 3m0 0c1.4-1.3 2-2 2.7-3.6"/>
  <path fill="url(#c)" d="M23.1 114c0-1.1 1-2.1 2.2-2.1h11c1.2 0 2.2 1 2.2 2.2v7.7c0 1.8-1.5 3.3-3.3 3.3h-8.8a3.3 3.3 0 0 1-3.3-3.3V114Z"/>
  <path stroke="#fff" stroke-linecap="round" stroke-opacity=".2" stroke-width=".3" d="M13.4 95c8.7 2.7 9.7 7.3 15.5 12"/>
  <g filter="url(#d)">
    <path fill="#C4C4C4" d="M29 99.7c1.2-8-.7-13.7-6.3-18.8-.4-.5-1.3.2-1.1.8 1 4.3-1.8 8.2-.1 12.9 1 2.5 4.1 4.7 6 5.8a1 1 0 0 0 1.5-.7Z"/>
    <path fill="url(#e)" d="M29 99.7c1.2-8-.7-13.7-6.3-18.8-.4-.5-1.3.2-1.1.8 1 4.3-1.8 8.2-.1 12.9 1 2.5 4.1 4.7 6 5.8a1 1 0 0 0 1.5-.7Z"/>
  </g>
  <path stroke="#fff" stroke-linecap="round" stroke-opacity=".2" stroke-width=".3" d="M22.6 82.2c2.8 7.3.8 10.2 5 16"/>
  <g filter="url(#f)">
    <path fill="#C4C4C4" d="M25.4 95.4c.3 3.8 3.6 7.4 4.6 8.5.2.2.5.3.7.3 2-.1 9.7-.9 9-6.9a103 103 0 0 1-.7-16.4c0-.8-.9-1.4-1.6-1-3.8 2.5-12.6 8.9-12 15.5Z"/>
    <path fill="url(#g)" d="M25.4 95.4c.3 3.8 3.6 7.4 4.6 8.5.2.2.5.3.7.3 2-.1 9.7-.9 9-6.9a103 103 0 0 1-.7-16.4c0-.8-.9-1.4-1.6-1-3.8 2.5-12.6 8.9-12 15.5Z"/>
  </g>
  <g filter="url(#h)">
    <path fill="url(#i)" d="M42.9 91.8c-10 5.3-11.7 8.3-9.7 15 .2.4.5.7 1 .7 7.4.1 10.1-7.1 10.3-14.8a1 1 0 0 0-1.6-.9Z"/>
  </g>
  <path fill="#fff" fill-opacity=".2" d="m34.5 105.8.1.2.2-.1-.3-.1Zm8.8-12.5a.1.1 0 1 0-.2-.2l.2.2Zm-8.5 12.6c1.3-3.9 3.2-5.9 8.5-12.6l-.2-.2c-5.3 6.7-7.2 8.8-8.6 12.7h.3Z"/>
  <path stroke="#fff" stroke-linecap="round" stroke-opacity=".2" stroke-width=".3" d="M30.8 102.5c-.8-7.7 1-12.3 6.6-20.8"/>
  <g filter="url(#j)">
    <path fill="url(#k)" d="M153.6 124.8a14.4 14.4 0 1 0 0-29 14.4 14.4 0 1 0 0 29Z"/>
  </g>
  <path fill="#fff" d="M147 110.5c0-.5.4-.9.9-.9h4.7V105a.9.9 0 0 1 1.8 0v4.7h5.2a.9.9 0 1 1 0 1.8h-5.2v5.2a.9.9 0 0 1-1.8 0v-5.2H148a.9.9 0 0 1-.9-.9Z"/>
  <path fill="#D8E0E8" d="M44.2 19c0-2 1.6-3.7 3.6-3.7h81c2 0 3.7 1.6 3.7 3.6v101c0 2-1.6 3.6-3.6 3.6H47.8c-2 0-3.6-1.7-3.6-3.6v-101Z"/>
  <path fill="url(#l)" d="M44.2 19c0-2 1.6-3.7 3.6-3.7h81c2 0 3.7 1.6 3.7 3.6v101c0 2-1.6 3.6-3.6 3.6H47.8c-2 0-3.6-1.7-3.6-3.6v-101Z"/>
  <path stroke="#072D57" stroke-width="3.6" d="M44.2 19c0-2 1.6-3.7 3.6-3.7h81c2 0 3.7 1.6 3.7 3.6v101c0 2-1.6 3.6-3.6 3.6H47.8c-2 0-3.6-1.7-3.6-3.6v-101Z"/>
  <path fill="#fff" d="M46 15.3h84.7s1.8 87.4-12.6 102.8H33.3C50.5 104.5 46 15.3 46 15.3Z"/>
  <path stroke="#7AB9FC" stroke-linecap="round" stroke-linejoin="round" stroke-width=".6" d="m92 98 2.4-.3c.7 0 1.4.1 1.8-.2l.9-1c.4-.7 1.4-1 2-1.6.9-.8 1.4-1.3 1.5-2.2.1-1-.8-.8-.8-.8-.7.8-1.2 1.8-1.2 1.8l-1.2 1.8s-.8 1.4-1.7 2c-.6.4-1 1-1 1s-.5.7-.3 1c.2.4 1-.7 1.2-1l.5-.8s3.7-2.3 4-2.3c.3 0 0 .6 0 1-.2.3-.8 1.6-.2 1.7.4 0 .7-.4.8-.6.2-.5.7-1.4 1.2-1.6 1.5-.5 1 1.4 2.2 1.6 1.5.2 2-1.5 3.6-1.2 1.4.3.3 2 1.8 2.2 1.3.2 3.1-.8 3.1-.8"/>
  <path fill="#072D57" fill-rule="evenodd" d="M98.2 9v1H109c4 0 7.3 3.1 7.3 7.1V19c0 1-.9 1.8-1.9 1.8H64c-1 0-1.8-.8-1.8-1.8v-1.8c0-4 3.2-7.2 7.2-7.2h10.8V9a9 9 0 0 1 18 0Zm-9 3.6a3.6 3.6 0 1 0 0-7.2 3.6 3.6 0 0 0 0 7.2Z" clip-rule="evenodd"/>
  <path stroke="#DDE2E8" stroke-linecap="round" stroke-width="2.7" d="M75.2 55.4h26.2"/>
  <path stroke="#DDE2E8" stroke-linecap="round" stroke-width="1.8" d="M59.5 64h55.8m-11.7-34.3h14.5m-60.4 0h14.4m31.5 3.6h14.5m-60.4 0h14.4M59.5 69.4h55.8m-63 27h15.3"/>
  <defs>
    <linearGradient id="a" x1="80" x2="83" y1="112.4" y2="156.1" gradientUnits="userSpaceOnUse">
      <stop stop-color="#D4D8DB"/>
      <stop offset=".8" stop-color="#fff" stop-opacity="0"/>
    </linearGradient>
    <linearGradient id="b" x1="25.9" x2="16.3" y1="104.1" y2="95.9" gradientUnits="userSpaceOnUse">
      <stop stop-color="#22B5A1"/>
      <stop offset="1" stop-color="#71D5AA"/>
    </linearGradient>
    <linearGradient id="c" x1="38.5" x2="23.1" y1="118.5" y2="118.5" gradientUnits="userSpaceOnUse">
      <stop stop-color="#ABD9EA"/>
      <stop offset="1" stop-color="#D2F2FF"/>
    </linearGradient>
    <linearGradient id="e" x1="27.2" x2="18.5" y1="95.2" y2="90.6" gradientUnits="userSpaceOnUse">
      <stop stop-color="#22B5A1"/>
      <stop offset="1" stop-color="#71D5AA"/>
    </linearGradient>
    <linearGradient id="g" x1="36.2" x2="24.9" y1="97.4" y2="88.8" gradientUnits="userSpaceOnUse">
      <stop stop-color="#22B5A1"/>
      <stop offset="1" stop-color="#71D5AA"/>
    </linearGradient>
    <linearGradient id="i" x1="41.5" x2="33.9" y1="103.1" y2="95.7" gradientUnits="userSpaceOnUse">
      <stop stop-color="#22B5A1"/>
      <stop offset="1" stop-color="#71D5AA"/>
    </linearGradient>
    <linearGradient id="l" x1="117.6" x2="89.4" y1="32.9" y2="109.5" gradientUnits="userSpaceOnUse">
      <stop offset=".4" stop-color="#828E9C"/>
      <stop offset="1" stop-color="#fff" stop-opacity="0"/>
    </linearGradient>
    <filter id="d" width="12.8" height="24.3" x="17.6" y="78.5" color-interpolation-filters="sRGB" filterUnits="userSpaceOnUse">
      <feFlood flood-opacity="0" result="BackgroundImageFix"/>
      <feColorMatrix in="SourceAlpha" result="hardAlpha" values="0 0 0 0 0 0 0 0 0 0 0 0 0 0 0 0 0 0 127 0"/>
      <feOffset dx="-1.1"/>
      <feGaussianBlur stdDeviation="1.1"/>
      <feColorMatrix values="0 0 0 0 0 0 0 0 0 0 0 0 0 0 0 0 0 0 0.14 0"/>
      <feBlend in2="BackgroundImageFix" result="effect1_dropShadow_1866_38634"/>
      <feBlend in="SourceGraphic" in2="effect1_dropShadow_1866_38634" result="shape"/>
    </filter>
    <filter id="f" width="18.7" height="28.8" x="22" y="77.6" color-interpolation-filters="sRGB" filterUnits="userSpaceOnUse">
      <feFlood flood-opacity="0" result="BackgroundImageFix"/>
      <feColorMatrix in="SourceAlpha" result="hardAlpha" values="0 0 0 0 0 0 0 0 0 0 0 0 0 0 0 0 0 0 127 0"/>
      <feOffset dx="-1.1"/>
      <feGaussianBlur stdDeviation="1.1"/>
      <feColorMatrix values="0 0 0 0 0 0 0 0 0 0 0 0 0 0 0 0 0 0 0.14 0"/>
      <feBlend in2="BackgroundImageFix" result="effect1_dropShadow_1866_38634"/>
      <feBlend in="SourceGraphic" in2="effect1_dropShadow_1866_38634" result="shape"/>
    </filter>
    <filter id="h" width="16.4" height="20.2" x="29.2" y="89.5" color-interpolation-filters="sRGB" filterUnits="userSpaceOnUse">
      <feFlood flood-opacity="0" result="BackgroundImageFix"/>
      <feColorMatrix in="SourceAlpha" result="hardAlpha" values="0 0 0 0 0 0 0 0 0 0 0 0 0 0 0 0 0 0 127 0"/>
      <feOffset dx="-1.1"/>
      <feGaussianBlur stdDeviation="1.1"/>
      <feColorMatrix values="0 0 0 0 0 0 0 0 0 0 0 0 0 0 0 0 0 0 0.14 0"/>
      <feBlend in2="BackgroundImageFix" result="effect1_dropShadow_1866_38634"/>
      <feBlend in="SourceGraphic" in2="effect1_dropShadow_1866_38634" result="shape"/>
    </filter>
    <filter id="j" width="30.1" height="29.9" x="139.1" y="95.9" color-interpolation-filters="sRGB" filterUnits="userSpaceOnUse">
      <feFlood flood-opacity="0" result="BackgroundImageFix"/>
      <feBlend in="SourceGraphic" in2="BackgroundImageFix" result="shape"/>
      <feColorMatrix in="SourceAlpha" result="hardAlpha" values="0 0 0 0 0 0 0 0 0 0 0 0 0 0 0 0 0 0 127 0"/>
      <feOffset dx="1" dy="1"/>
      <feGaussianBlur stdDeviation="1"/>
      <feComposite in2="hardAlpha" k2="-1" k3="1" operator="arithmetic"/>
      <feColorMatrix values="0 0 0 0 0 0 0 0 0 0 0 0 0 0 0 0 0 0 0.31 0"/>
      <feBlend in2="shape" result="effect1_innerShadow_1866_38634"/>
    </filter>
    <radialGradient id="k" cx="0" cy="0" r="1" gradientTransform="rotate(53.4 -31 201.8) scale(19.3003 19.3995)" gradientUnits="userSpaceOnUse">
      <stop stop-color="#6BADF3"/>
      <stop offset=".2" stop-color="#3E96F3"/>
      <stop offset=".9" stop-color="#2285EE"/>
      <stop offset="1" stop-color="#2285EE"/>
    </radialGradient>
  </defs>
</svg>
