<svg width="252" height="164" fill="none" xmlns="http://www.w3.org/2000/svg">
  <mask id="a" width="56" height="77" x="127" y="53" maskUnits="userSpaceOnUse" style="mask-type:alpha">
    <path fill="#E6EDF8" d="M182 93.2c-2 21-9.3 39.4-30.5 35.6-21.2-3.7-25.1-19.1-23-40 2-20.9 8.5-37.4 30.4-35.6 20.4 1.6 25.2 19.1 23.1 40Z"/>
  </mask>
  <g mask="url(#a)">
    <path fill="#EFF6FF" d="M182 93.2c-2 21-12 39-30.5 35.6-18.4-3.4-25.1-19.1-23-40 2-20.9 8.5-37.4 30.4-35.6 20.4 1.6 25.2 19.1 23.1 40Z"/>
    <g filter="url(#b)">
      <path fill="#ACCDFA" fill-opacity=".6" d="M187.8 96.2c-1.9 19-1.7 33.4-28.3 31.2-21.3-1.7-24.1-10-21.6-35.8 2.8-28.2 4.8-36 29-31.7 24 4.3 22.8 17.3 20.9 36.3Z"/>
    </g>
  </g>
  <mask id="c" width="108" height="66" x="70" y="0" maskUnits="userSpaceOnUse" style="mask-type:alpha">
    <path fill="#000" d="M154.8 65s7.2-41-7.8-55a70.3 70.3 0 0 0-24 4.6C96.6 24.6 94.1 62 94.1 62l-23.3 3s5.3-52.4 46.8-61.5c2-.4 6.1-1.8 6.1-1.8 14.9-2.4 27.4.8 35.1 6.4 24 15.6 18.5 57 18.5 57h-22.5Z"/>
  </mask>
  <g mask="url(#c)">
    <path fill="#EEF6FF" d="M70.8 65 93 61s4.5-36.7 31.4-47c53.5-20.8 33.8 45.4 33.8 45.4l19.7 3.4s5-74.1-57.7-60.5C78.7 11.4 70.8 65 70.8 65Z"/>
    <g filter="url(#d)">
      <path fill="url(#e)" d="m71.5 66.3 17-4.2S100 24.4 126.9 14c6.4-2.5 15-2.7 21.1-3.1 0 0-8.9-7.6-25.5-6.4-38 2.6-51 61.8-51 61.8Z"/>
    </g>
    <g filter="url(#f)">
      <path fill="#E5F0FD" d="M155.1 64.7h22.2s9.2-71-56-63c52.3 0 33.8 63 33.8 63Z"/>
    </g>
    <g filter="url(#g)">
      <path fill="url(#h)" fill-opacity=".5" d="m153.6 67.7 25.5-3.4s1.2-72.7-53.1-61c46-2.5 27.6 64.4 27.6 64.4Z"/>
    </g>
  </g>
  <path fill="url(#i)" d="M103.9 89.8c-.7 23.8-8.8 31-27.2 28.7-22.4-2.9-24.8-11-22.4-29.2 3.7-28 8-28.6 26.1-27.7 22.7 1.2 24 11 23.5 28.2Z"/>
  <mask id="k" width="49" height="69" x="59" y="55" maskUnits="userSpaceOnUse" style="mask-type:alpha">
    <path fill="url(#j)" d="M107 90.5c-.5 19.1-8.5 35-24.7 32.4-19.9-3-24.7-12.7-22-33.2 2.9-22.4 8.6-35.7 24.2-34.2 22.5 2.3 23 16 22.5 35Z"/>
  </mask>
  <g mask="url(#k)">
    <path fill="url(#l)" d="M107 90.5c-.5 19.1-8.5 35-24.7 32.4-19.9-3-24.7-12.7-22-33.2 2.9-22.4 8-35.8 24.2-34.2 22.5 2.3 23 16 22.5 35Z"/>
    <g filter="url(#m)">
      <path fill="url(#n)" d="M97.6 91.4C96.7 102 93.2 107 87 106c-8.6-1.4-9.7-6.5-9.5-15 .3-10 5-15.4 10.5-15.3 10.1.1 10.5 7.6 9.7 15.7Z"/>
    </g>
    <g filter="url(#o)">
      <path fill="#7B98BB" fill-opacity=".2" d="M49.4 84.1A269.7 269.7 0 0 1 152 98.3c1 1.3.3 4 .3 4s-53.4-16.7-102.6-14c-1.2-1-1.1-3.4-.3-4.3Z"/>
    </g>
  </g>
  <path fill="url(#p)" d="M187.8 92.6c-1.8 17.9-2.5 33.8-26.4 29.5-20-3.6-22.4-9.4-20-33.8 2.6-26.6 4.5-34 27-30 22.3 4 21.1 16.4 19.4 34.3Z"/>
  <path fill="url(#q)" d="M59.4 88.6c.5 6.8-5.5 10-13.2 10.5-7.7.5-13.5-1.6-14-8.7-.5-7 5-9.9 12.6-10.4 7.7-.5 14-.4 14.6 8.6Z"/>
  <mask id="s" width="93" height="18" x="54" y="85" maskUnits="userSpaceOnUse" style="mask-type:alpha">
    <path fill="url(#r)" d="M54.6 86.2a243.5 243.5 0 0 1 91.6 12.5c.9 1 .2 3.4.2 3.4S98.7 87.6 55 90.1c-1.1-1-1-3-.3-3.9Z"/>
  </mask>
  <g mask="url(#s)">
    <path fill="#E1EEFF" d="M54.6 86.2a243.5 243.5 0 0 1 91.6 12.5c.9 1 .2 3.4.2 3.4S98.7 87.6 55 90.1c-1.1-1-1-3-.3-3.9Z"/>
    <g filter="url(#t)">
      <path fill="url(#u)" d="M54.2 86.6a257.7 257.7 0 0 1 94.5 13.2c.7.6.3 3.4.3 3.4s-31.7-13.8-95.4-14.6l.6-2Z"/>
    </g>
  </g>
  <mask id="v" width="26" height="27" x="7" y="29" maskUnits="userSpaceOnUse" style="mask-type:alpha">
    <path fill="#F4F8FF" d="M8 45.2c-1.3-9.2-.6-12.6 3-13.4 3.5-.7 9.5-1.8 13.2-2.2 3.6-.4 6.7 2.8 8.1 11.7 1.5 9-2.6 12-3.7 12.3a74 74 0 0 1-12.5 2c-3.4.1-6.4-1.3-8-10.4Z"/>
  </mask>
  <g mask="url(#v)">
    <path fill="url(#w)" d="M8 45.2c-1.8-8.6-.2-12.9 3.3-13.6 3.6-.8 8.8-1.6 12.5-2 3.6-.4 6.4 2.8 7.8 11.7 1.5 8.8-.7 11.4-3.8 12.2-3.1 1-9.1 1.9-12.4 2-3.4.2-5.5-1.8-7.3-10.3Z"/>
    <path fill="url(#x)" d="M10 43.6c-1.4-8.4.4-10.6 3.8-11.3 3.4-.7 7.8-1.4 11.2-1.8 3.5-.4 5.8 1.2 7.2 9.8 1.4 8.6-.8 11-3.8 11.9-3 .8-8 1.6-11.2 1.7-3.1.2-5.9-1.8-7.3-10.3Z"/>
    <g filter="url(#y)">
      <ellipse fill="url(#z)" fill-opacity=".2" rx="2.3" ry="1.7" transform="matrix(.97517 .22462 -.22703 .97316 17 42)"/>
    </g>
    <g filter="url(#A)">
      <ellipse fill="url(#B)" fill-opacity=".2" rx="2.3" ry="1.7" transform="matrix(.97517 .22462 -.22703 .97316 22 41.3)"/>
    </g>
    <g filter="url(#C)">
      <ellipse fill="url(#D)" fill-opacity=".2" rx="2.3" ry="1.7" transform="matrix(.97517 .22462 -.22703 .97316 27.3 40.4)"/>
    </g>
    <g filter="url(#E)">
      <circle r="2.1" fill="#0070F2" transform="matrix(.96213 .27543 -.27825 .9597 15.9 42)"/>
    </g>
    <g filter="url(#F)">
      <circle r="2.1" fill="#0070F2" transform="matrix(.96213 .27543 -.27825 .9597 22 41)"/>
    </g>
    <g filter="url(#G)">
      <circle r="2.1" fill="#0070F2" transform="matrix(.96213 .27543 -.27825 .9597 27.6 39.8)"/>
    </g>
    <g filter="url(#H)">
      <path fill="#A2CEFA" d="M31.2 49c-2.4-1.2-2.4-6.3-1.5-6.8 1-.5 3.7 1.3 7.4-.4 1.5-.7 1 3.2-1 5.4-1.7 1.6-4.4 2.2-4.9 1.9Z"/>
    </g>
  </g>
  <mask id="I" width="7" height="7" x="30" y="42" maskUnits="userSpaceOnUse" style="mask-type:alpha">
    <path fill="#EDF3FE" d="M31.8 48.4c-1.8-1-1.8-4.9-1.3-5.4.4-1 3 .9 5.7-.5 1.1-.6.8 2.7-.7 4.4-1.2 1.4-3.3 1.8-3.7 1.5Z"/>
  </mask>
  <g mask="url(#I)">
    <path fill="url(#J)" d="M31.8 48.4c-1.8-1-1.9-5.2-1.2-5.6.8-.5 2.8 1 5.6-.3 1.1-.6.8 2.7-.7 4.4-1.2 1.4-3.3 1.8-3.7 1.5Z"/>
    <g filter="url(#K)">
      <path fill="url(#L)" d="M31.5 48c-1.8-.9-2-4.1-1.4-4.6.4-.8 3.1.7 6-.6 1-.5.7 2.3-1 3.8-1.1 1.2-3.2 1.6-3.6 1.4Z"/>
    </g>
  </g>
  <g clip-path="url(#M)">
    <mask id="N" width="39" height="41" x="198" y="0" maskUnits="userSpaceOnUse" style="mask-type:alpha">
      <path fill="#F4F8FF" d="M199.8 16.8c2.9-13.1 6.9-17 12.4-16.1a251 251 0 0 1 18.9 4c5.4 1.5 7.5 6.3 4.6 19.8-3 13.4-8.3 16.6-13.2 16-5-.4-14.1-2.4-19-4-4.7-1.6-6.5-6.6-3.7-19.7Z"/>
    </mask>
    <g mask="url(#N)">
      <path fill="url(#O)" d="M201 17.4c3-13.1 7-17 12.4-16.1a299 299 0 0 1 18.8 4c5.4 1.5 7.6 6.4 4.7 19.8-3 13.4-7.4 15.8-12.3 15.3-5-.5-14-2.4-18.8-4-4.8-1.7-7.6-5.8-4.7-19Z"/>
      <path fill="url(#P)" d="M199.6 18.3c2.7-12.7 7-16.4 12.2-15.5 5.2.8 11.8 2.3 17 3.6 5 1.4 7.4 6.2 4.6 19.1-2.8 13-7.4 15.3-12 14.8a90 90 0 0 1-17-3.6c-4.5-1.6-7.6-5.7-4.8-18.4Z"/>
      <g filter="url(#Q)">
        <path fill="#8EC2F6" fill-opacity=".4" d="M230 35.4c-2.7-3.2 0-10.3 1.6-10.5 1.8-.2 4.5 3.8 10.6 3.4 2.6-.2-.3 5.2-4.4 7-3.2 1.5-7.4.8-7.8 0Z"/>
      </g>
    </g>
    <mask id="R" width="12" height="10" x="230" y="25" maskUnits="userSpaceOnUse" style="mask-type:alpha">
      <path fill="#EDF3FE" d="M231.1 34.3c-2-2.6.1-8 1.2-8.5 1.1-1.1 3.6 3 8.4 2.5 1.9-.2-.4 4.3-3.6 5.9-2.4 1.2-5.6.7-6 .1Z"/>
    </mask>
    <g mask="url(#R)">
      <path fill="url(#S)" d="M231.1 34.3c-2-2.6.2-8.5 1.4-8.7 1.4-.2 3.4 3.1 8.2 2.7 1.9-.2-.4 4.3-3.6 5.9-2.4 1.2-5.6.7-6 .1Z"/>
      <g filter="url(#T)">
        <path fill="url(#U)" d="M230.5 34.6c-2-2.2-.6-7 .5-7.4 1-.9 4 2.8 8.7 2.6 2-.1-.2 3.6-3.3 5-2.4.9-5.6.4-6-.2Z"/>
      </g>
    </g>
    <mask id="W" width="11" height="17" x="212" y="12" maskUnits="userSpaceOnUse" style="mask-type:alpha">
      <path fill="#86B7E7" d="M216 23.5c0-1 0-1.7.3-2.3a6 6 0 0 1 1.3-1.7c.7-.5 1-1 1.3-1.3l.3-1.1c0-1.2-.5-1.8-1.6-1.8-.6 0-1 .2-1.3.5-.3.3-.5.7-.5 1.3h-3.1A4 4 0 0 1 214 14a5 5 0 0 1 3.6-1.2c1.5 0 2.6.4 3.5 1.1.8.7 1.2 1.7 1.2 3 0 .6-.1 1.2-.4 1.7a7 7 0 0 1-1.4 1.7l-.9.8c-.5.5-.8 1.1-.9 1.8v.6h-2.8Zm-.4 3.2c0-.4.2-.8.5-1.1.3-.3.7-.5 1.2-.5a1.7 1.7 0 0 1 1.8 1.6c0 .5-.2.9-.5 1.2-.3.3-.7.4-1.3.4-.5 0-.9-.1-1.2-.4-.3-.3-.5-.7-.5-1.2Z"/>
    </mask>
    <g filter="url(#V)" mask="url(#W)">
      <path fill="#0170F0" d="M215.8 23.5c0-1 0-1.7.3-2.3.3-.5.7-1.1 1.3-1.7.6-.5 1-1 1.2-1.3l.3-1.1c0-1.2-.5-1.8-1.6-1.8-.5 0-.9.2-1.2.5-.3.3-.4.7-.4 1.3h-2.8A4 4 0 0 1 214 14c.9-.8 1.8-1.2 3.2-1.2 1.5 0 2.8.4 3.6 1.1.8.7 1.2 1.7 1.2 3 0 .6-.1 1.2-.4 1.7a7 7 0 0 1-1.3 1.7l-1.1.8c-.5.5-.6 1.1-.6 1.8v.6h-3Zm-.3 3.2c0-.4.1-.8.4-1.1.3-.3.7-.5 1.2-.5a1.6 1.6 0 0 1 1.7 1.6 1.6 1.6 0 0 1-1.6 1.6c-.6 0-1-.1-1.3-.4-.3-.3-.4-.7-.4-1.2Z"/>
    </g>
  </g>
  <path fill="url(#X)" d="M197.6 150.6c0 7-32.1 12.6-71.7 12.6s-71.7-5.6-71.7-12.6S86.3 138 125.9 138s71.7 5.6 71.7 12.6Z" opacity=".4"/>
  <defs>
    <filter id="b" width="68.7" height="86" x="128.6" y="50.2" color-interpolation-filters="sRGB" filterUnits="userSpaceOnUse">
      <feFlood flood-opacity="0" result="BackgroundImageFix"/>
      <feBlend in="SourceGraphic" in2="BackgroundImageFix" result="shape"/>
      <feGaussianBlur result="effect1_foregroundBlur_740_14080" stdDeviation="4.3"/>
    </filter>
    <filter id="d" width="80.4" height="65.8" x="69.6" y="2.4" color-interpolation-filters="sRGB" filterUnits="userSpaceOnUse">
      <feFlood flood-opacity="0" result="BackgroundImageFix"/>
      <feBlend in="SourceGraphic" in2="BackgroundImageFix" result="shape"/>
      <feGaussianBlur result="effect1_foregroundBlur_740_14080" stdDeviation="1"/>
    </filter>
    <filter id="f" width="62.1" height="69.3" x="118.4" y="-1.8" color-interpolation-filters="sRGB" filterUnits="userSpaceOnUse">
      <feFlood flood-opacity="0" result="BackgroundImageFix"/>
      <feBlend in="SourceGraphic" in2="BackgroundImageFix" result="shape"/>
      <feGaussianBlur result="effect1_foregroundBlur_740_14080" stdDeviation="1.4"/>
    </filter>
    <filter id="g" width="57" height="69.4" x="124.1" y=".2" color-interpolation-filters="sRGB" filterUnits="userSpaceOnUse">
      <feFlood flood-opacity="0" result="BackgroundImageFix"/>
      <feBlend in="SourceGraphic" in2="BackgroundImageFix" result="shape"/>
      <feGaussianBlur result="effect1_foregroundBlur_740_14080" stdDeviation="1"/>
    </filter>
    <filter id="m" width="51" height="60.9" x="59.1" y="57.4" color-interpolation-filters="sRGB" filterUnits="userSpaceOnUse">
      <feFlood flood-opacity="0" result="BackgroundImageFix"/>
      <feColorMatrix in="SourceAlpha" result="hardAlpha" values="0 0 0 0 0 0 0 0 0 0 0 0 0 0 0 0 0 0 127 0"/>
      <feOffset dx="-3" dy="-3"/>
      <feGaussianBlur stdDeviation="7.6"/>
      <feColorMatrix values="0 0 0 0 1 0 0 0 0 1 0 0 0 0 1 0 0 0 0.45 0"/>
      <feBlend in2="BackgroundImageFix" result="effect1_dropShadow_740_14080"/>
      <feBlend in="SourceGraphic" in2="effect1_dropShadow_740_14080" result="shape"/>
    </filter>
    <filter id="o" width="111.8" height="26.7" x="44.8" y="79.5" color-interpolation-filters="sRGB" filterUnits="userSpaceOnUse">
      <feFlood flood-opacity="0" result="BackgroundImageFix"/>
      <feBlend in="SourceGraphic" in2="BackgroundImageFix" result="shape"/>
      <feGaussianBlur result="effect1_foregroundBlur_740_14080" stdDeviation="2"/>
    </filter>
    <filter id="t" width="99.3" height="20.9" x="51.7" y="84.2" color-interpolation-filters="sRGB" filterUnits="userSpaceOnUse">
      <feFlood flood-opacity="0" result="BackgroundImageFix"/>
      <feBlend in="SourceGraphic" in2="BackgroundImageFix" result="shape"/>
      <feGaussianBlur result="effect1_foregroundBlur_740_14080" stdDeviation="1"/>
    </filter>
    <filter id="y" width="9.2" height="8.1" x="12.3" y="38" color-interpolation-filters="sRGB" filterUnits="userSpaceOnUse">
      <feFlood flood-opacity="0" result="BackgroundImageFix"/>
      <feBlend in="SourceGraphic" in2="BackgroundImageFix" result="shape"/>
      <feGaussianBlur result="effect1_foregroundBlur_740_14080" stdDeviation="1.2"/>
    </filter>
    <filter id="A" width="9.2" height="8.1" x="17.4" y="37.2" color-interpolation-filters="sRGB" filterUnits="userSpaceOnUse">
      <feFlood flood-opacity="0" result="BackgroundImageFix"/>
      <feBlend in="SourceGraphic" in2="BackgroundImageFix" result="shape"/>
      <feGaussianBlur result="effect1_foregroundBlur_740_14080" stdDeviation="1.2"/>
    </filter>
    <filter id="C" width="9.2" height="8.1" x="22.7" y="36.4" color-interpolation-filters="sRGB" filterUnits="userSpaceOnUse">
      <feFlood flood-opacity="0" result="BackgroundImageFix"/>
      <feBlend in="SourceGraphic" in2="BackgroundImageFix" result="shape"/>
      <feGaussianBlur result="effect1_foregroundBlur_740_14080" stdDeviation="1.2"/>
    </filter>
    <filter id="E" width="4.1" height="5.1" x="13.8" y="39.9" color-interpolation-filters="sRGB" filterUnits="userSpaceOnUse">
      <feFlood flood-opacity="0" result="BackgroundImageFix"/>
      <feBlend in="SourceGraphic" in2="BackgroundImageFix" result="shape"/>
      <feColorMatrix in="SourceAlpha" result="hardAlpha" values="0 0 0 0 0 0 0 0 0 0 0 0 0 0 0 0 0 0 127 0"/>
      <feOffset dy="1"/>
      <feGaussianBlur stdDeviation="1"/>
      <feComposite in2="hardAlpha" k2="-1" k3="1" operator="arithmetic"/>
      <feColorMatrix values="0 0 0 0 0.154269 0 0 0 0 0.432493 0 0 0 0 0.720833 0 0 0 1 0"/>
      <feBlend in2="shape" result="effect1_innerShadow_740_14080"/>
    </filter>
    <filter id="F" width="4.1" height="5.1" x="20" y="38.9" color-interpolation-filters="sRGB" filterUnits="userSpaceOnUse">
      <feFlood flood-opacity="0" result="BackgroundImageFix"/>
      <feBlend in="SourceGraphic" in2="BackgroundImageFix" result="shape"/>
      <feColorMatrix in="SourceAlpha" result="hardAlpha" values="0 0 0 0 0 0 0 0 0 0 0 0 0 0 0 0 0 0 127 0"/>
      <feOffset dy="1"/>
      <feGaussianBlur stdDeviation="1"/>
      <feComposite in2="hardAlpha" k2="-1" k3="1" operator="arithmetic"/>
      <feColorMatrix values="0 0 0 0 0.154269 0 0 0 0 0.432493 0 0 0 0 0.720833 0 0 0 1 0"/>
      <feBlend in2="shape" result="effect1_innerShadow_740_14080"/>
    </filter>
    <filter id="G" width="4.1" height="5.1" x="25.5" y="37.7" color-interpolation-filters="sRGB" filterUnits="userSpaceOnUse">
      <feFlood flood-opacity="0" result="BackgroundImageFix"/>
      <feBlend in="SourceGraphic" in2="BackgroundImageFix" result="shape"/>
      <feColorMatrix in="SourceAlpha" result="hardAlpha" values="0 0 0 0 0 0 0 0 0 0 0 0 0 0 0 0 0 0 127 0"/>
      <feOffset dy="1"/>
      <feGaussianBlur stdDeviation="1"/>
      <feComposite in2="hardAlpha" k2="-1" k3="1" operator="arithmetic"/>
      <feColorMatrix values="0 0 0 0 0.154269 0 0 0 0 0.432493 0 0 0 0 0.720833 0 0 0 1 0"/>
      <feBlend in2="shape" result="effect1_innerShadow_740_14080"/>
    </filter>
    <filter id="H" width="14.1" height="12.7" x="26.5" y="39.1" color-interpolation-filters="sRGB" filterUnits="userSpaceOnUse">
      <feFlood flood-opacity="0" result="BackgroundImageFix"/>
      <feBlend in="SourceGraphic" in2="BackgroundImageFix" result="shape"/>
      <feGaussianBlur result="effect1_foregroundBlur_740_14080" stdDeviation="1.3"/>
    </filter>
    <filter id="K" width="16.2" height="14.6" x="25.2" y="38.1" color-interpolation-filters="sRGB" filterUnits="userSpaceOnUse">
      <feFlood flood-opacity="0" result="BackgroundImageFix"/>
      <feBlend in="SourceGraphic" in2="BackgroundImageFix" result="shape"/>
      <feGaussianBlur result="effect1_foregroundBlur_740_14080" stdDeviation="2.3"/>
    </filter>
    <filter id="Q" width="27.1" height="24.1" x="222.5" y="18.5" color-interpolation-filters="sRGB" filterUnits="userSpaceOnUse">
      <feFlood flood-opacity="0" result="BackgroundImageFix"/>
      <feBlend in="SourceGraphic" in2="BackgroundImageFix" result="shape"/>
      <feGaussianBlur result="effect1_foregroundBlur_740_14080" stdDeviation="3.2"/>
    </filter>
    <filter id="T" width="33.7" height="30.9" x="218.1" y="15.7" color-interpolation-filters="sRGB" filterUnits="userSpaceOnUse">
      <feFlood flood-opacity="0" result="BackgroundImageFix"/>
      <feBlend in="SourceGraphic" in2="BackgroundImageFix" result="shape"/>
      <feGaussianBlur result="effect1_foregroundBlur_740_14080" stdDeviation="5.7"/>
    </filter>
    <filter id="V" width="9.2" height="16.4" x="212.9" y="12.8" color-interpolation-filters="sRGB" filterUnits="userSpaceOnUse">
      <feFlood flood-opacity="0" result="BackgroundImageFix"/>
      <feBlend in="SourceGraphic" in2="BackgroundImageFix" result="shape"/>
      <feColorMatrix in="SourceAlpha" result="hardAlpha" values="0 0 0 0 0 0 0 0 0 0 0 0 0 0 0 0 0 0 127 0"/>
      <feOffset dy="1"/>
      <feGaussianBlur stdDeviation=".5"/>
      <feComposite in2="hardAlpha" k2="-1" k3="1" operator="arithmetic"/>
      <feColorMatrix values="0 0 0 0 0.118611 0 0 0 0 0.393903 0 0 0 0 0.641667 0 0 0 1 0"/>
      <feBlend in2="shape" result="effect1_innerShadow_740_14080"/>
    </filter>
    <radialGradient id="e" cx="0" cy="0" r="1" gradientTransform="matrix(-12.28187 -19.25494 69.94647 -44.61576 105.9 41.4)" gradientUnits="userSpaceOnUse">
      <stop stop-color="#CFDEF5" stop-opacity="0"/>
      <stop offset="1" stop-color="#9CC8FB"/>
    </radialGradient>
    <radialGradient id="i" cx="0" cy="0" r="1" gradientTransform="rotate(76.2 -10.6 71) scale(56.658 49.5417)" gradientUnits="userSpaceOnUse">
      <stop stop-color="#EAF5FF"/>
      <stop offset="1" stop-color="#C0D7F5"/>
    </radialGradient>
    <radialGradient id="j" cx="0" cy="0" r="1" gradientTransform="rotate(94.2 2.7 87) scale(40.6781 28.0867)" gradientUnits="userSpaceOnUse">
      <stop stop-color="#CFE2FF"/>
      <stop offset=".5" stop-color="#ABC4E0"/>
      <stop offset=".7" stop-color="#A9C1DE"/>
      <stop offset="1" stop-color="#F1F6FF"/>
    </radialGradient>
    <radialGradient id="l" cx="0" cy="0" r="1" gradientTransform="matrix(-7.2011 47.98548 -34.43017 -5.16688 94 86.4)" gradientUnits="userSpaceOnUse">
      <stop stop-color="#E2EDFE"/>
      <stop offset=".6" stop-color="#BAD2EF"/>
      <stop offset="1" stop-color="#F1F6FF"/>
    </radialGradient>
    <radialGradient id="p" cx="0" cy="0" r="1" gradientTransform="matrix(-11.68927 62.04772 -33.62373 -6.33443 179.1 78.7)" gradientUnits="userSpaceOnUse">
      <stop stop-color="#C2DBFC"/>
      <stop offset=".3" stop-color="#B5D4FF"/>
      <stop offset=".7" stop-color="#B3CFFC"/>
      <stop offset="1" stop-color="#D7E7FF"/>
    </radialGradient>
    <radialGradient id="q" cx="0" cy="0" r="1" gradientTransform="matrix(-20.81408 -6.62301 8.47204 -26.625 56 88)" gradientUnits="userSpaceOnUse">
      <stop stop-color="#8EC3FF"/>
      <stop offset=".5" stop-color="#B4D1F3"/>
      <stop offset="1" stop-color="#D9EBFF"/>
    </radialGradient>
    <radialGradient id="z" cx="0" cy="0" r="1" gradientTransform="matrix(-2.54227 -.87537 .95966 -2.78706 3.1 1.5)" gradientUnits="userSpaceOnUse">
      <stop stop-color="#7A9FC7"/>
      <stop offset=".5" stop-color="#91B5DB"/>
      <stop offset="1" stop-color="#96B6D9" stop-opacity="0"/>
    </radialGradient>
    <radialGradient id="B" cx="0" cy="0" r="1" gradientTransform="matrix(-2.54227 -.87537 .95966 -2.78706 3.1 1.5)" gradientUnits="userSpaceOnUse">
      <stop stop-color="#7A9FC7"/>
      <stop offset=".5" stop-color="#91B5DB"/>
      <stop offset="1" stop-color="#96B6D9" stop-opacity="0"/>
    </radialGradient>
    <radialGradient id="D" cx="0" cy="0" r="1" gradientTransform="matrix(-2.54227 -.87537 .95966 -2.78706 3.1 1.5)" gradientUnits="userSpaceOnUse">
      <stop stop-color="#7A9FC7"/>
      <stop offset=".5" stop-color="#91B5DB"/>
      <stop offset="1" stop-color="#96B6D9" stop-opacity="0"/>
    </radialGradient>
    <radialGradient id="L" cx="0" cy="0" r="1" gradientTransform="rotate(69.3 -15.5 44.9) scale(3.40651 4.65301)" gradientUnits="userSpaceOnUse">
      <stop offset=".1" stop-color="#E8F1FF"/>
      <stop offset=".6" stop-color="#D3E4FE"/>
      <stop offset="1" stop-color="#B5D2FF"/>
    </radialGradient>
    <radialGradient id="U" cx="0" cy="0" r="1" gradientTransform="rotate(90.8 102.8 129.4) scale(5.19075 7.10135)" gradientUnits="userSpaceOnUse">
      <stop offset=".1" stop-color="#E8F1FF"/>
      <stop offset=".6" stop-color="#D3E4FE"/>
      <stop offset="1" stop-color="#B5D2FF"/>
    </radialGradient>
    <radialGradient id="X" cx="0" cy="0" r="1" gradientTransform="matrix(71.747 0 0 12.5472 125.9 150.4)" gradientUnits="userSpaceOnUse">
      <stop stop-color="#CCDBEB"/>
      <stop offset=".5" stop-color="#BDD0E3" stop-opacity=".4"/>
      <stop offset=".7" stop-color="#B0D0F2" stop-opacity=".2"/>
      <stop offset="1" stop-color="#B0D0F2" stop-opacity="0"/>
    </radialGradient>
    <linearGradient id="h" x1="160.7" x2="162" y1="17" y2="46.8" gradientUnits="userSpaceOnUse">
      <stop offset="0" stop-color="#9DC8FB" stop-opacity="0"/>
      <stop offset="1" stop-color="#9CC8FB"/>
    </linearGradient>
    <linearGradient id="n" x1="78.4" x2="99.4" y1="89.7" y2="93.3" gradientUnits="userSpaceOnUse">
      <stop stop-color="#0E5FBD"/>
      <stop offset="1" stop-color="#E7F2FC"/>
    </linearGradient>
    <linearGradient id="r" x1="51.7" x2="136.8" y1="56.6" y2="127.2" gradientUnits="userSpaceOnUse">
      <stop stop-color="#C9C1F2"/>
      <stop offset=".6" stop-color="#313071"/>
    </linearGradient>
    <linearGradient id="u" x1="47.5" x2="100.6" y1="65.3" y2="125.3" gradientUnits="userSpaceOnUse">
      <stop stop-color="#E8F0FB"/>
      <stop offset="1" stop-color="#C4DCFF"/>
    </linearGradient>
    <linearGradient id="w" x1="4.4" x2="20.9" y1="35.4" y2="55.4" gradientUnits="userSpaceOnUse">
      <stop stop-color="#F3F8FF"/>
      <stop offset=".2" stop-color="#E1EEFC"/>
      <stop offset=".7" stop-color="#E1EEFC"/>
      <stop offset=".8" stop-color="#F6F9FF"/>
      <stop offset="1" stop-color="#A2CDFA"/>
    </linearGradient>
    <linearGradient id="x" x1="12.1" x2="34.1" y1="34.5" y2="51.7" gradientUnits="userSpaceOnUse">
      <stop stop-color="#E6EEFB"/>
      <stop offset="1" stop-color="#BBDFFF"/>
    </linearGradient>
    <linearGradient id="J" x1="33.1" x2="29.2" y1="44.4" y2="45.3" gradientUnits="userSpaceOnUse">
      <stop stop-color="#F6F9FF"/>
      <stop offset="1" stop-color="#CCDBF3"/>
    </linearGradient>
    <linearGradient id="O" x1="218.8" x2="242.9" y1="2.4" y2="37.7" gradientUnits="userSpaceOnUse">
      <stop stop-color="#B1D9FD"/>
      <stop offset=".3" stop-color="#EFF7FF"/>
      <stop offset="1" stop-color="#65ABF2"/>
    </linearGradient>
    <linearGradient id="P" x1="208" x2="226.9" y1="3.9" y2="37.6" gradientUnits="userSpaceOnUse">
      <stop stop-color="#F7FBFF"/>
      <stop offset="1" stop-color="#F7FBFF"/>
    </linearGradient>
    <linearGradient id="S" x1="235.1" x2="224.9" y1="29.2" y2="33.2" gradientUnits="userSpaceOnUse">
      <stop stop-color="#FDFEFF"/>
      <stop offset="1" stop-color="#CCDBF3"/>
    </linearGradient>
    <clipPath id="M">
      <path fill="#fff" d="M0 0h44v40H0z" transform="translate(198 1)"/>
    </clipPath>
  </defs>
</svg>
