<svg width="807" height="123" viewBox="0 0 807 123" fill="none" xmlns="http://www.w3.org/2000/svg">
<path fill-rule="evenodd" clip-rule="evenodd" d="M112.948 75.6207L83.4835 12.3178C78.5727 1.62114 65.945 -2.93807 55.2464 1.97185C44.5479 6.88178 39.9879 19.5073 44.8987 30.2039L52.2649 45.9858C52.2649 45.9858 57.1757 57.7346 48.231 63.6966C38.0587 69.6587 29.2894 63.1706 21.0463 63.1706C9.47082 63.3459 0 72.8151 0 84.5638C0 96.3125 9.47082 105.782 21.2216 105.782C29.4648 105.782 36.4802 101.222 39.9879 94.3836C39.9879 94.3836 45.7756 82.9856 55.071 81.7581C68.225 80.0046 74.5388 93.6822 74.5388 93.6822C79.4496 104.379 92.0774 108.938 102.776 104.028C113.299 98.9429 118.034 86.3173 112.948 75.6207Z" fill="#FA573A"/>
<path d="M236.143 38.2767C232.284 31.4358 226.847 25.9981 220.181 22.1392C213.516 18.1048 205.973 16.1753 197.729 16.1753C189.485 16.1753 181.767 18.1048 174.926 22.1392C168.085 25.9981 162.823 31.4358 158.788 38.2767C154.929 44.9422 153 52.6602 153 60.9043C153 69.1485 154.754 76.8665 158.262 83.7074C161.946 90.3729 166.857 95.8105 173.172 99.6695C179.487 103.529 186.678 105.458 194.396 105.458C200.711 105.458 206.499 104.23 211.937 101.599C215.445 99.8449 218.778 97.74 221.585 95.1089C221.585 97.9154 222.462 100.196 224.391 102.125L224.566 102.301C226.496 104.055 228.952 105.107 231.758 105.107C234.565 105.107 237.02 104.23 238.95 102.301C240.879 100.371 241.932 97.9154 241.932 94.9335V60.9043C242.107 52.6602 240.178 44.9422 236.143 38.2767ZM222.462 60.9043C222.462 65.8158 221.409 70.3764 219.304 74.4108C217.199 78.2697 214.217 81.4271 210.358 83.7074C206.675 85.9877 202.465 87.0401 197.729 87.0401C192.993 87.0401 188.783 85.9877 184.924 83.7074C181.241 81.4271 178.083 78.2697 175.978 74.4108C173.874 70.3764 172.646 65.8158 172.646 60.9043C172.646 55.9929 173.698 51.4323 175.803 47.3979C178.083 43.3635 181.065 40.2062 184.749 37.9259C188.608 35.6456 192.818 34.4177 197.554 34.4177C202.29 34.4177 206.499 35.6456 210.183 37.9259C214.042 40.2062 217.024 43.3635 219.129 47.2225C221.409 51.4323 222.462 55.9929 222.462 60.9043Z" fill="#1DB1DF"/>
<path d="M335.074 81.4271C331.39 78.796 327.005 78.9714 322.62 82.3041C318.761 85.4615 313.674 87.0401 307.184 87.0401C302.272 87.0401 297.887 85.9877 294.028 83.7074C290.344 81.4271 287.363 78.4452 285.258 74.5862C283.153 70.5518 282.1 65.9912 282.1 60.9043C282.1 52.8356 284.381 46.5209 288.766 41.7849C293.326 36.8734 298.939 34.5931 306.307 34.5931C309.815 34.5931 312.972 35.1194 315.779 36.3472C318.585 37.3997 321.041 39.3292 323.321 41.6095C325.426 43.8898 328.057 45.1176 331.039 45.1176C332.793 45.1176 334.547 44.5914 335.951 43.7144C339.634 41.2586 340.336 38.2767 340.336 36.1718C340.336 34.0669 339.634 32.1374 338.231 30.7342C329.811 21.0867 319.111 16.1753 306.482 16.1753C298.062 16.1753 290.52 18.1048 283.854 21.9638C277.189 25.6473 271.927 31.085 268.068 37.9259C264.384 44.5914 262.63 52.3094 262.63 60.9043C262.63 69.1485 264.56 76.8665 268.243 83.7074C272.102 90.3729 277.54 95.8105 284.381 99.6695C291.222 103.529 298.94 105.458 307.359 105.458C318.936 105.458 328.759 101.774 336.652 94.5827C338.406 93.004 339.108 90.8991 339.108 88.7942C338.757 85.9877 337.529 83.532 335.074 81.4271Z" fill="#1DB1DF"/>
<path d="M474.172 25.6473C468.384 19.3326 460.49 16.1753 451.018 16.1753C445.054 16.1753 439.617 17.4031 434.705 19.6835C430.671 21.6129 427.163 24.0687 424.356 27.0506C421.725 23.8932 418.568 21.6129 415.06 19.8589C410.674 17.5786 405.588 16.3507 399.974 16.3507C395.414 16.3507 391.029 17.2277 387.17 18.8064C384.539 19.8589 382.083 21.2621 379.803 22.8408C379.276 21.7884 378.575 20.9113 377.873 20.0343C375.944 18.1048 373.663 17.2277 370.681 17.2277C367.875 17.2277 365.419 18.1048 363.314 20.0343C361.385 21.9638 360.508 24.4195 360.508 27.4014V95.2843C360.508 98.0909 361.385 100.547 363.314 102.476L363.49 102.651C365.419 104.406 367.875 105.458 370.681 105.458C373.663 105.458 376.119 104.581 378.048 102.651C379.803 100.722 380.855 98.2663 380.855 95.4597V51.9585C380.855 46.8717 382.258 42.6619 385.24 39.5046C388.222 36.3472 392.081 34.7685 396.993 34.7685C401.553 34.7685 405.061 36.1718 407.868 38.9783C410.499 41.6095 411.902 45.8193 411.902 51.4323V95.1089C411.902 97.9154 412.779 100.371 414.709 102.301L414.884 102.476C416.814 104.23 419.269 105.283 422.076 105.283C425.058 105.283 427.514 104.406 429.443 102.476C431.197 100.547 432.25 98.0909 432.25 95.2843V51.9585C432.25 46.8717 433.653 42.6619 436.635 39.5046C439.617 36.3472 443.476 34.7685 448.212 34.7685C452.772 34.7685 456.281 36.1718 459.087 38.9783C461.718 41.6095 463.121 45.8193 463.121 51.4323V95.1089C463.121 97.9154 463.998 100.371 465.928 102.301L466.103 102.476C468.033 104.23 470.489 105.283 473.295 105.283C476.277 105.283 478.733 104.406 480.662 102.476C482.416 100.547 483.469 98.0909 483.469 95.2843V51.4323C483.118 40.557 480.136 31.7866 474.172 25.6473Z" fill="#1DB1DF"/>
<path d="M586.784 37.6014C582.925 30.7605 577.488 25.3229 570.647 21.4639C563.806 17.4295 556.263 15.5 548.019 15.5C539.775 15.5 532.057 17.4295 525.391 21.4639C518.726 25.3229 513.288 30.7605 509.429 37.6014C505.57 44.2669 503.641 51.9849 503.641 60.2291V112.676C503.641 115.658 504.518 118.114 506.447 120.043C508.377 121.797 510.693 123 513.5 123C516.482 123 519.077 121.973 521.006 120.043C522.936 118.114 523.813 115.658 523.813 112.676V94.4336C526.619 97.0647 529.952 99.1696 533.46 100.924C538.898 103.555 544.862 104.783 551.001 104.783C558.719 104.783 565.911 102.853 572.225 98.9942C578.54 95.1353 583.627 89.6976 587.135 83.0321C590.819 76.1912 592.573 68.4732 592.573 60.2291C592.573 51.9849 590.643 44.2669 586.784 37.6014ZM572.927 60.2291C572.927 65.1405 571.874 69.7011 569.594 73.7355C567.489 77.5945 564.507 80.7518 560.648 83.0321C556.965 85.3124 552.755 86.3649 548.019 86.3649C543.283 86.3649 539.073 85.3124 535.214 83.0321C531.531 80.7518 528.549 77.5945 526.444 73.7355C524.339 69.7011 523.111 65.1405 523.111 60.2291C523.111 55.3176 524.163 50.757 526.444 46.7226C528.549 42.6882 531.531 39.5309 535.214 37.426C539.073 35.1457 543.283 33.9178 548.019 33.9178C552.755 33.9178 556.965 35.1457 560.648 37.426C564.507 39.7063 567.489 42.8637 569.594 46.7226C571.699 50.757 572.927 55.3176 572.927 60.2291Z" fill="#1DB1DF"/>
<path d="M696.063 38.1014C692.204 31.2605 686.767 25.8229 680.101 21.9639C673.436 17.9295 665.893 16 657.649 16C649.405 16 641.687 17.9295 634.846 21.9639C628.005 25.8229 622.743 31.2605 618.708 38.1014C614.849 44.7669 612.92 52.4849 612.92 60.7291C612.92 68.9732 614.674 76.6912 618.182 83.5321C621.866 90.1976 626.777 95.6353 633.092 99.4942C639.407 103.353 646.598 105.283 654.316 105.283C660.631 105.283 666.419 104.055 671.857 101.424C675.365 99.6696 678.698 97.5647 681.504 94.9336C681.504 97.7402 682.382 100.02 684.311 101.95L684.486 102.125C686.416 103.879 688.872 104.932 691.678 104.932C694.485 104.932 696.94 104.055 698.87 102.125C700.799 100.196 701.852 97.7402 701.852 94.7582V60.7291C702.027 52.4849 699.922 44.7669 696.063 38.1014ZM682.381 60.7291C682.381 65.6405 681.329 70.2011 679.224 74.2355C677.119 78.0945 674.137 81.2518 670.278 83.5321C666.595 85.8124 662.385 86.8649 657.649 86.8649C652.913 86.8649 648.703 85.8124 644.844 83.5321C641.161 81.2518 638.003 78.0945 635.898 74.2355C633.793 70.2011 632.566 65.6405 632.566 60.7291C632.566 55.8176 633.618 51.257 635.723 47.2226C638.003 43.1882 640.985 40.0309 644.669 37.7506C648.528 35.4703 652.738 34.2424 657.474 34.2424C662.21 34.2424 666.419 35.4703 670.103 37.7506C673.962 40.0309 676.944 43.1882 679.049 47.0472C681.154 51.257 682.381 55.8176 682.381 60.7291Z" fill="#1DB1DF"/>
<path d="M805.968 92.0745L774.395 23.49C771.939 18.2277 768.08 16.9999 765.273 16.9999C762.993 16.9999 761.239 17.5261 759.66 18.5786C758.082 19.631 756.854 21.2097 755.801 23.3146L724.052 91.7237C723.351 93.127 723 94.5302 723 95.9335C723 98.2138 724.052 101.371 728.613 103.827C730.192 104.704 731.946 105.23 733.7 105.23C736.156 105.23 739.664 104.353 741.769 99.7925L765.449 47.8717L788.427 99.9679C790.707 104.353 794.04 105.406 796.321 105.406C797.724 105.406 799.302 105.055 801.232 104.178C802.986 103.476 804.389 102.424 805.442 101.02C806.494 99.6171 807 97.9294 807 95.9999C806.825 94.9474 806.494 93.6532 805.968 92.0745Z" fill="#1DB1DF"/>
</svg>
