<svg width="228" height="260" viewBox="0 0 228 260" fill="none" xmlns="http://www.w3.org/2000/svg">
    <circle cx="114.319" cy="101.68" r="96.6358" fill="#EBEEF1" stroke="#B7C2CE" stroke-width="2.08163"/>
    <mask id="mask0_16607_11510" style="mask-type:alpha" maskUnits="userSpaceOnUse" x="78" y="20" width="140" height="165">
        <path d="M78.8993 133.857L134.566 23.4337C135.874 20.8386 139.039 19.7954 141.634 21.1037L202.394 51.7341C203.654 52.3694 204.606 53.484 205.036 54.8278L217.1 92.4918C217.521 93.8062 217.409 95.2334 216.788 96.4658L173.816 181.706C172.508 184.302 169.343 185.345 166.748 184.036L81.2293 140.924C78.6342 139.616 77.591 136.452 78.8993 133.857Z" fill="#C4C4C4"/>
    </mask>
    <g mask="url(#mask0_16607_11510)">
        <path d="M78.8993 133.857L134.566 23.4337C135.874 20.8386 139.039 19.7954 141.634 21.1037L202.394 51.7341C203.654 52.3694 204.606 53.484 205.036 54.8278L217.1 92.4918C217.521 93.8062 217.409 95.2334 216.788 96.4658L173.816 181.706C172.508 184.302 169.343 185.345 166.748 184.036L81.2293 140.924C78.6342 139.616 77.591 136.452 78.8993 133.857Z" fill="white"/>
        <path d="M205.194 50.4941L235.737 65.8913C238.332 67.1996 239.375 70.3639 238.067 72.959L225.275 98.3328L194.733 82.9356C192.138 81.6273 191.094 78.463 192.403 75.8679L205.194 50.4941Z" fill="#B7C2CE"/>
        <mask id="mask1_16607_11510" style="mask-type:alpha" maskUnits="userSpaceOnUse" x="106" y="71" width="88" height="77">
            <rect x="127.702" y="70.9482" width="74.9388" height="48.9381" rx="2.63108" transform="rotate(26.7537 127.702 70.9482)" fill="#C4C4C4"/>
        </mask>
        <g mask="url(#mask1_16607_11510)">
            <rect x="128.163" y="72.3462" width="72.8571" height="46.8565" rx="1.59027" transform="rotate(26.7537 128.163 72.3462)" stroke="#B7C2CE" stroke-width="2.08163"/>
            <path fill-rule="evenodd" clip-rule="evenodd" d="M118.723 80.5778C118.982 80.0645 119.608 79.8582 120.121 80.117L196.733 118.739C197.246 118.998 197.452 119.623 197.194 120.137C196.935 120.65 196.309 120.856 195.796 120.598L119.184 81.9758C118.67 81.717 118.464 81.0911 118.723 80.5778Z" fill="#B7C2CE"/>
            <path fill-rule="evenodd" clip-rule="evenodd" d="M113.748 90.445C114.007 89.9317 114.633 89.7254 115.146 89.9842L191.758 128.606C192.271 128.865 192.478 129.491 192.219 130.004C191.96 130.517 191.334 130.724 190.821 130.465L114.209 91.8429C113.696 91.5842 113.49 90.9583 113.748 90.445Z" fill="#B7C2CE"/>
            <path fill-rule="evenodd" clip-rule="evenodd" d="M107.826 102.193C108.085 101.679 108.711 101.473 109.224 101.732L185.836 140.354C186.349 140.612 186.556 141.238 186.297 141.751C186.038 142.265 185.412 142.471 184.899 142.212L108.287 103.591C107.774 103.332 107.568 102.706 107.826 102.193Z" fill="#B7C2CE"/>
        </g>
        <path fill-rule="evenodd" clip-rule="evenodd" d="M145.457 39.2368C145.849 38.4583 146.798 38.1453 147.577 38.5378L186.577 58.1988C187.356 58.5913 187.669 59.5406 187.276 60.3191C186.884 61.0976 185.935 61.4106 185.156 61.0181L146.156 41.3571C145.377 40.9646 145.064 40.0153 145.457 39.2368Z" fill="#B7C2CE"/>
        <path fill-rule="evenodd" clip-rule="evenodd" d="M140.245 49.5742C140.638 48.7957 141.587 48.4827 142.366 48.8752L155.992 55.7447C156.771 56.1372 157.084 57.0865 156.691 57.865C156.299 58.6435 155.35 58.9565 154.571 58.564L140.944 51.6945C140.166 51.302 139.853 50.3527 140.245 49.5742Z" fill="#B7C2CE"/>
        <line x1="99.7429" y1="128.748" x2="114.309" y2="136.091" stroke="#B7C2CE" stroke-width="2.10487" stroke-linecap="round"/>
        <line x1="122.297" y1="140.118" x2="129.816" y2="143.909" stroke="#B7C2CE" stroke-width="2.10487" stroke-linecap="round"/>
    </g>
    <path d="M79.8288 134.325L135.496 23.9022C136.545 21.8204 139.083 20.9836 141.165 22.0331L201.925 52.6635C202.936 53.1731 203.7 54.0673 204.045 55.1453L216.109 92.8093C216.447 93.8637 216.357 95.0086 215.859 95.9973L172.887 181.238C171.837 183.32 169.299 184.157 167.217 183.107L81.698 139.995C79.6162 138.945 78.7793 136.407 79.8288 134.325Z" stroke="#B7C2CE" stroke-width="2.08163"/>
    <mask id="mask2_16607_11510" style="mask-type:alpha" maskUnits="userSpaceOnUse" x="5" y="28" width="156" height="152">
        <path d="M68.135 177.289L6.30455 70.1954C4.85144 67.6785 5.71377 64.4602 8.23063 63.0071L67.1585 28.9851C68.3806 28.2795 69.8348 28.0943 71.1946 28.4711L109.308 39.0305C110.638 39.399 111.77 40.2753 112.46 41.4705L160.19 124.141C161.643 126.658 160.781 129.876 158.264 131.329L75.3233 179.215C72.8064 180.668 69.5881 179.806 68.135 177.289Z" fill="#C4C4C4"/>
    </mask>
    <g mask="url(#mask2_16607_11510)">
        <path d="M68.135 177.289L6.30455 70.1954C4.85144 67.6785 5.71377 64.4602 8.23063 63.0071L67.1585 28.9851C68.3806 28.2795 69.8348 28.0943 71.1946 28.4711L109.308 39.0305C110.638 39.399 111.77 40.2753 112.46 41.4705L160.19 124.141C161.643 126.658 160.781 129.876 158.264 131.329L75.3233 179.215C72.8064 180.668 69.5881 179.806 68.135 177.289Z" fill="white"/>
        <path d="M67.657 25.9629L97.2786 8.86086C99.7954 7.40775 103.014 8.27008 104.467 10.7869L118.675 35.3957L89.0531 52.4977C86.5362 53.9508 83.3179 53.0885 81.8648 50.5716L67.657 25.9629Z" fill="#B7C2CE"/>
        <mask id="mask3_16607_11510" style="mask-type:alpha" maskUnits="userSpaceOnUse" x="43" y="63" width="92" height="81">
            <rect x="42.2787" y="101.985" width="79.4587" height="48.9382" rx="2.63108" transform="rotate(-30 42.2787 101.985)" fill="#C4C4C4"/>
        </mask>
        <g mask="url(#mask3_16607_11510)">
            <rect x="43.7005" y="102.366" width="77.3771" height="46.8565" rx="1.59027" transform="rotate(-30 43.7005 102.366)" stroke="#B7C2CE" stroke-width="2.08163"/>
            <line x1="46.3105" y1="114.254" x2="120.613" y2="71.3552" stroke="#B7C2CE" stroke-width="2.08163" stroke-linecap="round"/>
            <line x1="51.8358" y1="123.823" x2="126.138" y2="80.9251" stroke="#B7C2CE" stroke-width="2.08163" stroke-linecap="round"/>
            <line x1="58.4134" y1="135.216" x2="132.715" y2="92.3181" stroke="#B7C2CE" stroke-width="2.08163" stroke-linecap="round"/>
        </g>
        <path fill-rule="evenodd" clip-rule="evenodd" d="M25.7432 70.1865C25.1684 69.1909 25.3145 68.0304 26.0695 67.5945L63.894 45.7565C64.6491 45.3205 65.7272 45.7743 66.302 46.7699C66.8768 47.7655 66.7307 48.926 65.9757 49.362L28.1512 71.2C27.3961 71.6359 26.318 71.1822 25.7432 70.1865Z" fill="#B7C2CE"/>
        <path fill-rule="evenodd" clip-rule="evenodd" d="M31.5317 80.2124C30.9568 79.2168 31.1029 78.0563 31.858 77.6203L45.0738 69.9902C45.8288 69.5543 46.9069 70.008 47.4818 71.0036C48.0566 71.9993 47.9105 73.1598 47.1554 73.5957L33.9396 81.2258C33.1846 81.6618 32.1065 81.208 31.5317 80.2124Z" fill="#B7C2CE"/>
        <path fill-rule="evenodd" clip-rule="evenodd" d="M74.3725 157.572C74.085 157.074 74.2601 156.435 74.7635 156.145L88.8907 147.988C89.3941 147.698 90.0351 147.866 90.3226 148.363C90.61 148.861 90.4349 149.5 89.9315 149.791L75.8043 157.947C75.3009 158.238 74.6599 158.07 74.3725 157.572Z" fill="#B7C2CE"/>
        <path fill-rule="evenodd" clip-rule="evenodd" d="M96.2468 144.943C95.9594 144.445 96.1345 143.806 96.6379 143.515L103.929 139.306C104.433 139.015 105.074 139.183 105.361 139.681C105.649 140.179 105.474 140.818 104.97 141.108L97.6787 145.318C97.1753 145.609 96.5343 145.441 96.2468 144.943Z" fill="#B7C2CE"/>
    </g>
    <path d="M69.0364 176.768L7.20592 69.6749C6.04022 67.6559 6.732 65.0742 8.75104 63.9085L67.679 29.8864C68.6593 29.3204 69.8258 29.1719 70.9167 29.4741L109.03 40.0335C110.097 40.3291 111.005 41.0321 111.559 41.9909L159.288 124.661C160.454 126.68 159.762 129.262 157.743 130.428L74.8028 178.314C72.7838 179.479 70.2021 178.787 69.0364 176.768Z" stroke="#B7C2CE" stroke-width="2.08163"/>
    <mask id="mask4_16607_11510" style="mask-type:alpha" maskUnits="userSpaceOnUse" x="49" y="16" width="130" height="172">
        <path d="M49.4694 180.942V23.0583C49.4694 19.5209 52.337 16.6533 55.8744 16.6533H138.381C140.15 16.6533 141.841 17.3852 143.051 18.6754L176.796 54.6336C177.91 55.821 178.531 57.3882 178.531 59.0166V180.942C178.531 184.48 175.663 187.347 172.126 187.347H55.8744C52.337 187.347 49.4694 184.48 49.4694 180.942Z" fill="#C4C4C4"/>
    </mask>
    <g mask="url(#mask4_16607_11510)">
        <path d="M49.4694 180.942V23.0583C49.4694 19.5209 52.337 16.6533 55.8744 16.6533H138.381C140.15 16.6533 141.841 17.3852 143.051 18.6754L176.796 54.6336C177.91 55.821 178.531 57.3882 178.531 59.0166V180.942C178.531 184.48 175.663 187.347 172.126 187.347H55.8744C52.337 187.347 49.4694 184.48 49.4694 180.942Z" fill="white"/>
        <path d="M141.061 14.5718H182.534C186.071 14.5718 188.939 17.4394 188.939 20.9768V58.2861H147.466C143.929 58.2861 141.061 55.4184 141.061 51.881V14.5718Z" fill="#B7C2CE"/>
        <mask id="mask5_16607_11510" style="mask-type:alpha" maskUnits="userSpaceOnUse" x="66" y="81" width="96" height="63">
            <rect x="66.1224" y="81.1841" width="95.7551" height="62.449" rx="2.08163" fill="#C4C4C4"/>
        </mask>
        <g mask="url(#mask5_16607_11510)">
            <rect x="67.1633" y="82.2249" width="93.6735" height="60.3673" rx="1.04082" stroke="#B7C2CE" stroke-width="2.08163"/>
            <path fill-rule="evenodd" clip-rule="evenodd" d="M66.1224 96.8763C66.1224 96.3457 66.5526 95.9155 67.0832 95.9155H160.917C161.447 95.9155 161.878 96.3457 161.878 96.8763C161.878 97.4069 161.447 97.837 160.917 97.837H67.0832C66.5526 97.837 66.1224 97.4069 66.1224 96.8763Z" fill="#B7C2CE"/>
            <path fill-rule="evenodd" clip-rule="evenodd" d="M66.1224 111.448C66.1224 110.917 66.5526 110.487 67.0832 110.487H160.917C161.447 110.487 161.878 110.917 161.878 111.448C161.878 111.978 161.447 112.408 160.917 112.408H67.0832C66.5526 112.408 66.1224 111.978 66.1224 111.448Z" fill="#B7C2CE"/>
            <path fill-rule="evenodd" clip-rule="evenodd" d="M66.1224 128.101C66.1224 127.57 66.5526 127.14 67.0832 127.14H160.917C161.447 127.14 161.878 127.57 161.878 128.101C161.878 128.631 161.447 129.062 160.917 129.062H67.0832C66.5526 129.062 66.1224 128.631 66.1224 128.101Z" fill="#B7C2CE"/>
        </g>
        <path fill-rule="evenodd" clip-rule="evenodd" d="M70.2856 39.5514C70.2856 38.4017 71.1459 37.4697 72.2072 37.4697H118.323C119.385 37.4697 120.245 38.4017 120.245 39.5514C120.245 40.701 119.385 41.633 118.323 41.633H72.2072C71.1459 41.633 70.2856 40.701 70.2856 39.5514Z" fill="#B7C2CE"/>
        <path fill-rule="evenodd" clip-rule="evenodd" d="M70.2856 47.878C70.2856 46.7284 71.1459 45.7964 72.2072 45.7964H89.1805C90.2417 45.7964 91.102 46.7284 91.102 47.878C91.102 49.0277 90.2417 49.9597 89.1805 49.9597H72.2072C71.1459 49.9597 70.2856 49.0277 70.2856 47.878Z" fill="#B7C2CE"/>
        <path fill-rule="evenodd" clip-rule="evenodd" d="M68.2041 163.408C68.2041 162.834 68.5205 162.368 69.2449 162.368H90.0612C90.7857 162.368 91.1021 162.834 91.1021 163.408C91.1021 163.983 90.7857 164.449 90.0612 164.449H69.2449C68.5205 164.449 68.2041 163.983 68.2041 163.408Z" fill="#B7C2CE"/>
        <path fill-rule="evenodd" clip-rule="evenodd" d="M99.4286 163.408C99.4286 162.834 99.7779 162.368 100.469 162.368H110.878C111.569 162.368 111.918 162.834 111.918 163.408C111.918 163.983 111.569 164.449 110.878 164.449H100.469C99.7779 164.449 99.4286 163.983 99.4286 163.408Z" fill="#B7C2CE"/>
    </g>
    <path d="M50.5102 180.942V23.0583C50.5102 20.0958 52.9118 17.6941 55.8744 17.6941H138.381C139.863 17.6941 141.279 18.3071 142.293 19.3876L176.037 55.3458C176.97 56.3403 177.49 57.6528 177.49 59.0166V180.942C177.49 183.905 175.088 186.306 172.126 186.306H55.8744C52.9118 186.306 50.5102 183.905 50.5102 180.942Z" stroke="#B7C2CE" stroke-width="2.08163"/>
    <circle cx="18.5652" cy="43.7145" r="4.48352" fill="#F0F4F7"/>
    <circle cx="199.187" cy="26.9012" r="6.08477" fill="#F0F4F7"/>
    <circle cx="40.022" cy="182.383" r="4.16327" fill="#DDE2E8"/>
    <circle cx="28.4929" cy="29.9438" r="2.88226" fill="#DDE2E8"/>
    <circle cx="189.259" cy="15.2123" r="2.88226" fill="#DDE2E8"/>
    <circle cx="205.272" cy="155.482" r="2.88226" fill="#EBEEF1"/>
    <path d="M67.3934 241.14H69.9134V255H67.3934V248.86H61.3734V255H58.8534V241.14H61.3734V246.68H67.3934V241.14ZM72.5284 249.82C72.5284 248.9 72.6617 248.093 72.9284 247.4C73.2084 246.707 73.575 246.133 74.0284 245.68C74.4817 245.213 75.0017 244.867 75.5884 244.64C76.175 244.4 76.775 244.28 77.3884 244.28C78.8284 244.28 79.9484 244.727 80.7484 245.62C81.5617 246.513 81.9684 247.847 81.9684 249.62C81.9684 249.753 81.9617 249.907 81.9484 250.08C81.9484 250.24 81.9417 250.387 81.9284 250.52H75.0284C75.095 251.36 75.3884 252.013 75.9084 252.48C76.4417 252.933 77.2084 253.16 78.2084 253.16C78.795 253.16 79.3284 253.107 79.8084 253C80.3017 252.893 80.6884 252.78 80.9684 252.66L81.2884 254.64C81.155 254.707 80.9684 254.78 80.7284 254.86C80.5017 254.927 80.235 254.987 79.9284 255.04C79.635 255.107 79.315 255.16 78.9684 255.2C78.6217 255.24 78.2684 255.26 77.9084 255.26C76.9884 255.26 76.1884 255.127 75.5084 254.86C74.8284 254.58 74.2684 254.2 73.8284 253.72C73.3884 253.227 73.0617 252.653 72.8484 252C72.635 251.333 72.5284 250.607 72.5284 249.82ZM79.5484 248.74C79.5484 248.407 79.5017 248.093 79.4084 247.8C79.315 247.493 79.175 247.233 78.9884 247.02C78.815 246.793 78.595 246.62 78.3284 246.5C78.075 246.367 77.7684 246.3 77.4084 246.3C77.035 246.3 76.7084 246.373 76.4284 246.52C76.1484 246.653 75.9084 246.833 75.7084 247.06C75.5217 247.287 75.375 247.547 75.2684 247.84C75.1617 248.133 75.0884 248.433 75.0484 248.74H79.5484ZM92.4141 246.56H89.0341V255H86.6141V246.56H83.2541V244.54H92.4141V246.56ZM97.6096 253.02H98.8096C99.2229 252.473 99.5429 251.867 99.7696 251.2C100.01 250.52 100.183 249.813 100.29 249.08C100.396 248.333 100.463 247.573 100.49 246.8C100.516 246.027 100.536 245.273 100.55 244.54H108.05V253.02H109.65V257.96H107.49V255H99.7496V257.96H97.6096V253.02ZM105.63 253.02V246.54H102.79C102.763 247.087 102.73 247.647 102.69 248.22C102.65 248.78 102.576 249.34 102.47 249.9C102.363 250.447 102.216 250.987 102.03 251.52C101.856 252.04 101.623 252.54 101.33 253.02H105.63ZM115.226 253.3C115.973 253.3 116.539 253.26 116.926 253.18V250.5C116.793 250.46 116.599 250.42 116.346 250.38C116.093 250.34 115.813 250.32 115.506 250.32C115.239 250.32 114.966 250.34 114.686 250.38C114.419 250.42 114.173 250.493 113.946 250.6C113.733 250.707 113.559 250.86 113.426 251.06C113.293 251.247 113.226 251.487 113.226 251.78C113.226 252.353 113.406 252.753 113.766 252.98C114.126 253.193 114.613 253.3 115.226 253.3ZM115.026 244.28C115.826 244.28 116.499 244.38 117.046 244.58C117.593 244.78 118.026 245.06 118.346 245.42C118.679 245.78 118.913 246.22 119.046 246.74C119.193 247.247 119.266 247.807 119.266 248.42V254.76C118.893 254.84 118.326 254.933 117.566 255.04C116.819 255.16 115.973 255.22 115.026 255.22C114.399 255.22 113.826 255.16 113.306 255.04C112.786 254.92 112.339 254.727 111.966 254.46C111.606 254.193 111.319 253.847 111.106 253.42C110.906 252.993 110.806 252.467 110.806 251.84C110.806 251.24 110.919 250.733 111.146 250.32C111.386 249.907 111.706 249.573 112.106 249.32C112.506 249.053 112.966 248.867 113.486 248.76C114.019 248.64 114.573 248.58 115.146 248.58C115.413 248.58 115.693 248.6 115.986 248.64C116.279 248.667 116.593 248.72 116.926 248.8V248.4C116.926 248.12 116.893 247.853 116.826 247.6C116.759 247.347 116.639 247.127 116.466 246.94C116.306 246.74 116.086 246.587 115.806 246.48C115.539 246.373 115.199 246.32 114.786 246.32C114.226 246.32 113.713 246.36 113.246 246.44C112.779 246.52 112.399 246.613 112.106 246.72L111.806 244.76C112.113 244.653 112.559 244.547 113.146 244.44C113.733 244.333 114.359 244.28 115.026 244.28ZM131.009 255H128.589V250.62H124.649V255H122.229V244.54H124.649V248.62H128.589V244.54H131.009V255ZM142.865 255H140.445V250.62H136.505V255H134.085V244.54H136.505V248.62H140.445V244.54H142.865V255ZM158.68 255H156.26V244.54H158.68V255ZM148.36 248.4C148.56 248.347 148.847 248.3 149.22 248.26C149.607 248.22 149.98 248.2 150.34 248.2C150.914 248.2 151.454 248.267 151.96 248.4C152.48 248.533 152.927 248.747 153.3 249.04C153.687 249.32 153.987 249.687 154.2 250.14C154.427 250.58 154.54 251.107 154.54 251.72C154.54 252.347 154.434 252.88 154.22 253.32C154.007 253.76 153.707 254.12 153.32 254.4C152.934 254.68 152.467 254.887 151.92 255.02C151.387 255.153 150.794 255.22 150.14 255.22C149.38 255.22 148.66 255.18 147.98 255.1C147.314 255.02 146.634 254.9 145.94 254.74V244.54H148.36V248.4ZM150.08 253.32C150.707 253.32 151.2 253.193 151.56 252.94C151.934 252.673 152.12 252.253 152.12 251.68C152.12 251.387 152.06 251.14 151.94 250.94C151.82 250.74 151.654 250.58 151.44 250.46C151.24 250.327 151.007 250.233 150.74 250.18C150.487 250.127 150.22 250.1 149.94 250.1C149.687 250.1 149.407 250.113 149.1 250.14C148.807 250.153 148.56 250.187 148.36 250.24V253.22C148.534 253.247 148.787 253.273 149.12 253.3C149.454 253.313 149.774 253.32 150.08 253.32ZM165.521 247.96L167.741 244.54H170.281L166.841 249.48C167.561 250.413 168.247 251.36 168.901 252.32C169.567 253.267 170.114 254.16 170.541 255H167.921C167.801 254.747 167.641 254.46 167.441 254.14C167.254 253.807 167.047 253.467 166.821 253.12C166.607 252.76 166.381 252.407 166.141 252.06C165.901 251.713 165.667 251.387 165.441 251.08C164.974 251.68 164.514 252.347 164.061 253.08C163.621 253.8 163.254 254.44 162.961 255H160.481C160.681 254.6 160.921 254.173 161.201 253.72C161.481 253.267 161.781 252.807 162.101 252.34C162.421 251.86 162.747 251.387 163.081 250.92C163.427 250.44 163.767 249.987 164.101 249.56L160.641 244.54H163.301L165.521 247.96Z" fill="#778DA8"/>
</svg>
