<svg width="24" height="24" viewBox="0 0 24 24" fill="none" xmlns="http://www.w3.org/2000/svg">
<path fill-rule="evenodd" clip-rule="evenodd" d="M12.7664 3.98282C13.0093 4.08349 13.2301 4.23105 13.416 4.41707L19.584 10.5841C19.7701 10.77 19.9178 10.9908 20.0186 11.2339C20.1194 11.4769 20.1712 11.7375 20.1712 12.0006C20.1712 12.2637 20.1194 12.5242 20.0186 12.7673C19.9178 13.0103 19.7701 13.2311 19.584 13.4171L13.416 19.5841C13.2301 19.7701 13.0093 19.9176 12.7664 20.0183C12.5234 20.119 12.263 20.1708 12 20.1708C11.737 20.1708 11.4766 20.119 11.2336 20.0183C10.9906 19.9176 10.7699 19.7701 10.584 19.5841L4.41598 13.4171C4.22982 13.2311 4.08213 13.0103 3.98136 12.7673C3.8806 12.5242 3.82874 12.2637 3.82874 12.0006C3.82874 11.7375 3.8806 11.4769 3.98136 11.2339C4.08213 10.9908 4.22982 10.77 4.41598 10.5841L10.584 4.41707C10.7699 4.23105 10.9906 4.08349 11.2336 3.98282C11.4766 3.88214 11.737 3.83032 12 3.83032C12.263 3.83032 12.5234 3.88214 12.7664 3.98282ZM11.2929 13.7072C11.4804 13.8947 11.7348 14.0001 12 14.0001C12.2652 14.0001 12.5195 13.8947 12.7071 13.7072C12.8946 13.5196 13 13.2653 13 13.0001V8.00006C13 7.73484 12.8946 7.48049 12.7071 7.29295C12.5195 7.10542 12.2652 7.00006 12 7.00006C11.7348 7.00006 11.4804 7.10542 11.2929 7.29295C11.1053 7.48049 11 7.73484 11 8.00006V13.0001C11 13.2653 11.1053 13.5196 11.2929 13.7072ZM11.2929 16.7072C11.4804 16.8947 11.7348 17.0001 12 17.0001C12.2652 17.0001 12.5195 16.8947 12.7071 16.7072C12.8946 16.5196 13 16.2653 13 16.0001C13 15.7348 12.8946 15.4805 12.7071 15.293C12.5195 15.1054 12.2652 15.0001 12 15.0001C11.7348 15.0001 11.4804 15.1054 11.2929 15.293C11.1053 15.4805 11 15.7348 11 16.0001C11 16.2653 11.1053 16.5196 11.2929 16.7072Z" fill="#F24646"/>
</svg>
