<svg width="24" height="24" viewBox="0 0 24 24" fill="none" xmlns="http://www.w3.org/2000/svg">
<path d="M6.43243 14.0863L5.73625 16.6852L3.19176 16.739C2.43133 15.3286 2 13.7149 2 12C2 10.3418 2.40328 8.77804 3.11813 7.40112H3.11867L5.38399 7.81644L6.37633 10.0682C6.16864 10.6737 6.05543 11.3237 6.05543 12C6.05551 12.7341 6.18848 13.4374 6.43243 14.0863Z" fill="#FBBB00"/>
<path d="M21.8253 10.1318C21.9402 10.7368 22.0001 11.3615 22.0001 12C22.0001 12.7159 21.9248 13.4143 21.7814 14.0879C21.2946 16.3802 20.0226 18.3818 18.2605 19.7983L18.26 19.7978L15.4067 19.6522L15.0029 17.1313C16.1721 16.4456 17.0859 15.3725 17.5672 14.0879H12.2199V10.1318H17.6452H21.8253Z" fill="#518EF8"/>
<path d="M18.26 19.798L18.2605 19.7985C16.5468 21.176 14.3699 22.0001 12.0001 22.0001C8.19184 22.0001 4.88086 19.8716 3.19183 16.7392L6.4325 14.0864C7.27699 16.3403 9.45118 17.9447 12.0001 17.9447C13.0957 17.9447 14.1221 17.6485 15.0028 17.1315L18.26 19.798Z" fill="#28B446"/>
<path d="M18.383 4.30219L15.1434 6.95438C14.2319 6.38461 13.1544 6.05547 12 6.05547C9.39344 6.05547 7.1786 7.73348 6.37641 10.0681L3.11871 7.4011H3.11816C4.78246 4.19231 8.1352 2 12 2C14.4264 2 16.6511 2.8643 18.383 4.30219Z" fill="#F14336"/>
</svg>
