<svg width="16" height="16" viewBox="0 0 16 16" fill="none" xmlns="http://www.w3.org/2000/svg">
<path fill-rule="evenodd" clip-rule="evenodd" d="M8 14C11.3137 14 14 11.3137 14 8C14 4.68629 11.3137 2 8 2C4.68629 2 2 4.68629 2 8C2 11.3137 4.68629 14 8 14ZM8 6.66668C8.17681 6.66668 8.34638 6.73692 8.47141 6.86194C8.59643 6.98696 8.66667 7.15653 8.66667 7.33334L8.66667 10.6667C8.66667 10.8435 8.59643 11.0131 8.47141 11.1381C8.34638 11.2631 8.17681 11.3333 8 11.3333C7.82319 11.3333 7.65362 11.2631 7.5286 11.1381C7.40357 11.0131 7.33333 10.8435 7.33333 10.6667L7.33333 7.33334C7.33333 7.15653 7.40357 6.98696 7.5286 6.86194C7.65362 6.73692 7.82319 6.66668 8 6.66668ZM8 4.66668C8.17681 4.66668 8.34638 4.73692 8.47141 4.86194C8.59643 4.98696 8.66667 5.15653 8.66667 5.33334C8.66667 5.51016 8.59643 5.67972 8.47141 5.80475C8.34638 5.92977 8.17681 6.00001 8 6.00001C7.82319 6.00001 7.65362 5.92977 7.5286 5.80475C7.40357 5.67972 7.33333 5.51016 7.33333 5.33334C7.33333 5.15653 7.40357 4.98696 7.5286 4.86194C7.65362 4.73692 7.82319 4.66668 8 4.66668Z" fill="#2165CC"/>
</svg>
