<svg width="16" height="16" viewBox="0 0 16 16" fill="none" xmlns="http://www.w3.org/2000/svg">
<path fill-rule="evenodd" clip-rule="evenodd" d="M4.785 10.0002H11.215L10.5 8.00016H5.499L4.785 10.0002ZM4 11.0002C3.73478 11.0002 3.48043 11.1055 3.29289 11.2931C3.10536 11.4806 3 11.7349 3 12.0002V13.0002H13V12.0002C13 11.7349 12.8946 11.4806 12.7071 11.2931C12.5196 11.1055 12.2652 11.0002 12 11.0002H4ZM5.856 7.00016H10.144L8.942 3.63216C8.87274 3.43775 8.74502 3.26953 8.57636 3.15058C8.40771 3.03163 8.20638 2.96777 8 2.96777C7.79362 2.96777 7.59229 3.03163 7.42364 3.15058C7.25498 3.26953 7.12726 3.43775 7.058 3.63216L5.856 7.00016Z" fill="#F24646"/>
</svg>
