<svg width="16" height="16" viewBox="0 0 16 16" fill="none" xmlns="http://www.w3.org/2000/svg">
<path fill-rule="evenodd" clip-rule="evenodd" d="M5.968 11.446L11.446 5.968C11.897 6.73198 12.0812 7.62421 11.9697 8.50432C11.8581 9.38444 11.4571 10.2025 10.8298 10.8298C10.2025 11.4571 9.38444 11.8581 8.50432 11.9697C7.62421 12.0812 6.73198 11.897 5.968 11.446ZM4.554 10.032C4.10301 9.26802 3.9188 8.37579 4.03035 7.49568C4.14189 6.61556 4.54286 5.79749 5.17018 5.17018C5.79749 4.54286 6.61556 4.14189 7.49568 4.03035C8.37579 3.9188 9.26802 4.10301 10.032 4.554L4.554 10.032ZM8 14C8.78793 14 9.56815 13.8448 10.2961 13.5433C11.0241 13.2417 11.6855 12.7998 12.2426 12.2426C12.7998 11.6855 13.2417 11.0241 13.5433 10.2961C13.8448 9.56815 14 8.78793 14 8C14 7.21207 13.8448 6.43185 13.5433 5.7039C13.2417 4.97595 12.7998 4.31451 12.2426 3.75736C11.6855 3.20021 11.0241 2.75825 10.2961 2.45672C9.56815 2.15519 8.78793 2 8 2C6.4087 2 4.88258 2.63214 3.75736 3.75736C2.63214 4.88258 2 6.4087 2 8C2 9.5913 2.63214 11.1174 3.75736 12.2426C4.88258 13.3679 6.4087 14 8 14Z" fill="#F24646"/>
</svg>
