<svg width="16" height="16" viewBox="0 0 16 16" fill="none" xmlns="http://www.w3.org/2000/svg">
<path fill-rule="evenodd" clip-rule="evenodd" d="M0 1.994C0 0.893 0.895 0 1.994 0H14.006C15.107 0 16 0.895 16 1.994V14.006C15.9997 14.5348 15.7896 15.0418 15.4157 15.4157C15.0418 15.7896 14.5348 15.9997 14.006 16H1.994C1.46524 15.9997 0.958212 15.7896 0.584322 15.4157C0.210432 15.0418 0.000264976 14.5348 0 14.006L0 1.994ZM4.667 3C3.747 3 3 3.746 3 4.667V11.333C3 12.253 3.746 13 4.667 13H11.333C12.253 13 13 12.254 13 11.333V4.667C13 3.747 12.254 3 11.333 3H4.667ZM5 5V11H11V5H5Z" fill="#55B8F0"/>
</svg>
