<svg width="16" height="16" viewBox="0 0 16 16" fill="none" xmlns="http://www.w3.org/2000/svg">
<path fill-rule="evenodd" clip-rule="evenodd" d="M6.417 6.00004H9C9.26522 6.00004 9.51957 6.10539 9.70711 6.29293C9.89464 6.48047 10 6.73482 10 7.00004V8.00004C10 8.26525 10.1054 8.51961 10.2929 8.70714C10.4804 8.89468 10.7348 9.00004 11 9.00004C11.2652 9.00004 11.5196 8.89468 11.7071 8.70714C11.8946 8.51961 12 8.26525 12 8.00004V7.00004C12 6.20439 11.6839 5.44133 11.1213 4.87872C10.5587 4.31611 9.79565 4.00004 9 4.00004H6.415L6.709 3.70504C6.80674 3.61338 6.88507 3.50301 6.93932 3.38049C6.99358 3.25797 7.02266 3.1258 7.02484 2.99182C7.02701 2.85784 7.00224 2.7248 6.95199 2.60058C6.90174 2.47636 6.82704 2.36351 6.73232 2.26873C6.63761 2.17395 6.52481 2.09917 6.40063 2.04883C6.27645 1.99849 6.14342 1.97363 6.00944 1.97571C5.87546 1.97779 5.74326 2.00677 5.62071 2.06094C5.49815 2.11511 5.38773 2.19336 5.296 2.29104L3.293 4.29104C3.20009 4.38397 3.12641 4.49432 3.07617 4.61575C3.02593 4.73718 3.00012 4.86733 3.00021 4.99874C3.00031 5.13016 3.0263 5.26027 3.07671 5.38163C3.12712 5.50299 3.20096 5.61323 3.294 5.70604L5.296 7.70704C5.38892 7.79985 5.49923 7.87343 5.62061 7.92357C5.742 7.97371 5.87208 7.99942 6.00342 7.99924C6.13475 7.99905 6.26476 7.97297 6.386 7.92249C6.50724 7.87201 6.61734 7.79811 6.71 7.70504C6.80273 7.6122 6.87626 7.50201 6.9264 7.38075C6.97654 7.25949 7.00229 7.12954 7.0022 6.99833C7.00211 6.86711 6.97617 6.7372 6.92586 6.61602C6.87555 6.49483 6.80186 6.38474 6.709 6.29204L6.417 6.00004ZM11 14C11.5304 14 12.0391 13.7893 12.4142 13.4142C12.7893 13.0392 13 12.5305 13 12C13 11.4696 12.7893 10.9609 12.4142 10.5858C12.0391 10.2108 11.5304 10 11 10C10.4696 10 9.96086 10.2108 9.58579 10.5858C9.21071 10.9609 9 11.4696 9 12C9 12.5305 9.21071 13.0392 9.58579 13.4142C9.96086 13.7893 10.4696 14 11 14Z" fill="#2165CC"/>
</svg>
