<svg width="16" height="16" viewBox="0 0 16 16" fill="none" xmlns="http://www.w3.org/2000/svg">
<path fill-rule="evenodd" clip-rule="evenodd" d="M8 13.3334C6.58552 13.3334 5.22896 12.7715 4.22877 11.7713C3.22857 10.7711 2.66667 9.41457 2.66667 8.00008C2.66667 6.58559 3.22857 5.22904 4.22877 4.22885C5.22896 3.22865 6.58552 2.66675 8 2.66675C9.41449 2.66675 10.771 3.22865 11.7712 4.22885C12.7714 5.22904 13.3333 6.58559 13.3333 8.00008C13.3333 9.41457 12.7714 10.7711 11.7712 11.7713C10.771 12.7715 9.41449 13.3334 8 13.3334ZM8.90934 6.02408L7.47467 8.76408L6.446 7.83741C6.38091 7.77884 6.30492 7.73367 6.22237 7.70447C6.13982 7.67527 6.05233 7.66261 5.96489 7.66722C5.87744 7.67183 5.79177 7.69362 5.71275 7.73135C5.63372 7.76907 5.56291 7.82199 5.50434 7.88708C5.44577 7.95217 5.40059 8.02816 5.37139 8.11071C5.34219 8.19326 5.32953 8.28076 5.33415 8.3682C5.33876 8.45564 5.36055 8.54132 5.39827 8.62034C5.43599 8.69936 5.48891 8.77018 5.55401 8.82875L7.22067 10.3287C7.29619 10.3968 7.38625 10.4466 7.48398 10.4745C7.58171 10.5023 7.68451 10.5075 7.78454 10.4896C7.88457 10.4716 7.97917 10.431 8.06111 10.3709C8.14306 10.3108 8.21018 10.2328 8.25734 10.1427L10.0907 6.64275C10.1727 6.48609 10.1892 6.30326 10.1364 6.13448C10.0836 5.9657 9.96599 5.82479 9.80934 5.74275C9.65268 5.66071 9.46985 5.64426 9.30107 5.69702C9.13229 5.74978 8.99138 5.86743 8.90934 6.02408Z" fill="#00875A"/>
</svg>
