<svg width="24" height="24" viewBox="0 0 24 24" fill="none" xmlns="http://www.w3.org/2000/svg">
<path fill-rule="evenodd" clip-rule="evenodd" d="M20.5261 5.84573C21.4161 5.28413 22.099 4.39362 22.4194 3.3328C21.5862 3.85411 20.6654 4.23111 19.683 4.43522C18.8991 3.55121 17.7787 3 16.5386 3C14.1597 3 12.2319 5.03452 12.2319 7.54355C12.2319 7.89975 12.2677 8.24686 12.3416 8.57836C8.7621 8.38856 5.58813 6.58154 3.46188 3.83071C3.09086 4.50412 2.87885 5.28413 2.87885 6.11613C2.87885 7.69175 3.63937 9.08277 4.79556 9.89918C4.08928 9.87578 3.4249 9.66907 2.84311 9.33107V9.38697C2.84311 11.5892 4.32717 13.4261 6.30058 13.8421C5.93819 13.9487 5.55855 14.002 5.16411 14.002C4.88678 14.002 4.6156 13.9747 4.35429 13.9214C4.90157 15.7258 6.49287 17.0415 8.37876 17.0766C6.90333 18.296 5.04578 19.0214 3.028 19.0214C2.6804 19.0214 2.3365 19.0019 2 18.959C3.90685 20.2473 6.17116 21 8.60433 21C16.53 21 20.8614 14.0761 20.8614 8.07136C20.8614 7.87375 20.859 7.67745 20.8503 7.48375C21.6922 6.84284 22.4244 6.04203 23 5.13072C22.2271 5.49213 21.3964 5.73653 20.5261 5.84573Z" fill="#1da1f2"/>
</svg>
