<svg width="24" height="24" viewBox="0 0 24 24" fill="none" xmlns="http://www.w3.org/2000/svg">
<path fill-rule="evenodd" clip-rule="evenodd" d="M13.0789 17.9498C13.0789 17.9498 13.476 17.9077 13.6793 17.6988C13.8655 17.5075 13.859 17.1464 13.859 17.1464C13.859 17.1464 13.8343 15.4602 14.6531 15.2112C15.4601 14.9664 16.4964 16.8418 17.596 17.563C18.4267 18.1083 19.0573 17.9889 19.0573 17.9889L21.9959 17.9498C21.9959 17.9498 23.5325 17.8593 22.804 16.704C22.7437 16.6093 22.379 15.8491 20.6197 14.2874C18.7764 12.6526 19.0239 12.917 21.2427 10.0889C22.5942 8.36672 23.1343 7.3153 22.9654 6.86572C22.8051 6.43569 21.8108 6.54989 21.8108 6.54989L18.5031 6.56943C18.5031 6.56943 18.2578 6.53754 18.076 6.64145C17.8984 6.7433 17.7833 6.98095 17.7833 6.98095C17.7833 6.98095 17.2603 8.31322 16.562 9.44694C15.0889 11.8378 14.5003 11.9644 14.2593 11.8162C13.6987 11.4695 13.8386 10.4253 13.8386 9.68356C13.8386 7.36571 14.2066 6.39968 13.123 6.14969C12.7636 6.06636 12.4989 6.01183 11.5789 6.00257C10.3985 5.99126 9.4 6.00669 8.83401 6.27109C8.4574 6.44701 8.16688 6.84 8.34442 6.86264C8.56285 6.89041 9.05782 6.99021 9.32037 7.33176C9.65932 7.77311 9.64748 8.7628 9.64748 8.7628C9.64748 8.7628 9.84224 11.4911 9.19233 11.8296C8.74685 12.0621 8.13567 11.5878 6.82185 9.41814C6.14934 8.30705 5.64146 7.07868 5.64146 7.07868C5.64146 7.07868 5.54354 6.84926 5.36815 6.72581C5.15617 6.57664 4.86027 6.53034 4.86027 6.53034L1.71721 6.54989C1.71721 6.54989 1.24484 6.56223 1.0716 6.75873C0.917726 6.93259 1.05976 7.2937 1.05976 7.2937C1.05976 7.2937 3.52062 12.7987 6.30751 15.5734C8.86306 18.1165 11.764 17.9498 11.764 17.9498H13.0789Z" fill="#07F"/>
</svg>
