<svg width="24" height="24" viewBox="0 0 24 24" fill="none" xmlns="http://www.w3.org/2000/svg">
<path fill-rule="evenodd" clip-rule="evenodd" d="M13.31 5.34296L20.669 18.513C20.7539 18.6651 20.7975 18.8369 20.7955 19.0111C20.7936 19.1853 20.7462 19.356 20.658 19.5062C20.5698 19.6565 20.4438 19.7811 20.2926 19.8677C20.1414 19.9543 19.9702 19.9999 19.796 20H4.20401C4.02963 20 3.85828 19.9544 3.70695 19.8678C3.55562 19.7811 3.42958 19.6564 3.34134 19.506C3.2531 19.3556 3.20572 19.1847 3.20391 19.0104C3.2021 18.836 3.24592 18.6642 3.33101 18.512L10.691 5.34296C10.8213 5.1102 11.0112 4.91638 11.2413 4.78147C11.4714 4.64656 11.7333 4.57544 12 4.57544C12.2667 4.57544 12.5286 4.64656 12.7587 4.78147C12.9888 4.91638 13.1788 5.1102 13.309 5.34296H13.31ZM12 8.49996C11.8442 8.49995 11.6903 8.5333 11.5484 8.59777C11.4066 8.66224 11.2803 8.75633 11.1778 8.87371C11.0754 8.9911 10.9993 9.12905 10.9547 9.2783C10.91 9.42755 10.8979 9.58462 10.919 9.73897L11.432 13.505C11.4503 13.6426 11.518 13.769 11.6225 13.8605C11.727 13.952 11.8611 14.0024 12 14.0024C12.1389 14.0024 12.2731 13.952 12.3775 13.8605C12.482 13.769 12.5497 13.6426 12.568 13.505L13.081 9.73897C13.1021 9.58462 13.09 9.42755 13.0453 9.2783C13.0007 9.12905 12.9246 8.9911 12.8222 8.87371C12.7198 8.75633 12.5934 8.66224 12.4516 8.59777C12.3098 8.5333 12.1558 8.49995 12 8.49996ZM12 17.13C12.2984 17.13 12.5845 17.0114 12.7955 16.8005C13.0065 16.5895 13.125 16.3033 13.125 16.005C13.125 15.7066 13.0065 15.4204 12.7955 15.2095C12.5845 14.9985 12.2984 14.88 12 14.88C11.7016 14.88 11.4155 14.9985 11.2045 15.2095C10.9935 15.4204 10.875 15.7066 10.875 16.005C10.875 16.3033 10.9935 16.5895 11.2045 16.8005C11.4155 17.0114 11.7016 17.13 12 17.13Z" fill="#F98700"/>
</svg>
