<svg width="16" height="16" viewBox="0 0 16 16" fill="none" xmlns="http://www.w3.org/2000/svg">
<path fill-rule="evenodd" clip-rule="evenodd" d="M8.87333 3.56198L13.7793 12.342C13.8359 12.4434 13.865 12.5579 13.8637 12.6741C13.8624 12.7902 13.8308 12.904 13.772 13.0042C13.7132 13.1043 13.6292 13.1874 13.5284 13.2451C13.4276 13.3029 13.3135 13.3333 13.1973 13.3333H2.80267C2.68641 13.3333 2.57218 13.3029 2.47129 13.2452C2.3704 13.1874 2.28638 13.1043 2.22755 13.004C2.16872 12.9037 2.13714 12.7898 2.13593 12.6736C2.13472 12.5573 2.16393 12.4428 2.22067 12.3413L7.12733 3.56198C7.21416 3.4068 7.3408 3.27759 7.49419 3.18765C7.64758 3.09771 7.82218 3.05029 8 3.05029C8.17781 3.05029 8.35241 3.09771 8.50581 3.18765C8.6592 3.27759 8.78584 3.4068 8.87267 3.56198H8.87333ZM8 5.66664C7.89614 5.66664 7.79349 5.68887 7.69895 5.73185C7.6044 5.77482 7.52016 5.83755 7.45188 5.91581C7.38361 5.99406 7.33288 6.08603 7.30312 6.18553C7.27335 6.28503 7.26524 6.38975 7.27933 6.49264L7.62133 9.00331C7.63354 9.09509 7.67866 9.17932 7.74832 9.24032C7.81797 9.30133 7.90741 9.33496 8 9.33496C8.09259 9.33496 8.18203 9.30133 8.25168 9.24032C8.32133 9.17932 8.36646 9.09509 8.37867 9.00331L8.72067 6.49264C8.73475 6.38975 8.72664 6.28503 8.69688 6.18553C8.66712 6.08603 8.61639 5.99406 8.54811 5.91581C8.47984 5.83755 8.39559 5.77482 8.30105 5.73185C8.2065 5.68887 8.10385 5.66664 8 5.66664ZM8 11.42C8.19891 11.42 8.38968 11.341 8.53033 11.2003C8.67098 11.0597 8.75 10.8689 8.75 10.67C8.75 10.4711 8.67098 10.2803 8.53033 10.1396C8.38968 9.99899 8.19891 9.91998 8 9.91998C7.80109 9.91998 7.61032 9.99899 7.46967 10.1396C7.32902 10.2803 7.25 10.4711 7.25 10.67C7.25 10.8689 7.32902 11.0597 7.46967 11.2003C7.61032 11.341 7.80109 11.42 8 11.42Z" fill="#F98700"/>
</svg>
