<svg width="24" height="24" viewBox="0 0 24 24" fill="none" xmlns="http://www.w3.org/2000/svg">
<path d="M22.7746 6.37643C22.5154 5.41252 21.7554 4.65268 20.7916 4.39313C19.0309 3.91138 11.988 3.91138 11.988 3.91138C11.988 3.91138 4.94535 3.91138 3.18465 4.37486C2.23942 4.63414 1.4609 5.41266 1.20162 6.37643C0.738274 8.13699 0.738274 11.7882 0.738274 11.7882C0.738274 11.7882 0.738274 15.4577 1.20162 17.1999C1.46117 18.1637 2.22088 18.9235 3.18479 19.1831C4.96389 19.6649 11.9883 19.6649 11.9883 19.6649C11.9883 19.6649 19.0309 19.6649 20.7916 19.2015C21.7555 18.942 22.5154 18.1822 22.7749 17.2184C23.2381 15.4577 23.2381 11.8067 23.2381 11.8067C23.2381 11.8067 23.2567 8.13699 22.7746 6.37643ZM9.74569 15.1612V8.41508L15.6022 11.7882L9.74569 15.1612Z" fill="#f00"/>
</svg>
