<svg width="144" height="162" fill="none" xmlns="http://www.w3.org/2000/svg">
  <path fill="url(#a)" d="M143.6 148.9c0 7-32.1 12.6-71.7 12.6S.2 155.9.2 148.9s32.1-12.6 71.7-12.6 71.7 5.6 71.7 12.6Z" opacity=".6"/>
  <path fill="url(#b)" d="M31 42.2a8.4 8.4 0 0 1 7-3.8h66.6c2.8 0 5.4 1.4 7 3.8l2.9 4.4c1 1.5 1.5 3.3 1.5 5.1H26.6c0-1.8.5-3.6 1.5-5l3-4.5Z"/>
  <g filter="url(#c)">
    <ellipse cx="43.7" cy="40.9" fill="#5681AB" rx="7.3" ry="1.7"/>
  </g>
  <g filter="url(#d)">
    <ellipse cx="98.9" cy="40.9" fill="#5681AB" rx="7.3" ry="1.7"/>
  </g>
  <mask id="f" width="67" height="43" x="38" y="0" maskUnits="userSpaceOnUse" style="mask-type:alpha">
    <path fill="#3B496E" d="M104.3 42c-2.2 1-7.1 1-10.2.2V30.6c0-11-9-20.2-20.1-20.2h-5.3c-11 0-20.1 9-20.1 20.2v11.7c-2.5.7-7.4.7-10.4-.3V30.6A30.5 30.5 0 0 1 68.6 0H74a30.5 30.5 0 0 1 30.4 30.5V42Z"/>
    <path fill="url(#e)" d="M104.3 42c-2.2 1-7.1 1-10.2.2V30.6c0-11-9-20.2-20.1-20.2h-5.3c-11 0-20.1 9-20.1 20.2v11.7c-2.5.7-7.4.7-10.4-.3V30.6A30.5 30.5 0 0 1 68.6 0H74a30.5 30.5 0 0 1 30.4 30.5V42Z"/>
  </mask>
  <g mask="url(#f)">
    <path fill="url(#g)" d="M104.6 41.8H94.4V30.4c0-11-9-20.1-20.2-20.1H69c-11.1 0-20.2 9-20.2 20.1v11.4H38.4V30.4A30.5 30.5 0 0 1 69 0h5.3a30.5 30.5 0 0 1 30.4 30.4v11.4Z"/>
    <mask id="h" width="16" height="4" x="36" y="39" maskUnits="userSpaceOnUse" style="mask-type:alpha">
      <ellipse cx="43.7" cy="40.9" fill="#C4C4C4" rx="7.3" ry="1.7"/>
    </mask>
    <g mask="url(#h)">
      <path fill="#576894" d="M38.2 46.8h10.4v-8.1H38.2v8Z"/>
    </g>
    <mask id="i" width="16" height="4" x="91" y="39" maskUnits="userSpaceOnUse" style="mask-type:alpha">
      <ellipse cx="98.9" cy="40.9" fill="#C4C4C4" rx="7.3" ry="1.7"/>
    </mask>
    <g mask="url(#i)">
      <path fill="#576894" d="M94.1 46.8h10.2v-8.1H94.1v8Z"/>
    </g>
    <g filter="url(#j)">
      <path fill="url(#k)" d="M94.1 42V30.5c0-11-9-20.2-20.1-20.2h-5.3c-11 0-20.1 9-20.1 20.2v11.3h-2.8l-.6-8.5c-1.4-19 12.2-27.7 23.4-27.7H74c11.2 0 24.8 8.8 23.5 27.7l-.6 8.5H94Z"/>
    </g>
  </g>
  <path fill="url(#l)" d="M116 112c0 4.8-4 8.8-8.8 8.8H35.4c-4.9 0-8.8-4-8.8-8.9V51.5c0-4.9 4-8.9 8.8-8.9h71.8c4.9 0 8.8 4 8.8 8.9v60.4Z"/>
  <path fill="url(#m)" d="M116 112c0 4.8-4 8.8-8.8 8.8H35.4c-4.9 0-8.8-4-8.8-8.9V51.5c0-4.9 4-8.9 8.8-8.9h71.8c4.9 0 8.8 4 8.8 8.9v60.4Z"/>
  <path fill="#EEF7FF" d="M26.6 112c0 5 4 9 8.8 9h71.8c4.9 0 8.8-4 8.8-9H26.6Z"/>
  <path fill="url(#n)" d="M26.6 112c0 5 4 9 8.8 9h71.8c4.9 0 8.8-4 8.8-9H26.6Z"/>
  <defs>
    <radialGradient id="a" cx="0" cy="0" r="1" gradientTransform="matrix(71.747 0 0 12.5472 71.9 148.7)" gradientUnits="userSpaceOnUse">
      <stop stop-color="#CCDBEB"/>
      <stop offset=".5" stop-color="#BDD0E3" stop-opacity=".4"/>
      <stop offset=".7" stop-color="#B0D0F2" stop-opacity=".2"/>
      <stop offset="1" stop-color="#B0D0F2" stop-opacity="0"/>
    </radialGradient>
    <radialGradient id="g" cx="0" cy="0" r="1" gradientTransform="matrix(0 -34.602 51.4663 0 71.6 34.5)" gradientUnits="userSpaceOnUse">
      <stop stop-color="#485679"/>
      <stop offset=".4" stop-color="#46557E"/>
      <stop offset=".9" stop-color="#6F82B1"/>
    </radialGradient>
    <radialGradient id="k" cx="0" cy="0" r="1" gradientTransform="matrix(0 -26.5631 25.9002 0 71.3 32.2)" gradientUnits="userSpaceOnUse">
      <stop offset=".8" stop-color="#8698C5"/>
      <stop offset="1" stop-color="#475A89"/>
    </radialGradient>
    <radialGradient id="m" cx="0" cy="0" r="1" gradientTransform="matrix(0 50.3301 -66.4054 0 71.3 78.5)" gradientUnits="userSpaceOnUse">
      <stop stop-color="#EEF7FF"/>
      <stop offset=".5" stop-color="#fff" stop-opacity="0"/>
      <stop offset="1" stop-color="#E7EFFA"/>
    </radialGradient>
    <linearGradient id="b" x1="71.3" x2="71.3" y1="38.4" y2="51.7" gradientUnits="userSpaceOnUse">
      <stop stop-color="#CCE0F4"/>
      <stop offset="1" stop-color="#8EA7BF"/>
    </linearGradient>
    <linearGradient id="e" x1="74.2" x2="74.2" y1="-45.6" y2="26.8" gradientUnits="userSpaceOnUse">
      <stop stop-color="#3B496E"/>
      <stop offset="1" stop-color="#fff" stop-opacity="0"/>
    </linearGradient>
    <linearGradient id="l" x1="30.1" x2="71.3" y1="45.6" y2="110.7" gradientUnits="userSpaceOnUse">
      <stop stop-color="#E4F2FF"/>
      <stop offset=".5" stop-color="#F5FAFF"/>
      <stop offset=".8" stop-color="#E9F4FF"/>
      <stop offset="1" stop-color="#E9F4FF"/>
    </linearGradient>
    <linearGradient id="n" x1="71.2" x2="71.2" y1="120.9" y2="111.8" gradientUnits="userSpaceOnUse">
      <stop stop-color="#ABBCE0"/>
      <stop offset="0" stop-color="#C8DCF2"/>
      <stop offset=".4" stop-color="#E1EEFC"/>
      <stop offset="1" stop-color="#EEF6FF"/>
    </linearGradient>
    <filter id="c" width="14.7" height="4.2" x="36.3" y="39.1" color-interpolation-filters="sRGB" filterUnits="userSpaceOnUse">
      <feFlood flood-opacity="0" result="BackgroundImageFix"/>
      <feBlend in="SourceGraphic" in2="BackgroundImageFix" result="shape"/>
      <feColorMatrix in="SourceAlpha" result="hardAlpha" values="0 0 0 0 0 0 0 0 0 0 0 0 0 0 0 0 0 0 127 0"/>
      <feOffset dy=".7"/>
      <feGaussianBlur stdDeviation=".7"/>
      <feComposite in2="hardAlpha" k2="-1" k3="1" operator="arithmetic"/>
      <feColorMatrix values="0 0 0 0 0 0 0 0 0 0 0 0 0 0 0 0 0 0 0.25 0"/>
      <feBlend in2="shape" result="effect1_innerShadow_4221_54953"/>
    </filter>
    <filter id="d" width="14.7" height="4.2" x="91.6" y="39.1" color-interpolation-filters="sRGB" filterUnits="userSpaceOnUse">
      <feFlood flood-opacity="0" result="BackgroundImageFix"/>
      <feBlend in="SourceGraphic" in2="BackgroundImageFix" result="shape"/>
      <feColorMatrix in="SourceAlpha" result="hardAlpha" values="0 0 0 0 0 0 0 0 0 0 0 0 0 0 0 0 0 0 127 0"/>
      <feOffset dy=".7"/>
      <feGaussianBlur stdDeviation=".7"/>
      <feComposite in2="hardAlpha" k2="-1" k3="1" operator="arithmetic"/>
      <feColorMatrix values="0 0 0 0 0 0 0 0 0 0 0 0 0 0 0 0 0 0 0.25 0"/>
      <feBlend in2="shape" result="effect1_innerShadow_4221_54953"/>
    </filter>
    <filter id="j" width="59.4" height="43.2" x="41.6" y="2.2" color-interpolation-filters="sRGB" filterUnits="userSpaceOnUse">
      <feFlood flood-opacity="0" result="BackgroundImageFix"/>
      <feBlend in="SourceGraphic" in2="BackgroundImageFix" result="shape"/>
      <feGaussianBlur result="effect1_foregroundBlur_4221_54953" stdDeviation="1.7"/>
    </filter>
  </defs>
</svg>
