<svg width="177" height="177" fill="none" xmlns="http://www.w3.org/2000/svg">
  <circle cx="91" cy="96" r="75" fill="#C5DCFF" opacity=".5"/>
  <circle r="4" fill="#C5DCFF" opacity=".5" transform="matrix(-1 0 0 1 20 40)"/>
  <circle r="2.5" fill="#C5DCFF" opacity=".5" transform="matrix(-1 0 0 1 2.5 50.5)"/>
  <circle r="5.5" fill="#C5DCFF" opacity=".5" transform="matrix(-1 0 0 1 171.5 58.5)"/>
  <circle r="2.5" fill="#C5DCFF" opacity=".5" transform="matrix(-1 0 0 1 164.5 37.5)"/>
  <circle r="2.5" fill="#C5DCFF" opacity=".5" transform="matrix(-1 0 0 1 174.5 116.5)"/>
  <g filter="url(#a)">
    <path d="M20 72h144v71a14 14 0 0 1-14 14H34a14 14 0 0 1-14-14V72Z" shape-rendering="crispEdges"/>
  </g>
  <path fill="#0160CB" d="M79.7 21.4a19 19 0 0 1 24.6 0L164 72H20l59.7-50.6ZM20 72h144v71a14 14 0 0 1-14 14H34a14 14 0 0 1-14-14V72Z"/>
  <path fill="#0E50B6" fill-rule="evenodd" d="M35 59.3 69.6 30h44.8L149 59.3v35.2H35V59.3Z" clip-rule="evenodd"/>
  <rect width="104" height="88" x="40" y="30" fill="url(#b)" rx="5"/>
  <rect width="40" height="4" x="72" y="45" fill="#F67E7E" rx="2"/>
  <path fill="#DDE2E8" fill-rule="evenodd" d="M59 59a2 2 0 1 0 0 4h66a2 2 0 1 0 0-4H59Zm0 13a2 2 0 1 0 0 4h66a2 2 0 1 0 0-4H59Zm-2 15c0-1.1.9-2 2-2h66a2 2 0 1 1 0 4H59a2 2 0 0 1-2-2Zm2 11a2 2 0 1 0 0 4h66a2 2 0 1 0 0-4H59Z" clip-rule="evenodd"/>
  <rect width="104" height="88" x="40" y="30" fill="url(#c)" rx="5"/>
  <path fill="url(#d)" fill-rule="evenodd" d="M159 153.8a14 14 0 0 1-9 3.2H34a14 14 0 0 1-14-14V72l139 81.8Z" clip-rule="evenodd"/>
  <path fill="url(#e)" fill-rule="evenodd" d="M20 72.2 158.9 154l.2-.1L20.2 72H20v.2Z" clip-rule="evenodd"/>
  <g filter="url(#f)">
    <path fill="url(#g)" fill-rule="evenodd" d="M25 153.8a14 14 0 0 0 9 3.2h116a14 14 0 0 0 14-14V72L25 153.8Z" clip-rule="evenodd"/>
  </g>
  <path fill="url(#h)" fill-rule="evenodd" d="M164 72.2 25.3 154l-.2-.1L163.9 72h.1v.2Z" clip-rule="evenodd"/>
  <rect width="42" height="4" x="107" y="129" fill="url(#i)" rx="2"/>
  <rect width="42" height="4" x="107" y="118" fill="url(#j)" rx="2"/>
  <path fill="#000" fill-rule="evenodd" d="m65 157 15-7H63l-15 7h17Zm36 0 15-7H99l-15 7h17Zm51-7-15 7h-17l15-7h17ZM27 76l-6-3.5-1 .5v11l7-4v-4Zm-7 28V93l7-4v11l-7 4Zm0 9v11l7-4v-11l-7 4Zm0 31v-11l7-4v11l-7 4Zm144-64v-8l-7 4v8l7-4Zm0 60v-11l-7 4v11l7-4Zm0-20v-11l-7 4v11l7-4Zm0-31v11l-7 4V93l7-4Z" clip-rule="evenodd" opacity=".1"/>
  <defs>
    <linearGradient id="b" x1="92" x2="92" y1="30" y2="118" gradientUnits="userSpaceOnUse">
      <stop offset=".5" stop-color="#fff"/>
    </linearGradient>
    <linearGradient id="c" x1="92" x2="92" y1="30" y2="118" gradientUnits="userSpaceOnUse">
      <stop offset=".4" stop-color="#fff" stop-opacity="0"/>
      <stop offset="1" stop-color="#0279D7" stop-opacity=".8"/>
    </linearGradient>
    <linearGradient id="d" x1="140" x2="14" y1="154.5" y2="108.5" gradientUnits="userSpaceOnUse">
      <stop stop-color="#015CC6"/>
      <stop offset="1" stop-color="#018DF7"/>
    </linearGradient>
    <linearGradient id="e" x1="155.7" x2="21.9" y1="153.5" y2="76" gradientUnits="userSpaceOnUse">
      <stop stop-color="#0277E1"/>
      <stop offset=".3" stop-color="#fff"/>
      <stop offset="1" stop-color="#1C89ED"/>
    </linearGradient>
    <linearGradient id="g" x1="44" x2="170" y1="154.5" y2="108.5" gradientUnits="userSpaceOnUse">
      <stop stop-color="#015CC6"/>
      <stop offset="1" stop-color="#018DF7"/>
    </linearGradient>
    <linearGradient id="h" x1="28.4" x2="162.2" y1="153.5" y2="76" gradientUnits="userSpaceOnUse">
      <stop stop-color="#0277E1"/>
      <stop offset=".3" stop-color="#fff"/>
      <stop offset="1" stop-color="#1C89ED"/>
    </linearGradient>
    <linearGradient id="i" x1="107" x2="149" y1="131" y2="131" gradientUnits="userSpaceOnUse">
      <stop stop-color="#018DF8"/>
      <stop offset="1" stop-color="#0160CA"/>
    </linearGradient>
    <linearGradient id="j" x1="107" x2="149" y1="120" y2="120" gradientUnits="userSpaceOnUse">
      <stop stop-color="#018DF8"/>
      <stop offset="1" stop-color="#0160CA"/>
    </linearGradient>
    <filter id="a" width="160" height="101" x="12" y="68" color-interpolation-filters="sRGB" filterUnits="userSpaceOnUse">
      <feFlood flood-opacity="0" result="BackgroundImageFix"/>
      <feColorMatrix in="SourceAlpha" result="hardAlpha" values="0 0 0 0 0 0 0 0 0 0 0 0 0 0 0 0 0 0 127 0"/>
      <feOffset dy="4"/>
      <feGaussianBlur stdDeviation="4"/>
      <feComposite in2="hardAlpha" operator="out"/>
      <feColorMatrix values="0 0 0 0 0 0 0 0 0 0.481992 0 0 0 0 0.875 0 0 0 0.24 0"/>
      <feBlend in2="BackgroundImageFix" result="effect1_dropShadow_776_13695"/>
      <feBlend in="SourceGraphic" in2="effect1_dropShadow_776_13695" result="shape"/>
    </filter>
    <filter id="f" width="146.9" height="93" x="19.1" y="66" color-interpolation-filters="sRGB" filterUnits="userSpaceOnUse">
      <feFlood flood-opacity="0" result="BackgroundImageFix"/>
      <feColorMatrix in="SourceAlpha" result="hardAlpha" values="0 0 0 0 0 0 0 0 0 0 0 0 0 0 0 0 0 0 127 0"/>
      <feOffset dx="-2" dy="-2"/>
      <feGaussianBlur stdDeviation="2"/>
      <feComposite in2="hardAlpha" operator="out"/>
      <feColorMatrix values="0 0 0 0 0 0 0 0 0 0.482353 0 0 0 0 0.87451 0 0 0 0.16 0"/>
      <feBlend in2="BackgroundImageFix" result="effect1_dropShadow_776_13695"/>
      <feBlend in="SourceGraphic" in2="effect1_dropShadow_776_13695" result="shape"/>
    </filter>
  </defs>
</svg>
