<svg width="123" height="98" viewBox="0 0 123 98" fill="none" xmlns="http://www.w3.org/2000/svg">
<path opacity="0.4" d="M17.0784 46.7273C17.0784 40.0999 22.451 34.7273 29.0784 34.7273H111C117.627 34.7273 123 40.0999 123 46.7273V86C123 92.6274 117.627 98 111 98H29.0784C22.4509 98 17.0784 92.6274 17.0784 86V46.7273Z" fill="#E9F3FD"/>
<path d="M112.843 37.5662V82.5993C112.843 83.1776 112.777 83.754 112.646 84.3174L101.257 89.3579L36.6667 84.3174V37.5662C36.6667 36.2572 37.1889 35.0018 38.1182 34.0762C39.0476 33.1506 40.3081 32.6306 41.6225 32.6306H107.887C108.538 32.6305 109.183 32.7581 109.784 33.0061C110.385 33.2541 110.932 33.6177 111.392 34.076C111.852 34.5343 112.217 35.0785 112.466 35.6773C112.715 36.2762 112.843 36.918 112.843 37.5662Z" fill="url(#paint0_linear_1622_38349)"/>
<g filter="url(#filter0_d_1622_38349)">
<path d="M26.1533 22C26.1533 15.3726 31.5259 10 38.1533 10H91.5904C98.2178 10 103.59 15.3726 103.59 22V54.7528C103.59 61.3802 98.2178 66.7528 91.5904 66.7528H38.1533C31.5259 66.7528 26.1533 61.3802 26.1533 54.7528V22Z" fill="white"/>
<path d="M26.6533 22C26.6533 15.6487 31.802 10.5 38.1533 10.5H91.5904C97.9417 10.5 103.09 15.6487 103.09 22V54.7528C103.09 61.1041 97.9417 66.2528 91.5904 66.2528H38.1533C31.8021 66.2528 26.6533 61.1041 26.6533 54.7528V22Z" stroke="#C1D7F0"/>
</g>
<mask id="mask0_1622_38349" style="mask-type:alpha" maskUnits="userSpaceOnUse" x="26" y="10" width="78" height="57">
<path d="M26.1533 20C26.1533 14.4771 30.6305 10 36.1533 10H93.5904C99.1133 10 103.59 14.4772 103.59 20V56.7528C103.59 62.2756 99.1133 66.7528 93.5904 66.7528H36.1533C30.6305 66.7528 26.1533 62.2756 26.1533 56.7528V20Z" fill="white"/>
</mask>
<g mask="url(#mask0_1622_38349)">
<path d="M46.3262 22.3943H102.94V23.0466H46.3262V22.3943Z" fill="#EBEEF1"/>
<path d="M89.2742 19.6326C89.2742 19.3564 89.498 19.1326 89.7742 19.1326H90.7264C91.0025 19.1326 91.2264 19.3564 91.2264 19.6326V20.5896C91.2264 20.8657 91.0025 21.0896 90.7264 21.0896H89.7742C89.498 21.0896 89.2742 20.8657 89.2742 20.5896V19.6326Z" fill="#EBEEF1"/>
<path d="M86.0205 19.6326C86.0205 19.3564 86.2444 19.1326 86.5205 19.1326H87.4727C87.7489 19.1326 87.9727 19.3564 87.9727 19.6326V20.5896C87.9727 20.8657 87.7489 21.0896 87.4727 21.0896H86.5205C86.2444 21.0896 86.0205 20.8657 86.0205 20.5896V19.6326Z" fill="#EBEEF1"/>
<path d="M46.3262 22.3943H102.94V55.1005C102.94 61.1756 98.015 66.1005 91.9399 66.1005H46.3262V22.3943Z" fill="#F2F2F2"/>
<path d="M49.5796 26.3513C49.5796 25.2467 50.475 24.3513 51.5796 24.3513H97.686C98.7905 24.3513 99.686 25.2467 99.686 26.3513V60.8388C99.686 61.9434 98.7905 62.8388 97.686 62.8388H51.5796C50.475 62.8388 49.5796 61.9434 49.5796 60.8388V26.3513Z" fill="white"/>
<path d="M95.7817 31.3745C95.7817 31.0984 96.0056 30.8745 96.2817 30.8745H97.2339C97.5101 30.8745 97.7339 31.0984 97.7339 31.3745V32.3315C97.7339 32.6076 97.5101 32.8315 97.2339 32.8315H96.2817C96.0056 32.8315 95.7817 32.6076 95.7817 32.3315V31.3745Z" fill="#EBEEF1"/>
<path d="M95.7817 34.6362C95.7817 34.3601 96.0056 34.1362 96.2817 34.1362H97.2339C97.5101 34.1362 97.7339 34.3601 97.7339 34.6362V35.5932C97.7339 35.8694 97.5101 36.0932 97.2339 36.0932H96.2817C96.0056 36.0932 95.7817 35.8694 95.7817 35.5932V34.6362Z" fill="#EBEEF1"/>
<path d="M95.7817 38.5503C95.7817 38.2742 96.0056 38.0503 96.2817 38.0503H97.2339C97.5101 38.0503 97.7339 38.2742 97.7339 38.5503V39.5073C97.7339 39.7834 97.5101 40.0073 97.2339 40.0073H96.2817C96.0056 40.0073 95.7817 39.7834 95.7817 39.5073V38.5503Z" fill="#EBEEF1"/>
<path d="M95.7817 42.4641C95.7817 42.188 96.0056 41.9641 96.2817 41.9641H97.2339C97.5101 41.9641 97.7339 42.188 97.7339 42.4641V43.4211C97.7339 43.6972 97.5101 43.9211 97.2339 43.9211H96.2817C96.0056 43.9211 95.7817 43.6972 95.7817 43.4211V42.4641Z" fill="#EBEEF1"/>
<path d="M95.7817 46.3782C95.7817 46.102 96.0056 45.8782 96.2817 45.8782H97.2339C97.5101 45.8782 97.7339 46.102 97.7339 46.3782V47.3352C97.7339 47.6113 97.5101 47.8352 97.2339 47.8352H96.2817C96.0056 47.8352 95.7817 47.6113 95.7817 47.3352V46.3782Z" fill="#EBEEF1"/>
<path d="M95.7817 50.2922C95.7817 50.0161 96.0056 49.7922 96.2817 49.7922H97.2339C97.5101 49.7922 97.7339 50.0161 97.7339 50.2922V51.2492C97.7339 51.5254 97.5101 51.7492 97.2339 51.7492H96.2817C96.0056 51.7492 95.7817 51.5254 95.7817 51.2492V50.2922Z" fill="#EBEEF1"/>
<path d="M95.7817 54.2063C95.7817 53.9302 96.0056 53.7063 96.2817 53.7063H97.2339C97.5101 53.7063 97.7339 53.9302 97.7339 54.2063V55.1633C97.7339 55.4394 97.5101 55.6633 97.2339 55.6633H96.2817C96.0056 55.6633 95.7817 55.4394 95.7817 55.1633V54.2063Z" fill="#EBEEF1"/>
<path d="M95.7817 58.1201C95.7817 57.844 96.0056 57.6201 96.2817 57.6201H97.2339C97.5101 57.6201 97.7339 57.844 97.7339 58.1201V59.0771C97.7339 59.3533 97.5101 59.5771 97.2339 59.5771H96.2817C96.0056 59.5771 95.7817 59.3533 95.7817 59.0771V58.1201Z" fill="#EBEEF1"/>
<path d="M29.3726 14.9291C31.2296 12.1609 34.3438 10.5 37.6771 10.5H92.2297C96.3187 10.5 99.9958 12.9895 101.514 16.7861L102 18H27.3125L29.3726 14.9291Z" fill="#C1D7F0"/>
</g>
<line x1="49.7783" y1="19.5896" x2="76.712" y2="19.5896" stroke="#EBEEF1" stroke-width="3" stroke-linecap="round"/>
<line x1="29.7563" y1="30.5269" x2="42.7232" y2="30.5269" stroke="#EBEEF1" stroke-width="2" stroke-linecap="round"/>
<line x1="52.6826" y1="26.4607" x2="55.587" y2="26.4607" stroke="#EBEEF1" stroke-linecap="round"/>
<line x1="52.6826" y1="31.6792" x2="57.5392" y2="31.6792" stroke="#EBEEF1" stroke-linecap="round"/>
<line x1="52.6826" y1="34.9409" x2="57.5392" y2="34.9409" stroke="#EBEEF1" stroke-linecap="round"/>
<line x1="52.6826" y1="38.855" x2="57.5392" y2="38.855" stroke="#EBEEF1" stroke-linecap="round"/>
<line x1="52.6826" y1="42.7688" x2="57.5392" y2="42.7688" stroke="#EBEEF1" stroke-linecap="round"/>
<line x1="52.6826" y1="46.6829" x2="57.5392" y2="46.6829" stroke="#EBEEF1" stroke-linecap="round"/>
<line x1="52.6826" y1="50.5969" x2="57.5392" y2="50.5969" stroke="#EBEEF1" stroke-linecap="round"/>
<line x1="52.6826" y1="54.5107" x2="57.5392" y2="54.5107" stroke="#EBEEF1" stroke-linecap="round"/>
<line x1="52.6826" y1="58.4248" x2="57.5392" y2="58.4248" stroke="#EBEEF1" stroke-linecap="round"/>
<line x1="65.0466" y1="31.6792" x2="69.9032" y2="31.6792" stroke="#EBEEF1" stroke-linecap="round"/>
<line x1="65.0466" y1="38.855" x2="69.9032" y2="38.855" stroke="#EBEEF1" stroke-linecap="round"/>
<line x1="65.0466" y1="34.9409" x2="69.9032" y2="34.9409" stroke="#EBEEF1" stroke-linecap="round"/>
<line x1="65.0466" y1="42.7688" x2="69.9032" y2="42.7688" stroke="#EBEEF1" stroke-linecap="round"/>
<line x1="65.0466" y1="46.6829" x2="69.9032" y2="46.6829" stroke="#EBEEF1" stroke-linecap="round"/>
<line x1="65.0466" y1="50.5969" x2="69.9032" y2="50.5969" stroke="#EBEEF1" stroke-linecap="round"/>
<line x1="65.0466" y1="54.5107" x2="69.9032" y2="54.5107" stroke="#EBEEF1" stroke-linecap="round"/>
<line x1="65.0466" y1="58.4248" x2="69.9032" y2="58.4248" stroke="#EBEEF1" stroke-linecap="round"/>
<line x1="74.8076" y1="38.855" x2="79.6642" y2="38.855" stroke="#EBEEF1" stroke-linecap="round"/>
<line x1="74.8076" y1="31.6792" x2="79.6642" y2="31.6792" stroke="#EBEEF1" stroke-linecap="round"/>
<line x1="74.8076" y1="34.9409" x2="79.6642" y2="34.9409" stroke="#EBEEF1" stroke-linecap="round"/>
<line x1="83.9177" y1="38.855" x2="88.7743" y2="38.855" stroke="#EBEEF1" stroke-linecap="round"/>
<line x1="74.8076" y1="42.7688" x2="79.6642" y2="42.7688" stroke="#EBEEF1" stroke-linecap="round"/>
<line x1="74.8076" y1="46.6829" x2="79.6642" y2="46.6829" stroke="#EBEEF1" stroke-linecap="round"/>
<line x1="74.8076" y1="50.5969" x2="79.6642" y2="50.5969" stroke="#EBEEF1" stroke-linecap="round"/>
<line x1="74.8076" y1="54.5107" x2="79.6642" y2="54.5107" stroke="#EBEEF1" stroke-linecap="round"/>
<line x1="74.8076" y1="58.4248" x2="79.6642" y2="58.4248" stroke="#EBEEF1" stroke-linecap="round"/>
<line x1="83.9177" y1="31.6792" x2="88.7743" y2="31.6792" stroke="#EBEEF1" stroke-linecap="round"/>
<line x1="83.9177" y1="34.9409" x2="88.7743" y2="34.9409" stroke="#EBEEF1" stroke-linecap="round"/>
<line x1="83.9177" y1="42.7688" x2="88.7743" y2="42.7688" stroke="#EBEEF1" stroke-linecap="round"/>
<line x1="83.9177" y1="46.6829" x2="88.7743" y2="46.6829" stroke="#EBEEF1" stroke-linecap="round"/>
<line x1="83.9177" y1="50.5969" x2="88.7743" y2="50.5969" stroke="#EBEEF1" stroke-linecap="round"/>
<line x1="83.9177" y1="54.5107" x2="88.7743" y2="54.5107" stroke="#EBEEF1" stroke-linecap="round"/>
<line x1="83.9177" y1="58.4248" x2="88.7743" y2="58.4248" stroke="#EBEEF1" stroke-linecap="round"/>
<line x1="65.0466" y1="26.4607" x2="67.951" y2="26.4607" stroke="#EBEEF1" stroke-linecap="round"/>
<line x1="74.8076" y1="26.4607" x2="77.712" y2="26.4607" stroke="#EBEEF1" stroke-linecap="round"/>
<line x1="83.9177" y1="26.4607" x2="86.8221" y2="26.4607" stroke="#EBEEF1" stroke-linecap="round"/>
<line x1="29.7563" y1="33.7886" x2="42.7232" y2="33.7886" stroke="#EBEEF1" stroke-width="2" stroke-linecap="round"/>
<line x1="29.7563" y1="37.0503" x2="42.7232" y2="37.0503" stroke="#EBEEF1" stroke-width="2" stroke-linecap="round"/>
<line x1="94.0281" y1="19.5896" x2="99.4876" y2="19.5896" stroke="#EBEEF1" stroke-width="3" stroke-linecap="round"/>
<ellipse cx="37.8668" cy="13.914" rx="0.650732" ry="0.652331" fill="white"/>
<ellipse cx="35.2638" cy="13.914" rx="0.650732" ry="0.652331" fill="white"/>
<ellipse cx="40.4696" cy="13.914" rx="0.65073" ry="0.652331" fill="white"/>
<g filter="url(#filter1_d_1622_38349)">
<path d="M12 36.1882C12 29.5608 17.3726 24.1882 24 24.1882H77.4371C84.0645 24.1882 89.4371 29.5608 89.4371 36.1882V68.941C89.4371 75.5684 84.0645 80.941 77.4371 80.941H24C17.3726 80.941 12 75.5684 12 68.941V36.1882Z" fill="white"/>
<path d="M12.5 36.1882C12.5 29.837 17.6487 24.6882 24 24.6882H77.4371C83.7884 24.6882 88.9371 29.837 88.9371 36.1882V68.941C88.9371 75.2923 83.7884 80.441 77.4371 80.441H24C17.6487 80.441 12.5 75.2923 12.5 68.941V36.1882Z" stroke="#5078A5"/>
</g>
<mask id="mask1_1622_38349" style="mask-type:alpha" maskUnits="userSpaceOnUse" x="12" y="24" width="78" height="57">
<path d="M12 34.1882C12 28.6654 16.4772 24.1882 22 24.1882H79.4371C84.9599 24.1882 89.4371 28.6654 89.4371 34.1882V70.941C89.4371 76.4639 84.96 80.941 79.4371 80.941H22C16.4772 80.941 12 76.4639 12 70.941V34.1882Z" fill="white"/>
</mask>
<g mask="url(#mask1_1622_38349)">
<path d="M75.1208 33.8208C75.1208 33.5447 75.3447 33.3208 75.6208 33.3208H76.5731C76.8492 33.3208 77.0731 33.5447 77.0731 33.8208V34.7778C77.0731 35.0539 76.8492 35.2778 76.5731 35.2778H75.6208C75.3447 35.2778 75.1208 35.0539 75.1208 34.7778V33.8208Z" fill="#EBEEF1"/>
<path d="M71.8672 33.8208C71.8672 33.5447 72.091 33.3208 72.3672 33.3208H73.3194C73.5955 33.3208 73.8194 33.5447 73.8194 33.8208V34.7778C73.8194 35.0539 73.5955 35.2778 73.3194 35.2778H72.3672C72.091 35.2778 71.8672 35.0539 71.8672 34.7778V33.8208Z" fill="#EBEEF1"/>
<path d="M32 37H88V69C88 75.0751 83.0751 80 77 80H32V37Z" fill="#F2F2F2"/>
<path d="M35.4263 40.5396C35.4263 39.435 36.3217 38.5396 37.4263 38.5396H83.5326C84.6372 38.5396 85.5326 39.435 85.5326 40.5396V75.0271C85.5326 76.1316 84.6372 77.0271 83.5326 77.0271H37.4263C36.3217 77.0271 35.4263 76.1316 35.4263 75.0271V40.5396Z" fill="white"/>
<path d="M81.6284 45.5627C81.6284 45.2866 81.8523 45.0627 82.1284 45.0627H83.0806C83.3568 45.0627 83.5806 45.2866 83.5806 45.5627V46.5197C83.5806 46.7959 83.3568 47.0197 83.0806 47.0197H82.1284C81.8523 47.0197 81.6284 46.7959 81.6284 46.5197V45.5627Z" fill="#EBEEF1"/>
<path d="M81.6284 48.8245C81.6284 48.5483 81.8523 48.3245 82.1284 48.3245H83.0806C83.3568 48.3245 83.5806 48.5483 83.5806 48.8245V49.7815C83.5806 50.0576 83.3568 50.2815 83.0806 50.2815H82.1284C81.8523 50.2815 81.6284 50.0576 81.6284 49.7815V48.8245Z" fill="#EBEEF1"/>
<path d="M81.6284 52.7383C81.6284 52.4621 81.8523 52.2383 82.1284 52.2383H83.0806C83.3568 52.2383 83.5806 52.4621 83.5806 52.7383V53.6953C83.5806 53.9714 83.3568 54.1953 83.0806 54.1953H82.1284C81.8523 54.1953 81.6284 53.9714 81.6284 53.6953V52.7383Z" fill="#EBEEF1"/>
<path d="M81.6284 56.6523C81.6284 56.3762 81.8523 56.1523 82.1284 56.1523H83.0806C83.3568 56.1523 83.5806 56.3762 83.5806 56.6523V57.6093C83.5806 57.8855 83.3568 58.1093 83.0806 58.1093H82.1284C81.8523 58.1093 81.6284 57.8855 81.6284 57.6093V56.6523Z" fill="#EBEEF1"/>
<path d="M81.6284 60.5664C81.6284 60.2903 81.8523 60.0664 82.1284 60.0664H83.0806C83.3568 60.0664 83.5806 60.2903 83.5806 60.5664V61.5234C83.5806 61.7995 83.3568 62.0234 83.0806 62.0234H82.1284C81.8523 62.0234 81.6284 61.7995 81.6284 61.5234V60.5664Z" fill="#EBEEF1"/>
<path d="M81.6284 64.4805C81.6284 64.2043 81.8523 63.9805 82.1284 63.9805H83.0806C83.3568 63.9805 83.5806 64.2043 83.5806 64.4805V65.4375C83.5806 65.7136 83.3568 65.9375 83.0806 65.9375H82.1284C81.8523 65.9375 81.6284 65.7136 81.6284 65.4375V64.4805Z" fill="#EBEEF1"/>
<path d="M81.6284 68.3945C81.6284 68.1184 81.8523 67.8945 82.1284 67.8945H83.0806C83.3568 67.8945 83.5806 68.1184 83.5806 68.3945V69.3515C83.5806 69.6277 83.3568 69.8515 83.0806 69.8515H82.1284C81.8523 69.8515 81.6284 69.6277 81.6284 69.3515V68.3945Z" fill="#EBEEF1"/>
<path d="M81.6284 72.3083C81.6284 72.0322 81.8523 71.8083 82.1284 71.8083H83.0806C83.3568 71.8083 83.5806 72.0322 83.5806 72.3083V73.2653C83.5806 73.5415 83.3568 73.7653 83.0806 73.7653H82.1284C81.8523 73.7653 81.6284 73.5415 81.6284 73.2653V72.3083Z" fill="#EBEEF1"/>
<path d="M14.6765 29.7941C16.4144 26.5355 19.8069 24.5 23.5 24.5H77.6092C80.6951 24.5 83.6081 25.9247 85.5027 28.3606L86 29L88 32H13.5L14.6765 29.7941Z" fill="#5078A5"/>
</g>
<line x1="35.625" y1="33.7778" x2="62.5587" y2="33.7778" stroke="#EBEEF1" stroke-width="3" stroke-linecap="round"/>
<line x1="15.603" y1="44.7151" x2="28.5699" y2="44.7151" stroke="#EBEEF1" stroke-width="2" stroke-linecap="round"/>
<line x1="38.5293" y1="40.6489" x2="41.4337" y2="40.6489" stroke="#EBEEF1" stroke-linecap="round"/>
<line x1="38.5293" y1="45.8674" x2="43.3859" y2="45.8674" stroke="#EBEEF1" stroke-linecap="round"/>
<line x1="38.5293" y1="49.1292" x2="43.3859" y2="49.1292" stroke="#EBEEF1" stroke-linecap="round"/>
<line x1="38.5293" y1="53.0432" x2="43.3859" y2="53.0432" stroke="#EBEEF1" stroke-linecap="round"/>
<line x1="38.5293" y1="56.957" x2="43.3859" y2="56.957" stroke="#EBEEF1" stroke-linecap="round"/>
<line x1="38.5293" y1="60.8711" x2="43.3859" y2="60.8711" stroke="#EBEEF1" stroke-linecap="round"/>
<line x1="38.5293" y1="64.7852" x2="43.3859" y2="64.7852" stroke="#EBEEF1" stroke-linecap="round"/>
<line x1="38.5293" y1="68.699" x2="43.3859" y2="68.699" stroke="#EBEEF1" stroke-linecap="round"/>
<line x1="38.5293" y1="72.613" x2="43.3859" y2="72.613" stroke="#EBEEF1" stroke-linecap="round"/>
<line x1="50.8933" y1="45.8674" x2="55.7499" y2="45.8674" stroke="#EBEEF1" stroke-linecap="round"/>
<line x1="50.8933" y1="53.0432" x2="55.7499" y2="53.0432" stroke="#EBEEF1" stroke-linecap="round"/>
<line x1="50.8933" y1="49.1292" x2="55.7499" y2="49.1292" stroke="#EBEEF1" stroke-linecap="round"/>
<line x1="50.8933" y1="56.957" x2="55.7499" y2="56.957" stroke="#EBEEF1" stroke-linecap="round"/>
<line x1="50.8933" y1="60.8711" x2="55.7499" y2="60.8711" stroke="#EBEEF1" stroke-linecap="round"/>
<line x1="50.8933" y1="64.7852" x2="55.7499" y2="64.7852" stroke="#EBEEF1" stroke-linecap="round"/>
<line x1="50.8933" y1="68.699" x2="55.7499" y2="68.699" stroke="#EBEEF1" stroke-linecap="round"/>
<line x1="50.8933" y1="72.613" x2="55.7499" y2="72.613" stroke="#EBEEF1" stroke-linecap="round"/>
<line x1="60.6543" y1="53.0432" x2="65.5109" y2="53.0432" stroke="#EBEEF1" stroke-linecap="round"/>
<line x1="60.6543" y1="45.8674" x2="65.5109" y2="45.8674" stroke="#EBEEF1" stroke-linecap="round"/>
<line x1="60.6543" y1="49.1292" x2="65.5109" y2="49.1292" stroke="#EBEEF1" stroke-linecap="round"/>
<line x1="69.7644" y1="53.0432" x2="74.621" y2="53.0432" stroke="#EBEEF1" stroke-linecap="round"/>
<line x1="60.6543" y1="56.957" x2="65.5109" y2="56.957" stroke="#EBEEF1" stroke-linecap="round"/>
<line x1="60.6543" y1="60.8711" x2="65.5109" y2="60.8711" stroke="#EBEEF1" stroke-linecap="round"/>
<line x1="60.6543" y1="64.7852" x2="65.5109" y2="64.7852" stroke="#EBEEF1" stroke-linecap="round"/>
<line x1="60.6543" y1="68.699" x2="65.5109" y2="68.699" stroke="#EBEEF1" stroke-linecap="round"/>
<line x1="60.6543" y1="72.613" x2="65.5109" y2="72.613" stroke="#EBEEF1" stroke-linecap="round"/>
<line x1="69.7644" y1="45.8674" x2="74.621" y2="45.8674" stroke="#EBEEF1" stroke-linecap="round"/>
<line x1="69.7644" y1="49.1292" x2="74.621" y2="49.1292" stroke="#EBEEF1" stroke-linecap="round"/>
<line x1="69.7644" y1="56.957" x2="74.621" y2="56.957" stroke="#EBEEF1" stroke-linecap="round"/>
<line x1="69.7644" y1="60.8711" x2="74.621" y2="60.8711" stroke="#EBEEF1" stroke-linecap="round"/>
<line x1="69.7644" y1="64.7852" x2="74.621" y2="64.7852" stroke="#EBEEF1" stroke-linecap="round"/>
<line x1="69.7644" y1="68.699" x2="74.621" y2="68.699" stroke="#EBEEF1" stroke-linecap="round"/>
<line x1="69.7644" y1="72.613" x2="74.621" y2="72.613" stroke="#EBEEF1" stroke-linecap="round"/>
<line x1="50.8933" y1="40.6489" x2="53.7977" y2="40.6489" stroke="#EBEEF1" stroke-linecap="round"/>
<line x1="60.6543" y1="40.6489" x2="63.5587" y2="40.6489" stroke="#EBEEF1" stroke-linecap="round"/>
<line x1="69.7644" y1="40.6489" x2="72.6688" y2="40.6489" stroke="#EBEEF1" stroke-linecap="round"/>
<line x1="15.603" y1="47.9768" x2="28.5699" y2="47.9768" stroke="#EBEEF1" stroke-width="2" stroke-linecap="round"/>
<line x1="15.603" y1="51.2383" x2="28.5699" y2="51.2383" stroke="#EBEEF1" stroke-width="2" stroke-linecap="round"/>
<line x1="79.8748" y1="33.7778" x2="85.3343" y2="33.7778" stroke="#EBEEF1" stroke-width="3" stroke-linecap="round"/>
<ellipse cx="23.713" cy="28.1023" rx="0.650733" ry="0.65233" fill="white"/>
<ellipse cx="21.1102" cy="28.1023" rx="0.650733" ry="0.652329" fill="white"/>
<ellipse cx="26.3158" cy="28.1023" rx="0.650733" ry="0.65233" fill="white"/>
<path fill-rule="evenodd" clip-rule="evenodd" d="M97.7162 82.4219V48.9074C97.7162 47.5948 97.195 46.3359 96.2671 45.4077C95.3392 44.4794 94.0807 43.9578 92.7684 43.9576H64.1267C63.0417 43.9575 61.9868 43.6008 61.1244 42.9423C60.262 42.2838 59.6398 41.3601 59.3537 40.3133L58.9365 38.784C58.6506 37.737 58.0286 36.813 57.1661 36.1544C56.3036 35.4957 55.2486 35.1389 54.1635 35.1389H26.6101C25.2979 35.1389 24.0394 35.6603 23.1115 36.5884C22.1836 37.5166 21.6624 38.7754 21.6624 40.0879V85.0098C21.6623 85.6597 21.7902 86.3033 22.0388 86.9038C22.2874 87.5043 22.6518 88.0499 23.1113 88.5095C23.5708 88.9691 24.1162 89.3336 24.7166 89.5823C25.3169 89.831 25.9604 89.9589 26.6101 89.9588H97.7162L105.28 89.9588C104.286 89.9588 103.303 89.7631 102.385 89.3829C101.468 89.0028 100.634 88.4455 99.9314 87.743C99.2291 87.0405 98.672 86.2065 98.2919 85.2886C97.9154 84.3795 97.7199 83.4058 97.7162 82.4219Z" fill="url(#paint1_linear_1622_38349)"/>
<path d="M112.843 79.9072V82.4755C112.843 83.4749 112.646 84.4644 112.263 85.3876C111.881 86.3108 111.319 87.1497 110.612 87.8563C109.905 88.563 109.065 89.1235 108.141 89.5059C107.216 89.8883 106.226 90.0851 105.226 90.0851C104.225 90.0851 103.235 89.8883 102.31 89.5059C101.386 89.1235 100.546 88.563 99.8391 87.8563C99.1317 87.1497 98.5706 86.3108 98.1878 85.3876C97.8049 84.4644 97.6079 83.4749 97.6079 82.4755V80.5286C97.6083 82.0539 98.2151 83.5167 99.2948 84.5952C100.375 85.6738 101.839 86.2799 103.366 86.2803H103.39C104.917 86.2803 106.382 85.6744 107.461 84.5957C108.541 83.517 109.148 82.0541 109.148 80.5286V79.9033L112.843 79.9072Z" fill="url(#paint2_linear_1622_38349)"/>
<g filter="url(#filter2_i_1622_38349)">
<path d="M67.2118 95.0909C75.2666 95.0909 81.7963 88.5452 81.7963 80.4707C81.7963 72.3961 75.2255 66 67.2118 66C59.1982 66 52.6274 72.3961 52.6274 80.4707C52.6274 88.5452 59.1571 95.0909 67.2118 95.0909Z" fill="url(#paint3_radial_1622_38349)"/>
</g>
<path d="M60.5949 80.6673C60.5949 80.1811 60.9891 79.7869 61.4754 79.7869H66.2408V75.0052C66.2408 74.5202 66.634 74.127 67.1191 74.127C67.6041 74.127 67.9973 74.5202 67.9973 75.0052V79.7869H73.2648C73.7511 79.7869 74.1453 80.1811 74.1453 80.6673C74.1453 81.1536 73.7511 81.5478 73.2648 81.5478H67.9973V86.8325C67.9973 87.3176 67.6041 87.7108 67.1191 87.7108C66.634 87.7108 66.2408 87.3176 66.2408 86.8325V81.5478H61.4754C60.9891 81.5478 60.5949 81.1536 60.5949 80.6673Z" fill="white"/>
<defs>
<filter id="filter0_d_1622_38349" x="14.1533" y="0" width="101.437" height="80.7527" filterUnits="userSpaceOnUse" color-interpolation-filters="sRGB">
<feFlood flood-opacity="0" result="BackgroundImageFix"/>
<feColorMatrix in="SourceAlpha" type="matrix" values="0 0 0 0 0 0 0 0 0 0 0 0 0 0 0 0 0 0 127 0" result="hardAlpha"/>
<feOffset dy="2"/>
<feGaussianBlur stdDeviation="6"/>
<feComposite in2="hardAlpha" operator="out"/>
<feColorMatrix type="matrix" values="0 0 0 0 0 0 0 0 0 0 0 0 0 0 0 0 0 0 0.12 0"/>
<feBlend mode="normal" in2="BackgroundImageFix" result="effect1_dropShadow_1622_38349"/>
<feBlend mode="normal" in="SourceGraphic" in2="effect1_dropShadow_1622_38349" result="shape"/>
</filter>
<filter id="filter1_d_1622_38349" x="0" y="14.1882" width="101.437" height="80.7527" filterUnits="userSpaceOnUse" color-interpolation-filters="sRGB">
<feFlood flood-opacity="0" result="BackgroundImageFix"/>
<feColorMatrix in="SourceAlpha" type="matrix" values="0 0 0 0 0 0 0 0 0 0 0 0 0 0 0 0 0 0 127 0" result="hardAlpha"/>
<feOffset dy="2"/>
<feGaussianBlur stdDeviation="6"/>
<feComposite in2="hardAlpha" operator="out"/>
<feColorMatrix type="matrix" values="0 0 0 0 0 0 0 0 0 0 0 0 0 0 0 0 0 0 0.12 0"/>
<feBlend mode="normal" in2="BackgroundImageFix" result="effect1_dropShadow_1622_38349"/>
<feBlend mode="normal" in="SourceGraphic" in2="effect1_dropShadow_1622_38349" result="shape"/>
</filter>
<filter id="filter2_i_1622_38349" x="52.6274" y="66" width="30.1687" height="30.0908" filterUnits="userSpaceOnUse" color-interpolation-filters="sRGB">
<feFlood flood-opacity="0" result="BackgroundImageFix"/>
<feBlend mode="normal" in="SourceGraphic" in2="BackgroundImageFix" result="shape"/>
<feColorMatrix in="SourceAlpha" type="matrix" values="0 0 0 0 0 0 0 0 0 0 0 0 0 0 0 0 0 0 127 0" result="hardAlpha"/>
<feOffset dx="1" dy="1"/>
<feGaussianBlur stdDeviation="1"/>
<feComposite in2="hardAlpha" operator="arithmetic" k2="-1" k3="1"/>
<feColorMatrix type="matrix" values="0 0 0 0 0 0 0 0 0 0 0 0 0 0 0 0 0 0 0.31 0"/>
<feBlend mode="normal" in2="shape" result="effect1_innerShadow_1622_38349"/>
</filter>
<linearGradient id="paint0_linear_1622_38349" x1="90.3521" y1="84.1878" x2="96.735" y2="32.7563" gradientUnits="userSpaceOnUse">
<stop stop-color="#308CEF"/>
<stop offset="1" stop-color="#85BCF7"/>
</linearGradient>
<linearGradient id="paint1_linear_1622_38349" x1="34.727" y1="40.8776" x2="50.8575" y2="91.6049" gradientUnits="userSpaceOnUse">
<stop stop-color="#B8DBFF"/>
<stop offset="1" stop-color="#7EBCFF"/>
</linearGradient>
<linearGradient id="paint2_linear_1622_38349" x1="105.168" y1="90.1155" x2="108.189" y2="79.9629" gradientUnits="userSpaceOnUse">
<stop stop-color="#2D84E1"/>
<stop offset="1" stop-color="#3790F0"/>
</linearGradient>
<radialGradient id="paint3_radial_1622_38349" cx="0" cy="0" r="1" gradientUnits="userSpaceOnUse" gradientTransform="translate(63.1662 76.5647) rotate(53.4942) scale(19.4022 19.4881)">
<stop stop-color="#6BADF3"/>
<stop offset="0.176032" stop-color="#3E96F3"/>
<stop offset="0.872244" stop-color="#2285EE"/>
<stop offset="1" stop-color="#2285EE"/>
</radialGradient>
</defs>
</svg>
