<svg width="123" height="98" fill="none" xmlns="http://www.w3.org/2000/svg">
  <path fill="#E9F3FD" d="M17 46.7a12 12 0 0 1 12-12h82a12 12 0 0 1 12 12V86a12 12 0 0 1-12 12H29a12 12 0 0 1-12-12V46.7Z" opacity=".4"/>
  <path fill="url(#a)" d="M112.8 37.6v45c0 .6 0 1.2-.2 1.7l-11.3 5-64.6-5V37.6a5 5 0 0 1 5-5h66.2a5 5 0 0 1 5 5Z"/>
  <g filter="url(#b)">
    <path fill="#fff" d="M26.2 22a12 12 0 0 1 12-12h53.4a12 12 0 0 1 12 12v32.8a12 12 0 0 1-12 12H38.2a12 12 0 0 1-12-12V22Z"/>
    <path stroke="#C1D7F0" d="M26.7 22c0-6.4 5.1-11.5 11.5-11.5h53.4c6.3 0 11.5 5.1 11.5 11.5v32.8c0 6.3-5.2 11.5-11.5 11.5H38.2c-6.4 0-11.5-5.2-11.5-11.5V22Z"/>
  </g>
  <mask id="c" width="78" height="57" x="26" y="10" maskUnits="userSpaceOnUse" style="mask-type:alpha">
    <path fill="#fff" d="M26.2 20a10 10 0 0 1 10-10h57.4a10 10 0 0 1 10 10v36.8a10 10 0 0 1-10 10H36.2a10 10 0 0 1-10-10V20Z"/>
  </mask>
  <g mask="url(#c)">
    <path fill="#EBEEF1" d="M46.3 22.4H103v.6H46.3v-.6Zm43-2.8c0-.2.2-.5.5-.5h1c.2 0 .4.3.4.5v1c0 .3-.2.5-.5.5h-1a.5.5 0 0 1-.4-.5v-1Zm-3.3 0c0-.2.2-.5.5-.5h1c.2 0 .5.3.5.5v1c0 .3-.3.5-.5.5h-1a.5.5 0 0 1-.5-.5v-1Z"/>
    <path fill="#F2F2F2" d="M46.3 22.4H103V55c0 6-4.9 11-11 11H46.3V22.4Z"/>
    <path fill="#fff" d="M49.6 26.4c0-1.2.9-2 2-2h46a2 2 0 0 1 2 2v34.4a2 2 0 0 1-2 2h-46a2 2 0 0 1-2-2V26.4Z"/>
    <path fill="#EBEEF1" d="M95.8 31.4c0-.3.2-.5.5-.5h1c.2 0 .4.2.4.5v1c0 .2-.2.4-.5.4h-1a.5.5 0 0 1-.4-.5v-1Zm0 3.2c0-.2.2-.5.5-.5h1c.2 0 .4.3.4.5v1c0 .3-.2.5-.5.5h-1a.5.5 0 0 1-.4-.5v-1Zm0 4c0-.3.2-.5.5-.5h1c.2 0 .4.2.4.5v1c0 .2-.2.4-.5.4h-1a.5.5 0 0 1-.4-.5v-1Zm0 3.9c0-.3.2-.5.5-.5h1c.2 0 .4.2.4.5v1c0 .2-.2.4-.5.4h-1a.5.5 0 0 1-.4-.5v-1Zm0 3.9c0-.3.2-.5.5-.5h1c.2 0 .4.2.4.5v1c0 .2-.2.4-.5.4h-1a.5.5 0 0 1-.4-.5v-1Zm0 3.9c0-.3.2-.5.5-.5h1c.2 0 .4.2.4.5v1c0 .2-.2.4-.5.4h-1a.5.5 0 0 1-.4-.5v-1Zm0 3.9c0-.3.2-.5.5-.5h1c.2 0 .4.2.4.5v1c0 .2-.2.5-.5.5h-1a.5.5 0 0 1-.4-.5v-1Zm0 3.9c0-.3.2-.5.5-.5h1c.2 0 .4.2.4.5v1c0 .3-.2.5-.5.5h-1a.5.5 0 0 1-.4-.5v-1Z"/>
    <path fill="#C1D7F0" d="M29.4 15a10 10 0 0 1 8.3-4.5h54.5a10 10 0 0 1 9.3 6.3l.5 1.2H27.3l2-3Z"/>
  </g>
  <path stroke="#EBEEF1" stroke-linecap="round" stroke-width="3" d="M49.8 19.6h26.9"/>
  <path stroke="#EBEEF1" stroke-linecap="round" stroke-width="2" d="M29.8 30.5h12.9"/>
  <path stroke="#EBEEF1" stroke-linecap="round" d="M52.7 26.5h2.9m-2.9 5.2h4.8m-4.8 3.2h4.8m-4.8 4h4.8m-4.8 3.9h4.8m-4.8 3.9h4.8m-4.8 3.9h4.8m-4.8 3.9h4.8m-4.8 3.9h4.8M65 31.7h4.9M65 38.9h4.9m-4.9-4h4.9M65 42.8h4.9M65 46.7h4.9M65 50.6h4.9M65 54.5h4.9M65 58.4h4.9m4.9-19.5h4.9m-4.9-7.2h4.9m-4.9 3.2h4.9m4.2 4h4.9m-14 3.9h4.9m-4.9 3.9h4.9m-4.9 3.9h4.9m-4.9 3.9h4.9m-4.9 3.9h4.9m4.2-26.7h4.9m-4.9 3.2h4.9m-4.9 7.9h4.9m-4.9 3.9h4.9m-4.9 3.9h4.9m-4.9 3.9h4.9m-4.9 3.9h4.9M65 26.5h3m6.8 0h2.9m6.2 0h2.9"/>
  <path stroke="#EBEEF1" stroke-linecap="round" stroke-width="2" d="M29.8 33.8h12.9m-12.9 3.3h12.9"/>
  <path stroke="#EBEEF1" stroke-linecap="round" stroke-width="3" d="M94 19.6h5.5"/>
  <circle cx="37.9" cy="13.9" r=".7" fill="#fff"/>
  <circle cx="35.3" cy="13.9" r=".7" fill="#fff"/>
  <circle cx="40.5" cy="13.9" r=".7" fill="#fff"/>
  <g filter="url(#d)">
    <path fill="#fff" d="M12 36.2a12 12 0 0 1 12-12h53.4a12 12 0 0 1 12 12v32.7a12 12 0 0 1-12 12H24a12 12 0 0 1-12-12V36.2Z"/>
    <path stroke="#5078A5" d="M12.5 36.2c0-6.4 5.1-11.5 11.5-11.5h53.4c6.4 0 11.5 5.1 11.5 11.5v32.7c0 6.4-5.1 11.5-11.5 11.5H24c-6.4 0-11.5-5.1-11.5-11.5V36.2Z"/>
  </g>
  <mask id="e" width="78" height="57" x="12" y="24" maskUnits="userSpaceOnUse" style="mask-type:alpha">
    <path fill="#fff" d="M12 34.2a10 10 0 0 1 10-10h57.4a10 10 0 0 1 10 10v36.7a10 10 0 0 1-10 10H22a10 10 0 0 1-10-10V34.2Z"/>
  </mask>
  <g mask="url(#e)">
    <path fill="#EBEEF1" d="M75.1 33.8c0-.3.2-.5.5-.5h1c.2 0 .5.2.5.5v1c0 .3-.3.5-.5.5h-1a.5.5 0 0 1-.5-.5v-1Zm-3.2 0c0-.3.2-.5.5-.5h1c.2 0 .4.2.4.5v1c0 .3-.2.5-.5.5h-1a.5.5 0 0 1-.4-.5v-1Z"/>
    <path fill="#F2F2F2" d="M32 37h56v32c0 6-5 11-11 11H32V37Z"/>
    <path fill="#fff" d="M35.4 40.5c0-1 1-2 2-2h46.1a2 2 0 0 1 2 2V75a2 2 0 0 1-2 2h-46a2 2 0 0 1-2-2V40.5Z"/>
    <path fill="#EBEEF1" d="M81.6 45.6c0-.3.3-.5.5-.5h1c.3 0 .5.2.5.5v1c0 .2-.2.4-.5.4h-1a.5.5 0 0 1-.5-.5v-1Zm0 3.2c0-.3.3-.5.5-.5h1c.3 0 .5.2.5.5v1c0 .3-.2.5-.5.5h-1a.5.5 0 0 1-.5-.5v-1Zm0 3.9c0-.2.3-.5.5-.5h1c.3 0 .5.3.5.5v1c0 .3-.2.5-.5.5h-1a.5.5 0 0 1-.5-.5v-1Zm0 4c0-.3.3-.5.5-.5h1c.3 0 .5.2.5.5v1c0 .2-.2.4-.5.4h-1a.5.5 0 0 1-.5-.5v-1Zm0 3.9c0-.3.3-.5.5-.5h1c.3 0 .5.2.5.5v1c0 .2-.2.4-.5.4h-1a.5.5 0 0 1-.5-.5v-1Zm0 3.9c0-.3.3-.5.5-.5h1c.3 0 .5.2.5.5v1c0 .2-.2.4-.5.4h-1a.5.5 0 0 1-.5-.5v-1Zm0 3.9c0-.3.3-.5.5-.5h1c.3 0 .5.2.5.5v1c0 .2-.2.5-.5.5h-1a.5.5 0 0 1-.5-.5v-1Zm0 3.9c0-.3.3-.5.5-.5h1c.3 0 .5.2.5.5v1c0 .2-.2.5-.5.5h-1a.5.5 0 0 1-.5-.5v-1Z"/>
    <path fill="#5078A5" d="M14.7 29.8a10 10 0 0 1 8.8-5.3h54.1c3.1 0 6 1.4 7.9 3.9l.5.6 2 3H13.5l1.2-2.2Z"/>
  </g>
  <path stroke="#EBEEF1" stroke-linecap="round" stroke-width="3" d="M35.6 33.8h27"/>
  <path stroke="#EBEEF1" stroke-linecap="round" stroke-width="2" d="M15.6 44.7h13"/>
  <path stroke="#EBEEF1" stroke-linecap="round" d="M38.5 40.6h2.9m-2.9 5.3h4.9m-4.9 3.2h4.9M38.5 53h4.9m-4.9 4h4.9m-4.9 3.9h4.9m-4.9 3.9h4.9m-4.9 3.9h4.9m-4.9 3.9h4.9m7.5-26.7h4.8M50.9 53h4.8m-4.8-3.9h4.8M50.9 57h4.8m-4.8 3.9h4.8m-4.8 3.9h4.8m-4.8 3.9h4.8m-4.8 3.9h4.8m5-19.6h4.8m-4.8-7.1h4.8m-4.8 3.2h4.8m4.3 3.9h4.8m-13.9 4h4.8m-4.8 3.9h4.8m-4.8 3.9h4.8m-4.8 3.9h4.8m-4.8 3.9h4.8m4.3-26.7h4.8m-4.8 3.2h4.8M69.8 57h4.8m-4.8 3.9h4.8m-4.8 3.9h4.8m-4.8 3.9h4.8m-4.8 3.9h4.8m-23.7-32h2.9m6.9 0h2.9m6.2 0h2.9"/>
  <path stroke="#EBEEF1" stroke-linecap="round" stroke-width="2" d="M15.6 48h13m-13 3.2h13"/>
  <path stroke="#EBEEF1" stroke-linecap="round" stroke-width="3" d="M79.9 33.8h5.4"/>
  <circle cx="23.7" cy="28.1" r=".7" fill="#fff"/>
  <circle cx="21.1" cy="28.1" r=".7" fill="#fff"/>
  <circle cx="26.3" cy="28.1" r=".7" fill="#fff"/>
  <path fill="url(#f)" fill-rule="evenodd" d="M97.7 82.4V49a5 5 0 0 0-5-5H64.2a5 5 0 0 1-4.7-3.6l-.5-1.5a5 5 0 0 0-4.7-3.7H26.6a5 5 0 0 0-5 5v45a5 5 0 0 0 5 4.9h78.7a7.6 7.6 0 0 1-7.6-7.6Z" clip-rule="evenodd"/>
  <path fill="url(#g)" d="M112.8 80v2.5a7.6 7.6 0 1 1-15.2 0v-2a5.8 5.8 0 0 0 5.8 5.8 5.8 5.8 0 0 0 5.7-5.8V80h3.7Z"/>
  <g filter="url(#h)">
    <path fill="url(#i)" d="M67.2 95a14.5 14.5 0 1 0 0-29 14.5 14.5 0 1 0 0 29.1Z"/>
  </g>
  <path fill="#fff" d="M60.6 80.7c0-.5.4-1 .9-1h4.7V75a.9.9 0 0 1 1.8 0v4.8h5.3a.9.9 0 1 1 0 1.7H68v5.3a.9.9 0 1 1-1.8 0v-5.3h-4.7a.9.9 0 0 1-1-.8Z"/>
  <defs>
    <linearGradient id="a" x1="90.4" x2="96.7" y1="84.2" y2="32.8" gradientUnits="userSpaceOnUse">
      <stop stop-color="#308CEF"/>
      <stop offset="1" stop-color="#85BCF7"/>
    </linearGradient>
    <linearGradient id="f" x1="34.7" x2="50.9" y1="40.9" y2="91.6" gradientUnits="userSpaceOnUse">
      <stop stop-color="#B8DBFF"/>
      <stop offset="1" stop-color="#7EBCFF"/>
    </linearGradient>
    <linearGradient id="g" x1="105.2" x2="108.2" y1="90.1" y2="80" gradientUnits="userSpaceOnUse">
      <stop stop-color="#2D84E1"/>
      <stop offset="1" stop-color="#3790F0"/>
    </linearGradient>
    <filter id="b" width="101.4" height="80.8" x="14.2" y="0" color-interpolation-filters="sRGB" filterUnits="userSpaceOnUse">
      <feFlood flood-opacity="0" result="BackgroundImageFix"/>
      <feColorMatrix in="SourceAlpha" result="hardAlpha" values="0 0 0 0 0 0 0 0 0 0 0 0 0 0 0 0 0 0 127 0"/>
      <feOffset dy="2"/>
      <feGaussianBlur stdDeviation="6"/>
      <feComposite in2="hardAlpha" operator="out"/>
      <feColorMatrix values="0 0 0 0 0 0 0 0 0 0 0 0 0 0 0 0 0 0 0.12 0"/>
      <feBlend in2="BackgroundImageFix" result="effect1_dropShadow_1622_38349"/>
      <feBlend in="SourceGraphic" in2="effect1_dropShadow_1622_38349" result="shape"/>
    </filter>
    <filter id="d" width="101.4" height="80.8" x="0" y="14.2" color-interpolation-filters="sRGB" filterUnits="userSpaceOnUse">
      <feFlood flood-opacity="0" result="BackgroundImageFix"/>
      <feColorMatrix in="SourceAlpha" result="hardAlpha" values="0 0 0 0 0 0 0 0 0 0 0 0 0 0 0 0 0 0 127 0"/>
      <feOffset dy="2"/>
      <feGaussianBlur stdDeviation="6"/>
      <feComposite in2="hardAlpha" operator="out"/>
      <feColorMatrix values="0 0 0 0 0 0 0 0 0 0 0 0 0 0 0 0 0 0 0.12 0"/>
      <feBlend in2="BackgroundImageFix" result="effect1_dropShadow_1622_38349"/>
      <feBlend in="SourceGraphic" in2="effect1_dropShadow_1622_38349" result="shape"/>
    </filter>
    <filter id="h" width="30.2" height="30.1" x="52.6" y="66" color-interpolation-filters="sRGB" filterUnits="userSpaceOnUse">
      <feFlood flood-opacity="0" result="BackgroundImageFix"/>
      <feBlend in="SourceGraphic" in2="BackgroundImageFix" result="shape"/>
      <feColorMatrix in="SourceAlpha" result="hardAlpha" values="0 0 0 0 0 0 0 0 0 0 0 0 0 0 0 0 0 0 127 0"/>
      <feOffset dx="1" dy="1"/>
      <feGaussianBlur stdDeviation="1"/>
      <feComposite in2="hardAlpha" k2="-1" k3="1" operator="arithmetic"/>
      <feColorMatrix values="0 0 0 0 0 0 0 0 0 0 0 0 0 0 0 0 0 0 0.31 0"/>
      <feBlend in2="shape" result="effect1_innerShadow_1622_38349"/>
    </filter>
    <radialGradient id="i" cx="0" cy="0" r="1" gradientTransform="matrix(11.54245 15.59542 -15.66447 11.59355 63.2 76.6)" gradientUnits="userSpaceOnUse">
      <stop stop-color="#6BADF3"/>
      <stop offset=".2" stop-color="#3E96F3"/>
      <stop offset=".9" stop-color="#2285EE"/>
      <stop offset="1" stop-color="#2285EE"/>
    </radialGradient>
  </defs>
</svg>
