<svg width="124" height="124" viewBox="0 0 124 124" fill="none" xmlns="http://www.w3.org/2000/svg">
<path d="M106.458 62.0191C106.458 86.0541 86.974 105.538 62.9391 105.538C38.9041 105.538 19.4199 86.0541 19.4199 62.0191C19.4199 37.9842 38.9041 18.5 62.9391 18.5C86.974 18.5 106.458 37.9842 106.458 62.0191Z" fill="#EBEEF1" stroke="#B7C2CE"/>
<path fill-rule="evenodd" clip-rule="evenodd" d="M48.2783 73.9388L70.7627 29.3379C72.0709 26.7428 75.2352 25.6996 77.8303 27.0078L101.549 38.9651C102.809 39.6003 103.761 40.7149 104.192 42.0587L108.898 56.7518C109.319 58.0662 109.207 59.4934 108.586 60.7258L91.0537 95.5028C89.7455 98.0979 86.5812 99.1411 83.9861 97.8329L50.6084 81.0064C48.0133 79.6982 46.9701 76.5339 48.2783 73.9388ZM49.1713 74.3889L71.6556 29.788C72.7153 27.6861 75.2782 26.8411 77.3802 27.9008L101.099 39.858C101.757 40.1899 102.312 40.6834 102.716 41.2841L99.4287 47.8056C98.1205 50.4007 99.1637 53.565 101.759 54.8732L108.141 58.0904C108.188 58.8395 108.036 59.5943 107.693 60.2756L90.1608 95.0527C89.1011 97.1546 86.5381 97.9996 84.4362 96.9399L51.0585 80.1135C48.9566 79.0538 48.1116 76.4909 49.1713 74.3889Z" fill="#B7C2CE"/>
<path d="M71.6554 29.7881L49.1711 74.389C48.1114 76.4909 48.9564 79.0539 51.0583 80.1135L84.436 96.94C86.5379 97.9996 89.1009 97.1546 90.1605 95.0527L107.692 60.2757C108.036 59.5943 108.187 58.8395 108.14 58.0905L101.759 54.8732C99.1634 53.565 98.1203 50.4007 99.4285 47.8056L102.716 41.2841C102.312 40.6834 101.757 40.1899 101.099 39.858L77.3799 27.9008C75.278 26.8412 72.715 27.6861 71.6554 29.7881Z" fill="white"/>
<path fill-rule="evenodd" clip-rule="evenodd" d="M76.9717 33.8783C77.1486 33.5275 77.5764 33.3864 77.9273 33.5633L95.5033 42.4238C95.8541 42.6007 95.9952 43.0285 95.8183 43.3793C95.6414 43.7302 95.2136 43.8712 94.8628 43.6943L77.2868 34.8339C76.9359 34.657 76.7949 34.2292 76.9717 33.8783Z" fill="#B7C2CE"/>
<path fill-rule="evenodd" clip-rule="evenodd" d="M74.6221 38.537C74.799 38.1862 75.2268 38.0451 75.5777 38.222L81.7187 41.3178C82.0695 41.4947 82.2106 41.9225 82.0337 42.2734C81.8568 42.6242 81.429 42.7652 81.0782 42.5884L74.9371 39.4925C74.5863 39.3157 74.4453 38.8879 74.6221 38.537Z" fill="#B7C2CE"/>
<line x1="57.145" y1="73.9616" x2="62.677" y2="76.7504" stroke="#B7C2CE" stroke-width="2.10487" stroke-linecap="round"/>
<line x1="67.31" y1="79.0857" x2="69.6657" y2="80.2733" stroke="#B7C2CE" stroke-width="2.10487" stroke-linecap="round"/>
<path fill-rule="evenodd" clip-rule="evenodd" d="M67.7848 50.5189C68.4389 49.2214 70.0211 48.6998 71.3186 49.3539L96.7765 62.1878C98.0741 62.8419 98.5957 64.4241 97.9415 65.7216L90.3823 80.7164C89.7282 82.0139 88.1461 82.5355 86.8485 81.8814L61.3906 69.0475C60.0931 68.3934 59.5715 66.8112 60.2256 65.5137L67.7848 50.5189ZM70.8685 50.2468L96.3264 63.0807C97.1307 63.4863 97.4541 64.4671 97.0486 65.2715L95.88 67.5896L67.5091 53.2872L68.6777 50.9691C69.0833 50.1647 70.0641 49.8413 70.8685 50.2468ZM67.0868 54.1249L65.2671 57.7346L93.6379 72.037L95.4577 68.4273L67.0868 54.1249ZM93.2156 72.8747L64.8448 58.5723L62.598 63.0292L90.8677 77.2806C90.9029 77.2984 90.9336 77.3218 90.9597 77.3496L93.2156 72.8747ZM90.5556 78.1512C90.5177 78.1468 90.4806 78.136 90.4454 78.1183L62.1757 63.8669L61.1185 65.9638C60.713 66.7682 61.0364 67.749 61.8408 68.1545L87.2987 80.9885C88.1031 81.394 89.0839 81.0706 89.4894 80.2662L90.5556 78.1512Z" fill="#B7C2CE"/>
<path d="M41.1355 30.7299C41.7744 30.361 42.4917 30.1678 43.2162 30.1592L46.8672 36.4828C48.3203 38.9997 51.5386 39.862 54.0554 38.4089L60.2435 34.8363C60.896 35.2077 61.4445 35.7483 61.8261 36.4093L81.2992 70.1377C82.4762 72.1763 81.7777 74.783 79.7392 75.96L47.3679 94.6495C45.3293 95.8265 42.7226 95.128 41.5457 93.0895L16.5717 49.8334C15.3948 47.7948 16.0932 45.1881 18.1318 44.0111L41.1355 30.7299Z" fill="white"/>
<path fill-rule="evenodd" clip-rule="evenodd" d="M61.2164 34.2747C60.7145 33.9122 60.148 33.6377 59.5401 33.4693L44.6718 29.35C44.4746 29.2954 44.2755 29.2526 44.0755 29.2214C43.8039 29.1792 43.5305 29.1585 43.2578 29.1589C42.3452 29.1605 41.4402 29.3995 40.6357 29.8639L17.632 43.1452C15.1151 44.5983 14.2528 47.8166 15.7059 50.3334L40.6798 93.5895C42.1329 96.1064 45.3512 96.9687 47.8681 95.5156L80.2393 76.826C82.7562 75.3729 83.6185 72.1546 82.1654 69.6378L62.6923 35.9093C62.3176 35.2604 61.8126 34.7054 61.2164 34.2747ZM43.2164 30.1592C42.4919 30.1678 41.7746 30.3611 41.1357 30.73L18.132 44.0112C16.0934 45.1882 15.3949 47.7949 16.5719 49.8334L41.5458 93.0895C42.7228 95.1281 45.3295 95.8265 47.3681 94.6496L79.7393 75.96C81.7779 74.7831 82.4764 72.1763 81.2994 70.1378L61.8263 36.4093C61.4446 35.7483 60.8961 35.2078 60.2436 34.8363L54.0556 38.409C51.5387 39.8621 48.3205 38.9998 46.8673 36.4829L43.2164 30.1592Z" fill="#B7C2CE"/>
<path fill-rule="evenodd" clip-rule="evenodd" d="M23.0218 47.8261C22.7627 47.3774 22.8286 46.8544 23.1689 46.658L40.2149 36.8164C40.5552 36.6199 41.041 36.8244 41.3001 37.2731C41.5592 37.7218 41.4933 38.2448 41.153 38.4413L24.107 48.2828C23.7667 48.4793 23.2808 48.2748 23.0218 47.8261Z" fill="#B7C2CE"/>
<path fill-rule="evenodd" clip-rule="evenodd" d="M25.6292 52.3443C25.3702 51.8956 25.436 51.3726 25.7763 51.1761L31.7321 47.7375C32.0724 47.5411 32.5583 47.7455 32.8173 48.1942C33.0764 48.6429 33.0105 49.1659 32.6702 49.3624L26.7144 52.801C26.3741 52.9975 25.8883 52.793 25.6292 52.3443Z" fill="#B7C2CE"/>
<path fill-rule="evenodd" clip-rule="evenodd" d="M44.9357 87.2075C44.8062 86.9831 44.8851 86.6951 45.1119 86.5641L51.4785 82.8884C51.7054 82.7574 51.9943 82.8331 52.1238 83.0574C52.2533 83.2818 52.1744 83.5698 51.9476 83.7008L45.581 87.3766C45.3541 87.5075 45.0652 87.4318 44.9357 87.2075Z" fill="#B7C2CE"/>
<path fill-rule="evenodd" clip-rule="evenodd" d="M54.7951 81.516C54.6655 81.2916 54.7444 81.0036 54.9713 80.8726L58.2573 78.9754C58.4841 78.8445 58.773 78.9202 58.9026 79.1445C59.0321 79.3688 58.9532 79.6569 58.7263 79.7879L55.4404 81.685C55.2135 81.816 54.9246 81.7403 54.7951 81.516Z" fill="#B7C2CE"/>
<path fill-rule="evenodd" clip-rule="evenodd" d="M31.7895 64.4353C31.0629 63.1769 31.4941 61.5678 32.7525 60.8412L59.2068 45.5678C60.4653 44.8412 62.0744 45.2724 62.801 46.5308L71.1972 61.0735C71.9237 62.3319 71.4926 63.941 70.2341 64.6676L43.7798 79.941C42.5214 80.6676 40.9122 80.2364 40.1857 78.978L31.7895 64.4353ZM33.2525 61.7072L59.7068 46.4338C60.487 45.9834 61.4845 46.2507 61.9349 47.0308L70.3312 61.5735C70.7816 62.3536 70.5143 63.3512 69.7341 63.8016L43.2798 79.075C42.4997 79.5254 41.5021 79.2581 41.0517 78.478L39.8768 76.443L69.1559 59.5387L68.6559 58.6727L39.3768 75.577L36.9123 71.3084L66.1914 54.4041L65.6914 53.538L36.4123 70.4424L34.4222 66.9954L63.7013 50.0911L63.2013 49.2251L33.9222 66.1294L32.6555 63.9353C32.2051 63.1552 32.4724 62.1576 33.2525 61.7072Z" fill="#B7C2CE"/>
<path d="M34.7129 30.106V94.2211C34.7129 97.2063 37.1328 99.6262 40.1179 99.6262H85.4708C88.456 99.6262 90.8759 97.2062 90.8759 94.2211V44.1849C90.8759 43.5943 90.7792 43.0133 90.5943 42.4632H81.3943C77.8569 42.4632 74.9893 39.5956 74.9893 36.0582V25.4414C74.1687 24.9611 73.2277 24.7009 72.2587 24.7009H40.1179C37.1328 24.7009 34.7129 27.1208 34.7129 30.106Z" fill="white"/>
<path fill-rule="evenodd" clip-rule="evenodd" d="M74.9893 24.3121C74.1439 23.9137 73.2127 23.7009 72.2587 23.7009H40.1179C36.5805 23.7009 33.7129 26.5686 33.7129 30.106V94.2211C33.7129 97.7585 36.5805 100.626 40.1179 100.626H85.4708C89.0082 100.626 91.8759 97.7585 91.8759 94.2211V44.1849C91.8759 43.598 91.7953 43.0192 91.6402 42.4632C91.3647 41.4763 90.8541 40.5614 90.1414 39.8019L76.9292 25.723C76.3995 25.1585 75.778 24.7009 75.0982 24.3647C75.062 24.3469 75.0257 24.3293 74.9893 24.3121ZM34.7129 94.2211V30.106C34.7129 27.1208 37.1328 24.7009 40.1179 24.7009H72.2587C73.2277 24.7009 74.1687 24.9611 74.9893 25.4414V36.0582C74.9893 39.5956 77.8569 42.4632 81.3943 42.4632H90.5943C90.7792 43.0133 90.8759 43.5943 90.8759 44.1849V94.2211C90.8759 97.2062 88.456 99.6262 85.4708 99.6262H40.1179C37.1328 99.6262 34.7129 97.2063 34.7129 94.2211Z" fill="#B7C2CE"/>
<path fill-rule="evenodd" clip-rule="evenodd" d="M43.0947 34.0201C43.0947 33.502 43.4824 33.082 43.9607 33.082H64.7435C65.2217 33.082 65.6094 33.502 65.6094 34.0201C65.6094 34.5382 65.2217 34.9583 64.7435 34.9583H43.9607C43.4824 34.9583 43.0947 34.5382 43.0947 34.0201Z" fill="#B7C2CE"/>
<path fill-rule="evenodd" clip-rule="evenodd" d="M43.0947 37.7725C43.0947 37.2544 43.4824 36.8344 43.9607 36.8344H51.6099C52.0882 36.8344 52.4759 37.2544 52.4759 37.7725C52.4759 38.2906 52.0882 38.7106 51.6099 38.7106H43.9607C43.4824 38.7106 43.0947 38.2906 43.0947 37.7725Z" fill="#B7C2CE"/>
<path fill-rule="evenodd" clip-rule="evenodd" d="M42.1562 89.8377C42.1562 89.5787 42.2988 89.3687 42.6253 89.3687H52.0064C52.3329 89.3687 52.4755 89.5787 52.4755 89.8377C52.4755 90.0968 52.3329 90.3068 52.0064 90.3068H42.6253C42.2988 90.3068 42.1562 90.0968 42.1562 89.8377Z" fill="#B7C2CE"/>
<path fill-rule="evenodd" clip-rule="evenodd" d="M56.2275 89.8377C56.2275 89.5787 56.385 89.3687 56.6966 89.3687H61.3872C61.6988 89.3687 61.8562 89.5787 61.8562 89.8377C61.8562 90.0968 61.6988 90.3068 61.3872 90.3068H56.6966C56.385 90.3068 56.2275 90.0968 56.2275 89.8377Z" fill="#B7C2CE"/>
<path fill-rule="evenodd" clip-rule="evenodd" d="M41.2158 54.864C41.2158 53.7143 42.1478 52.7823 43.2975 52.7823H82.2874C83.437 52.7823 84.369 53.7143 84.369 54.864V78.8441C84.369 79.9937 83.437 80.9257 82.2874 80.9257H43.2975C42.1478 80.9257 41.2158 79.9937 41.2158 78.8441V54.864ZM43.2975 53.7823H82.2874C82.8847 53.7823 83.369 54.2666 83.369 54.864V59.4211H42.2158V54.864C42.2158 54.2666 42.7001 53.7823 43.2975 53.7823ZM42.2158 74.359V78.8441C42.2158 79.4415 42.7001 79.9257 43.2975 79.9257H82.2874C82.8847 79.9257 83.369 79.4415 83.369 78.8441V74.359H42.2158ZM83.369 73.493H42.2158V66.854H83.369V73.493ZM83.369 60.2871V65.988H42.2158V60.2871H83.369Z" fill="#B7C2CE"/>
<circle cx="19.7862" cy="35.8964" r="2.02055" fill="#F0F4F7"/>
<circle cx="101.186" cy="28.3192" r="2.74218" fill="#F0F4F7"/>
<circle cx="29.4563" cy="98.3889" r="1.87623" fill="#DDE2E8"/>
<circle cx="24.2608" cy="29.6904" r="1.29893" fill="#DDE2E8"/>
<circle cx="96.712" cy="23.0514" r="1.29893" fill="#DDE2E8"/>
<circle cx="103.928" cy="86.2657" r="1.29893" fill="#EBEEF1"/>
</svg>
