<svg width="124" height="124" fill="none" xmlns="http://www.w3.org/2000/svg">
  <circle cx="63.5" cy="62.5" r="43" fill="#EBEEF1" stroke="#B7C2CE"/>
  <path fill="#EBEEF1" stroke="#B7C2CE" d="M27.5 43c0-2 1.6-3.5 3.5-3.5h62c2 0 3.5 1.6 3.5 3.5v24.5h-69V43Z"/>
  <circle r="3.5" fill="#EBEEF1" transform="matrix(1 0 0 -1 16.5 82.5)"/>
  <circle r="2" fill="#EBEEF1" transform="matrix(1 0 0 -1 21 40)"/>
  <circle r="2" fill="#EBEEF1" transform="matrix(1 0 0 -1 104 34)"/>
  <circle r="3" fill="#EBEEF1" transform="matrix(1 0 0 -1 108 43)"/>
  <path fill="#fff" stroke="#B7C2CE" d="M40.5 32c0-1.4 1.1-2.5 2.5-2.5h27.7c.7 0 1.4.3 1.8.8L84.8 43c.4.4.7 1 .7 1.7v14.8h-45V32Z"/>
  <rect width="21" height="1" x="46" y="53" fill="#B7C2CE" stroke="#B7C2CE" stroke-width=".5" rx=".5"/>
  <path fill="#fff" stroke="#B7C2CE" d="M21.5 63.8a4.5 4.5 0 0 1 4.5-5.3h30.4c2.3 0 4.5-.8 6.2-2.3l6.7-5.7c1.5-1.3 3.5-2 5.5-2h28.4c2.2 0 3.8 2 3.5 4.1L99.4 93a5.5 5.5 0 0 1-5.4 4.5H32c-2.6 0-5-2-5.4-4.6l-5-29.1Z"/>
  <mask id="a" fill="#fff">
    <path fill-rule="evenodd" d="M88.6 91.3a20 20 0 1 1 4.9-5l12 11.9a3.5 3.5 0 0 1-5 5l-11.9-12ZM90 75a13 13 0 1 1-26 0 13 13 0 0 1 26 0Z" clip-rule="evenodd"/>
  </mask>
  <path fill="#DDE2E8" fill-rule="evenodd" d="M88.6 91.3a20 20 0 1 1 4.9-5l12 11.9a3.5 3.5 0 0 1-5 5l-11.9-12ZM90 75a13 13 0 1 1-26 0 13 13 0 0 1 26 0Z" clip-rule="evenodd"/>
  <path fill="#778DA8" d="m88.6 91.3.7-.7-.6-.6-.7.5.6.8Zm5-5-1-.6-.4.7.6.6.7-.7Zm11.8 11.9-.7.7.7-.7ZM77 96a21 21 0 0 0 12.2-4L88 90.6A19 19 0 0 1 77 94v2ZM56 75a21 21 0 0 0 21 21v-2a19 19 0 0 1-19-19h-2Zm21-21a21 21 0 0 0-21 21h2a19 19 0 0 1 19-19v-2Zm21 21a21 21 0 0 0-21-21v2a19 19 0 0 1 19 19h2Zm-3.7 11.8A21 21 0 0 0 98 75h-2c0 4-1.2 7.7-3.3 10.7l1.6 1.1Zm-1.5.2 12 12 1.4-1.5-12-12-1.4 1.5Zm12 12c1 .9 1 2.5 0 3.4l1.4 1.5a4.5 4.5 0 0 0 0-6.4l-1.5 1.4Zm0 3.4c-1 1-2.6 1-3.6 0l-1.4 1.5a4.5 4.5 0 0 0 6.4 0l-1.5-1.5Zm-3.6 0L89.3 90.6 88 92l11.9 11.9 1.4-1.5ZM77 89a14 14 0 0 0 14-14h-2a12 12 0 0 1-12 12v2ZM63 75a14 14 0 0 0 14 14v-2a12 12 0 0 1-12-12h-2Zm14-14a14 14 0 0 0-14 14h2a12 12 0 0 1 12-12v-2Zm14 14a14 14 0 0 0-14-14v2a12 12 0 0 1 12 12h2Z" mask="url(#a)"/>
  <path fill="#778DA8" d="M76.4 69.7c-.5 0-1 0-1.5.2-.5 0-1 .3-1.5.6l-.7-2a5 5 0 0 1 1.8-.8c.7-.2 1.5-.3 2.2-.3.9 0 1.6.1 2.2.4.5.2 1 .5 1.3.9.4.3.6.7.7 1.2.2.4.2.9.2 1.3 0 .5 0 1-.2 1.3l-.7 1.1-1 1a10.7 10.7 0 0 0-1.5 1.9c-.2.3-.3.7-.3 1.2v.5h-2.3a4.4 4.4 0 0 1 .2-2.2c.1-.4.4-.8.6-1.1l.8-.9.8-.8.6-.9a1.6 1.6 0 0 0-.2-2.1c-.4-.4-.9-.5-1.5-.5ZM78 81.5c0 .6-.2 1-.5 1.3-.3.3-.8.5-1.3.5-.4 0-.9-.2-1.2-.5-.3-.3-.5-.7-.5-1.3 0-.5.2-.9.5-1.2.3-.3.8-.5 1.2-.5.5 0 1 .2 1.3.5.3.3.5.7.5 1.2Z"/>
  <rect width="21" height="1" x="46" y="37" fill="#B7C2CE" stroke="#B7C2CE" stroke-width=".5" rx=".5"/>
  <rect width="12" height="1" x="46" y="41" fill="#B7C2CE" stroke="#B7C2CE" stroke-width=".5" rx=".5"/>
  <path fill="#B7C2CE" d="M72 30.3c0-.5.6-.7.9-.4l5.6 6.1 7.3 8H75a3 3 0 0 1-3-3V30.3Z"/>
</svg>
