<svg width="124" height="124" fill="none" xmlns="http://www.w3.org/2000/svg">
  <circle cx="65.7" cy="58.5" r="43" fill="#EBEEF1" stroke="#B7C2CE"/>
  <rect width="35" height="35" x="8.7" y="35" fill="#fff" stroke="#B7C2CE" rx="1.5" transform="rotate(-35.8 8.7 35)"/>
  <rect width="28" height="28" x="13.6" y="35.8" fill="#EBEEF1" rx="1" transform="rotate(-35.8 13.6 35.8)"/>
  <circle cx="24.8" cy="37.6" r="2" fill="#99A9BA" transform="rotate(-35.8 24.8 37.6)"/>
  <path fill="#99A9BA" d="m28.5 41.7-.5 6.1c0 .4.5.7.8.4l6.4-4.6c.3-.2.2-.8-.2-.9l-6-1.5c-.2 0-.5.2-.5.5Z"/>
  <path fill="#B7C2CE" d="m33.3 35.6-1.1 9.2c-.1.4.4.7.7.5l10.3-7.5c.4-.2.3-.8-.2-.9l-9-1.7c-.4 0-.6.1-.7.4Z"/>
  <rect width="35" height="35" x="83.8" y="11.7" fill="#fff" stroke="#B7C2CE" rx="1.5" transform="rotate(38.8 83.8 11.7)"/>
  <rect width="28" height="28" x="84.4" y="16.6" fill="#EBEEF1" rx="1" transform="rotate(38.8 84.4 16.6)"/>
  <circle cx="85.6" cy="27.9" r="2" fill="#99A9BA" transform="rotate(38.8 85.6 27.9)"/>
  <path fill="#99A9BA" d="m82.6 32.5-6 1.2c-.4.1-.5.6-.2.9l6.1 5c.3.2.8 0 .8-.5V33c0-.3-.4-.5-.7-.5Z"/>
  <path fill="#B7C2CE" d="M89.8 35.6 80.6 37c-.4 0-.6.6-.2.9l9.8 8c.4.2.9 0 .9-.5l-.7-9.2c0-.3-.3-.5-.6-.5Z"/>
  <rect width="35" height="35" x="44.8" y="80.6" fill="#fff" stroke="#B7C2CE" rx="1.5" transform="rotate(-25.2 44.8 80.6)"/>
  <rect width="28" height="28" x="49.5" y="82.3" fill="#EBEEF1" rx="1" transform="rotate(-25.2 49.5 82.3)"/>
  <circle cx="60.1" cy="86.1" r="2" fill="#99A9BA" transform="rotate(-25.2 60.1 86)"/>
  <path fill="#99A9BA" d="m63 90.8-1.5 6c-.1.3.3.7.7.5l7.1-3.4c.4-.1.4-.7 0-.9l-5.6-2.6a.5.5 0 0 0-.7.4Z"/>
  <path fill="#B7C2CE" d="m69 85.7-3 8.8c0 .4.4.8.8.6l11.5-5.4c.4-.2.3-.7 0-1l-8.7-3.3a.5.5 0 0 0-.6.3Z"/>
  <circle cx="47.7" cy="43.5" r="6" fill="#DDE2E8" stroke="#778DA8"/>
  <circle cx="84.7" cy="43.5" r="6" fill="#DDE2E8" stroke="#778DA8"/>
  <path fill="#DDE2E8" stroke="#778DA8" d="M41.7 41.5c-5.3 2.6-9.4 13-11.2 18.8a1 1 0 0 0 .9 1.3L58.7 64c.3 0 .6-.1.8-.4l5.3-5.7c.2-.3.3-.6.3-1L61.7 42l-6.5 1.4a1 1 0 0 1-1-.2 11.6 11.6 0 0 0-12.5-1.7Zm49 0c5.2 2.6 9.4 13 11.1 18.8a1 1 0 0 1-.8 1.3L73.7 64a1 1 0 0 1-.9-.4L67.5 58a1 1 0 0 1-.2-1l3.4-15 6.5 1.4c.3 0 .6 0 .9-.2 2.2-1.9 7.3-4.3 12.6-1.7Z"/>
  <circle cx="44.2" cy="68" r="15.5" fill="#DDE2E8" stroke="#778DA8"/>
  <circle cx="89.2" cy="68" r="15.5" fill="#DDE2E8" stroke="#778DA8"/>
  <circle cx="44.2" cy="68" r="11.5" fill="#DDE2E8" stroke="#778DA8"/>
  <circle cx="89.2" cy="68" r="11.5" fill="#DDE2E8" stroke="#778DA8"/>
  <circle cx="44.2" cy="66" r="9.5" fill="#DDE2E8" stroke="#778DA8"/>
  <circle cx="89.2" cy="66" r="9.5" fill="#DDE2E8" stroke="#778DA8"/>
  <path stroke="#fff" stroke-linecap="round" d="M44.2 60a6 6 0 0 0-6 6m51-6a6 6 0 0 0-6 6"/>
  <mask id="a" fill="#fff">
    <path fill-rule="evenodd" d="M71.2 44v10a5 5 0 0 1-10 0V44a5 5 0 1 1 10 0Z" clip-rule="evenodd"/>
  </mask>
  <path fill="#DDE2E8" fill-rule="evenodd" d="M71.2 44v10a5 5 0 0 1-10 0V44a5 5 0 1 1 10 0Z" clip-rule="evenodd"/>
  <path fill="#778DA8" d="M70.2 44v10h2V44h-2Zm0 10a4 4 0 0 1-4 4v2a6 6 0 0 0 6-6h-2Zm-4 4a4 4 0 0 1-4-4h-2a6 6 0 0 0 6 6v-2Zm-4-4V44h-2v10h2Zm4-16a6 6 0 0 0-6 6h2a4 4 0 0 1 4-4v-2Zm6 6a6 6 0 0 0-6-6v2a4 4 0 0 1 4 4h2Z" mask="url(#a)"/>
  <path stroke="#778DA8" d="M61.2 42.5c1.5-1 5.5-2.4 9.5 0"/>
  <circle cx="66.2" cy="54" r="4.5" stroke="#778DA8"/>
  <circle r="3.5" fill="#EBEEF1" transform="matrix(1 0 0 -1 112.7 42.5)"/>
</svg>
