<svg width="124" height="124" viewBox="0 0 124 124" fill="none" xmlns="http://www.w3.org/2000/svg">
<circle cx="62.5" cy="62.1315" r="43" fill="#EBEEF1" stroke="#B7C2CE"/>
<path d="M39.3599 64.9487L62.1198 78.0891C63.4399 78.8513 63.8954 80.5337 63.1372 81.847L61.8037 84.1566C61.0455 85.4698 59.3607 85.9166 58.0407 85.1544L35.2808 72.014C33.9607 71.2518 33.5052 69.5694 34.2634 68.2562L35.5969 65.9466C36.3551 64.6333 38.0398 64.1866 39.3599 64.9487Z" fill="#EBEEF1"/>
<path d="M56.2384 82.2147C56.8723 82.5807 57.6249 82.6811 58.3306 82.494C59.0364 82.3069 59.6374 81.8475 60.0015 81.2168L61.3346 78.9078C61.5242 78.5793 61.6431 78.2148 61.6839 77.8374L62.1197 78.089C62.4338 78.2702 62.7094 78.5112 62.9307 78.7982C63.1519 79.0852 63.3145 79.4126 63.4091 79.7618C63.5037 80.1109 63.5285 80.4749 63.4821 80.8329C63.4357 81.191 63.3189 81.5361 63.1385 81.8485L61.8054 84.1575C61.4413 84.7882 60.8403 85.2476 60.1346 85.4347C59.4289 85.6219 58.6763 85.5214 58.0424 85.1554L35.2813 72.0143C34.8169 71.7459 34.4403 71.3488 34.1977 70.8714C33.955 70.394 33.8568 69.857 33.9149 69.3262L56.2384 82.2147Z" fill="#B7C2CE"/>
<path d="M42.9038 66.9945C43.9612 56.4625 38.3935 49.4214 38.3935 49.4214L75.5317 70.8632C75.5317 70.8632 66.6519 69.563 58.0578 75.7437L42.9038 66.9945Z" fill="white"/>
<path d="M40.3006 50.5225C40.3006 50.5225 45.8665 57.5626 44.8109 68.0956L42.9038 66.9945C43.9613 56.4626 38.3935 49.4214 38.3935 49.4214L40.3006 50.5225Z" fill="#EBEEF1"/>
<path d="M55.3318 73.8534C62.532 68.6713 69.939 68.7476 72.1455 68.9081L75.5317 70.8632C75.5317 70.8632 66.6519 69.563 58.0578 75.7437L42.9038 66.9945C42.9138 66.8932 42.9195 66.7935 42.9285 66.6924L55.3318 73.8534Z" fill="#B7C2CE"/>
<path d="M51.1172 29.2339L86.1747 49.4744C87.4949 50.2366 87.8255 52.1351 86.9136 53.7147L78.1285 68.9309C77.4731 70.0661 76.3541 70.7243 75.2863 70.7237L38.1559 49.2865C37.6214 48.362 37.632 47.0639 38.2874 45.9287L47.0725 30.7124C47.9869 29.1343 49.7964 28.4714 51.1172 29.2339Z" fill="white"/>
<path d="M73.4851 67.7823C74.5524 67.7826 75.6713 67.1244 76.3267 65.9892L85.1118 50.7729C85.4006 50.2771 85.5727 49.722 85.6155 49.1492L86.1757 49.4727C87.4958 50.2349 87.8265 52.1334 86.9145 53.713L78.1294 68.9292C77.474 70.0644 76.3551 70.7226 75.2872 70.722L38.1569 49.2848C37.8154 48.6947 37.6997 47.9516 37.8261 47.1945L73.4851 67.7823Z" fill="#B7C2CE"/>
<path d="M75.1562 43.1122L84.9676 26.1183C85.2887 25.5621 85.8187 25.157 86.4411 24.9919C87.0635 24.8269 87.7272 24.9155 88.2863 25.2383C88.8454 25.5611 89.254 26.0916 89.4223 26.7131C89.5905 27.3346 89.5047 27.9962 89.1835 28.5524L79.3721 45.5463L75.1562 43.1122Z" fill="white"/>
<path d="M87.3637 24.9074C87.6932 24.945 88.0116 25.0502 88.299 25.2163C88.5764 25.3784 88.8194 25.5932 89.014 25.8486C89.2086 26.1039 89.351 26.3948 89.4332 26.7046C89.5153 27.0143 89.5356 27.3369 89.4928 27.6539C89.45 27.9709 89.3449 28.2761 89.1837 28.5521L79.3722 45.546L77.7019 44.5816L87.5133 27.5878C87.7522 27.176 87.8653 26.7032 87.8388 26.2271C87.8122 25.7511 87.6471 25.2925 87.3637 24.9074Z" fill="#B7C2CE"/>
<path d="M58.9169 33.7365L68.7284 16.7426C68.8843 16.4615 69.095 16.2144 69.348 16.0158C69.6011 15.8172 69.8915 15.671 70.2023 15.5858C70.513 15.5005 70.838 15.478 71.1582 15.5193C71.4785 15.5607 71.7875 15.6652 72.0673 15.8268C72.3472 15.9883 72.5922 16.2037 72.7881 16.4603C72.9841 16.717 73.127 17.0097 73.2086 17.3215C73.2901 17.6333 73.3087 17.9578 73.2633 18.2763C73.2178 18.5947 73.1092 18.9007 72.9437 19.1763L63.1323 36.1702L58.9169 33.7365Z" fill="white"/>
<path d="M38.0005 92.6317L35.4995 95.6322L38.9995 98.1312L41.9995 100.131L45.4995 95.1312L46.9995 91.1312L48.9995 85.1312L50.4995 80.1312L43.4995 76.1312L41.9995 82.6312L40.9995 87.1312L38.0005 92.6317Z" fill="white"/>
<path d="M48.2953 81.7447C47.8525 84.2399 47.2361 86.7005 46.4504 89.1088C45.0743 93.267 43.2641 96.7431 41.0803 99.461L42.3811 100.276C45.1662 97.384 47.433 93.3858 49.078 88.411C49.8644 86.0029 50.4815 83.5424 50.925 81.0473L43.2263 76.6025C43.1696 77.1872 43.0878 77.8895 42.9631 78.6661L48.2953 81.7447Z" fill="#B7C2CE"/>
<path d="M39.3601 64.9488L62.1212 78.0899C62.5472 78.3365 62.8998 78.692 63.1423 79.1196C63.3849 79.5471 63.5085 80.0312 63.5005 80.5214C63.3765 80.416 63.2436 80.3217 63.1031 80.2397L40.342 67.0985C39.708 66.7327 38.9555 66.6323 38.2499 66.8195C37.5442 67.0066 36.9432 67.4659 36.579 68.0964L35.2459 70.4054C35.0126 70.8083 34.8869 71.2645 34.8805 71.7306C34.3849 71.314 34.0512 70.7375 33.9379 70.102C33.8245 69.4665 33.9387 68.8125 34.2605 68.2545L35.5936 65.9455C35.7741 65.6329 36.0147 65.3592 36.3017 65.1399C36.5887 64.9207 36.9164 64.7602 37.2662 64.6676C37.616 64.575 37.981 64.5522 38.3403 64.6005C38.6995 64.6487 39.0461 64.7671 39.3601 64.9488Z" fill="white"/>
<path d="M51.1168 29.2337L86.1744 49.4742C87.0563 49.9834 87.4935 51.0006 87.4157 52.0901L52.6792 32.035C51.3591 31.2728 49.5496 31.9357 48.6376 33.5153L39.8525 48.7315C39.6252 49.1238 39.4694 49.5534 39.3926 50.0005L38.1556 49.2863C37.6211 48.3618 37.6317 47.0637 38.2871 45.9285L47.0722 30.7123C47.9866 29.1341 49.7961 28.4712 51.1168 29.2337Z" fill="#EBEEF1"/>
<path d="M71.207 15.5793C71.5365 15.6169 71.8549 15.7221 72.1422 15.8882C72.4197 16.0502 72.6626 16.2651 72.8572 16.5205C73.0518 16.7758 73.1943 17.0667 73.2764 17.3764C73.3586 17.6862 73.3788 18.0088 73.336 18.3258C73.2932 18.6428 73.1882 18.948 73.0269 19.224L63.2155 36.2179L61.5451 35.2535L71.3566 18.2596C71.5957 17.8479 71.7089 17.3751 71.6823 16.899C71.6557 16.4229 71.4906 15.9643 71.207 15.5793Z" fill="#B7C2CE"/>
<path d="M45.1373 77.7046L43.2284 76.6025C42.8257 80.9219 40.7157 91.2867 35.3458 95.5579L37.0712 96.8028C42.5772 92.6247 44.7306 82.0732 45.1373 77.7046Z" fill="#EBEEF1"/>
<path d="M34.9665 72.5569L57.7276 85.698C58.5066 86.1469 59.431 86.27 60.2979 86.0402C61.1648 85.8105 61.9032 85.2466 62.3513 84.4725L63.6844 82.1635C64.1308 81.3884 64.2499 80.467 64.0157 79.6014C63.7814 78.7358 63.2129 77.9967 62.4349 77.5462L39.6738 64.4051C38.8946 63.9567 37.9703 63.834 37.1036 64.0639C36.2369 64.2938 35.4985 64.8576 35.0503 65.6316L33.7172 67.9406C33.2711 68.7155 33.1521 69.6367 33.3863 70.502C33.6205 71.3674 34.1888 72.1064 34.9665 72.5569ZM61.8064 78.6333C62.2951 78.9161 62.6522 79.3802 62.7995 79.9237C62.9467 80.4673 62.8721 81.0459 62.5919 81.5327L61.2588 83.8417C60.9773 84.3276 60.5137 84.6816 59.9695 84.8259C59.4253 84.9702 58.8449 84.8931 58.3557 84.6115L35.5946 71.4704C35.1061 71.1875 34.7492 70.7234 34.6021 70.18C34.4549 69.6365 34.5296 69.058 34.8098 68.5714L36.1429 66.2623C36.4242 65.7762 36.8879 65.4221 37.4322 65.2777C37.9765 65.1332 38.5569 65.2103 39.0463 65.492L61.8064 78.6333Z" fill="#B7C2CE"/>
<path d="M42.5899 67.5376L57.7439 76.2868C57.8492 76.3478 57.9698 76.3772 58.0912 76.3714C58.2126 76.3656 58.3295 76.3249 58.4279 76.2542C61.8656 73.7892 65.8564 72.1974 70.0564 71.6161C73.2373 71.1766 75.422 71.4815 75.4434 71.485C75.5885 71.5064 75.7363 71.4766 75.8613 71.4009C75.9863 71.3251 76.0808 71.2082 76.1284 71.0701C76.176 70.9321 76.1737 70.7816 76.1221 70.6446C76.0704 70.5075 75.9725 70.3925 75.8453 70.3194L38.7053 48.8766C38.5783 48.8032 38.4298 48.776 38.2854 48.7999C38.141 48.8238 38.0096 48.8972 37.914 49.0074C37.8183 49.1177 37.7643 49.2579 37.7613 49.404C37.7583 49.5501 37.8064 49.6929 37.8974 49.8078C37.9105 49.8242 39.2665 51.5644 40.4778 54.5365C42.0749 58.4645 42.692 62.7166 42.2759 66.9264C42.2634 67.0474 42.2864 67.1696 42.3422 67.2781C42.3979 67.3866 42.484 67.4768 42.5899 67.5376ZM58.0224 74.9984L43.5664 66.6522C43.9267 62.3524 43.2623 58.0239 41.6274 54.0199C41.2397 53.0695 40.7972 52.1421 40.3023 51.2422L72.9987 70.1195C71.9719 70.1406 70.9475 70.2212 69.9306 70.3608C65.6454 70.9465 61.5643 72.5352 58.0206 74.9974L58.0224 74.9984Z" fill="#B7C2CE"/>
<path d="M38.0858 49.9681L75.2125 71.4032C75.3086 71.4587 75.4175 71.4881 75.5284 71.4882C76.8666 71.4888 78.1638 70.6815 78.9141 69.382L87.6992 54.1658C88.7827 52.2891 88.3472 50.0017 86.7278 49.0667L51.6685 28.8252C50.0491 27.8902 47.8503 28.6569 46.7668 30.5335L37.9817 45.7498C37.2312 47.0498 37.181 48.5762 37.8506 49.7349C37.9068 49.8321 37.988 49.9126 38.0858 49.9681ZM75.684 70.2263L38.8693 48.9713C38.5124 48.2242 38.588 47.2269 39.0761 46.3816L47.8612 31.1653C48.5989 29.8877 50.0261 29.3261 51.0428 29.9131L86.1003 50.1536C87.1163 50.7418 87.3436 52.2586 86.6059 53.5362L77.8208 68.7525C77.3335 69.5966 76.5076 70.1608 75.6822 70.2252L75.684 70.2263Z" fill="#B7C2CE"/>
<path d="M74.8422 43.6552L79.0582 46.0892C79.2031 46.1729 79.3751 46.1959 79.5364 46.1531C79.6977 46.1103 79.835 46.0053 79.9182 45.8612L89.7297 28.8673C89.9299 28.5206 90.0594 28.1376 90.111 27.7402C90.1626 27.3428 90.1351 26.9388 90.0302 26.5514C89.9253 26.1639 89.745 25.8004 89.4996 25.4818C89.2542 25.1632 88.9485 24.8956 88.5999 24.6944C88.2513 24.4931 87.8668 24.3622 87.4681 24.3089C87.0695 24.2557 86.6646 24.2813 86.2766 24.3842C85.8885 24.4871 85.525 24.6653 85.2066 24.9086C84.8883 25.152 84.6214 25.4557 84.4212 25.8024L74.6097 42.7963C74.5265 42.9405 74.5043 43.1119 74.5479 43.273C74.5915 43.434 74.6974 43.5715 74.8422 43.6552ZM79.1395 44.687L76.016 42.8837L85.5137 26.4332C85.6315 26.2292 85.7885 26.0505 85.9758 25.9073C86.1631 25.7641 86.3771 25.6593 86.6054 25.5987C86.8337 25.5382 87.0719 25.5231 87.3065 25.5545C87.541 25.5858 87.7673 25.6628 87.9724 25.7813C88.1775 25.8997 88.3574 26.0571 88.5018 26.2446C88.6462 26.432 88.7522 26.6459 88.814 26.8739C88.8757 27.1019 88.8919 27.3395 88.8615 27.5734C88.8312 27.8072 88.7549 28.0325 88.6371 28.2365L79.1395 44.687Z" fill="#B7C2CE"/>
<path d="M58.6026 34.2794L62.8149 36.7114C62.9598 36.795 63.1318 36.818 63.2931 36.7752C63.4543 36.7325 63.5917 36.6275 63.6749 36.4833L73.4863 19.4895C73.6938 19.1425 73.8298 18.7575 73.8864 18.3569C73.943 17.9563 73.9192 17.5481 73.8162 17.1561C73.7133 16.7641 73.5332 16.396 73.2867 16.0734C73.0401 15.7508 72.7319 15.48 72.3799 15.2768C72.028 15.0736 71.6394 14.9421 71.2367 14.8898C70.834 14.8376 70.4252 14.8657 70.0343 14.9726C69.6433 15.0794 69.2779 15.2629 68.9593 15.5122C68.6407 15.7615 68.3752 16.0718 68.1784 16.425L58.367 33.4188C58.3257 33.4905 58.299 33.5696 58.2884 33.6517C58.2779 33.7338 58.2837 33.8172 58.3056 33.8972C58.3275 33.9771 58.365 34.0521 58.416 34.1177C58.4669 34.1833 58.5304 34.2382 58.6026 34.2794ZM62.8992 35.3109L59.7763 33.5079L69.274 17.0575C69.3892 16.8486 69.5451 16.6648 69.7326 16.517C69.9201 16.3693 70.1354 16.2604 70.366 16.1968C70.5965 16.1332 70.8377 16.1162 71.0754 16.1468C71.313 16.1773 71.5424 16.2548 71.7501 16.3747C71.9578 16.4946 72.1396 16.6545 72.2849 16.8451C72.4301 17.0356 72.536 17.253 72.5962 17.4845C72.6564 17.7159 72.6698 17.9568 72.6356 18.1931C72.6014 18.4294 72.5202 18.6562 72.3968 18.8604L62.8992 35.3109Z" fill="#B7C2CE"/>
<path d="M51.55 81.1584C51.102 83.6824 50.4765 86.1711 49.678 88.606C48.0349 93.5749 45.7756 97.5939 43 100.539L41.9007 99.863C44.6313 97.0377 46.858 93.1099 48.4797 88.2104C49.2137 85.9709 49.7968 83.6844 50.2251 81.3661L43.747 77.6259C43.405 80.363 42.5955 84.2069 41.2068 87.7728C40.3023 90.0949 39.2438 92.0642 38.0613 93.626C37.3739 94.5329 36.6419 95.305 35.8702 95.9384L34.8601 95.1313C37.3323 93.2052 39.0061 89.9595 40.038 87.3105C41.552 83.4225 42.3561 79.1955 42.6039 76.536C42.6137 76.4313 42.6497 76.3308 42.7087 76.2437C42.7676 76.1567 42.8476 76.0859 42.9413 76.0379C43.035 75.9899 43.1394 75.9662 43.2449 75.969C43.3504 75.9717 43.4537 76.0009 43.5452 76.0538L51.2451 80.4993C51.3578 80.5646 51.4476 80.6631 51.5022 80.7811C51.5568 80.8991 51.5735 81.0309 51.55 81.1584Z" fill="#B7C2CE"/>
<path d="M57.253 42.7698L72.5794 51.6185C72.7243 51.7022 72.8963 51.7251 73.0576 51.6824C73.2189 51.6396 73.3562 51.5346 73.4394 51.3905C73.5226 51.2464 73.5449 51.0749 73.5013 50.9138C73.4577 50.7528 73.3518 50.6153 73.2069 50.5317L57.8805 41.6829C57.7356 41.5993 57.5636 41.5763 57.4023 41.6191C57.241 41.6619 57.1037 41.7669 57.0205 41.911C56.9373 42.0551 56.915 42.2266 56.9586 42.3876C57.0022 42.5487 57.1081 42.6862 57.253 42.7698Z" fill="#B7C2CE"/>
<path d="M55.4717 45.8554L70.7982 54.7041C70.943 54.7877 71.115 54.8107 71.2763 54.7679C71.4376 54.7252 71.575 54.6202 71.6582 54.4761C71.7414 54.3319 71.7636 54.1605 71.72 53.9994C71.6764 53.8384 71.5705 53.7009 71.4257 53.6172L56.0992 44.7685C55.9544 44.6849 55.7824 44.6619 55.6211 44.7047C55.4598 44.7474 55.3224 44.8524 55.2392 44.9966C55.156 45.1407 55.1338 45.3122 55.1774 45.4732C55.221 45.6343 55.3269 45.7717 55.4717 45.8554Z" fill="#B7C2CE"/>
<path d="M53.825 48.7074L69.1514 57.5562C69.2963 57.6398 69.4683 57.6628 69.6296 57.62C69.7909 57.5772 69.9282 57.4722 70.0114 57.3281C70.0947 57.184 70.1169 57.0125 70.0733 56.8515C70.0297 56.6904 69.9238 56.5529 69.7789 56.4693L54.4525 47.6206C54.3076 47.5369 54.1356 47.514 53.9743 47.5567C53.8131 47.5995 53.6757 47.7045 53.5925 47.8486C53.5093 47.9927 53.487 48.1642 53.5306 48.3253C53.5742 48.4863 53.6801 48.6238 53.825 48.7074Z" fill="#B7C2CE"/>
<circle r="3.5" transform="matrix(1 0 0 -1 15.5 82.1315)" fill="#EBEEF1"/>
<circle r="2" transform="matrix(1 0 0 -1 20 39.6315)" fill="#EBEEF1"/>
<circle r="2" transform="matrix(1 0 0 -1 103 33.6315)" fill="#EBEEF1"/>
<circle r="3" transform="matrix(1 0 0 -1 107 42.6315)" fill="#EBEEF1"/>
<mask id="path-31-inside-1_7746_94536" fill="white">
<path fill-rule="evenodd" clip-rule="evenodd" d="M87.6218 90.9101C84.3463 93.2528 80.3341 94.6315 76 94.6315C64.9543 94.6315 56 85.6772 56 74.6315C56 63.5858 64.9543 54.6315 76 54.6315C87.0457 54.6315 96 63.5858 96 74.6315C96 78.8148 94.7157 82.6981 92.5198 85.9086L104.445 97.8343C105.812 99.2011 105.812 101.417 104.445 102.784C103.079 104.151 100.863 104.151 99.4957 102.784L87.6218 90.9101ZM89 74.6315C89 81.8112 83.1797 87.6315 76 87.6315C68.8203 87.6315 63 81.8112 63 74.6315C63 67.4518 68.8203 61.6315 76 61.6315C83.1797 61.6315 89 67.4518 89 74.6315Z"/>
</mask>
<path fill-rule="evenodd" clip-rule="evenodd" d="M87.6218 90.9101C84.3463 93.2528 80.3341 94.6315 76 94.6315C64.9543 94.6315 56 85.6772 56 74.6315C56 63.5858 64.9543 54.6315 76 54.6315C87.0457 54.6315 96 63.5858 96 74.6315C96 78.8148 94.7157 82.6981 92.5198 85.9086L104.445 97.8343C105.812 99.2011 105.812 101.417 104.445 102.784C103.079 104.151 100.863 104.151 99.4957 102.784L87.6218 90.9101ZM89 74.6315C89 81.8112 83.1797 87.6315 76 87.6315C68.8203 87.6315 63 81.8112 63 74.6315C63 67.4518 68.8203 61.6315 76 61.6315C83.1797 61.6315 89 67.4518 89 74.6315Z" fill="#DDE2E8"/>
<path d="M87.6218 90.9101L88.3289 90.203L87.7295 89.6037L87.0401 90.0968L87.6218 90.9101ZM92.5198 85.9086L91.6944 85.3441L91.2259 86.029L91.8127 86.6157L92.5198 85.9086ZM76 95.6315C80.5496 95.6315 84.7639 94.1836 88.2036 91.7235L87.0401 90.0968C83.9286 92.3221 80.1187 93.6315 76 93.6315V95.6315ZM55 74.6315C55 86.2294 64.402 95.6315 76 95.6315V93.6315C65.5066 93.6315 57 85.1249 57 74.6315H55ZM76 53.6315C64.402 53.6315 55 63.0335 55 74.6315H57C57 64.1381 65.5066 55.6315 76 55.6315V53.6315ZM97 74.6315C97 63.0335 87.598 53.6315 76 53.6315V55.6315C86.4934 55.6315 95 64.1381 95 74.6315H97ZM93.3452 86.4732C95.6512 83.1016 97 79.0226 97 74.6315H95C95 78.607 93.7801 82.2945 91.6944 85.3441L93.3452 86.4732ZM91.8127 86.6157L103.738 98.5414L105.153 97.1272L93.2269 85.2015L91.8127 86.6157ZM103.738 98.5414C104.715 99.5177 104.715 101.101 103.738 102.077L105.153 103.491C106.91 101.734 106.91 98.8845 105.153 97.1272L103.738 98.5414ZM103.738 102.077C102.762 103.053 101.179 103.053 100.203 102.077L98.7886 103.491C100.546 105.248 103.395 105.248 105.153 103.491L103.738 102.077ZM100.203 102.077L88.3289 90.203L86.9147 91.6173L98.7886 103.491L100.203 102.077ZM76 88.6315C83.732 88.6315 90 82.3635 90 74.6315H88C88 81.2589 82.6274 86.6315 76 86.6315V88.6315ZM62 74.6315C62 82.3635 68.268 88.6315 76 88.6315V86.6315C69.3726 86.6315 64 81.2589 64 74.6315H62ZM76 60.6315C68.268 60.6315 62 66.8995 62 74.6315H64C64 68.0041 69.3726 62.6315 76 62.6315V60.6315ZM90 74.6315C90 66.8995 83.732 60.6315 76 60.6315V62.6315C82.6274 62.6315 88 68.0041 88 74.6315H90Z" fill="#778DA8" mask="url(#path-31-inside-1_7746_94536)"/>
<circle cx="76" cy="74.6315" r="13" fill="white"/>
<path d="M75.3859 69.2995C74.8726 69.2995 74.3812 69.3655 73.9119 69.4975C73.4426 69.6148 72.9512 69.8128 72.4379 70.0915L71.6899 68.0455C72.2326 67.7375 72.8486 67.4955 73.5379 67.3195C74.2419 67.1288 74.9606 67.0335 75.6939 67.0335C76.5739 67.0335 77.2999 67.1581 77.8719 67.4075C78.4439 67.6421 78.8986 67.9428 79.2359 68.3095C79.5732 68.6761 79.8079 69.0795 79.9399 69.5195C80.0719 69.9595 80.1379 70.3848 80.1379 70.7955C80.1379 71.2941 80.0426 71.7415 79.8519 72.1375C79.6759 72.5335 79.4486 72.9001 79.1699 73.2375C78.8912 73.5748 78.5906 73.8975 78.2679 74.2055C77.9452 74.4988 77.6446 74.8068 77.3659 75.1295C77.0872 75.4375 76.8526 75.7675 76.6619 76.1195C76.4859 76.4715 76.3979 76.8675 76.3979 77.3075C76.3979 77.3808 76.3979 77.4688 76.3979 77.5715C76.3979 77.6595 76.4052 77.7475 76.4199 77.8355H74.1319C74.1026 77.6888 74.0806 77.5348 74.0659 77.3735C74.0512 77.1975 74.0439 77.0361 74.0439 76.8895C74.0439 76.4055 74.1246 75.9728 74.2859 75.5915C74.4472 75.2101 74.6526 74.8581 74.9019 74.5355C75.1512 74.2128 75.4152 73.9121 75.6939 73.6335C75.9872 73.3548 76.2586 73.0761 76.5079 72.7975C76.7572 72.5188 76.9626 72.2328 77.1239 71.9395C77.2852 71.6461 77.3659 71.3235 77.3659 70.9715C77.3659 70.4875 77.1972 70.0915 76.8599 69.7835C76.5372 69.4608 76.0459 69.2995 75.3859 69.2995ZM77.1019 81.1795C77.1019 81.6928 76.9332 82.1108 76.5959 82.4335C76.2586 82.7561 75.8406 82.9175 75.3419 82.9175C74.8579 82.9175 74.4399 82.7561 74.0879 82.4335C73.7506 82.1108 73.5819 81.6928 73.5819 81.1795C73.5819 80.6661 73.7506 80.2481 74.0879 79.9255C74.4399 79.5881 74.8579 79.4195 75.3419 79.4195C75.8406 79.4195 76.2586 79.5881 76.5959 79.9255C76.9332 80.2481 77.1019 80.6661 77.1019 81.1795Z" fill="#778DA8"/>
</svg>
