<svg width="124" height="124" fill="none" xmlns="http://www.w3.org/2000/svg">
  <circle cx="62.5" cy="62.1" r="43" fill="#EBEEF1" stroke="#B7C2CE"/>
  <path fill="#EBEEF1" d="M39.4 65 62 78c1.3.9 1.8 2.5 1 3.8l-1.3 2.4a2.8 2.8 0 0 1-3.8 1L35.3 72a2.8 2.8 0 0 1-1-3.7l1.3-2.4a2.8 2.8 0 0 1 3.8-1Z"/>
  <path fill="#B7C2CE" d="M56.2 82.2a2.8 2.8 0 0 0 3.8-1l1.3-2.3.4-1 .4.2a2.8 2.8 0 0 1 1.4 2.7c0 .4-.2.7-.4 1l-1.3 2.4a2.7 2.7 0 0 1-3.8 1L35.3 72a2.8 2.8 0 0 1-1.4-2.7l22.3 13Z"/>
  <path fill="#fff" d="M42.9 67c1-10.5-4.5-17.6-4.5-17.6L75.5 71s-8.8-1.3-17.4 4.8L42.9 67Z"/>
  <path fill="#EBEEF1" d="M40.3 50.5s5.6 7 4.5 17.6L43 67c1-10.5-4.5-17.6-4.5-17.6l1.9 1.1Z"/>
  <path fill="#B7C2CE" d="M55.3 73.9a26.4 26.4 0 0 1 16.8-5l3.4 2s-8.8-1.3-17.4 4.8L42.9 67v-.3l12.4 7.2Z"/>
  <path fill="#fff" d="m51.1 29.2 35 20.3c1.4.7 1.7 2.6.8 4.2L78.1 69a3.4 3.4 0 0 1-2.8 1.8L38.2 49.3c-.6-1-.6-2.2 0-3.4l8.9-15.2c.9-1.6 2.7-2.2 4-1.5Z"/>
  <path fill="#B7C2CE" d="M73.5 67.8c1 0 2.2-.7 2.8-1.8l8.8-15.2c.3-.5.5-1 .5-1.7l.6.4c1.3.7 1.6 2.6.7 4.2L78.1 69a3.4 3.4 0 0 1-2.8 1.8L38.2 49.3c-.4-.6-.5-1.3-.4-2.1l35.7 20.6Z"/>
  <path fill="#fff" d="m75.2 43.1 9.8-17a2.4 2.4 0 0 1 3.3-.9 2.4 2.4 0 0 1 .9 3.4l-9.8 17-4.2-2.5Z"/>
  <path fill="#B7C2CE" d="M87.4 25a2.4 2.4 0 0 1 2 2.7c0 .3 0 .6-.2.9l-9.8 17-1.7-1 9.8-17a2.4 2.4 0 0 0-.1-2.7Z"/>
  <path fill="#fff" d="m59 33.7 9.7-17a2.4 2.4 0 0 1 3.4-.9 2.4 2.4 0 0 1 .8 3.4l-9.8 17-4.2-2.5ZM38 92.6l-2.5 3 3.5 2.5 3 2 3.5-5 1.5-4 2-6 1.5-5-7-4-1.5 6.5-1 4.5-3 5.5Z"/>
  <path fill="#B7C2CE" d="M48.3 81.7c-.4 2.5-1 5-1.8 7.4A33 33 0 0 1 41 99.5l1.3.8A31 31 0 0 0 49 88.4a47 47 0 0 0 1.8-7.4l-7.7-4.4-.2 2 5.3 3.1Z"/>
  <path fill="#fff" d="M39.4 65 62 78a2.8 2.8 0 0 1 1.4 2.5l-.4-.3-22.8-13.1a2.8 2.8 0 0 0-3.7 1l-1.4 2.3a3 3 0 0 0-.3 1.3 2.8 2.8 0 0 1-.6-3.4l1.3-2.4a2.7 2.7 0 0 1 3.8-1Z"/>
  <path fill="#EBEEF1" d="m51.1 29.2 35 20.3c1 .5 1.4 1.5 1.3 2.6L52.7 32c-1.3-.8-3.2-.2-4 1.4l-8.8 15.2c-.3.4-.4.9-.5 1.3l-1.2-.7c-.6-1-.6-2.2 0-3.4l8.9-15.2c.9-1.6 2.7-2.2 4-1.5Z"/>
  <path fill="#B7C2CE" d="M71.2 15.6a2.4 2.4 0 0 1 2.1 2.7l-.3 1-9.8 17-1.7-1 9.9-17a2.4 2.4 0 0 0-.2-2.7Z"/>
  <path fill="#EBEEF1" d="m45.1 77.7-1.9-1.1c-.4 4.3-2.5 14.7-7.9 19l1.8 1.2c5.5-4.2 7.6-14.7 8-19.1Z"/>
  <path fill="#B7C2CE" d="m35 72.6 22.7 13.1a3.4 3.4 0 0 0 4.7-1.2l1.3-2.3a3.4 3.4 0 0 0-1.3-4.7l-22.7-13a3.4 3.4 0 0 0-4.6 1.1L33.7 68a3.4 3.4 0 0 0 1.3 4.7Zm26.8 6a2.1 2.1 0 0 1 .8 3l-1.3 2.2a2.1 2.1 0 0 1-3 .8L35.7 71.5a2.1 2.1 0 0 1-.8-3l1.3-2.2a2.1 2.1 0 0 1 3-.8l22.7 13.1Z"/>
  <path fill="#B7C2CE" d="m42.6 67.5 15.1 8.8a.6.6 0 0 0 .7 0A26 26 0 0 1 76 71.4a.6.6 0 0 0 0-1L38.6 48.8a.6.6 0 0 0-.8.1.6.6 0 0 0 0 .8s1.4 1.8 2.6 4.7a26 26 0 0 1 1.8 12.8l.3.2ZM58 75l-14.4-8.3a27.4 27.4 0 0 0-3.3-15.5l32.7 19A26.6 26.6 0 0 0 58 75Z"/>
  <path fill="#B7C2CE" d="m38 50 37.2 21.4h.3a4 4 0 0 0 3.4-2l8.8-15.2c1-2 .6-4.2-1-5.1l-35-20.3c-1.7-1-3.8-.1-5 1.7L38 45.7a4 4 0 0 0-.1 4c0 .1 0 .2.2.3Zm37.7 20.2L38.9 49c-.4-.8-.3-1.8.2-2.6l8.8-15.2c.7-1.3 2.1-1.9 3.1-1.3l35.1 20.3c1 .5 1.2 2 .5 3.3l-8.8 15.3c-.5.8-1.3 1.4-2.1 1.4Z"/>
  <path fill="#B7C2CE" d="m74.8 43.7 4.3 2.4a.6.6 0 0 0 .8-.2l9.8-17a3 3 0 0 0-1.1-4.2 3 3 0 0 0-4.2 1.1l-9.8 17a.6.6 0 0 0 .2.9Zm4.3 1-3-1.8 9.4-16.5a1.8 1.8 0 0 1 2.5-.6 1.8 1.8 0 0 1 .6 2.4l-9.5 16.5ZM58.6 34.3l4.2 2.4a.6.6 0 0 0 .9-.2l9.8-17a3 3 0 0 0-.2-3.4 3 3 0 0 0-5.1.3l-9.8 17a.6.6 0 0 0 .2.9Zm4.3 1-3.1-1.8 9.5-16.4a1.8 1.8 0 0 1 2.5-.7 1.8 1.8 0 0 1 .6 2.5l-9.5 16.4ZM51.5 81.2c-.4 2.5-1 5-1.8 7.4-1.7 5-4 9-6.7 12l-1.1-.7c2.7-2.9 5-6.8 6.6-11.7a52 52 0 0 0 1.7-6.8l-6.5-3.8c-.3 2.8-1.1 6.6-2.5 10.2a26 26 0 0 1-3.1 5.8c-.7 1-1.5 1.7-2.2 2.3l-1-.8c2.4-1.9 4.1-5.1 5.1-7.8a43 43 0 0 0 2.7-11 .6.6 0 0 1 .8-.2l7.7 4.4a.6.6 0 0 1 .3.7Zm5.8-38.4 15.3 8.8a.6.6 0 0 0 .8-.2.6.6 0 0 0-.2-.9L58 41.7a.6.6 0 0 0-.9.2.6.6 0 0 0 .3.9Zm-1.8 3.1 15.3 8.8a.6.6 0 0 0 .9-.2.6.6 0 0 0-.3-.9l-15.3-8.8a.6.6 0 0 0-.9.2.6.6 0 0 0 .3.9Zm-1.7 2.8 15.4 8.9a.6.6 0 0 0 .8-.3.6.6 0 0 0-.2-.8l-15.3-8.9a.6.6 0 0 0-1 .2.6.6 0 0 0 .3 1Z"/>
  <circle r="3.5" fill="#EBEEF1" transform="matrix(1 0 0 -1 15.5 82.1)"/>
  <circle r="2" fill="#EBEEF1" transform="matrix(1 0 0 -1 20 39.6)"/>
  <circle r="2" fill="#EBEEF1" transform="matrix(1 0 0 -1 103 33.6)"/>
  <circle r="3" fill="#EBEEF1" transform="matrix(1 0 0 -1 107 42.6)"/>
  <mask id="a" fill="#fff">
    <path fill-rule="evenodd" d="M87.6 91a20 20 0 1 1 4.9-5l12 11.8a3.5 3.5 0 1 1-5 5L87.6 90.9ZM89 74.5a13 13 0 1 1-26 0 13 13 0 0 1 26 0Z" clip-rule="evenodd"/>
  </mask>
  <path fill="#DDE2E8" fill-rule="evenodd" d="M87.6 91a20 20 0 1 1 4.9-5l12 11.8a3.5 3.5 0 1 1-5 5L87.6 90.9ZM89 74.5a13 13 0 1 1-26 0 13 13 0 0 1 26 0Z" clip-rule="evenodd"/>
  <path fill="#778DA8" d="m87.6 91 .7-.8-.6-.6-.7.5.6.8Zm5-5-1-.7-.4.7.6.6.7-.7ZM76 95.5a21 21 0 0 0 12.2-3.9L87 90.1a19 19 0 0 1-11 3.5v2Zm-21-21a21 21 0 0 0 21 21v-2a19 19 0 0 1-19-19h-2Zm21-21a21 21 0 0 0-21 21h2a19 19 0 0 1 19-19v-2Zm21 21a21 21 0 0 0-21-21v2a19 19 0 0 1 19 19h2Zm-3.7 11.9A21 21 0 0 0 97 74.6h-2c0 4-1.2 7.7-3.3 10.7l1.6 1.2Zm-1.5.1 12 12 1.4-1.5-12-11.9-1.4 1.4Zm12 12c1 1 1 2.5 0 3.5l1.4 1.4a4.5 4.5 0 0 0 0-6.4l-1.5 1.4Zm0 3.5c-1 1-2.6 1-3.6 0l-1.4 1.4a4.5 4.5 0 0 0 6.4 0l-1.5-1.4Zm-3.6 0L88.3 90.2 87 91.6l11.9 11.9 1.4-1.4ZM76 88.6a14 14 0 0 0 14-14h-2a12 12 0 0 1-12 12v2Zm-14-14a14 14 0 0 0 14 14v-2a12 12 0 0 1-12-12h-2Zm14-14a14 14 0 0 0-14 14h2a12 12 0 0 1 12-12v-2Zm14 14a14 14 0 0 0-14-14v2a12 12 0 0 1 12 12h2Z" mask="url(#a)"/>
  <circle cx="76" cy="74.6" r="13" fill="#fff"/>
  <path fill="#778DA8" d="M75.4 69.3c-.5 0-1 0-1.5.2l-1.5.6-.7-2a5 5 0 0 1 1.8-.8c.7-.2 1.5-.3 2.2-.3.9 0 1.6.2 2.2.4.5.2 1 .5 1.3 1 .4.3.6.7.7 1.1.2.5.2.9.2 1.3 0 .5 0 1-.2 1.3l-.7 1.1-1 1a10.7 10.7 0 0 0-1.5 2 2 2 0 0 0-.3 1.1v.5h-2.3a4.4 4.4 0 0 1 .2-2.2c.1-.4.4-.7.6-1l.8-1 .8-.8.6-.9a1.6 1.6 0 0 0-.2-2.1c-.4-.3-.9-.5-1.5-.5ZM77 81.2c0 .5-.2 1-.5 1.2-.3.4-.8.5-1.3.5-.4 0-.9-.1-1.2-.5-.3-.3-.5-.7-.5-1.2s.2-1 .5-1.3c.3-.3.8-.5 1.2-.5.5 0 1 .2 1.3.5.3.3.5.8.5 1.3Z"/>
</svg>
