<svg width="402" height="155" viewBox="0 0 402 155" fill="none" xmlns="http://www.w3.org/2000/svg">
<g clip-path="url(#clip0)">
<path d="M343.072 62.8936L300.759 91.5973L302.702 94.4452L345.016 65.7415L343.072 62.8936Z" fill="#098FED"/>
<path d="M293.005 116.276L296.459 118.607V104.255L293.005 101.925V116.276Z" fill="#098FED"/>
<path d="M304.519 124.044L307.973 126.373V112.022L304.519 109.692V124.044Z" fill="#098FED"/>
<path fill-rule="evenodd" clip-rule="evenodd" d="M322.906 48.8037L278 78.6697L278.032 78.6909H278.014V123.494V123.511H278.039L322.942 154.408L367.735 123.511H367.789V78.6909H367.778L367.809 78.6697L322.906 48.8037ZM322.906 52.9445L284.226 78.6697L322.906 104.395L361.583 78.6697L322.906 52.9445ZM364.335 80.9808L324.631 107.387V149.053L364.335 121.668V80.9808ZM321.177 107.387V149.008L281.468 121.686V80.9763L321.177 107.387Z" fill="#2285EE"/>
<path d="M101.257 84L112 68.3671L108.743 66L98 81.6326L101.257 84Z" fill="#098FED"/>
<path d="M114.49 93L126 77.3671L122.51 75L111 90.6326L114.49 93Z" fill="#098FED"/>
<path fill-rule="evenodd" clip-rule="evenodd" d="M90.2777 106.038C85.6179 101.42 84.8527 94.0274 88.7924 88.5215L97.0369 77L120 93.026L111.755 104.547C107.602 110.353 99.7001 111.989 93.5822 108.518C91.1055 111.693 89.3141 114.985 87.7314 118.287C87.1546 119.489 86.5916 120.725 86.0276 121.965L86.015 121.993L86.008 122.008C84.9516 124.329 83.8902 126.659 82.7217 128.798C80.8734 132.182 78.6198 135.377 75.2975 138.04C71.9686 140.706 67.681 142.749 61.8869 144L61 139.996C66.2721 138.857 69.9383 137.056 72.6828 134.857C75.4339 132.652 77.3733 129.957 79.0696 126.852C80.1814 124.818 81.1331 122.722 82.1473 120.491L82.152 120.481C82.7278 119.214 83.3239 117.903 83.9807 116.533C85.6202 113.112 87.5524 109.537 90.2777 106.038ZM92.1814 90.8868L98.0312 82.7121L114.216 94.0077L108.367 102.182C105.28 106.495 99.2378 107.521 94.8706 104.473L94.5007 104.215C90.1334 101.167 89.095 95.1995 92.1814 90.8868Z" fill="#2285EE"/>
<path d="M2.4578 130C1.65658 129.883 0.83778 129.789 0 129.715L0.333525 125C1.24132 125.08 2.1298 125.183 3 125.309L2.4578 130Z" fill="#2285EE"/>
<path d="M17.3047 134C14.1444 132.44 10.7717 131.073 7 130.139L7.91411 126C12.0203 127.017 15.6587 128.498 19 130.146L17.3047 134Z" fill="#2285EE"/>
<path d="M26.1201 138.274L25 137.652L26.9896 134L27.8372 134.47C36.0726 139.042 42.9237 142.847 52.4657 141.593L53 145.724C42.0896 147.16 34.1425 142.739 26.1201 138.274Z" fill="#2285EE"/>
<path d="M198 99.1172L200.482 96.6416L207.013 103.154L213.544 96.6416L216.026 99.1172L209.496 105.629L216.026 112.142L213.544 114.617L207.013 108.105L200.482 114.617L198 112.142L204.531 105.629L198 99.1172Z" fill="#F14747"/>
<path fill-rule="evenodd" clip-rule="evenodd" d="M383.785 37.8888H355V34.4443H383.785V37.8888Z" fill="#D0E9FB"/>
<path fill-rule="evenodd" clip-rule="evenodd" d="M396.45 37.8888H388.39V34.4443H396.45V37.8888Z" fill="#D0E9FB"/>
<path fill-rule="evenodd" clip-rule="evenodd" d="M402.207 37.8888H398.753V34.4443H402.207V37.8888Z" fill="#D0E9FB"/>
<path fill-rule="evenodd" clip-rule="evenodd" d="M68.7356 27.8888H97.5205V24.4443H68.7356V27.8888Z" fill="#D0E9FB"/>
<path fill-rule="evenodd" clip-rule="evenodd" d="M56.0703 27.8888H64.1301V24.4443H56.0703V27.8888Z" fill="#D0E9FB"/>
<path fill-rule="evenodd" clip-rule="evenodd" d="M50.3134 27.8888H53.7675V24.4443H50.3134V27.8888Z" fill="#D0E9FB"/>
<path fill-rule="evenodd" clip-rule="evenodd" d="M288.271 3.44444H271V0H288.271V3.44444Z" fill="#D0E9FB"/>
<path fill-rule="evenodd" clip-rule="evenodd" d="M294.028 3.44444H290.574V0H294.028V3.44444Z" fill="#D0E9FB"/>
<path fill-rule="evenodd" clip-rule="evenodd" d="M27.2855 61.1852H16.9229V57.7407H27.2855V61.1852Z" fill="#D0E9FB"/>
<path fill-rule="evenodd" clip-rule="evenodd" d="M35.3452 61.1852H31.8911V57.7407H35.3452V61.1852Z" fill="#D0E9FB"/>
</g>
<defs>
<clipPath id="clip0">
<rect width="402" height="155" fill="white"/>
</clipPath>
</defs>
</svg>
