<svg width="207" height="200" viewBox="0 0 207 200" fill="none" xmlns="http://www.w3.org/2000/svg">
    <path d="M104.675 164.161C147.657 164.161 182.5 129.203 182.5 86.0804C182.5 42.9578 147.657 8 104.675 8C61.6932 8 26.8496 42.9578 26.8496 86.0804C26.8496 129.203 61.6932 164.161 104.675 164.161Z" fill="#EAEEF9"/>
    <path d="M92.546 41.4629L153.021 91.9955C156.558 94.8686 157.064 100.108 154.031 103.657L108.381 158.415C105.517 161.964 100.295 162.471 96.7574 159.429L25.5017 99.9387C21.9642 97.0656 21.4588 91.8265 24.491 88.2774L61.0453 44.336L92.546 41.4629Z" fill="#E1EAF2"/>
    <path d="M92.5461 41.4629L81.5967 54.8143C79.7437 57.0114 76.3746 57.3494 74.0163 55.3213L60.877 44.336L92.5461 41.4629Z" fill="#CED7E2"/>
    <g filter="url(#filter0_d_491_9815)">
        <path d="M167.171 112.952L162.117 116.501L101.305 159.598C97.094 162.64 91.1981 161.626 88.3344 157.401L27.6913 71.208C24.6592 66.9828 25.6699 61.0677 29.8812 58.1946L82.7755 20.8444L118.151 26.9286L164.138 92.1646L169.529 99.7699C172.393 104.164 171.382 109.91 167.171 112.952Z" fill="#F0F5FA"/>
    </g>
    <path d="M118.152 26.9287L102.485 38.252C99.7901 40.2801 95.9157 39.6041 93.8943 36.731L82.7764 20.8445H82.9448L118.152 26.9287Z" fill="#CED7E2"/>
    <path d="M167.171 112.952L162.117 116.501V92.1647H163.97L169.361 99.77C172.393 104.164 171.382 109.91 167.171 112.952Z" fill="#CED7E2"/>
    <g filter="url(#filter1_d_491_9815)">
        <path d="M180.985 65.2929L154.369 150.472C152.853 155.373 147.631 158.246 142.746 156.556L65.7626 132.388C60.8775 130.867 58.1823 125.628 59.6983 120.558L91.0306 20.1685C92.5467 15.2673 97.7687 12.3942 102.654 14.0843L164.476 33.3509" fill="#F0F5FA"/>
    </g>
    <path opacity="0.5" d="M168.856 70.194L157.569 106.361C156.896 108.389 154.874 109.572 152.853 108.896L84.6293 87.4326C82.6078 86.7566 81.4286 84.7285 82.1025 82.7004L93.3888 46.5333C94.0626 44.5052 96.0841 43.3222 98.1055 43.9982L166.329 65.4619C168.35 65.9689 169.53 68.166 168.856 70.194Z" fill="#CED7E2"/>
    <path d="M180.985 65.2929L162.455 59.5467C159.255 58.5327 157.402 55.1526 158.412 51.7725L164.14 33.1819H164.308L180.985 65.2929Z" fill="#E6EDF5"/>
    <path d="M155.379 53.8003L134.828 51.7723C131.29 51.4342 128.595 48.2231 129.1 44.505L131.29 23.8864H131.458L155.379 53.8003Z" fill="#CED7E2"/>
    <g filter="url(#filter2_d_491_9815)">
        <path d="M155.379 47.7164V142.866C155.379 148.444 150.999 152.838 145.44 152.838H59.3606C53.8017 152.838 49.4219 148.444 49.4219 142.866V30.4778C49.4219 24.9006 53.9701 20.5065 59.3606 20.5065H128.258L155.379 47.7164Z" fill="white"/>
    </g>
    <path d="M155.379 47.7164L134.66 47.8854C130.954 47.8854 128.09 45.0123 128.09 41.2942V20.5065H128.258L155.379 47.7164Z" fill="#E1EAF2"/>
    <path d="M136.344 99.2628H70.8154C69.2993 99.2628 68.1201 98.0797 68.1201 96.5587V58.7015C68.1201 57.1804 69.2993 55.9974 70.8154 55.9974H136.344C137.86 55.9974 139.039 57.1804 139.039 58.7015V96.3897C139.207 97.9107 137.86 99.2628 136.344 99.2628Z" fill="#E6EDF5"/>
    <path d="M106.022 93.3476H78.7324L92.3771 77.7991L106.022 93.3476Z" fill="#CED7E2"/>
    <path d="M128.764 93.3477H89.3457L109.055 71.039L128.764 93.3477Z" fill="white"/>
    <path d="M89.0082 72.2217C91.8922 72.2217 94.2302 69.8761 94.2302 66.9826C94.2302 64.0891 91.8922 61.7434 89.0082 61.7434C86.1241 61.7434 83.7861 64.0891 83.7861 66.9826C83.7861 69.8761 86.1241 72.2217 89.0082 72.2217Z" fill="#CED7E2"/>
    <path d="M137.692 112.614H70.142C69.1313 112.614 68.2891 111.769 68.2891 110.755C68.2891 109.741 69.1313 108.896 70.142 108.896H137.692C138.702 108.896 139.545 109.741 139.545 110.755C139.545 111.769 138.702 112.614 137.692 112.614Z" fill="#CED7E2"/>
    <path d="M137.692 123.092H70.142C69.1313 123.092 68.2891 122.247 68.2891 121.233C68.2891 120.219 69.1313 119.374 70.142 119.374H137.692C138.702 119.374 139.545 120.219 139.545 121.233C139.545 122.247 138.702 123.092 137.692 123.092Z" fill="#CED7E2"/>
    <path d="M103.496 131.712C103.496 132.726 102.653 133.571 101.643 133.571H70.142C69.1313 133.571 68.2891 132.726 68.2891 131.712C68.2891 130.698 69.1313 129.853 70.142 129.853H101.643C102.653 129.853 103.496 130.698 103.496 131.712Z" fill="#CED7E2"/>
    <path d="M104.843 35.7168H70.142C69.1313 35.7168 68.2891 34.8718 68.2891 33.8577C68.2891 32.8437 69.1313 31.9987 70.142 31.9987H104.843C105.854 31.9987 106.696 32.8437 106.696 33.8577C106.696 34.8718 105.854 35.7168 104.843 35.7168Z" fill="#CED7E2"/>
    <path d="M85.4713 46.1953H70.142C69.1313 46.1953 68.2891 45.3503 68.2891 44.3363C68.2891 43.3222 69.1313 42.4772 70.142 42.4772H85.4713C86.482 42.4772 87.3243 43.3222 87.3243 44.3363C87.1558 45.3503 86.482 46.1953 85.4713 46.1953Z" fill="#CED7E2"/>
    <path d="M117.309 160.274C116.298 162.978 114.445 165.344 111.918 166.696C102.822 171.428 92.8829 162.471 95.7466 152.838H98.6103C95.2412 163.823 108.212 169.062 113.603 161.795C114.95 160.105 114.613 160.105 121.183 138.979C122.868 133.402 117.477 130.529 113.603 132.557C111.076 133.909 111.413 134.585 105.685 152.838C105.517 153.176 105.517 153.514 105.517 153.514C105.18 155.035 106.359 156.387 107.707 156.218C109.223 156.218 109.391 154.19 109.897 152.838C112.423 144.725 112.929 143.204 112.929 143.035C113.603 141.514 116.129 142.021 115.456 144.218C111.581 157.57 111.581 157.57 109.728 158.415C105.517 160.612 101.474 155.711 102.822 152.838C108.717 133.74 108.549 131.881 112.087 130.191C117.645 127.318 123.541 130.698 124.215 136.106C124.384 137.796 124.721 137.289 117.309 160.274Z" fill="url(#paint0_linear_491_9815)"/>
    <g filter="url(#filter3_d_491_9815)">
        <ellipse cx="102.499" cy="82.0001" rx="13.3333" ry="18" fill="#6382FF"/>
    </g>
    <path d="M123.709 81.0104C122.867 70.5321 114.108 61.9128 103.664 61.5748C99.1153 61.4058 94.7355 62.5888 91.198 64.9549C85.4706 68.673 81.7646 75.2642 81.7646 82.5315C81.7646 89.4607 85.1337 95.7139 90.3558 99.601C91.0296 100.108 91.5349 100.784 91.7034 101.629C92.0403 102.981 93.3879 104.502 95.2409 104.502C96.0832 104.502 96.9254 104.164 97.5992 103.657C97.9361 103.319 98.4415 103.319 98.7784 103.488C99.2838 103.657 99.6207 103.995 99.4522 104.671C99.4522 104.84 99.4522 104.84 99.4522 104.84C99.4522 106.023 100.463 107.037 101.642 107.037C102.821 107.037 103.832 106.023 103.832 104.84C103.832 104.333 104.169 103.826 104.843 103.657C116.129 102.305 124.552 92.5028 123.709 81.0104Z" fill="url(#paint1_linear_491_9815)"/>
    <path d="M94.062 111.093C95.0853 111.093 95.9149 110.261 95.9149 109.234C95.9149 108.208 95.0853 107.375 94.062 107.375C93.0386 107.375 92.209 108.208 92.209 109.234C92.209 110.261 93.0386 111.093 94.062 111.093Z" fill="url(#paint2_linear_491_9815)"/>
    <path d="M94.5669 120.558C95.2181 120.558 95.746 120.028 95.746 119.375C95.746 118.721 95.2181 118.191 94.5669 118.191C93.9156 118.191 93.3877 118.721 93.3877 119.375C93.3877 120.028 93.9156 120.558 94.5669 120.558Z" fill="url(#paint3_linear_491_9815)"/>
    <path d="M102.147 113.291C102.984 113.291 103.663 112.61 103.663 111.769C103.663 110.929 102.984 110.248 102.147 110.248C101.31 110.248 100.631 110.929 100.631 111.769C100.631 112.61 101.31 113.291 102.147 113.291Z" fill="url(#paint4_linear_491_9815)"/>
    <path d="M110.739 108.727C111.762 108.727 112.592 107.895 112.592 106.868C112.592 105.841 111.762 105.009 110.739 105.009C109.715 105.009 108.886 105.841 108.886 106.868C108.886 107.895 109.715 108.727 110.739 108.727Z" fill="url(#paint5_linear_491_9815)"/>
    <path d="M107.874 122.079C108.526 122.079 109.054 121.549 109.054 120.896C109.054 120.242 108.526 119.713 107.874 119.713C107.223 119.713 106.695 120.242 106.695 120.896C106.695 121.549 107.223 122.079 107.874 122.079Z" fill="url(#paint6_linear_491_9815)"/>
    <path d="M101.306 126.135C102.05 126.135 102.653 125.529 102.653 124.783C102.653 124.036 102.05 123.431 101.306 123.431C100.561 123.431 99.958 124.036 99.958 124.783C99.958 125.529 100.561 126.135 101.306 126.135Z" fill="url(#paint7_linear_491_9815)"/>
    <path d="M102.822 138.472C103.101 138.472 103.327 138.245 103.327 137.965C103.327 137.685 103.101 137.458 102.822 137.458C102.543 137.458 102.316 137.685 102.316 137.965C102.316 138.245 102.543 138.472 102.822 138.472Z" fill="url(#paint8_linear_491_9815)"/>
    <path d="M99.4526 132.219C99.9178 132.219 100.295 131.841 100.295 131.374C100.295 130.907 99.9178 130.529 99.4526 130.529C98.9874 130.529 98.6104 130.907 98.6104 131.374C98.6104 131.841 98.9874 132.219 99.4526 132.219Z" fill="url(#paint9_linear_491_9815)"/>
    <path d="M91.198 64.7857C94.5671 62.5886 98.4415 61.4056 102.821 61.4056C114.445 61.4056 123.878 70.8699 123.878 82.5313C123.878 94.1926 114.445 103.657 102.821 103.657C91.198 103.657 81.7646 94.1926 81.7646 82.5313C81.7646 75.095 85.4706 68.6728 91.198 64.7857Z" fill="url(#paint10_linear_491_9815)"/>
    <path fill-rule="evenodd" clip-rule="evenodd" d="M102.272 74.8717C100.813 74.8717 99.6637 75.9506 98.7259 76.8601C98.377 77.1985 98.1877 77.7172 98.0102 78.2037C97.9517 78.364 97.8944 78.5208 97.8332 78.6666C97.5228 79.4051 96.6279 79.7696 95.8344 79.4808C95.0408 79.1919 94.7899 78.4034 94.9595 77.6205C95.1663 76.6666 95.7603 75.3836 96.4996 74.6666C97.9952 73.2161 99.9383 71.9999 102.272 71.9999C106.816 71.9999 110.5 75.4286 110.5 79.658C110.5 83.0779 108.091 85.9741 104.767 86.9577C104.224 87.1183 103.814 87.5944 103.814 88.1605V89.2307C103.814 90.0237 103.124 90.6666 102.272 90.6666C101.42 90.6666 100.729 90.0237 100.729 89.2307L100.729 87.9443C100.729 86.0113 102.362 84.5253 104.137 83.759C106.077 82.9211 107.414 81.398 107.414 79.658C107.414 77.0146 105.112 74.8717 102.272 74.8717ZM101.942 97.3331C103.242 97.3331 104.295 96.3499 104.295 95.1371C104.295 93.9242 103.242 92.941 101.942 92.941C100.643 92.941 99.5894 93.9242 99.5894 95.1371C99.5894 96.3499 100.643 97.3331 101.942 97.3331Z" fill="white"/>
    <defs>
        <filter id="filter0_d_491_9815" x="0.271809" y="8.01106" width="196.547" height="191.845" filterUnits="userSpaceOnUse" color-interpolation-filters="sRGB">
            <feFlood flood-opacity="0" result="BackgroundImageFix"/>
            <feColorMatrix in="SourceAlpha" type="matrix" values="0 0 0 0 0 0 0 0 0 0 0 0 0 0 0 0 0 0 127 0" result="hardAlpha"/>
            <feOffset dy="12.8333"/>
            <feGaussianBlur stdDeviation="12.8333"/>
            <feColorMatrix type="matrix" values="0 0 0 0 0.397708 0 0 0 0 0.47749 0 0 0 0 0.575 0 0 0 0.18 0"/>
            <feBlend mode="normal" in2="BackgroundImageFix" result="effect1_dropShadow_491_9815"/>
            <feBlend mode="normal" in="SourceGraphic" in2="effect1_dropShadow_491_9815" result="shape"/>
        </filter>
        <filter id="filter1_d_491_9815" x="33.6097" y="0.763987" width="173.041" height="194.779" filterUnits="userSpaceOnUse" color-interpolation-filters="sRGB">
            <feFlood flood-opacity="0" result="BackgroundImageFix"/>
            <feColorMatrix in="SourceAlpha" type="matrix" values="0 0 0 0 0 0 0 0 0 0 0 0 0 0 0 0 0 0 127 0" result="hardAlpha"/>
            <feOffset dy="12.8333"/>
            <feGaussianBlur stdDeviation="12.8333"/>
            <feColorMatrix type="matrix" values="0 0 0 0 0.397708 0 0 0 0 0.47749 0 0 0 0 0.575 0 0 0 0.18 0"/>
            <feBlend mode="normal" in2="BackgroundImageFix" result="effect1_dropShadow_491_9815"/>
            <feBlend mode="normal" in="SourceGraphic" in2="effect1_dropShadow_491_9815" result="shape"/>
        </filter>
        <filter id="filter2_d_491_9815" x="23.7552" y="7.67317" width="157.29" height="183.664" filterUnits="userSpaceOnUse" color-interpolation-filters="sRGB">
            <feFlood flood-opacity="0" result="BackgroundImageFix"/>
            <feColorMatrix in="SourceAlpha" type="matrix" values="0 0 0 0 0 0 0 0 0 0 0 0 0 0 0 0 0 0 127 0" result="hardAlpha"/>
            <feOffset dy="12.8333"/>
            <feGaussianBlur stdDeviation="12.8333"/>
            <feColorMatrix type="matrix" values="0 0 0 0 0.397708 0 0 0 0 0.47749 0 0 0 0 0.575 0 0 0 0.18 0"/>
            <feBlend mode="normal" in2="BackgroundImageFix" result="effect1_dropShadow_491_9815"/>
            <feBlend mode="normal" in="SourceGraphic" in2="effect1_dropShadow_491_9815" result="shape"/>
        </filter>
        <filter id="filter3_d_491_9815" x="73.9993" y="64.0001" width="57.0003" height="71" filterUnits="userSpaceOnUse" color-interpolation-filters="sRGB">
            <feFlood flood-opacity="0" result="BackgroundImageFix"/>
            <feColorMatrix in="SourceAlpha" type="matrix" values="0 0 0 0 0 0 0 0 0 0 0 0 0 0 0 0 0 0 127 0" result="hardAlpha"/>
            <feOffset dy="19.8333"/>
            <feGaussianBlur stdDeviation="7.58333"/>
            <feColorMatrix type="matrix" values="0 0 0 0 0.1125 0 0 0 0 0.295916 0 0 0 0 1 0 0 0 0.21 0"/>
            <feBlend mode="normal" in2="BackgroundImageFix" result="effect1_dropShadow_491_9815"/>
            <feBlend mode="normal" in="SourceGraphic" in2="effect1_dropShadow_491_9815" result="shape"/>
        </filter>
        <linearGradient id="paint0_linear_491_9815" x1="109.744" y1="129.461" x2="109.744" y2="165.339" gradientUnits="userSpaceOnUse">
            <stop stop-color="#FF66A9"/>
            <stop offset="1" stop-color="#F53689"/>
        </linearGradient>
        <linearGradient id="paint1_linear_491_9815" x1="102.799" y1="61.3979" x2="102.799" y2="106.81" gradientUnits="userSpaceOnUse">
            <stop stop-color="#83A6FF"/>
            <stop offset="1" stop-color="#5A78FF"/>
        </linearGradient>
        <linearGradient id="paint2_linear_491_9815" x1="94.0416" y1="107.387" x2="94.0416" y2="110.982" gradientUnits="userSpaceOnUse">
            <stop stop-color="#83A6FF"/>
            <stop offset="1" stop-color="#5A78FF"/>
        </linearGradient>
        <linearGradient id="paint3_linear_491_9815" x1="94.6481" y1="118.282" x2="94.6481" y2="120.548" gradientUnits="userSpaceOnUse">
            <stop stop-color="#83A6FF"/>
            <stop offset="1" stop-color="#5A78FF"/>
        </linearGradient>
        <linearGradient id="paint4_linear_491_9815" x1="102.224" y1="110.238" x2="102.224" y2="113.281" gradientUnits="userSpaceOnUse">
            <stop stop-color="#83A6FF"/>
            <stop offset="1" stop-color="#5A78FF"/>
        </linearGradient>
        <linearGradient id="paint5_linear_491_9815" x1="110.714" y1="104.886" x2="110.714" y2="108.701" gradientUnits="userSpaceOnUse">
            <stop stop-color="#83A6FF"/>
            <stop offset="1" stop-color="#5A78FF"/>
        </linearGradient>
        <linearGradient id="paint6_linear_491_9815" x1="107.825" y1="119.812" x2="107.825" y2="122.056" gradientUnits="userSpaceOnUse">
            <stop stop-color="#83A6FF"/>
            <stop offset="1" stop-color="#5A78FF"/>
        </linearGradient>
        <linearGradient id="paint7_linear_491_9815" x1="101.225" y1="123.442" x2="101.225" y2="125.98" gradientUnits="userSpaceOnUse">
            <stop stop-color="#83A6FF"/>
            <stop offset="1" stop-color="#5A78FF"/>
        </linearGradient>
        <linearGradient id="paint8_linear_491_9815" x1="102.781" y1="137.343" x2="102.781" y2="138.516" gradientUnits="userSpaceOnUse">
            <stop stop-color="#83A6FF"/>
            <stop offset="1" stop-color="#5A78FF"/>
        </linearGradient>
        <linearGradient id="paint9_linear_491_9815" x1="99.5304" y1="130.61" x2="99.5304" y2="132.167" gradientUnits="userSpaceOnUse">
            <stop stop-color="#83A6FF"/>
            <stop offset="1" stop-color="#5A78FF"/>
        </linearGradient>
        <linearGradient id="paint10_linear_491_9815" x1="102.803" y1="62.4337" x2="102.803" y2="105.148" gradientUnits="userSpaceOnUse">
            <stop stop-color="#83A6FF"/>
            <stop offset="1" stop-color="#5A78FF"/>
        </linearGradient>
    </defs>
</svg>
