<svg width="24" height="24"  viewBox="0 0 24 24" xmlns="http://www.w3.org/2000/svg">
    <path fill-rule="evenodd" clip-rule="evenodd" d="M17.2071 12.2071C17.5976 11.8166 17.5976 11.1834 17.2071 10.7929C16.8166 10.4024 16.1834 10.4024 15.7929 10.7929L13 13.5858V4C13 3.44772 12.5523 3 12 3C11.4477 3 11 3.44772 11 4V13.5858L8.20711 10.7929C7.81658 10.4024 7.18342 10.4024 6.79289 10.7929C6.40237 11.1834 6.40237 11.8166 6.79289 12.2071L11.2929 16.7071C11.4804 16.8946 11.7348 17 12 17C12.2652 17 12.5196 16.8946 12.7071 16.7071L17.2071 12.2071ZM4 19C3.44772 19 3 19.4477 3 20C3 20.5523 3.44772 21 4 21H19C19.5523 21 20 20.5523 20 20C20 19.4477 19.5523 19 19 19H4Z" />
</svg>
